<?xml version="1.0" encoding="utf-8"?>
<!-- Generator: Adobe Illustrator 25.0.0, SVG Export Plug-In . SVG Version: 6.00 Build 0)  -->
<svg version="1.1" id="Layer_1" xmlns="http://www.w3.org/2000/svg" xmlns:xlink="http://www.w3.org/1999/xlink" x="0px" y="0px"
	 viewBox="0 0 400 300" style="enable-background:new 0 0 400 300;" xml:space="preserve">
<style type="text/css">
	.st0{fill:#231F20;}
</style>
<path class="st0" d="M208,166.5c0-0.1-0.1-0.3-0.2-0.4c0,0,0,0,0,0l-3.4-3.4c-0.2-0.2-0.5-0.2-0.7,0c-0.2,0.2-0.2,0.5,0,0.7l2.6,2.6
	h-33.1c-0.3,0-0.5,0.2-0.5,0.5c0,0.3,0.2,0.5,0.5,0.5h33.1l-2.6,2.6c-0.2,0.2-0.2,0.5,0,0.7s0.5,0.2,0.7,0l3.4-3.4c0,0,0,0,0,0
	C207.9,166.8,208,166.6,208,166.5z"/>
</svg>
