<svg xmlns="http://www.w3.org/2000/svg" viewBox="0 0 400 300"><g id="_197_adventure_flatline" data-name="#197_adventure_flatline"><path d="M49.41,263.91l296.07-.45-11-43-16.22-2.53-8.59-17.47s-19.75-15-28.36-15.47-7.59-17.21-13.67-22.27-129-28.29-129-28.29-4.72-6.15-6.24-12.75-24.31-8.59-27.35-11.1-6.58-15.72-10.63-22c-3.26-5-33.43-27-45.07-28.54Z" fill="#fff"/><path d="M49.41,264.41a.51.51,0,0,1-.5-.5V60.08a.52.52,0,0,1,.17-.38.56.56,0,0,1,.4-.12C61.21,61.11,91.67,83.39,94.9,88.35c1.91,3,3.67,7.32,5.37,11.56,1.87,4.64,3.64,9,5.16,10.29,1,.8,4.6,1.65,8.44,2.55,8,1.87,18,4.21,19.07,8.81,1.35,5.86,5.33,11.44,6.05,12.42,7.25,1.37,123,23.32,129,28.35,2.68,2.23,4,6.58,5.32,10.78,1.77,5.72,3.43,11.11,8.06,11.38,8.66.51,27.82,15,28.63,15.57a.65.65,0,0,1,.15.18l8.47,17.24,16,2.49a.49.49,0,0,1,.41.37l11,43a.51.51,0,0,1-.09.43.49.49,0,0,1-.4.2l-296.07.45Zm.5-203.75V263.41L344.84,263,334.1,220.9l-15.9-2.47a.51.51,0,0,1-.37-.28l-8.54-17.36c-1.48-1.12-19.93-14.82-28-15.3-5.32-.31-7.17-6.29-8.95-12.08-1.26-4.07-2.56-8.27-5-10.31-4.73-3.94-86.27-20.15-128.73-28.18a.49.49,0,0,1-.3-.18c-.2-.26-4.81-6.32-6.34-13-.92-4-11-6.35-18.32-8.07-4.31-1-7.71-1.8-8.86-2.75-1.72-1.42-3.44-5.71-5.44-10.69-1.69-4.19-3.43-8.52-5.29-11.38C90.93,84.09,61.84,62.78,49.91,60.66Z" fill="#d1d3d4"/><path d="M105.11,110.58s8.1,65.16,8.1,68.52v26.4l3.21-29.2-6.74-64.67Z" fill="#d1d3d4"/><path d="M113.22,206h0a.5.5,0,0,1-.48-.5V179.1c0-3.29-8-67.8-8.09-68.45a.51.51,0,0,1,.16-.44.47.47,0,0,1,.44-.11l4.57,1a.5.5,0,0,1,.39.44l6.74,64.67v.11l-3.21,29.19A.5.5,0,0,1,113.22,206Zm-7.52-94.77c.92,7.44,8,64.67,8,67.87v17.27l2.21-20.07L109.22,112Z" fill="#d1d3d4"/><path d="M277.05,182.8s6,15.43,7,20.88,8.11,34.69,8.11,34.69-4.35-31-4.86-34.26-3.42-12.66-3.42-12.66,8.49,7.47,9.88,9.24,5.57,14.56,5.57,14.56-3.29-17-5.06-19S281.33,185,281.33,185Z" fill="#d1d3d4"/><path d="M292.13,238.87a.49.49,0,0,1-.48-.38c-.07-.29-7.1-29.32-8.11-34.72s-6.9-20.64-7-20.79a.51.51,0,0,1,.13-.55.51.51,0,0,1,.56-.08l4.29,2.2a.24.24,0,0,1,.09.06c.46.38,11.19,9.29,13,11.32s4.84,17.48,5.18,19.22a.5.5,0,0,1-1,.26c-1.15-3.54-4.39-13-5.48-14.41s-6.05-5.83-8.49-8c.87,2.87,2.54,8.57,2.92,11,.5,3.26,4.81,34,4.85,34.27a.49.49,0,0,1-.4.56Zm-14.15-55c1.44,3.78,5.69,15.15,6.54,19.75.62,3.31,3.52,15.59,5.68,24.59-1.32-9.34-3.1-22-3.41-24-.5-3.22-3.37-12.5-3.4-12.59a.49.49,0,0,1,.2-.57.5.5,0,0,1,.6.05c.35.3,8.54,7.51,9.94,9.3a39.94,39.94,0,0,1,3,7.05c-1.17-5.11-2.47-9.92-3.27-10.84-1.67-1.91-12.06-10.55-12.81-11.18Z" fill="#d1d3d4"/><path d="M76.76,154.83s7.59,19,9.11,30.67S78.78,241,78.78,241s4.74-47.68,2.62-58.15S76.76,154.83,76.76,154.83Z" fill="#d1d3d4"/><path d="M78.78,241.45h-.07a.5.5,0,0,1-.43-.54c0-.48,4.71-47.73,2.63-58s-4.62-27.82-4.65-28a.5.5,0,0,1,.37-.56.5.5,0,0,1,.59.3c.08.19,7.64,19.21,9.15,30.79s-6.75,53.81-7.1,55.6A.49.49,0,0,1,78.78,241.45Zm-.85-82.11c.9,5.92,2.54,16.3,4,23.36,1.5,7.39-.35,32.67-1.62,47.42,2.44-13.74,6.13-36.7,5.11-44.56C84.32,177.47,80.25,165.64,77.93,159.34Z" fill="#d1d3d4"/><path d="M270.19,231.12h-.06a.49.49,0,0,1-.43-.55c0-.09,1-8.63,0-13s-6.2-11.94-6.26-12a.5.5,0,0,1,.13-.69.51.51,0,0,1,.7.12c.22.32,5.39,7.8,6.41,12.37s.05,13,0,13.34A.51.51,0,0,1,270.19,231.12Z" fill="#d1d3d4"/><path d="M86.05,116.43a.51.51,0,0,1-.46-.3A81.58,81.58,0,0,0,81,107.52c-2.93-4.77-7.16-13.13-7.2-13.22a.49.49,0,0,1,.22-.67.51.51,0,0,1,.67.22c0,.09,4.26,8.41,7.16,13.15a84,84,0,0,1,4.68,8.73.51.51,0,0,1-.26.66A.45.45,0,0,1,86.05,116.43Z" fill="#d1d3d4"/><path d="M143.57,192.08a.5.5,0,0,1-.5-.47,58,58,0,0,0-1.64-10,.5.5,0,1,1,1-.26,60.38,60.38,0,0,1,1.68,10.23.52.52,0,0,1-.47.53Z" fill="#d1d3d4"/><path d="M138.7,134.43s4.19,7.77,4,10.56,0,17,0,17,3.9-15.27,3.64-17.55a48.58,48.58,0,0,0-1-5.31,5.41,5.41,0,0,1,4.56,4.14v-6.73Z" fill="#d1d3d4"/><path d="M142.74,162.53h-.06a.5.5,0,0,1-.44-.49c0-.59-.15-14.31,0-17.08.12-2.17-2.83-8.16-4-10.29a.51.51,0,0,1,.54-.73L150,136.09a.49.49,0,0,1,.41.49v6.73a.5.5,0,0,1-.45.49.49.49,0,0,1-.54-.39,4.67,4.67,0,0,0-3.4-3.58,45.88,45.88,0,0,1,.84,4.6c.26,2.3-3.26,16.15-3.66,17.73A.49.49,0,0,1,142.74,162.53Zm-3.11-27.41c1.11,2.17,3.74,7.57,3.61,9.9-.1,1.81-.07,8.63,0,13.06,1.24-5.1,2.84-12.16,2.69-13.54a48.47,48.47,0,0,0-1-5.25.55.55,0,0,1,.11-.46.51.51,0,0,1,.44-.16,6.42,6.42,0,0,1,4,2.3v-4Z" fill="#d1d3d4"/><path d="M59.88,264.41h-.06a.5.5,0,0,1-.44-.56c.07-.6,7.08-60.6,6.75-70.57s-6.69-67.14-6.75-67.71a.5.5,0,1,1,1-.12c.07.58,6.42,57.77,6.76,67.8S60.66,261.5,60.37,264A.49.49,0,0,1,59.88,264.41Z" fill="#d1d3d4"/><path d="M94,263.91s2.85-17.41,4.65-25.84S101,213.4,101,213.4s4.5,22,4.13,28.76,0,21.27,0,21.27Z" fill="#d1d3d4"/><path d="M94,264.41a.49.49,0,0,1-.49-.58c0-.17,2.87-17.52,4.65-25.86s2.32-24.43,2.32-24.59a.5.5,0,0,1,1-.08c.19.9,4.51,22.1,4.14,28.89s0,21.09,0,21.23a.49.49,0,0,1-.48.51L94,264.41Zm7.29-46.83c-.28,5.42-.93,14.85-2.15,20.59-1.59,7.44-4,22.06-4.54,25.22l10-.44c-.06-2.59-.32-14.77,0-20.81C104.88,237.25,102.57,224.26,101.29,217.58Z" fill="#d1d3d4"/><path d="M308.79,263.43s2.42-14.92,0-21.27a51.27,51.27,0,0,1-3-10.37s6.44,9.39,7.25,14,3.22,12.08,3.76,14l1.43-6.91,10.65,10.63Z" fill="#d1d3d4"/><path d="M328.93,263.93H308.79a.49.49,0,0,1-.38-.17.47.47,0,0,1-.11-.41c0-.14,2.36-14.86,0-21a51.38,51.38,0,0,1-3-10.49.49.49,0,0,1,.32-.53.5.5,0,0,1,.59.18c.27.39,6.51,9.54,7.33,14.16a122.34,122.34,0,0,0,3.18,12l1-5a.49.49,0,0,1,.84-.25l10.65,10.63a.5.5,0,0,1-.35.85Zm-19.56-1h18.35l-9.14-9.12-1.25,6a.49.49,0,0,1-.47.4.49.49,0,0,1-.5-.36c-.1-.36-.27-.93-.49-1.64-.91-3-2.62-8.66-3.28-12.37-.54-3.1-3.83-8.59-5.76-11.62a63.2,63.2,0,0,0,2.43,7.77C311.45,247.75,309.8,260.08,309.37,262.93Z" fill="#d1d3d4"/><path d="M350.59,264.11H49.41a.51.51,0,0,1-.5-.5V40.15a.5.5,0,0,1,.5-.5H350.59a.5.5,0,0,1,.5.5V263.61A.51.51,0,0,1,350.59,264.11Zm-300.68-1H350.09V40.65H49.91Z" fill="#d1d3d4"/><path d="M318.28,217.93S324,232.5,324,242.16" fill="#fff"/><path d="M324,242.67a.51.51,0,0,1-.5-.5c0-9.47-5.63-23.91-5.69-24a.51.51,0,0,1,.28-.65.49.49,0,0,1,.65.28c.24.6,5.76,14.76,5.76,24.42A.5.5,0,0,1,324,242.67Z" fill="#d1d3d4"/><path d="M222.7,23.87s-9.52.44-13.66,3.95-6.12,11.47-13.46,10.23S180.3,56.43,180.3,56.43s8.94-9.51,18.61-6.36,10.25,1.77,14.55-1.39,18-1.18,18-1.18Z" fill="#ff0440"/><path d="M248,127.33s5.9-.12,8.37-2.76,5.85-3.89,6.6-3.32,1.29,5.41.8,5.93-15.19,7.8-15.52,7.9" fill="#fff"/><path d="M248.22,135.58a.51.51,0,0,1-.48-.35.51.51,0,0,1,.33-.63c.71-.28,14.58-7.18,15.33-7.79.27-.6-.28-4.71-.77-5.16-.45-.29-3.48.64-5.93,3.26s-8.47,2.91-8.72,2.92a.54.54,0,0,1-.51-.49.49.49,0,0,1,.49-.51s5.72-.15,8-2.6,6.1-4.27,7.28-3.38c.84.65,1.11,3.77,1.14,4.13.16,2.08-.17,2.42-.29,2.55-.66.69-15.62,8-15.73,8Z" fill="#231f20"/><path d="M228.76,101.87s-31.31-3.81-37.24-2.23-6.63,8.81-6.63,8.81a22.43,22.43,0,0,0-6.24,5c-2.57,3.11-4.83,34.92-2.38,38.1s41.47,4,46,1.77S228.76,101.87,228.76,101.87Z" fill="#231f20"/><path d="M205.61,155c-12.74,0-28.1-1.07-29.74-3.2-2.4-3.14-.41-35.34,2.4-38.73a22.68,22.68,0,0,1,6.16-5c.19-1.38,1.36-7.47,7-9,6-1.59,36.15,2.06,37.43,2.21a.5.5,0,0,1,.44.52c-.2,5.06-2.06,49.56-6.75,51.84C220.74,154.59,213.7,155,205.61,155Zm-9.08-55.27a22.14,22.14,0,0,0-4.88.37c-5.53,1.48-6.26,8.31-6.26,8.38a.52.52,0,0,1-.27.39,22.16,22.16,0,0,0-6.08,4.84c-2.57,3.1-4.57,34.62-2.38,37.48,2,2.58,40.61,4,45.42,1.62,3.09-1.5,5.41-31.58,6.17-50.52C225.08,101.93,206.25,99.75,196.53,99.75Z" fill="#231f20"/><path d="M187.67,86.09l43.47,4.81s4.08.59,3.45,5.6-3.53,5-3.53,5L186.83,100Z" fill="#231f20"/><path d="M231.06,102h0l-44.24-1.45a.48.48,0,0,1-.35-.16.5.5,0,0,1-.13-.37l.85-13.92a.53.53,0,0,1,.17-.35.48.48,0,0,1,.38-.11l43.46,4.8c.06,0,4.58.73,3.89,6.17S231.27,102,231.06,102Zm-43.71-2.43L231.07,101c.09,0,2.46-.08,3-4.52s-2.88-5-3-5l-42.93-4.75Z" fill="#231f20"/><ellipse cx="187.25" cy="93.05" rx="6.97" ry="3.87" transform="translate(82.99 274.3) rotate(-86.52)" fill="#231f20"/><path d="M187,100.51h-.16a3.8,3.8,0,0,1-3-2.49,10.87,10.87,0,0,1-.87-5.23c.25-4.18,2.35-7.33,4.8-7.2s4.16,3.55,3.91,7.73h0C191.36,97.4,189.33,100.51,187,100.51Zm.58-13.92c-1.78,0-3.44,2.82-3.65,6.26a9.85,9.85,0,0,0,.78,4.74c.57,1.19,1.34,1.87,2.19,1.93,1.8.11,3.54-2.76,3.75-6.26s-1.14-6.56-3-6.67Zm3.57,6.7h0Z" fill="#231f20"/><path d="M279,176.88a1,1,0,0,1-.94-.65L221,22.43a1,1,0,0,1,1.88-.69l57.08,153.79a1,1,0,0,1-.59,1.29A1.07,1.07,0,0,1,279,176.88Z" fill="#231f20"/><path d="M230.81,113s13.68-9,14-9.85.49-3.38,1-4,4.5-4.28,5.45-4.3S252.72,96,252.72,96s.94-.8,1.39.19a4,4,0,0,1,.24,2.12s1.93-.38,1.54.78-4.58,6.78-9.52,11.19-13.6,10.89-13.57,11.14" fill="#fff"/><path d="M232.8,121.87a.5.5,0,0,1-.5-.44c0-.39,0-.39,3.9-3.5,3-2.34,7-5.55,9.84-8.08,4.9-4.37,9-9.91,9.38-11a.27.27,0,0,0,0-.13,2.12,2.12,0,0,0-1,0,.48.48,0,0,1-.45-.14.51.51,0,0,1-.14-.44,3.45,3.45,0,0,0-.19-1.83c0-.06-.09-.18-.17-.19a.77.77,0,0,0-.46.18.49.49,0,0,1-.44.1.51.51,0,0,1-.34-.3s-.35-.82-.95-.82-4.4,3.28-5.07,4.11a7.66,7.66,0,0,0-.56,2.2,11.23,11.23,0,0,1-.38,1.71c-.34.88-9,6.7-14.21,10.09a.5.5,0,0,1-.69-.14.51.51,0,0,1,.14-.7c5.07-3.32,13.31-8.89,13.85-9.66a12.11,12.11,0,0,0,.3-1.47,6.78,6.78,0,0,1,.77-2.66c.4-.49,4.57-4.45,5.83-4.48h0a2,2,0,0,1,1.58,1,1.36,1.36,0,0,1,.81-.09,1.25,1.25,0,0,1,.86.76,4.19,4.19,0,0,1,.33,1.77,1.65,1.65,0,0,1,1.31.42,1,1,0,0,1,.16,1.07c-.46,1.36-4.85,7.1-9.66,11.41-2.85,2.55-6.92,5.76-9.89,8.11-1.7,1.35-3.31,2.62-3.59,2.91a.5.5,0,0,1-.38.25Z" fill="#231f20"/><path d="M254.48,126.28c.19-.25,1.94-3.19,3.28-5s1.52-2.06,2.1-1.52-1.92,5.39-1.92,5.39" fill="#fff"/><path d="M254.48,126.78a.49.49,0,0,1-.3-.1.51.51,0,0,1-.1-.7c.06-.07.24-.36.49-.77.68-1.1,1.83-2.93,2.78-4.23s1.42-1.93,2-2a1.09,1.09,0,0,1,.87.38c.24.22.86.8-1.82,6a.49.49,0,0,1-.67.21.5.5,0,0,1-.22-.67,19.41,19.41,0,0,0,2-4.86l-.09-.06c-.1.08-.61.77-1.2,1.58-.94,1.27-2.07,3.08-2.74,4.17-.28.45-.48.77-.54.85A.53.53,0,0,1,254.48,126.78Z" fill="#231f20"/><path d="M198.75,179.41s-6.25,22.94-19.48,37.72l-7.61-3.55L185,176Z" fill="#fff"/><path d="M179.27,217.63a.52.52,0,0,1-.21,0L171.45,214a.5.5,0,0,1-.26-.62l13.3-37.58a.51.51,0,0,1,.59-.32l13.79,3.41a.5.5,0,0,1,.37.62c-.07.23-6.44,23.23-19.59,37.93A.51.51,0,0,1,179.27,217.63Zm-7-4.31,6.87,3.2c11.77-13.33,18-33.37,19-36.75l-12.85-3.18Z" fill="#231f20"/><path d="M227,163.17s5.9,5.29,13.57,4.45c0,0-6.08,20-4.15,31.47l6.54,1.07s14.67-34.49,11.33-39.67c-4-6.2-19.76-8.88-19.76-8.88Z" fill="#fff"/><path d="M242.92,200.66h-.09l-6.53-1.07a.5.5,0,0,1-.42-.41c-1.74-10.36,2.89-27.28,4-31-7.43.46-13-4.43-13.22-4.64a.51.51,0,0,1-.09-.65l7.53-11.56a.51.51,0,0,1,.5-.22c.65.12,16,2.8,20.1,9.11.55.85,2.22,3.44-4.36,22.21-3.22,9.18-6.9,17.83-6.93,17.92A.51.51,0,0,1,242.92,200.66Zm-6.11-2,5.8.95c4.14-9.8,13.81-34.83,11.22-38.84-3.53-5.46-16.86-8.18-19.1-8.6l-7.11,10.91c1.33,1.05,6.49,4.74,12.86,4.05a.54.54,0,0,1,.44.18.53.53,0,0,1,.09.47C241,168,235.11,187.39,236.81,198.65Z" fill="#231f20"/><path d="M226.45,107c3.94,2.94,9,21.84,9,21.84l17.83-3.3,1.5,7.66s-10.11,7.59-23.21,6.49c-10.24-6.8-11.7-13.25-11.7-13.25S220.85,109.21,226.45,107Z" fill="#ff0440"/><path d="M220.72,141.82l23.36,10.39-16.25,14.21-16.68-4-8.86,20.09-21-1.44s11.62-35.61,14.22-42.2Z" fill="#fff"/><path d="M202.29,183h0l-21-1.44a.57.57,0,0,1-.38-.22.49.49,0,0,1-.06-.44c.11-.35,11.65-35.69,14.23-42.22a.48.48,0,0,1,.52-.31l25.23,2.95.14,0,23.37,10.39a.53.53,0,0,1,.29.39.53.53,0,0,1-.17.45L228.16,166.8a.55.55,0,0,1-.45.11L211.43,163l-8.68,19.7A.51.51,0,0,1,202.29,183ZM182,180.6,202,182l8.71-19.76a.5.5,0,0,1,.57-.28l16.43,3.94,15.48-13.52-22.58-10-24.77-2.9C193.21,146.2,183.47,176,182,180.6Z" fill="#231f20"/><path d="M226.45,107c-.22-.66-21.77-7.44-28.75-1.55s-4.45,40.46-4.45,40.46l17.66,1.52,9.81-5.57S232.83,126.48,226.45,107Z" fill="#ff0440"/><path d="M220.82,101.53l4-.29s1-13.8-3.52-16.33-8.14-2.42-10.56-.18c0,0-2.77-4-5.65.6s-.63,16.09-.63,16.09Z" fill="#fff"/><path d="M220.82,102h0l-16.34-.1a.5.5,0,0,1-.49-.4c-.09-.48-2.25-11.7.7-16.46,1-1.6,2.12-2.43,3.34-2.46a3.73,3.73,0,0,1,2.8,1.42c2.65-2.12,6.43-2,10.73.45,4.74,2.66,3.82,16.23,3.78,16.8a.5.5,0,0,1-.46.46l-4,.29Zm-15.94-1.09,15.92.1,3.56-.26c.24-4,.06-13.55-3.29-15.43-4.18-2.34-7.63-2.43-10-.25a.48.48,0,0,1-.39.13.47.47,0,0,1-.36-.21,3.34,3.34,0,0,0-2.26-1.42h0c-.86,0-1.71.7-2.52,2C203.07,89.53,204.53,98.88,204.88,100.93Z" fill="#231f20"/><path d="M216.4,104.72l-.48,5.61s-.95,2.5-4.63,1.31-4-3.82-4-3.82l1.5-14.31,3.45-.71a13.68,13.68,0,0,0,1.38-4.48l1,4a28,28,0,0,0,3,.33L219,89.89s-.2,3,.08,3a8.27,8.27,0,0,0,2.78.32,68.18,68.18,0,0,1-1,8.27C220.14,104.4,216.4,104.72,216.4,104.72Z" fill="#fff"/><path d="M213.12,112.46a6.63,6.63,0,0,1-2-.34c-3.93-1.28-4.36-4.11-4.37-4.23a.24.24,0,0,1,0-.12l1.49-14.31a.5.5,0,0,1,.4-.44l3.22-.67a15,15,0,0,0,1.22-4.11.5.5,0,0,1,.47-.42.48.48,0,0,1,.5.37l1,3.66c.44.07,1.39.16,2.3.23l1.18-2.41a.51.51,0,0,1,.58-.26.49.49,0,0,1,.37.51,19.7,19.7,0,0,0,0,2.6,7.71,7.71,0,0,0,2.38.24.5.5,0,0,1,.38.15.49.49,0,0,1,.14.38,65.51,65.51,0,0,1-1,8.35c-.61,2.61-3.37,3.34-4.44,3.52l-.44,5.22,0,.13A3.43,3.43,0,0,1,213.12,112.46Zm-5.36-4.66c.07.35.61,2.37,3.68,3.36,2.9,1,3.83-.62,4-1l.47-5.53a.51.51,0,0,1,.45-.46s3.4-.33,4-2.81a62.94,62.94,0,0,0,1-7.64,8.54,8.54,0,0,1-2.4-.36c-.24-.07-.46-.14-.5-1.23l-.32.65a.48.48,0,0,1-.48.27c-2.95-.21-3.14-.34-3.25-.42a.51.51,0,0,1-.2-.28l-.52-2a10.74,10.74,0,0,1-1,2.62.54.54,0,0,1-.32.23l-3.09.64Zm8.16,2.53h0Zm-1.29-18.06h0Z" fill="#231f20"/><path d="M210.32,97.22a2.37,2.37,0,0,0-.73-1.37,4.37,4.37,0,0,0-1.26-.76,1.68,1.68,0,0,0-.78-.2A1.33,1.33,0,0,0,207,95a1.92,1.92,0,0,0-1,.88,2.26,2.26,0,0,0-.13,1.07,5,5,0,0,0,.2,1.16,3.07,3.07,0,0,0,1.52,1.72,3,3,0,0,0,2.3.13" fill="#fff"/><path d="M208.92,100.67a3.49,3.49,0,0,1-3.3-2.36,5.06,5.06,0,0,1-.23-1.3,2.75,2.75,0,0,1,.18-1.3,2.34,2.34,0,0,1,1.22-1.13,2.1,2.1,0,0,1,.74-.19,2.3,2.3,0,0,1,1,.24,5,5,0,0,1,1.41.86,3,3,0,0,1,.88,1.65.51.51,0,0,1-.41.58.5.5,0,0,1-.58-.41,2,2,0,0,0-.58-1.1,3.72,3.72,0,0,0-1.12-.66,1.15,1.15,0,0,0-.56-.16,1.07,1.07,0,0,0-.36.1,1.48,1.48,0,0,0-.73.63,1.78,1.78,0,0,0-.09.84,3.9,3.9,0,0,0,.18,1,2.54,2.54,0,0,0,1.26,1.43,2.49,2.49,0,0,0,1.91.11.5.5,0,0,1,.34.94A3.58,3.58,0,0,1,208.92,100.67Z" fill="#231f20"/><path d="M216.88,95.63s1.85,3,1.36,3.52-1.78.09-1.78.09" fill="#fff"/><path d="M217.42,99.89a3.92,3.92,0,0,1-1.11-.17.5.5,0,0,1-.33-.62.49.49,0,0,1,.62-.33,2.3,2.3,0,0,0,1.23.06,11.23,11.23,0,0,0-1.37-2.94.49.49,0,0,1,.16-.68.5.5,0,0,1,.69.16c2.05,3.36,1.48,3.94,1.29,4.13A1.67,1.67,0,0,1,217.42,99.89Z" fill="#231f20"/><ellipse cx="215.15" cy="94.32" rx="0.49" ry="0.69" transform="translate(-13 38.34) rotate(-9.89)" fill="#231f20"/><ellipse cx="218.39" cy="94.47" rx="0.49" ry="0.69" transform="translate(-12.98 38.9) rotate(-9.89)" fill="#231f20"/><path d="M218.51,100.76s-5.12,2.28-5.41-2.25" fill="#fff"/><path d="M215.9,101.83a3.52,3.52,0,0,1-1.84-.46,3.29,3.29,0,0,1-1.45-2.83.5.5,0,0,1,.46-.53.49.49,0,0,1,.53.47,2.43,2.43,0,0,0,1,2c1.35.81,3.7-.21,3.73-.22a.5.5,0,1,1,.4.91A7.59,7.59,0,0,1,215.9,101.83Z" fill="#231f20"/><path d="M216.4,104.72s-2.91-.31-4.18-1.25a6.92,6.92,0,0,0,3.83,4.62Z" fill="#231f20"/><path d="M216.05,108.59a.47.47,0,0,1-.17,0,7.35,7.35,0,0,1-4.14-5,.51.51,0,0,1,.21-.53.51.51,0,0,1,.57,0,10.54,10.54,0,0,0,3.93,1.16.49.49,0,0,1,.44.54l-.34,3.37a.49.49,0,0,1-.24.38A.48.48,0,0,1,216.05,108.59Zm-2.94-4.11a6.14,6.14,0,0,0,2.52,2.87l.22-2.2A13.92,13.92,0,0,1,213.11,104.48Z" fill="#231f20"/><path d="M192.68,141.87a13.88,13.88,0,0,0,4.75,1.8c2.67.45,4.93.23,5.57.4s2.41,1,2.41,1L206,150a3.15,3.15,0,0,1-2.41,2.15c-.82.07-11-1.21-12.45-2.38S192.68,141.87,192.68,141.87Z" fill="#231f20"/><path d="M203.55,152.61c-1.27,0-11.06-1.2-12.7-2.49s.63-6.8,1.37-8.45a.5.5,0,0,1,.73-.22,13.36,13.36,0,0,0,4.56,1.73,26.75,26.75,0,0,0,4.09.31,7.75,7.75,0,0,1,1.53.1c.67.19,2.41.94,2.48,1a.52.52,0,0,1,.3.4l.59,4.95a.5.5,0,0,1,0,.21,3.6,3.6,0,0,1-2.84,2.48Zm-10.64-10c-1.26,2.95-2.12,6.23-1.45,6.76,1.35,1.06,11.28,2.35,12.09,2.27a2.57,2.57,0,0,0,1.95-1.7l-.55-4.55c-.6-.25-1.66-.69-2.08-.81a9.2,9.2,0,0,0-1.29-.06,27.85,27.85,0,0,1-4.24-.32A14.43,14.43,0,0,1,192.91,142.58Z" fill="#231f20"/><path d="M190.79,143s7.66-4.25,12.75-15.83-.76-25.94-.93-25.66a23.16,23.16,0,0,1-3.06,1.47s4.69,8.93,2.52,17.46-11.91,19.83-11.85,19.71S190.79,143,190.79,143Z" fill="#231f20"/><path d="M190.79,143.49a.54.54,0,0,1-.22-.05.5.5,0,0,1-.27-.36c-.2-1.12-.43-2.38-.52-2.69a.52.52,0,0,1,0-.44.57.57,0,0,1,.12-.18c.39-.43,9.61-11.18,11.71-19.47s-2.43-17-2.48-17.09a.53.53,0,0,1,0-.41.48.48,0,0,1,.27-.29,24.39,24.39,0,0,0,2.88-1.35.43.43,0,0,1,.61-.11c.77.41,6.12,15,1.14,26.31-5.09,11.6-12.64,15.89-13,16.07A.53.53,0,0,1,190.79,143.49Zm0-3.25c.1.36.21,1,.38,1.93,1.89-1.27,7.8-5.8,11.93-15.21,4.4-10,.43-22.32-.64-24.76-.39.22-1.06.54-2.21,1,1,2,4.25,9.74,2.33,17.32C200.7,127.86,192.81,138.14,190.77,140.24Z" fill="#231f20"/><path d="M221.31,103.84s3.65,12.11,4.21,20-4.78,15.82-4.78,15.82a22.79,22.79,0,0,0,7.33-17.14,40.26,40.26,0,0,0-4.52-18.59Z" fill="#231f20"/><path d="M220.74,140.14a.5.5,0,0,1-.34-.13.49.49,0,0,1-.07-.64c0-.08,5.23-7.91,4.69-15.51s-4.15-19.75-4.19-19.87a.48.48,0,0,1,.08-.45.45.45,0,0,1,.41-.19l2.25.07a.46.46,0,0,1,.41.24,40.19,40.19,0,0,1,4.58,18.84A23.06,23.06,0,0,1,221.05,140,.51.51,0,0,1,220.74,140.14ZM222,104.36c.76,2.65,3.56,12.64,4,19.43.33,4.58-1.26,9.13-2.71,12.22a22.71,22.71,0,0,0,4.27-13.51,40.78,40.78,0,0,0-4.31-18.1Z" fill="#231f20"/><path d="M221.91,139c-.21,0-4.15,2.53-4.15,2.53s.2,5,1.58,5.46,6.14-1.23,6.14-1.23Z" fill="#231f20"/><path d="M220,147.54a2.55,2.55,0,0,1-.78-.1c-1.59-.52-1.87-4.67-1.92-5.92a.48.48,0,0,1,.23-.44c4-2.54,4.22-2.58,4.33-2.6a.47.47,0,0,1,.53.26l3.57,6.76a.53.53,0,0,1,0,.41.48.48,0,0,1-.3.29A22.49,22.49,0,0,1,220,147.54Zm-1.69-5.78c.12,2.18.62,4.53,1.22,4.73.81.27,3.46-.44,5.28-1l-3.06-5.81C221,140,219.6,140.92,218.27,141.76Z" fill="#231f20"/><path d="M203.14,147.16s12.12-1.76,14.6-4.24l.56,2.78s-9.57,4.67-14.4,3.73Z" fill="#231f20"/><path d="M205.32,150.05a8,8,0,0,1-1.51-.13.49.49,0,0,1-.38-.33l-.77-2.27a.51.51,0,0,1,.05-.42.49.49,0,0,1,.35-.23c3.33-.49,12.39-2.17,14.33-4.1a.47.47,0,0,1,.49-.12.5.5,0,0,1,.35.38l.55,2.77a.49.49,0,0,1-.27.55C218.15,146.32,210.44,150.05,205.32,150.05Zm-1-1.06c4.17.59,11.75-2.78,13.45-3.57l-.32-1.61c-3.08,2-11.31,3.39-13.61,3.75Z" fill="#231f20"/><path d="M211.14,162.91a.47.47,0,0,1-.22,0,.5.5,0,0,1-.22-.67c0-.07,3.72-7.61,3.91-10.38a.5.5,0,0,1,1,.07c-.2,3-3.86,10.44-4,10.75A.48.48,0,0,1,211.14,162.91Z" fill="#231f20"/><path d="M199,102.74a.46.46,0,0,1-.23-.06.51.51,0,0,1-.23-.69,2.59,2.59,0,0,1,1.62-1.42,3.83,3.83,0,0,1,2.73.49.52.52,0,0,1,.17.7.51.51,0,0,1-.71.17,2.93,2.93,0,0,0-1.91-.37,1.56,1.56,0,0,0-1,.9A.53.53,0,0,1,199,102.74Z" fill="#fff"/><path d="M206,150.48a.51.51,0,0,1-.51-.48l-.25-3.24a.52.52,0,0,1,1-.08l.25,3.24a.52.52,0,0,1-.47.56Z" fill="#fff"/><path d="M241.62,203.88h-.09l-2.24-.42a.51.51,0,0,1-.4-.59.5.5,0,0,1,.58-.4l2.24.42a.51.51,0,0,1,.4.59A.49.49,0,0,1,241.62,203.88Z" fill="#231f20"/><path d="M238.89,205.7v-1l2.58,0h0a.5.5,0,0,1,.5.49.51.51,0,0,1-.49.51Z" fill="#231f20"/><path d="M194.14,113.77s19.89,23.65,26.64,20,24.74-21.56,24.74-21.56l-5.93-7.33s-11.61,9-20.39,15.72c-2.39-3.08-19.35-18.49-21.5-15.16A36.09,36.09,0,0,0,194.14,113.77Z" fill="#ff0440"/><path d="M118.4,263.61s2.79-7.86,6.37-9.55,12.15-4.38,12.15-4.38c-1.44-1.8.17-11.82,12.15-13.17,4.46-.5,17.9-10.71,17.9-10.71s19.33-3.52,22.28-3,4.84-7.6,9.5-9.62c6.08-2.65,10.06,3.91,10.06,3.91s7.95-11.36,9.64-11.93c3.5-1.2,36.37,2.09,36.29,5s-1.31,16.49-1.31,16.49,8.26-.74,11.52,5.16,13.51,21.89,13.51,21.89l2.85,6.19v3.65Z" fill="#fff"/><path d="M281.31,264.11H118.4a.52.52,0,0,1-.41-.21.53.53,0,0,1-.06-.46c.12-.33,2.9-8.07,6.62-9.83,3.08-1.45,9.67-3.6,11.65-4.23a8.15,8.15,0,0,1,.57-5.18c.88-2.14,3.85-7.24,12.25-8.19,4.26-.48,17.51-10.51,17.65-10.61a.51.51,0,0,1,.21-.1c.79-.14,19.45-3.54,22.46-3,1.13.2,2.27-1.55,3.58-3.6,1.48-2.3,3.16-4.91,5.63-6,5.24-2.28,9,1.88,10.26,3.5,2-2.78,7.86-11,9.48-11.54,3-1,32.28,1.52,36.35,4.52a1.22,1.22,0,0,1,.6,1c-.07,2.62-1,13.31-1.26,15.95,2-.05,8.51.21,11.41,5.45,3.21,5.81,13.39,21.7,13.49,21.86l2.89,6.25a.52.52,0,0,1,0,.21v3.65A.5.5,0,0,1,281.31,264.11Zm-162.18-1H280.81v-3L278,254c-.07-.1-10.26-16-13.49-21.86-3.06-5.55-11-4.91-11-4.9a.52.52,0,0,1-.55-.55c0-.13,1.23-13.56,1.31-16.46-.76-2.05-31.41-6-35.63-4.54-1.06.36-6.13,7.09-9.39,11.75a.49.49,0,0,1-.43.21.47.47,0,0,1-.41-.24c-.15-.25-3.82-6.15-9.43-3.71-2.2.95-3.79,3.43-5.19,5.61-1.51,2.35-2.81,4.38-4.61,4-2.32-.45-16.53,1.95-22,2.94-1.32,1-13.66,10.24-18.05,10.74-7.59.85-10.42,5.11-11.44,7.57-.93,2.27-.82,4.23-.38,4.78a.51.51,0,0,1,.09.46.5.5,0,0,1-.33.33c-.09,0-8.58,2.72-12.09,4.37C122.22,255.82,119.88,261.21,119.13,263.11Z" fill="#231f20"/><path d="M171.38,212.16c.3.09,11,2.82,11,2.82l-6.27,13.29s-3.43,1-3.86.56a2,2,0,0,1-.54-.85,3.42,3.42,0,0,1-1.95,1.3c-1.13.15-8.29,1.28-8.68.29s6.57-4.83,7.16-7C169.45,218,171.38,212.16,171.38,212.16Z" fill="#231f20"/><path d="M162.88,230.47c-1.79,0-2.15-.35-2.3-.72-.3-.78.7-1.59,3-3.35,1.63-1.25,3.87-3,4.14-4,1.24-4.58,3.17-10.39,3.19-10.45a.5.5,0,0,1,.62-.32l10.93,2.82a.55.55,0,0,1,.33.27.51.51,0,0,1,0,.42l-6.27,13.29a.53.53,0,0,1-.32.27c-3.7,1-4.16.61-4.33.45a3.31,3.31,0,0,1-.31-.36,3.31,3.31,0,0,1-1.77.93l-.38.06A50.45,50.45,0,0,1,162.88,230.47Zm-1.3-1.06c.32.08,1.79.28,7.69-.57l.39-.06a2.85,2.85,0,0,0,1.6-1.09.52.52,0,0,1,.5-.2.48.48,0,0,1,.39.36h0a1.57,1.57,0,0,0,.41.62,16.67,16.67,0,0,0,3.15-.62l5.92-12.54-9.92-2.55c-.47,1.44-2,6.13-3,10-.36,1.32-2.46,2.93-4.49,4.48A18.13,18.13,0,0,0,161.58,229.41Z" fill="#231f20"/><path d="M189.28,99.21a.54.54,0,0,1-.33-.12.52.52,0,0,1-.07-.73c4.13-5,.34-10.79.3-10.85a.52.52,0,0,1,.86-.57c0,.07,4.25,6.52-.36,12.08A.53.53,0,0,1,189.28,99.21Z" fill="#fff"/><path d="M184.27,150.28h-.05a.52.52,0,0,1-.46-.57c0-.17,1.86-17.42,4.55-28.68,1-4.27.84-7.39-.53-9a3.37,3.37,0,0,0-2.66-1.22.52.52,0,0,1-.08-1,4.46,4.46,0,0,1,3.51,1.56c1.63,1.91,1.88,5.25.76,9.94-2.67,11.19-4.5,28.38-4.52,28.55A.52.52,0,0,1,184.27,150.28Z" fill="#fff"/><path d="M217.7,134.74c-6.14,0-16.54-11.88-20.82-17.09l-.14-.18a.5.5,0,0,1,.74-.66l.17.21c6.9,8.42,15.9,17.21,20.44,16.7,6.56-.75,23.36-18.26,23.53-18.43a.5.5,0,0,1,.72.68c-.7.74-17.22,17.95-24.13,18.74Z" fill="#231f20"/><path d="M219.2,121.06a.48.48,0,0,1-.39-.19c-.51-.64-9.55-8.2-15.51-13.13a.5.5,0,1,1,.64-.76c1.41,1.17,13.05,10.79,15.31,12.93L238,105.59a.5.5,0,1,1,.61.79L219.5,121A.47.47,0,0,1,219.2,121.06Z" fill="#231f20"/><path d="M232.8,130.35a.51.51,0,0,1-.47-.32.5.5,0,0,1,.28-.64l2.65-1a.5.5,0,1,1,.37.92L233,130.31A.39.39,0,0,1,232.8,130.35Z" fill="#231f20"/><path d="M186,179.3l-.15,0a.49.49,0,0,1-.32-.62l8.13-25.55a.5.5,0,0,1,.62-.33.51.51,0,0,1,.33.63L186.43,179A.49.49,0,0,1,186,179.3Z" fill="#231f20"/><path d="M227,163.66h-.1l-13.41-2.87a.49.49,0,0,1-.38-.59.5.5,0,0,1,.59-.39l13.41,2.88a.5.5,0,0,1-.11,1Z" fill="#231f20"/><path d="M260.45,122.05a.82.82,0,0,0-.29.23.59.59,0,0,0,.22.8,1.74,1.74,0,0,0,.9.22,1.48,1.48,0,0,0-.71.25.54.54,0,0,0-.19.67c.22.38.83.18,1.2.41a2.3,2.3,0,0,0-.73.18.81.81,0,0,0-.44.58.79.79,0,0,0,.5.75,2.47,2.47,0,0,0,.94.14c-.46.08-1,.41-1,.88s.5.71.93.8a3.51,3.51,0,0,0,1.9-.08,1.87,1.87,0,0,0,1.15-.9,2,2,0,0,0,.14-.85,9.18,9.18,0,0,0-.44-3c-.22-.71-.69-1.73-1.55-1.8A5.7,5.7,0,0,0,260.45,122.05Z" fill="#fff"/><path d="M262.63,128.56a4,4,0,0,1-.91-.11,1.5,1.5,0,0,1-1.32-1.26,1.12,1.12,0,0,1,.17-.66,1.27,1.27,0,0,1-.66-1.19,1.19,1.19,0,0,1,.26-.61.84.84,0,0,1-.23-.26,1,1,0,0,1,.07-1,1.22,1.22,0,0,1-.42-.71,1,1,0,0,1,.16-.74,1.27,1.27,0,0,1,.47-.37h0a6.31,6.31,0,0,1,2.85-.77c.88.08,1.57.82,2,2.15a9.89,9.89,0,0,1,.46,3.15,2.55,2.55,0,0,1-.19,1,2.29,2.29,0,0,1-1.45,1.18A4.09,4.09,0,0,1,262.63,128.56Zm-2.07-6s.05.07.1.1a1.51,1.51,0,0,0,.65.13.5.5,0,0,1,.47.46.51.51,0,0,1-.41.53,1.28,1.28,0,0,0-.5.15s.11,0,.21.06a1.73,1.73,0,0,1,.76.2.51.51,0,0,1,.23.53.48.48,0,0,1-.42.39,1.7,1.7,0,0,0-.57.14c-.1,0-.17.13-.17.18s.08.18.21.24a2.11,2.11,0,0,0,.74.1.49.49,0,0,1,.49.45.5.5,0,0,1-.41.54c-.28,0-.55.23-.54.36s.25.28.54.35a3.11,3.11,0,0,0,1.63-.07,1.47,1.47,0,0,0,.85-.63,1.58,1.58,0,0,0,.1-.66,8.78,8.78,0,0,0-.41-2.83c-.14-.42-.51-1.4-1.12-1.45a5.21,5.21,0,0,0-2.31.66h0l-.12.07Zm-.11-.52h0Z" fill="#231f20"/><path d="M234.84,196.19l-2,10.8,7,1.13.05-1.19a20.7,20.7,0,0,1,2.22.84c1.32.58,9.06.85,9.06.85s1.53-2.24-1.45-4.09-5.47-.47-6.16-1.17,1.72-6.19,1.44-6S234.84,196.19,234.84,196.19Z" fill="#231f20"/><path d="M251.14,209.12h0c-.8,0-7.87-.29-9.24-.89-.64-.28-1.17-.48-1.55-.62l0,.53a.52.52,0,0,1-.19.37.46.46,0,0,1-.39.1l-7-1.13a.48.48,0,0,1-.33-.2.47.47,0,0,1-.08-.38l2-10.8a.5.5,0,0,1,.56-.4c3.48.49,9.2,1.27,9.91,1.21a.51.51,0,0,1,.46.07c.34.24.29.39-.2,1.76-.34.94-1.36,3.79-1.16,4.32a4.07,4.07,0,0,0,1.06,0,7.78,7.78,0,0,1,5,1.06,4,4,0,0,1,2,2.51,3.23,3.23,0,0,1-.42,2.28A.5.5,0,0,1,251.14,209.12Zm-11.28-2.69.14,0a20.5,20.5,0,0,1,2.28.87c.88.38,5.48.68,8.56.79a2.12,2.12,0,0,0,.15-1.3,3.1,3.1,0,0,0-1.56-1.86,6.78,6.78,0,0,0-4.39-.9c-.81,0-1.44.09-1.86-.34-.59-.6-.16-2.19,1-5.31.06-.18.13-.36.19-.53-1.08-.06-3.49-.33-9.08-1.12l-1.83,9.83,5.92,1,0-.63a.49.49,0,0,1,.2-.39A.52.52,0,0,1,239.86,206.43Z" fill="#231f20"/><path d="M208.81,217.13s-12.11,22.25-16,30.1l12-33.83Z" fill="#231f20"/><path d="M192.8,247.73a.65.65,0,0,1-.19,0,.52.52,0,0,1-.28-.63l12-33.83a.5.5,0,0,1,.35-.31.49.49,0,0,1,.46.11l4,3.74a.52.52,0,0,1,.1.6c-.13.22-12.16,22.33-16,30.08A.51.51,0,0,1,192.8,247.73ZM205,214.28l-9.28,26.16c4.62-8.8,11.26-21,12.45-23.2Z" fill="#231f20"/><path d="M254.74,252a.5.5,0,0,1-.47-.33c-3-8.36-1.41-24.36-1.34-25a.5.5,0,0,1,.55-.45.5.5,0,0,1,.45.55c0,.17-1.68,16.44,1.28,24.59a.49.49,0,0,1-.3.64A.47.47,0,0,1,254.74,252Z" fill="#231f20"/><path d="M240.18,255.57a.49.49,0,0,1-.5-.47c0-.1-.1-2.7,2-10.78s5.93-23.23,6-23.38a.5.5,0,0,1,.61-.36.51.51,0,0,1,.36.6c0,.16-3.87,15.38-6,23.39s-2,10.46-2,10.48a.49.49,0,0,1-.47.52Z" fill="#231f20"/><path d="M185.21,238.57l-.14,0a.5.5,0,0,1-.34-.62c.62-2.11,4.18-7.65,4.33-7.89a.5.5,0,0,1,.69-.14.49.49,0,0,1,.15.68c0,.06-3.64,5.65-4.21,7.63A.51.51,0,0,1,185.21,238.57Z" fill="#231f20"/><path d="M195.74,263.43s3.55-7.63,6.08-11a82.74,82.74,0,0,0,5.82-10.24s-2.12,8.11-2.83,12.92a14,14,0,0,0,1.31,8.35Z" fill="#231f20"/><path d="M206.12,263.93H195.74a.52.52,0,0,1-.42-.23.51.51,0,0,1,0-.48c.15-.31,3.6-7.72,6.13-11.12A83,83,0,0,0,207.2,242a.5.5,0,0,1,.93.34c0,.08-2.13,8.13-2.83,12.86a13.73,13.73,0,0,0,1.26,8,.5.5,0,0,1,0,.49A.47.47,0,0,1,206.12,263.93Zm-9.59-1h8.8a14.74,14.74,0,0,1-1-7.93c.37-2.54,1.15-6,1.79-8.74a55.46,55.46,0,0,1-3.89,6.44A78.51,78.51,0,0,0,196.53,262.93Z" fill="#231f20"/><path d="M124.77,254.06s12-1.26,14.51-1.26,39,5.82,38,5.06-36.2-9.87-37.72-10.63-1.08-5.07-1.08-5.07a7.18,7.18,0,0,0-1.54,7.52C131.88,250.33,124.77,254.06,124.77,254.06Z" fill="#231f20"/><path d="M176.92,258.4c-1.52,0-6.13-.64-20.86-2.8-7.72-1.13-15.7-2.3-16.78-2.3-2.47,0-14.34,1.25-14.46,1.26a.5.5,0,0,1-.28-.94c.28-.14,6.7-3.5,11.7-4.35-1.34-4.24,1.84-7.43,1.87-7.46a.49.49,0,0,1,.56-.09.48.48,0,0,1,.28.5c-.16,1.64,0,4.15.81,4.56.65.33,8.81,2.54,16.7,4.67,13.92,3.77,20.54,5.59,21.1,6a.57.57,0,0,1,.18.63C177.67,258.27,177.61,258.4,176.92,258.4Zm-37.64-6.1c1.15,0,8.46,1.07,16.93,2.32,5.76.84,12.43,1.82,16.67,2.37-4.2-1.2-10.9-3-16.68-4.57-10-2.72-16.2-4.4-16.89-4.75-1.15-.57-1.4-2.49-1.42-3.94a6.29,6.29,0,0,0-.51,5.76.49.49,0,0,1,0,.44.5.5,0,0,1-.37.24,37.92,37.92,0,0,0-9.44,3.11C131.26,252.9,137.5,252.3,139.28,252.3Z" fill="#231f20"/><path d="M256.81,226.88c-.05.85-2.71,6.87-3.53,17.41l.15-17.57Z" fill="#231f20"/><path d="M253.28,244.78h0a.49.49,0,0,1-.47-.5l.15-17.57a.52.52,0,0,1,.16-.35.51.51,0,0,1,.36-.14l3.39.16a.57.57,0,0,1,.35.16.53.53,0,0,1,.12.37,8,8,0,0,1-.41,1.5,67.48,67.48,0,0,0-3.13,15.92A.5.5,0,0,1,253.28,244.78Zm.64-17.54-.08,9a67,67,0,0,1,2.11-8.17l.24-.76Z" fill="#231f20"/><path d="M220.26,213.4a31.64,31.64,0,0,0-3.5,6.48" fill="#231f20"/><path d="M216.76,220.38a.32.32,0,0,1-.14,0,.5.5,0,0,1-.34-.62,31.84,31.84,0,0,1,3.57-6.62.5.5,0,0,1,.82.56,30.85,30.85,0,0,0-3.43,6.35A.51.51,0,0,1,216.76,220.38Z" fill="#231f20"/><path d="M155.23,239.13s-3.54.76-5.06,3" fill="#231f20"/><path d="M150.17,242.66a.48.48,0,0,1-.28-.08.5.5,0,0,1-.13-.69c1.61-2.42,5.22-3.22,5.37-3.25a.5.5,0,0,1,.21,1s-3.37.75-4.76,2.83A.49.49,0,0,1,150.17,242.66Z" fill="#231f20"/><path d="M350.59,67v39c-38.57-.41-82.62-1.05-82.92-1.85l24.49-6.38a16.84,16.84,0,0,1-2.26-2.35c-1.06-1.67,1-3.68,3.4-4.19s5,.06,7.43.6a4.91,4.91,0,0,1,.2-8.25c3.05-2.11,8.49-2,11.35.24-1.62-3.84-3.23-7.86-2.37-11.84,1.29-6,8.6-11,16.9-12s17.08,1.52,22.66,6.11C349.86,66.3,350.23,66.63,350.59,67Z" fill="#fff"/><path d="M350.59,106.43h0c-82.9-.89-83.16-1.6-83.37-2.18a.53.53,0,0,1,0-.41.54.54,0,0,1,.32-.25l23.59-6.14a12.06,12.06,0,0,1-1.66-1.83,2.29,2.29,0,0,1-.16-2.2,5.44,5.44,0,0,1,3.88-2.75,15.33,15.33,0,0,1,6,.25,5.33,5.33,0,0,1-1.09-3.29,5.65,5.65,0,0,1,2.56-4.53c2.79-1.93,7.43-2.1,10.59-.58-1.33-3.23-2.61-7-1.81-10.71,1.31-6.09,8.59-11.32,17.32-12.44,8.14-1,17.19,1.4,23.05,6.22.4.32.78.67,1.14,1a.5.5,0,0,1,.16.36v39a.51.51,0,0,1-.15.35A.53.53,0,0,1,350.59,106.43Zm-80.3-2.52c5.89.37,24.74.92,79.8,1.51V67.18q-.45-.42-.93-.81c-5.66-4.66-14.41-7-22.29-6-8.33,1.07-15.25,6-16.47,11.66-.86,4,.92,8.16,2.34,11.54a.5.5,0,0,1-.15.59.51.51,0,0,1-.62,0c-2.67-2.1-7.9-2.21-10.76-.23a4.68,4.68,0,0,0-2.13,3.73A4.57,4.57,0,0,0,301,91.36a.5.5,0,0,1-.41.89c-2.15-.48-4.83-1.08-7.22-.6a4.46,4.46,0,0,0-3.16,2.16,1.33,1.33,0,0,0,.08,1.27,15.48,15.48,0,0,0,2.17,2.24.5.5,0,0,1-.2.86Zm-2.62.17h0Z" fill="#d1d3d4"/><path d="M342.73,80.53a.51.51,0,0,1-.48-.36.5.5,0,0,1,.33-.62,18.49,18.49,0,0,1,8.1-.42.51.51,0,0,1,.4.59.51.51,0,0,1-.59.4,17.75,17.75,0,0,0-7.61.38Z" fill="#d1d3d4"/><path d="M311.88,96.13a.49.49,0,0,1-.44-.26c0-.07-4-7.39,3-14.55S328,78.91,328,79a.5.5,0,0,1-.61.79c-.23-.17-5.78-4.3-12.22,2.27s-2.91,13.3-2.88,13.36a.49.49,0,0,1-.19.68A.44.44,0,0,1,311.88,96.13Z" fill="#d1d3d4"/><path d="M315.5,70a.57.57,0,0,1-.18,0,.5.5,0,0,1-.28-.65,7.33,7.33,0,0,1,6.65-4.88.5.5,0,0,1,.49.51.49.49,0,0,1-.52.49A6.22,6.22,0,0,0,316,69.64.51.51,0,0,1,315.5,70Z" fill="#d1d3d4"/></g></svg>