<svg xmlns="http://www.w3.org/2000/svg" viewBox="0 0 400 300"><g id="_012" data-name="012"><path d="M356.89,90.42h0L309,88.64a.46.46,0,0,1-.44-.46V55.47a.48.48,0,0,1,.16-.35.42.42,0,0,1,.36-.11l47.86,6.17a.46.46,0,0,1,.41.46V90a.49.49,0,0,1-.15.34A.45.45,0,0,1,356.89,90.42Zm-47.41-2.68,46.94,1.75V62l-46.94-6Z" fill="#d1d3d4"/><path d="M32,257.53a.46.46,0,0,1,0-.92L382.19,229a.46.46,0,0,1,.49.43.45.45,0,0,1-.42.49L32,257.52Z" fill="#d1d3d4"/><polygon points="291.61 217.85 55.78 232.77 55.78 47.02 291.61 61.94 291.61 217.85" fill="#fff"/><path d="M55.78,233.27a.53.53,0,0,1-.34-.13.52.52,0,0,1-.16-.37V47a.48.48,0,0,1,.16-.36.47.47,0,0,1,.37-.14L291.64,61.44a.51.51,0,0,1,.47.5V217.85a.5.5,0,0,1-.47.5L55.81,233.27Zm.5-185.72V232.24l234.83-14.86v-155Zm235.33,170.3h0Z" fill="#231f20"/><path d="M286.25,185.86l-49.36,1.84a.77.77,0,0,1-.8-.76h0a.83.83,0,0,1,.8-.82l49.36-1.77a.71.71,0,0,1,.74.73h0A.77.77,0,0,1,286.25,185.86Z" fill="#e6e7e8"/><path d="M286.28,192.93l-45.09,1.94a.72.72,0,0,1-.75-.72v-.07a.78.78,0,0,1,.75-.78l45.09-1.88a.68.68,0,0,1,.71.7v.06A.75.75,0,0,1,286.28,192.93Z" fill="#e6e7e8"/><path d="M286.27,200l-47.1,2.28a.72.72,0,0,1-.77-.73v0a.82.82,0,0,1,.77-.81l47.1-2.23a.69.69,0,0,1,.72.71v0A.78.78,0,0,1,286.27,200Z" fill="#e6e7e8"/><path d="M286.25,207.08l-49.36,2.68a.75.75,0,0,1-.8-.75h0a.86.86,0,0,1,.8-.83l49.36-2.62a.7.7,0,0,1,.74.72h0A.8.8,0,0,1,286.25,207.08Z" fill="#ff0440"/><path d="M188.76,79.05c19.08.87,34.22,16.24,34.22,34.3s-15.14,32.81-34.22,32.9c-19.66.1-36.08-15.31-36.08-34.34S169.1,78.15,188.76,79.05Zm0,13.14c-11.9-.42-21.74,8.55-21.74,20s9.84,20.84,21.74,20.9c11.68.06,21-8.93,21-20S200.44,92.61,188.76,92.19Z" fill="#e6e7e8"/><path d="M223,113.35c0,18-15,32.73-34.06,32.9V133.11c11.61,0,20.88-9,20.88-20Z" fill="#ff0440"/><polygon points="163.48 214.39 156.76 214.76 156.76 166.96 163.48 166.83 163.48 214.39" fill="#e6e7e8"/><polygon points="163.48 214.39 156.76 214.76 156.76 194.27 163.48 194.01 163.48 214.39" fill="#ff0440"/><polygon points="176.73 213.67 170.14 214.03 170.14 166.69 176.73 166.56 176.73 213.67" fill="#e6e7e8"/><polygon points="176.73 213.67 170.14 214.03 170.14 185.46 176.73 185.24 176.73 213.67" fill="#ff0440"/><polygon points="189.73 212.95 183.26 213.31 183.26 166.43 189.73 166.31 189.73 212.95" fill="#e6e7e8"/><polygon points="189.73 212.95 183.26 213.31 183.26 195.56 189.73 195.29 189.73 212.95" fill="#ff0440"/><polygon points="202.47 212.26 196.13 212.6 196.13 166.18 202.47 166.05 202.47 212.26" fill="#e6e7e8"/><polygon points="202.47 212.26 196.13 212.6 196.13 190.37 202.47 190.13 202.47 212.26" fill="#ff0440"/><polygon points="214.98 211.57 208.76 211.91 208.76 165.93 214.98 165.81 214.98 211.57" fill="#e6e7e8"/><polygon points="214.98 211.57 208.76 211.91 208.76 184.31 214.98 184.1 214.98 211.57" fill="#ff0440"/><polygon points="227.25 210.9 221.14 211.23 221.14 165.68 227.25 165.56 227.25 210.9" fill="#e6e7e8"/><polygon points="227.25 210.9 221.14 211.23 221.14 172.9 227.25 172.74 227.25 210.9" fill="#ff0440"/><path d="M249.94,88.42a7.11,7.11,0,0,1-7.43,7.15A7.82,7.82,0,0,1,235,87.82a7.11,7.11,0,0,1,7.52-7.15A7.84,7.84,0,0,1,249.94,88.42Z" fill="#e6e7e8"/><path d="M279.86,86.2l-22.83-1a.81.81,0,0,1-.77-.81h0a.73.73,0,0,1,.77-.74l22.83,1a.79.79,0,0,1,.74.79h0A.71.71,0,0,1,279.86,86.2Z" fill="#e6e7e8"/><path d="M279.86,90.39,257,89.48a.8.8,0,0,1-.77-.8h0a.74.74,0,0,1,.77-.75l22.83.94a.78.78,0,0,1,.74.79h0A.71.71,0,0,1,279.86,90.39Z" fill="#e6e7e8"/><path d="M279.86,94.58,257,93.75a.81.81,0,0,1-.77-.81h0a.73.73,0,0,1,.77-.74l22.83.86a.78.78,0,0,1,.74.79h0A.71.71,0,0,1,279.86,94.58Z" fill="#e6e7e8"/><path d="M249.94,118.92a7.33,7.33,0,0,1-7.43,7.34,7.61,7.61,0,0,1-7.52-7.58,7.31,7.31,0,0,1,7.52-7.33A7.61,7.61,0,0,1,249.94,118.92Z" fill="#ff0440"/><path d="M279.86,116,257,115.55a.79.79,0,0,1-.77-.79h0A.75.75,0,0,1,257,114l22.83.47a.76.76,0,0,1,.74.77h0A.73.73,0,0,1,279.86,116Z" fill="#ff0440"/><path d="M279.86,120.18,257,119.82a.79.79,0,0,1-.77-.79h0a.75.75,0,0,1,.77-.76l22.83.39a.76.76,0,0,1,.74.77h0A.73.73,0,0,1,279.86,120.18Z" fill="#e6e7e8"/><path d="M279.86,124.37,257,124.08a.77.77,0,0,1-.77-.78h0a.76.76,0,0,1,.77-.77l22.83.31a.77.77,0,0,1,.74.78h0A.74.74,0,0,1,279.86,124.37Z" fill="#e6e7e8"/><path d="M139.54,226.84a.5.5,0,0,1-.5-.5V53.45a.5.5,0,0,1,.5-.5.5.5,0,0,1,.5.5V226.34A.5.5,0,0,1,139.54,226.84Z" fill="#231f20"/><path d="M212.81,98.48a.5.5,0,0,1-.23-1l17.35-8.6a.51.51,0,0,1,.67.23.5.5,0,0,1-.23.67L213,98.43A.59.59,0,0,1,212.81,98.48Z" fill="#231f20"/><path d="M212.44,122a.5.5,0,0,1-.5-.5.5.5,0,0,1,.5-.5l19.13-.08a.5.5,0,1,1,0,1l-19.13.08Z" fill="#231f20"/><path d="M191.79,71.94l-31.74-1.62a1.84,1.84,0,0,1-1.78-1.77h0A1.62,1.62,0,0,1,160.05,67l31.74,1.69a1.78,1.78,0,0,1,1.69,1.72h0A1.57,1.57,0,0,1,191.79,71.94Z" fill="#e6e7e8"/><path d="M126.77,68.62,91.82,66.84a2,2,0,0,1-2-1.86h0a1.75,1.75,0,0,1,2-1.65l35,1.87A1.91,1.91,0,0,1,128.64,67h0A1.69,1.69,0,0,1,126.77,68.62Z" fill="#e6e7e8"/><path d="M82.75,86.35,72.89,86a.65.65,0,0,1-.66-.6V80.62a.6.6,0,0,1,.66-.56l9.86.41a.64.64,0,0,1,.65.6v4.72A.6.6,0,0,1,82.75,86.35Z" fill="#e6e7e8"/><path d="M110.32,99.1,73.48,98a1.23,1.23,0,0,1-1.25-1.14V93.19a1.15,1.15,0,0,1,1.25-1.07l36.84,1.22a1.18,1.18,0,0,1,1.19,1.11v3.61A1.09,1.09,0,0,1,110.32,99.1Z" fill="#ff0440"/><path d="M90.91,110.44l-17.8-.37a.85.85,0,0,1-.88-.79V104.9a.8.8,0,0,1,.88-.75l17.8.44a.83.83,0,0,1,.86.78v4.32A.8.8,0,0,1,90.91,110.44Z" fill="#e6e7e8"/><path d="M111.25,137.38l-37.75-.07a1.2,1.2,0,0,1-1.27-1.12V132.5a1.19,1.19,0,0,1,1.27-1.11l37.75.22a1.15,1.15,0,0,1,1.2,1.09v3.59A1.15,1.15,0,0,1,111.25,137.38Z" fill="#e6e7e8"/><path d="M127,149l-53.3.34A1.41,1.41,0,0,1,72.23,148v-3.27a1.42,1.42,0,0,1,1.51-1.33l53.3-.13a1.32,1.32,0,0,1,1.39,1.27v3.14A1.35,1.35,0,0,1,127,149Z" fill="#ff0440"/><path d="M86.76,161.19l-13.76.2a.72.72,0,0,1-.77-.67v-4.56a.74.74,0,0,1,.77-.69l13.76-.15a.71.71,0,0,1,.76.67v4.51A.74.74,0,0,1,86.76,161.19Z" fill="#e6e7e8"/><path d="M90.83,188l-17.72.6a.8.8,0,0,1-.88-.75V183.5a.87.87,0,0,1,.88-.8l17.72-.52a.8.8,0,0,1,.86.74v4.32A.86.86,0,0,1,90.83,188Z" fill="#e6e7e8"/><path d="M120.76,198.67l-47.11,2a1.27,1.27,0,0,1-1.42-1.19V196a1.41,1.41,0,0,1,1.42-1.31l47.11-1.78a1.22,1.22,0,0,1,1.33,1.16v3.31A1.34,1.34,0,0,1,120.76,198.67Z" fill="#e6e7e8"/><path d="M126.26,210l-52.53,2.63a1.33,1.33,0,0,1-1.5-1.24v-3.29a1.49,1.49,0,0,1,1.5-1.38l52.53-2.43a1.27,1.27,0,0,1,1.39,1.21v3.16A1.42,1.42,0,0,1,126.26,210Z" fill="#ff0440"/><path d="M346.35,92.85a46.84,46.84,0,0,1,.74,8.27c0,1.71.52,5.64-1.25,6.42-2.37,1-5.6,1.21-8.15,1.46a73,73,0,0,1-8,.34c-2.83,0-14.33-.37-15.16-.93.81-4.51,1.37-9.15,2.33-13.65s3-9.14,6.89-11.62c1.74-1.11,4-1.71,5.87-.86a11.64,11.64,0,0,1,14.53,4.19A18.13,18.13,0,0,1,346.35,92.85Z" fill="#fff"/><path d="M330.36,109.8h-.64c-.14,0-14.27-.25-15.4-1a.46.46,0,0,1-.2-.46c.31-1.73.58-3.48.86-5.23.43-2.78.88-5.65,1.47-8.43.84-3.91,2.74-9.15,7.1-11.92a6.9,6.9,0,0,1,6.1-1,12.12,12.12,0,0,1,14.93,4.46,18.79,18.79,0,0,1,2.22,6.54h0a45.73,45.73,0,0,1,.74,8.35c0,.28,0,.61,0,1,.09,2.14.22,5.07-1.54,5.85a23.83,23.83,0,0,1-7.16,1.39l-1.13.11A73.81,73.81,0,0,1,330.36,109.8Zm-15.27-1.69c1.83.4,11,.75,14.64.77a75,75,0,0,0,7.91-.33l1.14-.11a23,23,0,0,0,6.88-1.32c1.19-.52,1.07-3.31,1-5,0-.39,0-.74,0-1a45.85,45.85,0,0,0-.73-8.19h0a18,18,0,0,0-2.1-6.22,11.15,11.15,0,0,0-13.94-4,.45.45,0,0,1-.39,0,5.88,5.88,0,0,0-5.43.83c-4.09,2.6-5.9,7.6-6.69,11.34-.59,2.76-1,5.62-1.47,8.38C315.63,104.87,315.37,106.5,315.09,108.11Z" fill="#231f20"/><path d="M341.73,223.83l-1.14,47.53s-23.36,3.08-23.92,2.23,13-8.15,13-8.15l-.45-39.22" fill="#fff"/><path d="M318.09,274.19c-1.63,0-1.76-.2-1.84-.32a.62.62,0,0,1-.08-.5c.3-1.21,8.16-5.61,13-8.23l-.45-38.92a.5.5,0,0,1,.5-.5.48.48,0,0,1,.5.49l.45,39.22a.51.51,0,0,1-.26.45,119.07,119.07,0,0,0-12.39,7.37c2.93.07,14.81-1.31,22.57-2.33l1.13-47.11a.5.5,0,0,1,.5-.48h0a.49.49,0,0,1,.49.51l-1.14,47.53a.49.49,0,0,1-.43.48C326.41,273.73,320.54,274.19,318.09,274.19Z" fill="#231f20"/><path d="M324.82,266.46l4.33,3.83,12.3-1.83.08,4.88S314.36,277.2,313.1,275,324.82,266.46,324.82,266.46Z" fill="#231f20"/><path d="M324.63,220,324,264.88s-23.23,3.93-23.83,3.1,12.71-8.62,12.71-8.62l-3-41.06" fill="#fff"/><path d="M301,268.54c-1.12,0-1.23-.17-1.3-.27a.59.59,0,0,1-.1-.5c.26-1.22,7.94-5.9,12.69-8.69l-3-40.74a.5.5,0,0,1,.46-.53.49.49,0,0,1,.54.46l3,41a.51.51,0,0,1-.25.47A118.81,118.81,0,0,0,301,267.6c2.94,0,14.76-1.85,22.48-3.15l.67-44.43a.49.49,0,0,1,.51-.49.5.5,0,0,1,.49.51l-.67,44.85a.5.5,0,0,1-.42.48C308.69,268,303.11,268.54,301,268.54Z" fill="#231f20"/><path d="M308,260.55l4.46,3.67L324.72,262l.25,4.88s-27,4.84-28.35,2.64S308,260.55,308,260.55Z" fill="#231f20"/><path d="M344.56,159.57a41.19,41.19,0,0,1,3,15.72c-.65,26.91-5.24,78.89-5.24,78.89l-32-3.56s-18.19-56.06-1.88-94Z" fill="#231f20"/><polygon points="312.13 159.86 318.06 112.02 340.4 113.8 337.83 162.04 312.13 159.86" fill="#fff"/><path d="M337.83,162.5h0l-25.71-2.17a.46.46,0,0,1-.41-.51L317.61,112a.46.46,0,0,1,.49-.4l22.34,1.78a.46.46,0,0,1,.42.48l-2.57,48.24a.43.43,0,0,1-.16.32A.42.42,0,0,1,337.83,162.5Zm-25.19-3.05,24.76,2.09,2.52-47.32-21.46-1.71Z" fill="#231f20"/><path d="M268.43,134.36l21.11-2.15a1.84,1.84,0,0,0,1.57-2.33l-7.24-25.2a1.83,1.83,0,0,0-2.11-1.29l-21.25,4.18a1.83,1.83,0,0,0-1.39,2.35l7.38,23.17A1.83,1.83,0,0,0,268.43,134.36Z" fill="#231f20"/><path d="M359.19,132.87l-13.64,4,1.68,26.74L332,165.2l3.17-49.32-12.7-.5c0,.48-5.62,36.28-6.93,46.86l-14.23-2.77,6.84-24.69-8.53-4.37s5.25-21,22.85-20c16.21.91,10.55.93,10.22.93.33,0,12.88.06,18.61,7.77A60.26,60.26,0,0,1,359.19,132.87Z" fill="#ff0440"/><path d="M324.23,108.17s-1.45,7.9-1.45,7.9-.09,4.58,5,4.2a10.13,10.13,0,0,0,7.53-4.39s3.21-19.37,3.42-20.78c-.87.23-3.34.68-4.12.18s-.43-3.21-.37-4.09a10.33,10.33,0,0,0-2.17,3.46l-3.3-.52a9.24,9.24,0,0,1,.14-3.74,8.34,8.34,0,0,0-2,3.27c-.93-.17-4.27-1.37-5-.72-1.05,1-3.05,8.48-1.44,11.57S324.23,108.17,324.23,108.17Z" fill="#fff"/><path d="M327.19,120.75a4.81,4.81,0,0,1-3.44-1.21,5,5,0,0,1-1.43-3.48c.93-5.08,1.27-6.93,1.39-7.6a7.83,7.83,0,0,1-3.62-3.74c-1.69-3.24.3-11,1.53-12.12.67-.61,2.3-.22,4.36.35l.63.17a8.94,8.94,0,0,1,2-3.06.46.46,0,0,1,.76.44,8.77,8.77,0,0,0-.18,3.23l2.61.41a10.68,10.68,0,0,1,2.13-3.26.45.45,0,0,1,.51-.11.47.47,0,0,1,.28.45l0,.38c-.23,2.62,0,3.19.18,3.29.53.34,2.56.08,3.76-.23a.46.46,0,0,1,.57.51c-.21,1.4-3.29,20-3.42,20.79a.52.52,0,0,1-.06.16,10.5,10.5,0,0,1-7.88,4.6Zm-4-4.6a4.16,4.16,0,0,0,1.15,2.73,4.23,4.23,0,0,0,3.36.93,9.79,9.79,0,0,0,7.13-4.1c.22-1.35,2.73-16.48,3.29-20-1,.21-3,.5-3.81,0s-.75-1.67-.68-3.07a10.11,10.11,0,0,0-1.19,2.22.45.45,0,0,1-.49.29l-3.3-.52a.47.47,0,0,1-.39-.37,10.21,10.21,0,0,1-.11-2.21,8.47,8.47,0,0,0-.85,1.8.45.45,0,0,1-.51.31c-.24,0-.63-.15-1.09-.28-.78-.22-3.14-.87-3.5-.56-.83.76-2.86,8.12-1.34,11s3.43,3.43,3.45,3.43a.47.47,0,0,1,.33.53c0,.11-1.43,7.77-1.45,7.89Z" fill="#231f20"/><path d="M336.59,100.47a2.85,2.85,0,0,1,1.19-1.33,5,5,0,0,1,1.62-.51,2,2,0,0,1,.92,0,1.61,1.61,0,0,1,.57.32,2.17,2.17,0,0,1,.85,1.25,2.57,2.57,0,0,1-.14,1.22,5.48,5.48,0,0,1-.54,1.24,3.42,3.42,0,0,1-4.76,1" fill="#fff"/><path d="M338.18,104.63a3.85,3.85,0,0,1-2.1-.62.4.4,0,0,1,.44-.66,3.08,3.08,0,0,0,2.29.42,3,3,0,0,0,1.91-1.33,4.64,4.64,0,0,0,.5-1.15,2.31,2.31,0,0,0,.13-1,1.8,1.8,0,0,0-.71-1,1.42,1.42,0,0,0-.43-.25,1.71,1.71,0,0,0-.74,0,4.36,4.36,0,0,0-1.49.46,2.31,2.31,0,0,0-1,1.14.4.4,0,0,1-.52.21.39.39,0,0,1-.21-.52,3.24,3.24,0,0,1,1.35-1.53,5.53,5.53,0,0,1,1.75-.55,2.4,2.4,0,0,1,1.1,0,2,2,0,0,1,.71.39,2.53,2.53,0,0,1,1,1.48,2.91,2.91,0,0,1-.15,1.42,5.43,5.43,0,0,1-.59,1.34,3.82,3.82,0,0,1-2.41,1.68A3.62,3.62,0,0,1,338.18,104.63Z" fill="#231f20"/><path d="M323.79,111.31s3.07,1.53,5.56-.19a5.64,5.64,0,0,0,2.63-3.94s-4.66,2.32-7.76,1.15Z" fill="#231f20"/><path d="M326.6,112.39a7.3,7.3,0,0,1-3-.68.44.44,0,0,1-.24-.46l.43-3A.41.41,0,0,1,324,108a.46.46,0,0,1,.38,0c2.88,1.09,7.35-1.11,7.4-1.14a.43.43,0,0,1,.44,0,.45.45,0,0,1,.2.39,6.05,6.05,0,0,1-2.82,4.28A5.12,5.12,0,0,1,326.6,112.39ZM324.28,111a5.33,5.33,0,0,0,4.82-.28,5.68,5.68,0,0,0,2.25-2.82c-1.41.58-4.37,1.59-6.77,1Z" fill="#231f20"/><path d="M325.35,95.56s-3.31,3.29-2.84,4.07,2.25.69,2.25.69" fill="#fff"/><path d="M324.56,100.77c-.57,0-1.94-.09-2.43-.91s1.28-3,2.9-4.61a.45.45,0,1,1,.63.63c-1.51,1.49-2.79,3.16-2.75,3.57.21.33,1.21.46,1.83.43a.44.44,0,0,1,.47.42.44.44,0,0,1-.42.46Z" fill="#231f20"/><ellipse cx="329.54" cy="96.61" rx="0.9" ry="0.64" transform="translate(109.11 359.93) rotate(-66.41)" fill="#231f20"/><ellipse cx="322.54" cy="95.36" rx="0.9" ry="0.64" transform="translate(106.05 352.77) rotate(-66.41)" fill="#231f20"/><path d="M321.31,101.61s1.61,3.84,6.27,1.39" fill="#fff"/><path d="M324.72,104.26a4.19,4.19,0,0,1-1.42-.24,4.37,4.37,0,0,1-2.4-2.24.44.44,0,0,1,.82-.34,3.5,3.5,0,0,0,1.89,1.75,4.74,4.74,0,0,0,3.77-.58.44.44,0,0,1,.59.19.45.45,0,0,1-.18.6A6.76,6.76,0,0,1,324.72,104.26Z" fill="#231f20"/><path d="M309.36,135s-10.28,28.67-17.4,25.31a20.49,20.49,0,0,1-6-5,74.47,74.47,0,0,1-5.71-7.29c-3.52-5-8.56-12.83-8.75-19.16-.06-2.06,1.72-4.19,4-3.33,2,.77,3,4.34,4,6,.44.76.48,1.2,1.34,1.48a10.2,10.2,0,0,0,3.08-.32,5.2,5.2,0,0,0-.74,2.37c0,1.19,7.86,10.78,9.05,10.58s7.41-15.23,7.41-15.23" fill="#fff"/><path d="M293.17,161a3.29,3.29,0,0,1-1.4-.32,20.83,20.83,0,0,1-6.13-5.09,74.87,74.87,0,0,1-5.75-7.33c-3.7-5.27-8.64-13-8.83-19.42a4.13,4.13,0,0,1,1.65-3.42,3,3,0,0,1,2.92-.35c1.66.63,2.64,2.85,3.43,4.63a17.43,17.43,0,0,0,.77,1.6c.09.16.16.31.23.45.25.48.34.66.85.82a13.91,13.91,0,0,0,2.66-.24.46.46,0,0,1,.67.6h0a4.75,4.75,0,0,0-.67,2.13c.17,1.26,7.19,9.58,8.5,10.1.9-.81,4.26-8.12,7.08-14.92a.46.46,0,1,1,.84.35c-2.88,7-6.57,15.3-7.75,15.5-.35.06-.77-.15-1.44-.72-2.3-2-8.15-9-8.15-10.31a4.77,4.77,0,0,1,.37-1.71,12.93,12.93,0,0,1-2.39.09,2,2,0,0,1-1.38-1.28,4.16,4.16,0,0,0-.22-.4c-.26-.47-.53-1.06-.8-1.69-.72-1.63-1.62-3.65-2.92-4.15a2.15,2.15,0,0,0-2.07.24,3.24,3.24,0,0,0-1.26,2.66c.18,6.15,5,13.74,8.66,18.91a74.48,74.48,0,0,0,5.68,7.25,20.26,20.26,0,0,0,5.84,4.88,2.56,2.56,0,0,0,2.18,0c6.52-2.7,14.51-24.8,14.59-25a.47.47,0,0,1,.59-.28.46.46,0,0,1,.27.59c-.33.92-8.21,22.7-15.1,25.56A4.07,4.07,0,0,1,293.17,161Z" fill="#231f20"/><path d="M357.5,129.92s11.18,24,8.81,27.77c-3.28,5.19-7.35,10-11.07,14.86-2.14,2.78-4.92,5.57-6.7,8.57-1.48,2.48.61,10-1.16,11.42-.68.54-1.55-.39-1.89-1.19a49.34,49.34,0,0,1-3-9.57,5.77,5.77,0,0,1,.19-3.94c3.88-7,8.07-14.16,11.93-21.34l-8.9-20.36" fill="#fff"/><path d="M346.94,193.16a1,1,0,0,1-.3,0,2.76,2.76,0,0,1-1.57-1.59,50.5,50.5,0,0,1-3-9.66,6.17,6.17,0,0,1,.24-4.25c1.58-2.87,3.21-5.75,4.86-8.65,2.31-4.08,4.71-8.3,7-12.49l-8.81-20.16a.46.46,0,0,1,.24-.6.45.45,0,0,1,.6.24l8.9,20.36a.47.47,0,0,1,0,.4c-2.29,4.26-4.72,8.55-7.08,12.71-1.64,2.89-3.27,5.77-4.85,8.63a5.31,5.31,0,0,0-.14,3.63,50,50,0,0,0,2.94,9.48,2,2,0,0,0,.95,1.07.26.26,0,0,0,.23-.05c.74-.59.62-3,.51-5.19-.12-2.36-.24-4.8.54-6.11a44,44,0,0,1,4.31-5.67c.86-1,1.67-2,2.42-2.95,1-1.28,2-2.55,3-3.83a135.26,135.26,0,0,0,8.06-11c1.64-2.61-4.39-17.78-8.84-27.34a.45.45,0,0,1,.22-.6.46.46,0,0,1,.61.22c1.16,2.48,11.22,24.35,8.78,28.2A134.3,134.3,0,0,1,358.58,169c-1,1.28-2,2.55-3,3.83-.76,1-1.62,2-2.45,3a42.36,42.36,0,0,0-4.22,5.55c-.64,1.07-.52,3.48-.42,5.6.14,2.72.25,5.07-.85,5.94A1.16,1.16,0,0,1,346.94,193.16Z" fill="#231f20"/><line x1="344.56" y1="134.36" x2="345.15" y2="122.99" fill="#fff"/><path d="M344.56,134.82h0a.45.45,0,0,1-.43-.48l.59-11.36a.46.46,0,0,1,.48-.44.47.47,0,0,1,.44.48l-.6,11.37A.45.45,0,0,1,344.56,134.82Z" fill="#231f20"/><line x1="311.34" y1="129.22" x2="314.5" y2="121.9" fill="#fff"/><path d="M311.34,129.68a.58.58,0,0,1-.18,0,.46.46,0,0,1-.24-.6l3.16-7.32a.46.46,0,0,1,.6-.24.45.45,0,0,1,.24.6l-3.16,7.32A.47.47,0,0,1,311.34,129.68Z" fill="#231f20"/><line x1="341.79" y1="156.5" x2="336.25" y2="152.75" fill="#fff"/><path d="M341.79,157a.5.5,0,0,1-.26-.08L336,153.12a.45.45,0,0,1-.13-.63.46.46,0,0,1,.64-.12l5.53,3.76a.45.45,0,0,1,.13.63A.47.47,0,0,1,341.79,157Z" fill="#231f20"/><line x1="313.32" y1="150.97" x2="304.62" y2="154.53" fill="#fff"/><path d="M304.62,155a.47.47,0,0,1-.43-.28.47.47,0,0,1,.25-.6l8.7-3.56a.47.47,0,0,1,.6.25.46.46,0,0,1-.25.6l-8.7,3.56Z" fill="#231f20"/><path d="M339.66,248.74h0a.48.48,0,0,1-.47-.51l.59-15.72a.5.5,0,1,1,1,0l-.59,15.72A.5.5,0,0,1,339.66,248.74Z" fill="#fff"/></g></svg>