<svg xmlns="http://www.w3.org/2000/svg" viewBox="0 0 400 300"><g id="_275_boss_flatline" data-name="#275_boss_flatline"><rect x="59.9" y="33.51" width="280.21" height="179.54" fill="#fff"/><path d="M340.1,213.55H59.9a.5.5,0,0,1-.5-.5V33.51a.5.5,0,0,1,.5-.5H340.1a.5.5,0,0,1,.5.5V213.05A.5.5,0,0,1,340.1,213.55Zm-279.7-1H339.6V34H60.4Z" fill="#d1d3d4"/><path d="M260.65,213.55a.5.5,0,0,1-.5-.5V43.23a.5.5,0,0,1,1,0V213.05A.5.5,0,0,1,260.65,213.55Z" fill="#d1d3d4"/><path d="M139.35,213.55a.5.5,0,0,1-.5-.5V43.23a.5.5,0,1,1,1,0V213.05A.5.5,0,0,1,139.35,213.55Z" fill="#d1d3d4"/><path d="M340.1,43.73H59.9a.5.5,0,0,1-.5-.5.5.5,0,0,1,.5-.5H340.1a.5.5,0,0,1,.5.5A.5.5,0,0,1,340.1,43.73Z" fill="#d1d3d4"/><path d="M175.94,107.14h55c13.66,0,25,9.4,26.18,21.63L264,203.29H142.83l6.92-74.52C150.89,116.54,162.27,107.14,175.94,107.14Z" fill="#231f20"/><path d="M264,203.79H142.83a.52.52,0,0,1-.37-.16.53.53,0,0,1-.13-.38l6.93-74.52c1.15-12.39,12.87-22.09,26.68-22.09h55c13.81,0,25.53,9.7,26.68,22.09l6.92,74.52a.46.46,0,0,1-.13.38A.48.48,0,0,1,264,203.79Zm-120.65-1h120.1l-6.87-74c-1.11-11.88-12.39-21.19-25.69-21.19h-55c-13.3,0-24.59,9.31-25.69,21.19Z" fill="#231f20"/><path d="M122.76,102.68s4-17.11,3.66-19.24-6.53-2.14-6.53-2.14S124,61,121.79,60.15c-3.76-1.45-4.92,4.43-6.07,8.1s-3,11.43-3,11.43-9.88,2.6-11,6.08,2.12,16.92,2.12,16.92Z" fill="#fff"/><path d="M122.76,103.2H103.85a.51.51,0,0,1-.5-.39c-.13-.56-3.3-13.64-2.11-17.22,1.13-3.39,9.21-5.8,11.1-6.33.34-1.47,1.86-7.93,2.88-11.17.14-.44.28-.91.43-1.4.82-2.81,1.77-6,3.76-7a3.14,3.14,0,0,1,2.57,0c1,.37,2,3.61-1.46,21.14,1.8.06,6,.44,6.41,2.55s-3.25,17.69-3.67,19.45A.5.5,0,0,1,122.76,103.2Zm-18.5-1h18.09c1.61-6.85,3.83-17.18,3.57-18.63-.22-1.17-3.66-1.71-6-1.72a.52.52,0,0,1-.51-.62c1.85-9.23,3.22-19.73,2.21-20.59a2.06,2.06,0,0,0-1.72,0c-1.59.78-2.5,3.87-3.23,6.36-.15.49-.29,1-.43,1.41-1.14,3.61-2.92,11.32-2.93,11.39a.54.54,0,0,1-.37.39c-2.68.7-9.81,3.11-10.69,5.74S103.31,98.18,104.26,102.17Z" fill="#231f20"/><polygon points="124.5 111.22 124.5 100.21 102.69 100.21 101.73 113.55 124.5 111.22" fill="#231f20"/><path d="M101.73,114a.52.52,0,0,1-.35-.14.51.51,0,0,1-.15-.39l1-13.33a.5.5,0,0,1,.49-.47H124.5a.5.5,0,0,1,.49.5v11a.5.5,0,0,1-.44.5L101.78,114Zm1.43-13.33L102.27,113,124,110.77V100.71Zm21.34,10.51Z" fill="#231f20"/><polygon points="223.66 201.51 189.93 201.51 189.93 126.64 220.19 129.65 223.66 201.51" fill="#231f20"/><path d="M223.66,202H189.93a.5.5,0,0,1-.5-.5V126.64a.51.51,0,0,1,.55-.49l30.25,3a.49.49,0,0,1,.45.47l3.48,71.86a.52.52,0,0,1-.14.36A.52.52,0,0,1,223.66,202Zm-33.23-1h32.71l-3.43-70.91-29.28-2.91Z" fill="#231f20"/><path d="M191.8,132.7l-2.87,73.44H162.6s-6.66-65.4-4.63-67.43,36.4-13.57,36.4-13.57Z" fill="#ff0440"/><path d="M215.42,132.7v73.44h29.2s6.66-65.4,4.63-67.43-36.4-13.57-36.4-13.57Z" fill="#ff0440"/><path d="M198.77,149.93c.19.19,2.92,3.19,2.92,3.19a47.13,47.13,0,0,0-3.48,12.09c-.54,4.72-.82,32.31-.82,32.31l6.15,3.72s6.68-3.14,6.49-3.24-1-29.23-1.64-32.89-4.22-12-4.22-12l2.83-3.32-4.22-5.06Z" fill="#fff"/><polygon points="96.33 195.91 303.67 195.91 337.02 259.59 62.98 259.59 96.33 195.91" fill="#fff"/><path d="M303.67,195.91,337,259.59H63l33.35-63.68H303.67m0-1H96.33a1,1,0,0,0-.92.55L62.07,259.12a1,1,0,0,0,0,1,1,1,0,0,0,.88.5H337a1,1,0,0,0,.88-.5,1,1,0,0,0,0-1l-33.34-63.69a1,1,0,0,0-.92-.55Z" fill="#231f20"/><polygon points="236.16 244.21 172.36 243.24 185.33 203.06 228.95 203.06 236.16 244.21" fill="#fff"/><path d="M236.17,244.71h0l-63.81-1a.51.51,0,0,1-.4-.2.52.52,0,0,1-.07-.45l13-40.18a.51.51,0,0,1,.48-.34H229a.49.49,0,0,1,.49.41l7.22,41.15a.54.54,0,0,1-.11.41A.53.53,0,0,1,236.17,244.71Zm-63.13-2,62.53,1-7-40.14H185.69Z" fill="#d1d3d4"/><polygon points="230.68 241.94 166.87 240.96 179.85 200.78 223.47 200.78 230.68 241.94" fill="#fff"/><path d="M230.68,242.44h0l-63.8-1a.49.49,0,0,1-.4-.21.49.49,0,0,1-.07-.44l13-40.18a.5.5,0,0,1,.48-.35h43.62a.5.5,0,0,1,.49.42l7.21,41.15a.47.47,0,0,1-.11.41A.49.49,0,0,1,230.68,242.44Zm-63.12-2,62.53,1-7-40.15H180.21Z" fill="#d1d3d4"/><path d="M214.45,116.62v17.56s-1.59,7.63-10.88,8.4c-11,.91-11.38-4.73-11.38-4.73l-.39-5.15-.69-9.26C195,126,214.45,116.62,214.45,116.62Z" fill="#fff"/><path d="M201.25,143.19c-3.5,0-6.11-.74-7.81-2.21a4.89,4.89,0,0,1-1.77-3.1l-1.08-14.4a.54.54,0,0,1,.26-.49.52.52,0,0,1,.55,0c2.95,2,17.48-4.27,22.83-6.85a.5.5,0,0,1,.5,0,.51.51,0,0,1,.24.43v17.56s0,.07,0,.1-1.79,8-11.35,8.81C202.78,143.16,202,143.19,201.25,143.19Zm-9.56-19,1,13.58a3.88,3.88,0,0,0,1.45,2.42c1.27,1.08,3.92,2.28,9.38,1.83,8.49-.7,10.24-7.25,10.41-7.94V117.44C210.23,119.19,196.47,125.44,191.69,124.23Z" fill="#231f20"/><path d="M214.45,116.62V132.8c-15.68,3.12-22.89-3.34-22.89-3.34l-.45-6C195,126,214.45,116.62,214.45,116.62Z" fill="#231f20"/><path d="M206.2,134.17c-10,0-14.74-4.11-15-4.33a.51.51,0,0,1-.17-.34l-.45-6a.54.54,0,0,1,.26-.49.52.52,0,0,1,.55,0c2.95,2,17.48-4.27,22.83-6.85a.5.5,0,0,1,.5,0,.51.51,0,0,1,.24.43V132.8a.52.52,0,0,1-.42.51A42.63,42.63,0,0,1,206.2,134.17Zm-14.14-5c1.1.86,8.16,5.77,21.88,3.18V117.44c-3.71,1.75-17.47,8-22.25,6.79Z" fill="#231f20"/><path d="M218.57,66.52a5.1,5.1,0,0,1,3.92,4.38c.06,1.32-.44,2.9.53,3.78a3.9,3.9,0,0,0,1.71.68A7.56,7.56,0,0,1,229.64,85a11.72,11.72,0,0,0-1,2.76,10,10,0,0,1,2.86,3.73,4.92,4.92,0,0,1-.36,4.54c-.35.5-.82.91-1.13,1.44a2.93,2.93,0,0,0,2.4,4.16,5,5,0,0,1-4.43,0c3.85,2,2.94,7.2,1.69,10.31-1,2.64-3.11,3.63-5.52,4.79a19.36,19.36,0,0,0,2.52,3.18,25.8,25.8,0,0,1-3.91.49,15.68,15.68,0,0,1,2,1.4,29.34,29.34,0,0,1-3.89,1.34,10.12,10.12,0,0,1-4.94-.9c-3.65-1.52-3.76-2.87-5.64-6.16-1.51-2.64-5-3.43-8-3.09-2.25.24-4.64,1.12-5.75,3.08-.76,1.35-.81,3-1.64,4.33a10.68,10.68,0,0,1-7.53,4.15,11.07,11.07,0,0,1-5.22-1.09,28.06,28.06,0,0,1-3.56-2.68l1.29-.69a33.13,33.13,0,0,0-4.34-1.27,1.15,1.15,0,0,0,1.31-.42,2.79,2.79,0,0,0,.47-1.4,13.59,13.59,0,0,0-1.66-7.8,3.14,3.14,0,0,1-.42-1.6,1.2,1.2,0,0,1,1-1.16c-2.11-2.1-3.88-6.1-2.76-9.09,1.46-3.9.67-7.1.63-11.15,0-3.19,1.11-6.55,3.69-8.45a7.48,7.48,0,0,0,1.18-.92A9,9,0,0,0,180.3,74c1.45-3.39,5.69-5.45,9.1-6.24.88-.2,1.79-.21,2.67-.45,2.08-.56,3.6-2.29,5.42-3.45a10.83,10.83,0,0,1,8.21-1.4,11.65,11.65,0,0,1,5.8,3.61c1.28,1.34,1.15,1,3,.53A8.14,8.14,0,0,1,218.57,66.52Z" fill="#fff"/><path d="M186.89,125a11.67,11.67,0,0,1-4.95-1.16s-3.85-2.46-3.86-3.11a.52.52,0,0,1,.27-.48l.26-.14q-1.38-.45-2.79-.78a1.41,1.41,0,0,1-.48-.12.52.52,0,0,1-.28-.63.51.51,0,0,1,.6-.34l.28.06a.77.77,0,0,0,.51-.3,2.33,2.33,0,0,0,.37-1.14,13.17,13.17,0,0,0-1.61-7.51,3.74,3.74,0,0,1-.48-1.87,1.91,1.91,0,0,1,.66-1.29c-2-2.36-3.49-6.14-2.37-9.11,1-2.79.9-5.18.72-7.94-.06-1-.12-2-.13-3a10.72,10.72,0,0,1,3.9-8.87l.32-.23a4.75,4.75,0,0,0,.79-.63,4.91,4.91,0,0,0,.87-1.74c.11-.3.21-.59.33-.88,1.53-3.56,5.89-5.71,9.46-6.54a11.18,11.18,0,0,1,1.29-.21,9.39,9.39,0,0,0,1.36-.24,10,10,0,0,0,3.49-2.07c.58-.45,1.17-.92,1.8-1.32a11.27,11.27,0,0,1,8.6-1.46,12,12,0,0,1,6.05,3.75c.83.86.83.86,1.62.63.23-.07.51-.16.86-.24a8.63,8.63,0,0,1,4.36-.08h0A5.6,5.6,0,0,1,223,70.88a11.77,11.77,0,0,1,0,1.18c-.07,1-.12,1.76.4,2.24a2.76,2.76,0,0,0,1.18.48l.31.08a8.08,8.08,0,0,1,5.26,10.31c-.11.28-.24.57-.36.85a6.39,6.39,0,0,0-.56,1.52A10,10,0,0,1,232,91.28a5.45,5.45,0,0,1-.42,5c-.16.22-.34.43-.52.64a4.94,4.94,0,0,0-.58.76,2.4,2.4,0,0,0,1.95,3.38.52.52,0,0,1,.23,1,5.3,5.3,0,0,1-2.6.55c1.85,2.43,1.39,6.26.11,9.45-1,2.62-3.05,3.74-5.24,4.81a18.39,18.39,0,0,0,2.13,2.61.51.51,0,0,1,.12.51.5.5,0,0,1-.39.36c-.8.16-1.62.29-2.44.38.27.19.54.39.79.6a.5.5,0,0,1,.17.55c-.18.6-4.29,1.7-4.33,1.71a10.66,10.66,0,0,1-5.19-.94c-3.18-1.32-3.84-2.57-5-4.82-.24-.47-.52-1-.85-1.56-1.45-2.55-5-3.12-7.52-2.84-1.5.16-4.19.75-5.36,2.83a8.83,8.83,0,0,0-.72,2,8.74,8.74,0,0,1-.94,2.4,11.14,11.14,0,0,1-7.93,4.39Zm-7.42-4.18c.87.68,2.63,2,2.91,2.09a10.54,10.54,0,0,0,5,1c2.32-.13,5.73-1.73,7.12-3.92a7.67,7.67,0,0,0,.82-2.12,9.9,9.9,0,0,1,.81-2.18c1.4-2.48,4.45-3.16,6.14-3.35,3-.33,6.84.38,8.54,3.36.33.58.61,1.11.87,1.58,1.15,2.18,1.68,3.17,4.52,4.35a9.5,9.5,0,0,0,4.69.87c.28,0,1.93-.59,2.93-1-.42-.29-.85-.57-1.29-.82a.51.51,0,0,1-.25-.56.52.52,0,0,1,.48-.4,26.07,26.07,0,0,0,2.92-.32,20,20,0,0,1-1.93-2.56.52.52,0,0,1-.06-.42.51.51,0,0,1,.27-.32c2.39-1.16,4.28-2.07,5.26-4.52.5-1.23,2.74-7.48-1.44-9.66h0a.5.5,0,0,1-.22-.69.51.51,0,0,1,.69-.22,4.47,4.47,0,0,0,2.51.46,3.57,3.57,0,0,1-1-1.16,3.24,3.24,0,0,1-.12-3.21,6.84,6.84,0,0,1,.7-.93,6.22,6.22,0,0,0,.46-.56,4.39,4.39,0,0,0,.3-4,9.36,9.36,0,0,0-2.72-3.53.53.53,0,0,1-.17-.44,6.74,6.74,0,0,1,.69-2.1c.12-.26.24-.53.34-.79a7.08,7.08,0,0,0-4.56-9l-.3-.07a3.42,3.42,0,0,1-1.62-.72c-.9-.81-.82-2-.74-3.07a9.51,9.51,0,0,0,0-1.06A4.59,4.59,0,0,0,218.44,67h0a7.63,7.63,0,0,0-3.84.09l-.82.22c-1.24.37-1.53.27-2.65-.9A11,11,0,0,0,205.59,63a10.37,10.37,0,0,0-7.82,1.32,20.3,20.3,0,0,0-1.71,1.26,11.1,11.1,0,0,1-3.86,2.26,10,10,0,0,1-1.5.26,11.79,11.79,0,0,0-1.19.19c-3.32.78-7.37,2.74-8.74,5.95-.11.26-.21.54-.3.81a5.71,5.71,0,0,1-1.09,2.1,5.86,5.86,0,0,1-1,.78l-.3.21a9.68,9.68,0,0,0-3.48,8c0,1,.07,2,.13,3,.18,2.77.34,5.38-.79,8.38-1,2.69.55,6.46,2.64,8.54a.51.51,0,0,1,.12.55.51.51,0,0,1-.45.33c-.28,0-.5.38-.53.69a2.84,2.84,0,0,0,.38,1.34,14.23,14.23,0,0,1,1.7,8.09,3.18,3.18,0,0,1-.57,1.64c.95.26,1.88.56,2.8.9a.51.51,0,0,1,.06.93Z" fill="#231f20"/><path d="M219.38,107.7a47.28,47.28,0,0,1-1.46,9.72c-2.14,8.4-7.07,13.2-14.29,15.08s-13.51-4.22-16.67-10.69A36,36,0,0,1,183.5,111a0,0,0,0,0,0,0,59.21,59.21,0,0,1-.73-13.94s-.28-1.06,1.49-2,11.58,2.24,15.11,1.7,3.13-3.73,3.73-8.19S208,82.87,208,82.87c2,3.71,8,6.28,8,6.28a13.54,13.54,0,0,0-1.88,4.56c-.9,3.34,2.88,5.51,2.88,5.51a4.43,4.43,0,0,0,2.27,4A27,27,0,0,1,219.38,107.7Z" fill="#fff"/><path d="M208,82.87c2,3.71,8,6.28,8,6.28a13.54,13.54,0,0,0-1.88,4.56c-.9,3.34,2.88,5.51,2.88,5.51a4.43,4.43,0,0,0,2.27,4,27,27,0,0,1,.11,4.43,47.28,47.28,0,0,1-1.46,9.72c-2.14,8.4-7.07,13.2-14.29,15.08a10.84,10.84,0,0,1-2.66.34c-6.09,0-11.24-5.37-14-11A36,36,0,0,1,183.5,111a0,0,0,0,0,0,0,59.21,59.21,0,0,1-.73-13.94s-.28-1.06,1.5-2a2.49,2.49,0,0,1,1-.16c2.85,0,9.59,1.92,13.11,1.92a7.06,7.06,0,0,0,1-.06c3.52-.54,3.13-3.73,3.73-8.19S208,82.87,208,82.87m0-1a1,1,0,0,0-.3,0c-.2.06-5,1.56-5.67,6.6-.1.78-.18,1.5-.25,2.2-.37,3.62-.65,4.81-2.62,5.11a6,6,0,0,1-.8,0,44,44,0,0,1-7-1,39.61,39.61,0,0,0-6.11-.9,3.41,3.41,0,0,0-1.5.27c-2,1-2.12,2.37-2.07,2.92a60.11,60.11,0,0,0,.75,14.11l0,.11A37.13,37.13,0,0,0,186,122.26c2.75,5.61,8.11,11.61,14.94,11.61a11.57,11.57,0,0,0,2.91-.38c7.82-2,12.88-7.34,15-15.81a47.75,47.75,0,0,0,1.49-9.93,28,28,0,0,0-.12-4.62,1,1,0,0,0-.53-.77,3.37,3.37,0,0,1-1.74-3,1,1,0,0,0-.51-1s-3.07-1.83-2.4-4.35a13.13,13.13,0,0,1,1.71-4.2,1,1,0,0,0,.18-.89,1,1,0,0,0-.59-.69c-.06,0-5.69-2.47-7.46-5.82a1,1,0,0,0-.91-.55Z" fill="#231f20"/><path d="M210.77,71.7a12.38,12.38,0,0,1-2.94,10.2" fill="#fff"/><path d="M207.83,82.42a.54.54,0,0,1-.35-.14.51.51,0,0,1,0-.72,11.92,11.92,0,0,0,2.82-9.77.5.5,0,0,1,.42-.59.52.52,0,0,1,.6.42,12.93,12.93,0,0,1-3.07,10.62A.49.49,0,0,1,207.83,82.42Z" fill="#231f20"/><path d="M199.46,100.86c0,.74-3.07,11.47-1.68,13s7.3-2.67,7.3-2.67" fill="#fff"/><path d="M198.72,114.71a1.71,1.71,0,0,1-1.32-.49c-1.05-1.16-.33-5.31,1.16-11.64.19-.78.38-1.59.39-1.74a.54.54,0,0,1,.54-.49.5.5,0,0,1,.49.52,18.84,18.84,0,0,1-.41,1.95c-.57,2.4-2.3,9.72-1.4,10.7.65.71,3.94-.84,6.61-2.74a.52.52,0,0,1,.72.12.51.51,0,0,1-.12.72C204.21,112.46,200.84,114.71,198.72,114.71Z" fill="#231f20"/><path d="M199.64,122.32h-.58c-6-.33-9.91-5.59-10.07-5.81a.52.52,0,0,1,.83-.61s3.77,5.1,9.3,5.39c3.65.2,7.29-1.69,10.83-5.6a.52.52,0,0,1,.73,0,.51.51,0,0,1,0,.73C207.14,120.32,203.42,122.32,199.64,122.32Z" fill="#231f20"/><ellipse cx="193.06" cy="100.32" rx="0.97" ry="2.57" fill="#231f20"/><ellipse cx="207.83" cy="98.96" rx="0.97" ry="2.57" fill="#231f20"/><path d="M187.73,173.85a.51.51,0,0,1-.44-.24c-.83-1.37-8.17-13.47-8.46-15.83-.27-2.17,4.28-6.23,6.21-7.85-2-.92-7.14-3.39-8.44-4.45a1,1,0,0,1-.34-.68c-.21-2.4,7.75-11.83,9.34-13.69a.52.52,0,1,1,.79.67c-4.63,5.4-9.42,11.89-9.09,13,1.43,1.14,8.84,4.56,8.91,4.6a.52.52,0,0,1,.3.4.52.52,0,0,1-.19.47c-2.79,2.25-6.64,6-6.47,7.44.2,1.62,5.09,10.11,8.32,15.42a.51.51,0,0,1-.44.78Z" fill="#231f20"/><path d="M216.66,173.85a.48.48,0,0,1-.26-.07.52.52,0,0,1-.18-.71c3.24-5.31,8.12-13.8,8.33-15.42.17-1.4-3.68-5.19-6.47-7.44a.52.52,0,0,1-.19-.47.5.5,0,0,1,.3-.4c.07,0,7.48-3.46,8.95-4.66.29-1-4.5-7.5-9.13-12.9a.51.51,0,1,1,.78-.67c1.6,1.86,9.56,11.29,9.34,13.69a.93.93,0,0,1-.34.68c-1.29,1.06-6.47,3.53-8.43,4.45,1.93,1.62,6.48,5.68,6.21,7.85-.3,2.36-7.63,14.45-8.46,15.83A.52.52,0,0,1,216.66,173.85Z" fill="#231f20"/><path d="M170,133.65s-40.43,12.59-42.46,11.43-1.16-36.17-1.16-36.17l-26-1.77s-11.09,66.88,1.35,75,66.7-10.67,66.7-10.67Z" fill="#ff0440"/><path d="M219.29,205.81l-18.63-2.38a7.08,7.08,0,0,0-2.9,0,2.43,2.43,0,0,0-1.85,2c2.07.77,4.16,1.46,6.28,2.09a29,29,0,0,0-16.14,5.23c-1.7,1.2-3.42,3.42-2.24,5.12.74,1.07,2.22,1.24,3.51,1.3a249.42,249.42,0,0,0,34.36-.67" fill="#fff"/><path d="M199.55,220q-6.13,0-12.25-.3c-1.54-.08-3.07-.31-3.91-1.52-1.34-1.94.28-4.38,2.36-5.84a29.64,29.64,0,0,1,13.62-5.15c-1.22-.4-2.44-.82-3.64-1.26a.52.52,0,0,1-.34-.51,3,3,0,0,1,2.22-2.5,7.48,7.48,0,0,1,3.12,0l18.62,2.38a.52.52,0,0,1-.13,1l-18.62-2.39a7,7,0,0,0-2.7,0,2.13,2.13,0,0,0-1.4,1.2c1.92.7,3.88,1.35,5.84,1.92a.52.52,0,0,1-.14,1,28.68,28.68,0,0,0-15.86,5.14c-1.39,1-3.1,3-2.1,4.41.58.84,1.84,1,3.11,1.08a249.84,249.84,0,0,0,34.28-.68.52.52,0,0,1,.56.47.52.52,0,0,1-.47.56C214.38,219.71,207,220,199.55,220Z" fill="#231f20"/><polygon points="226.73 201.97 215.36 203.1 220.46 219.73 232 218.33 226.73 201.97" fill="#231f20"/><path d="M220.46,220.23a.5.5,0,0,1-.47-.36l-5.11-16.62a.48.48,0,0,1,.07-.42.45.45,0,0,1,.36-.22l11.37-1.14a.51.51,0,0,1,.53.34l5.26,16.36a.48.48,0,0,1-.05.42.49.49,0,0,1-.36.23l-11.54,1.4ZM216,203.54l4.81,15.64,10.52-1.28-5-15.4Z" fill="#231f20"/><path d="M249.25,138.71S293.69,188.2,294,206.14s-32,11.58-66.85,16.21l-5.39-21.71s20.63-1.64,30.66-6.07c2.61-1.16-14-28.93-14-28.93S241,149.42,249.25,138.71Z" fill="#ff0440"/><path d="M110.08,97.27H110a.51.51,0,0,1-.4-.61,8.89,8.89,0,0,1,4.27-6.43c-2.33-.23-5.53-.94-7.64-2.93a1.58,1.58,0,0,1-.57-1.7c.9-2.82,12-4.49,14.19-4.8a.51.51,0,1,1,.14,1c-5.23.73-12.83,2.48-13.34,4.09,0,.08-.09.28.29.64,3.26,3.08,9.77,2.75,9.84,2.75h0a.52.52,0,0,1,.51.49.5.5,0,0,1-.48.54h0c-.45,0-5,.47-6.19,6.53A.51.51,0,0,1,110.08,97.27Z" fill="#231f20"/><line x1="139.35" y1="180.53" x2="172.15" y2="170.84" fill="#fff"/><path d="M139.35,181.05a.52.52,0,0,1-.15-1l32.8-9.7a.52.52,0,1,1,.29,1L139.5,181Z" fill="#231f20"/><path d="M250.66,147.11c-.06,13.31-4.37,41.47-4.37,41.47" fill="#fff"/><path d="M246.29,189.1h-.07a.52.52,0,0,1-.44-.59c.05-.28,4.3-28.28,4.37-41.41a.51.51,0,0,1,.51-.51h0a.51.51,0,0,1,.51.52c-.07,13.2-4.33,41.27-4.38,41.55A.52.52,0,0,1,246.29,189.1Z" fill="#231f20"/><line x1="126.25" y1="120.85" x2="128.74" y2="167.85" fill="#fff"/><path d="M128.74,168.36a.52.52,0,0,1-.52-.49l-2.48-47a.52.52,0,1,1,1-.05l2.48,47a.51.51,0,0,1-.48.54Z" fill="#231f20"/><polygon points="145.28 249.49 150.53 236.91 90.51 236.91 145.28 249.49" fill="#231f20"/><path d="M145.29,250h-.12L90.4,237.4a.5.5,0,0,1,.11-1h60a.54.54,0,0,1,.42.22.52.52,0,0,1,0,.47l-5.25,12.58A.49.49,0,0,1,145.29,250ZM94.9,237.41,145,248.91l4.79-11.5Z" fill="#231f20"/><rect x="73.08" y="229.66" width="72.2" height="19.83" fill="#fff"/><path d="M145.29,250H73.08a.51.51,0,0,1-.51-.52V229.66a.51.51,0,0,1,.51-.51h72.21a.51.51,0,0,1,.51.51v19.83A.51.51,0,0,1,145.29,250ZM73.6,249h71.17v-18.8H73.6Z" fill="#231f20"/><path d="M83.62,233.92H90.1c2.06,0,3.52,1.18,3.52,2.86a2.24,2.24,0,0,1-1.15,2v0A2.63,2.63,0,0,1,94,241.24c0,2.22-1.47,3.29-4.49,3.29H83.62Zm6,4.11c.76,0,1.16-.32,1.16-.93s-.4-.91-1.16-.91h-3.1V238Zm.26,4.23c.91,0,1.32-.37,1.32-1.11s-.44-1.06-1.32-1.06H86.48v2.17Z"/><path d="M96.49,239.23c0-3.3,2.54-5.6,6.1-5.6s6.1,2.3,6.1,5.6-2.54,5.59-6.1,5.59S96.49,242.52,96.49,239.23Zm9.3,0a3.2,3.2,0,1,0-3.2,3.23A3,3,0,0,0,105.79,239.23Z"/><path d="M110.92,241l2.76-.46c.35,1.49,1.28,2.11,3.06,2.11,1.36,0,2.16-.38,2.16-1s-.57-1-3.36-1.53-4.23-1.55-4.23-3.2c0-1.88,1.89-3.22,4.78-3.22,2.73,0,4.81,1.26,5.34,3.23l-2.74.56a2.5,2.5,0,0,0-2.6-1.6c-1.14,0-1.88.39-1.88,1s.54.73,3.19,1.29c2.9.62,4.4,1.61,4.4,3.43,0,2-2,3.29-5.07,3.29C113.45,244.82,111.34,243.43,110.92,241Z"/><path d="M123.87,241l2.75-.46c.36,1.49,1.29,2.11,3.07,2.11,1.35,0,2.15-.38,2.15-1s-.57-1-3.36-1.53-4.22-1.55-4.22-3.2c0-1.88,1.89-3.22,4.78-3.22,2.72,0,4.81,1.26,5.33,3.23l-2.74.56a2.48,2.48,0,0,0-2.59-1.6c-1.15,0-1.88.39-1.88,1s.54.73,3.18,1.29c2.91.62,4.41,1.61,4.41,3.43,0,2-2,3.29-5.08,3.29C126.39,244.82,124.29,243.43,123.87,241Z"/><path d="M220,233.18H178.45a.5.5,0,0,1-.5-.5.51.51,0,0,1,.5-.5H220a.51.51,0,0,1,.5.5A.5.5,0,0,1,220,233.18Z" fill="#d1d3d4"/><path d="M220,227.75H178.45a.5.5,0,0,1,0-1H220a.5.5,0,0,1,0,1Z" fill="#d1d3d4"/><polygon points="302 237.46 248.06 237.46 252.83 227.25 297.23 227.25 302 237.46" fill="#fff"/><path d="M302,238H248.06a.5.5,0,0,1-.46-.71L252.38,227a.49.49,0,0,1,.45-.29h44.4a.48.48,0,0,1,.45.29l4.78,10.21a.51.51,0,0,1,0,.48A.5.5,0,0,1,302,238Zm-53.16-1h52.38l-4.31-9.21H253.15Z" fill="#d1d3d4"/><rect x="248.06" y="237.46" width="53.95" height="4.76" fill="#fff"/><path d="M302,242.72H248.06a.5.5,0,0,1-.5-.5v-4.76a.5.5,0,0,1,.5-.5H302a.5.5,0,0,1,.5.5v4.76A.5.5,0,0,1,302,242.72Zm-53.44-1H301.5V238H248.56Z" fill="#d1d3d4"/><path d="M296.29,228.83l-37,.65.18,3.93L297,233S299.23,230.37,296.29,228.83Z" fill="#fff"/><path d="M259.52,233.93a.52.52,0,0,1-.52-.49l-.17-3.94a.49.49,0,0,1,.14-.38.48.48,0,0,1,.36-.16l36.95-.64a.41.41,0,0,1,.25.06,3,3,0,0,1,1.74,2.07,3.94,3.94,0,0,1-.9,2.92.49.49,0,0,1-.38.18l-37.47.38Zm.36-4,.13,2.91,36.71-.37a2.66,2.66,0,0,0,.54-1.88,2,2,0,0,0-1.09-1.29Z" fill="#231f20"/><path d="M259.34,229.48l-6.41,2.14,6.59,1.79s.62.07.82-1.87S259.34,229.48,259.34,229.48Z" fill="#fff"/><path d="M259.54,233.93h-.08l-6.66-1.81a.5.5,0,0,1-.38-.48.5.5,0,0,1,.35-.5l6.41-2.15a.56.56,0,0,1,.22,0c.59.07,1.66.7,1.46,2.64S259.92,233.93,259.54,233.93Zm-4.83-2.36,4.75,1.29a2.91,2.91,0,0,0,.37-1.37c.12-1.1-.28-1.4-.47-1.48Z" fill="#231f20"/><path d="M278.57,229.14a2.91,2.91,0,0,1,0,4.08" fill="#fff"/><path d="M278.57,233.74a.5.5,0,0,1-.35-.15.51.51,0,0,1,0-.73,2.35,2.35,0,0,0,0-3.36.52.52,0,0,1,.74-.72,3.37,3.37,0,0,1,0,4.79A.52.52,0,0,1,278.57,233.74Z" fill="#231f20"/><path d="M295.38,229.37h-.08a.51.51,0,0,1-.43-.59,2.32,2.32,0,0,0-.4-1.67,1.64,1.64,0,0,0-1.38-.41c-.72.05-2.13.27-3.77.52-7,1.08-8.75,1.16-9.21.43-.65-1,.26-2.15.9-2.66a.51.51,0,0,1,.72.07.52.52,0,0,1-.07.73c-.19.15-.87.83-.71,1.24.85.3,5.62-.43,8.21-.83,1.66-.25,3.1-.47,3.86-.53a2.65,2.65,0,0,1,2.22.74,3.36,3.36,0,0,1,.65,2.53A.52.52,0,0,1,295.38,229.37Z" fill="#231f20"/><rect x="62.98" y="259.59" width="274.03" height="6.9" fill="#fff"/><path d="M337,259.59v6.9H63v-6.9H337m0-1H63a1,1,0,0,0-1,1v6.9a1,1,0,0,0,1,1H337a1,1,0,0,0,1-1v-6.9a1,1,0,0,0-1-1Z" fill="#231f20"/><path d="M279.44,99.46a.5.5,0,0,1-.32-.11.5.5,0,0,1-.07-.7L310.84,59.6a.5.5,0,0,1,.78.64l-31.79,39A.51.51,0,0,1,279.44,99.46Z" fill="#d1d3d4"/><path d="M279.43,134.94a.49.49,0,0,1-.32-.12.51.51,0,0,1-.06-.71L303.28,106a.51.51,0,0,1,.71,0,.49.49,0,0,1,.05.7l-24.23,28.1A.52.52,0,0,1,279.43,134.94Z" fill="#d1d3d4"/><path d="M73.08,79.94a.49.49,0,0,1-.38-.18.49.49,0,0,1,.07-.7L93.71,61.8a.5.5,0,1,1,.64.77L73.4,79.83A.52.52,0,0,1,73.08,79.94Z" fill="#d1d3d4"/><path d="M70.72,196.41a.5.5,0,0,1-.37-.83l15.76-17.46a.49.49,0,0,1,.7,0,.5.5,0,0,1,0,.71L71.1,196.25A.51.51,0,0,1,70.72,196.41Z" fill="#d1d3d4"/><path d="M160.53,69a.52.52,0,0,1-.38-.17.49.49,0,0,1,0-.7l15.45-13.42a.51.51,0,0,1,.71.05.49.49,0,0,1-.05.7L160.85,68.9A.49.49,0,0,1,160.53,69Z" fill="#d1d3d4"/><path d="M311.75,183.76a.5.5,0,0,1-.35-.85l10.82-10.86a.49.49,0,0,1,.7,0,.5.5,0,0,1,0,.71l-10.82,10.85A.51.51,0,0,1,311.75,183.76Z" fill="#d1d3d4"/></g></svg>