<?xml version="1.0" encoding="utf-8"?>
<!-- Generator: Adobe Illustrator 25.0.0, SVG Export Plug-In . SVG Version: 6.00 Build 0)  -->
<svg version="1.1" id="Layer_1" xmlns="http://www.w3.org/2000/svg" xmlns:xlink="http://www.w3.org/1999/xlink" x="0px" y="0px"
	 viewBox="0 0 400 300" style="enable-background:new 0 0 400 300;" xml:space="preserve">
<style type="text/css">
	.st0{fill:#FFFFFF;}
	.st1{fill:#231F20;}
	.st2{fill:#FF0440;}
	.st3{fill:#D1D3D4;}
	.st4{fill:#66AAB5;}
	.st5{fill:none;}
</style>
<g id="_020">
	<path class="st0" d="M236.6,225.4c-11-8.1-15.3-22.9-15.1-36.6c0.1-6.9,1.3-14.3,6.2-19.2c2.4-2.3,5.2-4.1,8.3-5.3
		c9.8-4.3,22.8-4.9,29.6,3.3c1.9,2.5,3.4,5.3,4.4,8.2c4.1,10.1,7.8,20.4,11,30.8c3.2,10.2,6.7,26.4-7.8,27.3
		C261.4,234.6,246.2,232.5,236.6,225.4z"/>
	<path class="st1" d="M268.8,234.6c-10.6,0-23.7-2.3-32.5-8.8c-9.9-7.3-15.5-20.8-15.3-37c0.1-8.9,2.2-15.3,6.3-19.6
		c2.5-2.3,5.4-4.2,8.5-5.4c10-4.4,23.3-5,30.2,3.4c1.9,2.5,3.4,5.4,4.5,8.4c4.1,10.1,7.8,20.5,11,30.9c3.5,11.4,3.8,19.1,0.7,23.6
		c-1.8,2.7-4.9,4.2-9,4.4C271.8,234.5,270.3,234.6,268.8,234.6z M250.2,161.7c-4.8,0.1-9.6,1.1-14,3.1c-3,1.2-5.8,3-8.2,5.3
		c-3.9,4-5.9,10.2-6,18.9c-0.2,15.9,5.2,29,14.9,36.1c9.9,7.3,25.2,9.1,36.3,8.4c3.8-0.2,6.5-1.6,8.2-4c2.9-4.2,2.6-11.6-0.8-22.7
		c-3.2-10.4-6.9-20.7-11-30.8c-1-2.9-2.5-5.6-4.3-8.1C261.5,163.5,256,161.7,250.2,161.7L250.2,161.7z"/>
	<path class="st2" d="M121,173.6l-31.9-13.1c11.3-24.2,24.1-38.6,33-44.2c11.3-9.4,39.2-10,64.7-11c8.2-0.5,16.4,0.3,24.3,2.4
		c29.9,8.2,57.6,51.5,57.6,51.5l-36.2,4.9c0,0,4.7,43.7,8.8,97c0,0-46.9,10.5-120,6.4C121.3,267.5,121.7,181.2,121,173.6z"/>
	<path class="st0" d="M190.2,100.9l4,19.2c0,0-4.3,12.8-17.2,11.4c-7.7-0.9-14.6-5.2-18.8-11.7l-4.6-35.3c0,0,8.6-6.2,3.2-26
		c10.8,3,22.3,3.1,33.1,0.2c0,0,8.6,21.1,8.4,31S190.2,100.9,190.2,100.9z"/>
	<path class="st1" d="M178.9,132.2c-0.6,0-1.3,0-1.9-0.1c-13-1.4-19.2-11.9-19.2-12s0-0.1-0.1-0.2l-4.6-35.3c0-0.2,0.1-0.4,0.2-0.5
		c1.6-1.4,2.8-3.3,3.5-5.4c1.3-3.6,2.3-10-0.5-20c0-0.2,0-0.4,0.1-0.5s0.3-0.2,0.5-0.1c10.7,3,22,3,32.8,0.2
		c0.3-0.1,0.5,0.1,0.6,0.3c0.4,0.9,8.6,21.3,8.4,31.2c-0.2,8.7-6.2,11.1-8,11.6l3.9,18.7c0,0.1,0,0.2,0,0.3
		C194.6,120.4,190.6,132.2,178.9,132.2z M158.7,119.7c4.2,6.3,10.9,10.5,18.4,11.3c11.8,1.2,16.1-9.5,16.6-10.9l-4-19.1
		c-0.1-0.3,0.1-0.6,0.4-0.6l0,0c0.3-0.1,7.4-1.4,7.6-10.8c0.2-8.9-7-27.3-8.2-30.3c-10.5,2.7-21.5,2.7-32,0
		c4.5,17.6-2,24.2-3.4,25.4L158.7,119.7z"/>
	<path class="st0" d="M160.8,82.9c-0.7-1.7-1.8-3.1-3.4-4c-1.5-0.8-3-1.4-4.7-1.6c-0.9-0.2-1.8-0.3-2.7-0.1
		c-0.6,0.2-1.2,0.5-1.7,0.9c-1.3,0.8-2.2,2.1-2.6,3.6c-0.2,1.2-0.1,2.4,0.3,3.6c0.3,1.3,0.8,2.5,1.5,3.7c2.8,4.7,9,6.3,13.7,3.5
		c0,0,0.1,0,0.1-0.1"/>
	<path class="st1" d="M156.2,94.3c-3.7,0-7.1-1.9-9-5.1c-0.7-1.2-1.2-2.5-1.5-3.8c-0.4-1.2-0.5-2.6-0.3-3.8c0.4-1.6,1.4-3,2.8-3.9
		c0.6-0.5,1.2-0.8,1.9-1c1-0.2,2-0.1,2.9,0.1c1.7,0.3,3.3,0.8,4.9,1.7c1.6,1,2.9,2.5,3.6,4.2c0.1,0.3,0,0.5-0.3,0.7l0,0
		c-0.3,0.1-0.6,0-0.7-0.3c-0.6-1.6-1.7-2.9-3.1-3.7c-1.4-0.8-2.9-1.3-4.5-1.6c-0.8-0.2-1.6-0.3-2.5-0.1c-0.6,0.2-1.1,0.4-1.5,0.8
		c-1.1,0.8-2,1.9-2.4,3.3c-0.2,1.1-0.1,2.3,0.3,3.3c0.3,1.2,0.8,2.4,1.4,3.6c2.7,4.5,8.5,6,13,3.3c0,0,0.1,0,0.1-0.1
		c0.2-0.2,0.6-0.1,0.7,0.2l0,0c0.1,0.2,0.1,0.5-0.2,0.7l0,0C160,93.7,158.1,94.3,156.2,94.3z"/>
	<path class="st1" d="M191.7,110.5c-4.6,1.2-9.5,0.3-13.4-2.4c-6.2-4.6-6.2-7.7-6.2-7.7s9.5,3.7,17.5,0.9L191.7,110.5z"/>
	<path class="st1" d="M187.6,111.5c-3.4,0-6.8-1-9.6-3.1c-6.4-4.7-6.4-8-6.4-8.1c0-0.2,0.1-0.3,0.2-0.4c0.1-0.1,0.3-0.1,0.4,0
		c0.1,0,9.5,3.6,17.2,0.9c0.1-0.1,0.3-0.1,0.4,0c0.1,0.1,0.2,0.2,0.2,0.3l2,9.2c0.1,0.3-0.1,0.5-0.3,0.6
		C190.5,111.4,189.1,111.6,187.6,111.5z M172.9,101.1c0.4,1.2,1.6,3.5,5.8,6.6c3.6,2.5,8.1,3.4,12.5,2.5l-1.8-8.2
		C182.7,104,175.4,102,172.9,101.1z"/>
	<path class="st0" d="M178.7,72.2c0,0,8.2,8.6,6.9,10.6s-5.8,1.6-5.8,1.6"/>
	<path class="st1" d="M180.7,84.9c-0.3,0-0.6,0-0.9,0c-0.3,0-0.5-0.3-0.5-0.5s0.3-0.5,0.5-0.5c1.2,0.1,4.4,0,5.3-1.3
		c0.6-1-3.1-6-6.9-10c-0.2-0.2-0.2-0.5,0-0.7l0,0c0.2-0.2,0.5-0.2,0.7,0l0,0c2,2.1,8.3,9.1,7,11.2C185,84.7,182.2,84.9,180.7,84.9z"
		/>
	<ellipse transform="matrix(0.9277 -0.3733 0.3733 0.9277 -15.4326 67.8971)" class="st1" cx="167.6" cy="73.8" rx="1.6" ry="2.3"/>
	<ellipse transform="matrix(0.9277 -0.3733 0.3733 0.9277 -13.1768 74.0025)" class="st1" cx="184.5" cy="71" rx="1.6" ry="2.3"/>
	<path class="st1" d="M179.9,95.7c-3,0-5.8-1.8-8.1-5.2c-1.4-2-2.4-4.2-3.2-6.5c-0.1-0.3,0.1-0.5,0.3-0.6c0.3-0.1,0.5,0.1,0.6,0.3
		c0,0.1,4.1,12.7,12,10.8s7.8-11.1,7.8-11.5c0-0.3,0.2-0.5,0.5-0.5s0.5,0.2,0.5,0.5c0,0.1,0.2,10.4-8.6,12.5
		C181.1,95.6,180.5,95.7,179.9,95.7z"/>
	<path class="st1" d="M216.7,70.4h102.2c2.9,0,5.2,2.3,5.2,5.2v135.3c0,2.9-2.3,5.2-5.2,5.2H216.7c-2.9,0-5.2-2.3-5.2-5.2V75.6
		C211.5,72.7,213.8,70.4,216.7,70.4z"/>
	<rect x="218.4" y="79.3" class="st0" width="98.8" height="127.9"/>
	<path class="st1" d="M317.2,207.7h-98.8c-0.3,0-0.5-0.2-0.4-0.5V79.3c0-0.2,0.2-0.4,0.4-0.4h98.8c0.3,0,0.5,0.2,0.5,0.4v127.9
		C317.7,207.5,317.5,207.7,317.2,207.7z M218.8,206.8h97.9v-127h-97.9L218.8,206.8z"/>
	<path class="st2" d="M293.6,65.2h-14.2c-1.2-6.4-7.4-10.6-13.9-9.4c-4.7,0.9-8.5,4.6-9.4,9.4H242c-1.9,0-3.4,1.5-3.4,3.4v11.9
		c0,1.9,1.5,3.4,3.4,3.4l0,0h51.7c1.9,0,3.3-1.6,3.3-3.4V68.6C297,66.8,295.5,65.3,293.6,65.2z M267.8,66.8c-1.7,0-3-1.3-3-3
		s1.3-3,3-3s3,1.3,3,3C270.8,65.5,269.4,66.8,267.8,66.8z"/>
	<path class="st3" d="M256.5,120.3h-23.9c-0.3,0-0.5-0.2-0.5-0.5V94.4c0-0.3,0.2-0.5,0.5-0.5h23.9c0.3,0,0.5,0.2,0.5,0.5v25.5
		C256.9,120.1,256.7,120.3,256.5,120.3z M233,119.4h23V94.8h-23V119.4z"/>
	<path class="st2" d="M262,100.6c-0.1,0.2-0.3,0.4-0.4,0.6l-15.4,15.4c-0.5,0.5-0.9,0.5-1.5,0c-2.9-3-5.8-6-8.7-9
		c-0.4-0.3-0.4-0.8-0.2-1.2c0.1-0.1,0.1-0.1,0.2-0.2l2.2-2c0.3-0.4,0.8-0.4,1.1-0.2c0.1,0,0.1,0.1,0.2,0.2l5.1,5.2
		c0.5,0.5,0.9,0.5,1.5,0l12-11.9c0.3-0.4,0.8-0.5,1.2-0.2c0.1,0.1,0.2,0.1,0.2,0.2c0.7,0.7,1.4,1.4,2,2c0.2,0.2,0.3,0.4,0.4,0.6
		L262,100.6z"/>
	<path class="st3" d="M304.8,103.6h-34.3c-0.3,0-0.4-0.3-0.4-0.5s0.2-0.4,0.4-0.4h34.3c0.3,0,0.4,0.3,0.4,0.5
		C305.2,103.4,305,103.5,304.8,103.6z"/>
	<path class="st3" d="M295.7,111.6h-25.2c-0.2,0-0.5-0.2-0.5-0.4l0,0c0-0.3,0.2-0.5,0.5-0.5h25.2c0.3,0,0.5,0.2,0.5,0.5
		C296.1,111.4,295.9,111.6,295.7,111.6z"/>
	<path class="st3" d="M256.5,155.2h-23.9c-0.3,0-0.5-0.2-0.5-0.5v-25.5c0-0.3,0.2-0.5,0.5-0.5l0,0h23.9c0.2,0,0.5,0.2,0.5,0.4l0,0
		v25.5C256.9,155,256.7,155.2,256.5,155.2z M233,154.2h23v-24.6h-23V154.2z"/>
	<path class="st2" d="M262,135.4c-0.1,0.2-0.3,0.4-0.4,0.6l-15.4,15.4c-0.3,0.4-0.8,0.5-1.2,0.3c-0.1-0.1-0.2-0.2-0.3-0.3
		c-2.9-3-5.8-6-8.7-9c-0.4-0.3-0.4-0.8-0.2-1.2c0.1-0.1,0.1-0.1,0.2-0.2l2.2-2c0.3-0.4,0.8-0.4,1.2-0.1l0.1,0.1l5.1,5.2
		c0.5,0.5,0.9,0.6,1.5,0l12-11.9c0.3-0.4,0.8-0.5,1.2-0.3c0.1,0.1,0.2,0.2,0.3,0.3c0.7,0.7,1.4,1.4,2,2c0.2,0.2,0.3,0.4,0.4,0.6
		L262,135.4z"/>
	<path class="st3" d="M304.8,138.4h-34.3c-0.3,0-0.5-0.2-0.5-0.5s0.2-0.5,0.5-0.5l0,0h34.3c0.3,0,0.5,0.2,0.5,0.5
		S305.1,138.4,304.8,138.4z"/>
	<path class="st3" d="M295.7,146.4h-25.2c-0.3,0-0.5-0.2-0.5-0.5c0-0.2,0.2-0.5,0.4-0.5l0,0h25.2c0.3,0,0.5,0.2,0.5,0.5
		S295.9,146.4,295.7,146.4z"/>
	<path class="st3" d="M256.5,190h-23.9c-0.3,0-0.5-0.2-0.5-0.5V164c0-0.3,0.2-0.5,0.5-0.5h23.9c0.3,0,0.5,0.2,0.5,0.5v25.5
		C256.9,189.8,256.7,190,256.5,190L256.5,190z M233,189.1h23v-24.6h-23V189.1z"/>
	<path class="st3" d="M304.8,173.2h-34.3c-0.3,0-0.4-0.3-0.4-0.5s0.2-0.4,0.4-0.4h34.3c0.3,0,0.4,0.3,0.4,0.5
		C305.2,173,305,173.2,304.8,173.2z"/>
	<path class="st3" d="M295.7,181.2h-25.2c-0.2,0-0.5-0.2-0.5-0.4l0,0c0-0.3,0.2-0.5,0.5-0.5h25.2c0.3,0,0.5,0.2,0.5,0.5
		C296.1,181,295.9,181.2,295.7,181.2z"/>
	<path class="st0" d="M132.4,165.9L117,202.5l34.4-29.7l21.9,7.4c0,0-4.9,32.6-34.8,60.1s-60.7,22.2-62.5-3.5s16.4-75.7,16.4-75.7"
		/>
	<path class="st1" d="M99.7,259.3c-3.5,0-7-0.6-10.3-1.9c-8.3-3.3-13.2-10.6-13.9-20.5c-1.8-25.6,16.2-75.4,16.4-76
		c0.1-0.3,0.4-0.4,0.7-0.3s0.4,0.4,0.3,0.7c-0.2,0.5-18.1,50.2-16.4,75.5c0.6,9.5,5.3,16.5,13.2,19.6c13.2,5.2,31.7-1.1,48.4-16.4
		c27.6-25.4,33.8-55.5,34.5-59.4l-21.2-7.2l-34.1,29.5c-0.2,0.2-0.6,0.1-0.7-0.1c-0.1-0.1-0.1-0.3-0.1-0.5l15.4-36.6
		c0.1-0.3,0.4-0.4,0.7-0.3s0.4,0.4,0.3,0.7l-14.6,34.6l32.6-28.2c0.1-0.1,0.3-0.2,0.5-0.1l21.9,7.4c0.2,0.1,0.4,0.3,0.4,0.6
		c-0.1,0.3-5.2,33.1-34.9,60.4C125.8,252.7,111.7,259.3,99.7,259.3z"/>
	<polygon class="st1" points="160.1,119.4 199.2,150.5 200.3,152.3 205.5,161.4 195.5,158.3 193.4,157.7 154.4,126.7 	"/>
	<path class="st1" d="M205.5,161.9h-0.1l-12-3.6c-0.1,0-0.1-0.1-0.2-0.1l-39.1-31c-0.1-0.1-0.2-0.2-0.2-0.3c0-0.1,0-0.3,0.1-0.4
		l5.8-7.2c0.2-0.2,0.5-0.2,0.7-0.1l39.1,31c0.1,0,0.1,0.1,0.1,0.1l6.2,10.9c0.1,0.2,0.1,0.4,0,0.6
		C205.8,161.8,205.6,161.9,205.5,161.9z M193.7,157.3l10.7,3.2l-5.6-9.7l-38.6-30.7l-5.1,6.5L193.7,157.3z"/>
	<polygon class="st4" points="200.3,152.3 205.5,161.4 195.5,158.3 	"/>
	<path class="st1" d="M205.5,161.9h-0.1l-10-3c-0.2-0.1-0.3-0.2-0.3-0.3c0-0.2,0-0.3,0.1-0.5l4.8-6c0.1-0.1,0.3-0.2,0.4-0.2
		c0.2,0,0.3,0.1,0.4,0.2l5.2,9c0.1,0.2,0.1,0.4,0,0.6C205.8,161.8,205.6,161.9,205.5,161.9z M196.4,158.1l8,2.4l-4.2-7.2
		L196.4,158.1z"/>
	<path class="st0" d="M203.9,160.2L203.9,160.2c0.2-0.2,0.5-0.2,0.7-0.1l1.6,1.3c0.2,0.2,0.2,0.5,0.1,0.7l0,0
		c-0.2,0.2-0.5,0.2-0.7,0.1l-1.6-1.3C203.8,160.7,203.8,160.4,203.9,160.2z"/>
	<path class="st1" d="M205.9,162.7c-0.2,0-0.4-0.1-0.6-0.2l-1.6-1.2c-0.2-0.2-0.3-0.4-0.4-0.7c0-0.3,0-0.5,0.2-0.7
		c0.3-0.4,1-0.5,1.4-0.2l1.6,1.2c0.2,0.2,0.3,0.4,0.4,0.7c0,0.3,0,0.5-0.2,0.7l0,0C206.5,162.6,206.2,162.7,205.9,162.7z"/>
	<path class="st1" d="M145.5,118.1l4.2-5.3c0.8-1,2.2-1.2,3.2-0.4l0,0l18.6,14.7l0,0l-7.1,8.9l0,0l-18.6-14.7
		C144.9,120.5,144.7,119.1,145.5,118.1L145.5,118.1z"/>
	<path class="st1" d="M164.4,136.5c-0.1,0-0.2,0-0.3-0.1l-18.6-14.8c-1.2-1-1.4-2.7-0.5-3.9l0,0l4.2-5.3c1-1.2,2.7-1.4,3.9-0.4
		l18.6,14.7c0.2,0.2,0.3,0.5,0.1,0.7l-7.1,8.9C164.8,136.5,164.6,136.5,164.4,136.5L164.4,136.5z M151.6,112.4h-0.2
		c-0.5,0-0.9,0.3-1.2,0.7l-4.2,5.3l0,0c-0.6,0.8-0.5,1.9,0.3,2.5l0,0l18.2,14.4l6.5-8.1l-18.2-14.4
		C152.3,112.5,152,112.4,151.6,112.4z M145.6,118.1L145.6,118.1z"/>
	<path class="st1" d="M157.3,134.4c-0.1,0-0.2,0-0.3-0.1c-0.4-0.3-9.7-7.6-10.9-8.8c-1.4-1.3-0.7-4.2-0.7-4.3
		c0.1-0.3,0.3-0.4,0.6-0.4c0.3,0.1,0.4,0.3,0.4,0.6c-0.2,0.7-0.4,2.6,0.4,3.3c1.2,1.1,10.7,8.6,10.8,8.7c0.2,0.2,0.3,0.5,0.1,0.7
		C157.6,134.3,157.5,134.4,157.3,134.4z"/>
	<path class="st0" d="M148.8,123.9c-0.1,0-0.2,0-0.3-0.1c-0.2-0.2-0.3-0.5-0.1-0.7l0,0l7.1-8.6c0.2-0.2,0.5-0.3,0.7-0.1
		c0.2,0.2,0.2,0.5,0.1,0.7l0,0l-7.1,8.6C149.1,123.8,149,123.9,148.8,123.9z"/>
	<path class="st0" d="M172.2,182.6c1-1.7,1.8-6,1.8-6s8.6,0.7,10.4-1.9s7.2-21.3,5.4-24.5s-8.7-7.6-10.8-8.4s-10.5,0.8-10.5,0.8
		l6.6-6.6c0,0,10.8,6.4,15.6,5.9s6.2-2.2,3.7-5.1s-20.6-11.1-23.6-10.7s-16.5,13-16.7,14.8s-10.6,36.8-8.4,40.6"/>
	<path class="st1" d="M172.2,183.1c-0.1,0-0.2,0-0.2-0.1c-0.2-0.1-0.3-0.4-0.2-0.7l0,0c0.8-1.9,1.4-3.8,1.7-5.8
		c0.1-0.3,0.3-0.4,0.6-0.4c2.3,0.2,8.6,0.2,9.9-1.7c1.7-2.5,7-21.1,5.4-23.9c-1.8-3.1-8.6-7.5-10.5-8.2c-1.6-0.6-7.9,0.4-10.2,0.9
		c-0.2,0-0.4-0.1-0.6-0.3c-0.1-0.2-0.1-0.4,0.1-0.6l6.6-6.6c0.2-0.2,0.4-0.2,0.6-0.1c0.1,0.1,10.7,6.3,15.3,5.9
		c2.5-0.2,4-0.8,4.4-1.7s-0.4-1.8-1-2.6c-2.3-2.7-20.3-10.8-23.2-10.5c-2.7,0.4-15.9,12.6-16.3,14.4c-0.1,0.4-0.4,1.8-1.2,4.7
		c-2.4,8.9-8.9,32.7-7.2,35.6c0.1,0.2,0.1,0.6-0.2,0.7c-0.2,0.1-0.6,0.1-0.7-0.2c-1.6-2.9,2.5-19.2,7.1-36.4
		c0.6-2.4,1.2-4.3,1.2-4.6c0.3-2.1,14-14.8,17.2-15.2s21.5,7.8,24.1,10.8c1.2,1.4,1.6,2.6,1.2,3.6c-0.5,1.3-2.3,2.1-5.3,2.3
		c-4.5,0.4-13.7-4.7-15.6-5.8l-5.2,5.2c2.6-0.4,7.5-1.2,9.2-0.5c2,0.8,9.2,5.3,11,8.7s-3.5,22.3-5.4,25c-1.7,2.5-8.4,2.3-10.4,2.2
		c-0.4,2-0.9,3.9-1.8,5.7C172.6,182.9,172.4,183.1,172.2,183.1z"/>
	<path class="st0" d="M165.8,150.9c0,0,11.3-1.9,13.8-1.2s9.7,8.4,9.7,8.4"/>
	<path class="st1" d="M189.3,158.6c-0.1,0-0.3-0.1-0.4-0.2c-2-2.1-7.5-7.8-9.4-8.3s-10.5,0.7-13.6,1.2c-0.3,0-0.5-0.1-0.6-0.4
		c-0.1-0.3,0.1-0.5,0.4-0.6l0,0c0.5-0.1,11.5-2,14.1-1.2s9.2,7.8,9.9,8.6c0.2,0.2,0.2,0.5,0,0.7S189.4,158.6,189.3,158.6z"/>
	<path class="st0" d="M174.1,176.6c0,0,1.9-5.8,1.5-9.7"/>
	<path class="st1" d="M174.1,177.1c-0.3,0-0.5-0.2-0.5-0.5c0-0.1,0-0.1,0-0.2c0-0.1,1.9-5.8,1.5-9.5c0-0.3,0.2-0.5,0.5-0.6l0,0
		c0.3,0,0.5,0.2,0.6,0.4l0,0c0.4,3.9-1.5,9.7-1.5,9.9C174.5,177,174.3,177.1,174.1,177.1z"/>
	<path class="st0" d="M167.8,167.2c0.6-0.1,10.1,0.1,10.6,0"/>
	<path class="st1" d="M177.1,167.8c-0.8,0-2.1,0-4,0c-2.2,0-4.9-0.1-5.2,0c-0.3,0-0.5-0.1-0.6-0.4c-0.1-0.3,0.1-0.5,0.4-0.6
		c1.8-0.1,3.6-0.1,5.4,0c2.2,0,4.9,0.1,5.2,0c0.3,0,0.5,0.1,0.6,0.4c0.1,0.3-0.1,0.5-0.4,0.6C178.1,167.8,177.6,167.8,177.1,167.8z"
		/>
	<path class="st0" d="M164,158.5c0,0,8.2-1.8,12-1s10.8,9.1,11.5,9.8"/>
	<path class="st1" d="M187.5,167.9c-0.1,0-0.3-0.1-0.4-0.1c-0.1-0.1-0.3-0.3-0.6-0.7c-1.8-2.1-7.4-8.3-10.6-9
		c-3.7-0.8-11.7,0.9-11.8,1c-0.3,0.1-0.5-0.1-0.6-0.4c-0.1-0.3,0.1-0.5,0.4-0.6l0,0c0.3-0.1,8.3-1.8,12.2-1
		c3.2,0.7,7.9,5.6,11.2,9.3c0.3,0.3,0.5,0.5,0.6,0.6c0.2,0.2,0.2,0.5,0,0.7C187.7,167.8,187.6,167.9,187.5,167.9z"/>
	<path class="st0" d="M302.4,215.8c0.2-1.6,0.4-3.2,0.5-4.8c0.1-3.3-0.4-6.7-1.5-9.8c-0.3-1.4-1.1-2.7-2.2-3.6
		c-1.1-0.9-3-0.9-3.8,0.3s-0.4,2.4-0.1,3.7c0.7,3.3,0.9,6.8,0.5,10.1c-0.5-4.6-1.1-9.3-3.6-13.1c-0.5-0.9-1.3-1.7-2.1-2.2
		c-0.9-0.5-2-0.5-2.9,0.1c-1.3,0.9-1.2,2.8-1,4.4c0.4,4,0.3,8.1-0.2,12.1c0.3-3.5,0-7.1-0.8-10.5c-0.5-2.2-1.5-4.7-3.7-5.4
		c-0.5-0.2-1-0.2-1.5-0.1c-1,0.3-1.7,1.2-1.9,2.3c-0.2,1-0.2,2.1,0,3.1c0.4,4,0.3,8.1-0.4,12.1c0.5-3.5,0.4-7.1-0.4-10.6
		c-0.2-1.4-0.8-2.7-1.6-3.8c-0.9-1.1-2.4-1.6-3.8-1.1c-1,0.5-1.6,1.5-1.8,2.5c-0.2,1.1-0.2,2.2-0.1,3.2c0.1,4.1-0.7,8.1-2.2,11.9
		c-1.3,3.1-3,6.6-2.7,10.1s3.2,6.8,6.6,8.1c3.5,1.2,7.3,1.4,10.9,0.5c11.9-2.4,21.6-8,25.9-19.3"/>
	<path class="st1" d="M277.4,236.3c-2.1,0-4.2-0.3-6.1-1.1c-3.8-1.5-6.6-5-6.9-8.6c-0.3-3.3,1.1-6.5,2.3-9.4l0.4-1
		c1.5-3.7,2.3-7.7,2.2-11.7V204c-0.1-1,0-1.9,0.1-2.9c0.2-1.2,1-2.3,2.1-2.9c1.6-0.5,3.3,0,4.4,1.2c0.7,0.9,1.3,2,1.5,3.2
		c0-0.2,0-0.4,0-0.5V202c-0.2-1-0.2-2,0-3c0.2-1.2,1.1-2.3,2.3-2.6c0.6-0.1,1.2-0.1,1.8,0.1c2,0.6,3.3,2.6,4.1,5.8
		c0,0.1,0,0.2,0.1,0.3c0-0.6-0.1-1.2-0.1-1.7c-0.2-1.8-0.2-3.8,1.2-4.9c1-0.7,2.4-0.7,3.5-0.1c1,0.6,1.8,1.4,2.3,2.4
		c1.4,2.2,2.3,4.7,2.8,7.3c-0.1-1.3-0.3-2.6-0.6-3.9c-0.3-1.3-0.6-2.9,0.2-4.1c0.4-0.6,1.1-1,1.8-1.1c1-0.1,2,0.1,2.8,0.7
		c1.2,1,2,2.4,2.4,3.9c1.2,3.2,1.7,6.6,1.6,10c0,0.5-0.1,0.9-0.1,1.3c-0.1,1.2-0.2,2.3-0.4,3.5c0,0.3-0.2,0.5-0.5,0.5
		s-0.5-0.2-0.5-0.5c0-0.1,0-0.1,0-0.2c0.2-1.1,0.3-2.3,0.4-3.4c0-0.4,0-0.9,0.1-1.4c0.1-3.3-0.4-6.5-1.5-9.6c-0.3-1.3-1-2.5-2-3.4
		c-0.6-0.4-1.3-0.6-2-0.5c-0.4,0.1-0.9,0.3-1.1,0.6c-0.6,0.8-0.3,2.1-0.1,3.2c0.8,3.4,0.9,6.9,0.5,10.4c0,0.3-0.3,0.4-0.5,0.4l0,0
		c-0.3,0-0.5-0.2-0.5-0.5c-0.5-4.3-1.1-9.1-3.5-12.9c-0.5-0.8-1.2-1.5-2-2c-0.7-0.4-1.6-0.4-2.4,0c-1,0.8-1,2.4-0.8,3.9
		c0.4,4.1,0.3,8.1-0.2,12.2c0,0.3-0.3,0.5-0.6,0.4c-0.3,0-0.5-0.3-0.5-0.6c0.3-3.5,0-7-0.8-10.3c-0.6-2.8-1.8-4.6-3.4-5.1
		c-0.4-0.1-0.8-0.2-1.2-0.1c-0.8,0.3-1.4,1-1.5,1.9s-0.1,1.8,0,2.7v0.2c0.4,4.1,0.3,8.2-0.4,12.3c-0.1,0.3-0.3,0.5-0.6,0.4
		c-0.3,0-0.5-0.3-0.4-0.6l0,0c0.5-3.5,0.4-7-0.4-10.4c-0.2-1.3-0.7-2.5-1.5-3.6c-0.7-1-2-1.4-3.1-1c-0.8,0.4-1.4,1.2-1.5,2.2
		c-0.1,0.9-0.2,1.7-0.1,2.6v0.5c0.1,4.2-0.6,8.3-2.2,12.2l-0.4,1c-1.2,2.9-2.5,5.9-2.2,8.9c0.3,3.2,2.8,6.3,6.3,7.7
		c2.9,1.1,6.4,1.3,10.6,0.5c13.2-2.6,21.8-9,25.5-19c0.1-0.3,0.4-0.4,0.7-0.3c0.3,0.1,0.4,0.4,0.3,0.7l0,0
		c-3.8,10.4-12.7,17-26.2,19.7C280.8,236.2,279.1,236.3,277.4,236.3z"/>
	<line class="st5" x1="117" y1="202.5" x2="100.2" y2="215.4"/>
	<path class="st1" d="M100.2,215.9c-0.2,0-0.3-0.1-0.4-0.2c-0.2-0.2-0.1-0.6,0.1-0.7l0,0l16.8-12.9c0.2-0.2,0.5-0.1,0.7,0.1l0,0
		c0.2,0.2,0.1,0.6-0.1,0.7l0,0l-16.8,12.9C100.4,215.8,100.3,215.9,100.2,215.9z"/>
	<path class="st1" d="M146.4,75.3c-0.2,0-0.4-0.2-0.5-0.4c-1.5-6.4-3-12.9-4.4-19.2l-0.1-0.7c-0.7-2.8-1.1-5.7-1.1-8.6
		c0.2-3.1,2.5-3.3,4.5-3.2c0.3-3,1.9-5.7,4.3-7.4c6.1-4.2,12.7-2.3,19.1-0.5c4.2,1.2,8.6,2.5,12.6,1.9c2.7-0.6,5.3-1.5,7.7-2.9
		c0.9-0.4,1.8-0.9,2.6-1.3s10.1-4.4,12.3,0.1c0.6,1.3,0.1,2.7-0.5,3.9c-1.1,2.3-2.5,4.6-4,6.7c1.1-0.7,2.3-1.3,3.5-1.8
		c2.3-1,4.8-1,7.1-0.2c0.9,0.4,1.8,1,2.3,1.9c1.1,1.8,0.6,4.1-1.4,7c-1.8,2.5-3.7,4.9-5.9,7.2c0.6-0.3,1.2-0.7,1.8-1
		c1.9-1.2,3.9-2.4,6.1-1.8c0.8,0.2,1.5,0.7,1.9,1.4c0.7,1.5-0.6,3.2-1,3.7c-3.6,4.7-8.2,8.6-13.4,11.5c-0.3,0.1-0.6,0-0.7-0.2
		c-0.1-0.3,0-0.6,0.2-0.7c5.1-2.8,9.6-6.6,13.1-11.2c0.9-1.2,1.1-2,0.8-2.7c-0.3-0.5-0.7-0.8-1.2-0.9c-1.8-0.5-3.5,0.6-5.3,1.7
		c-1.3,0.9-2.7,1.6-4.2,2c-0.2,0-0.5-0.1-0.6-0.3s-0.1-0.5,0.1-0.6c2.7-2.7,5.2-5.6,7.4-8.7c1.8-2.5,2.2-4.5,1.4-5.9
		c-0.5-0.7-1.1-1.2-1.8-1.5c-2.1-0.8-4.4-0.7-6.4,0.2c-2.1,0.9-4,2.1-5.8,3.5c-0.2,0.2-0.5,0.2-0.7-0.1c-0.2-0.2-0.2-0.5,0-0.7
		c2.3-2.8,4.2-5.8,5.8-9.1c0.5-1,0.9-2.1,0.5-3c-1.5-3-7.8-1.1-10.9,0.3c-0.9,0.4-1.8,0.8-2.6,1.2c-2.5,1.4-5.2,2.4-8,3
		c-4.3,0.6-8.8-0.7-13.1-1.9c-6.4-1.9-12.4-3.6-18.2,0.3c-2.3,1.6-3.8,4.3-3.9,7.1c0,0.1-0.1,0.3-0.2,0.4c-0.1,0.1-0.2,0.1-0.4,0.1
		c-2.7-0.1-3.8,0.1-4,2.2c0,2.8,0.4,5.6,1.1,8.3l0.1,0.7c1.4,6.3,2.8,12.8,4.4,19.2C147,75,146.8,75.2,146.4,75.3
		C146.5,75.3,146.5,75.3,146.4,75.3L146.4,75.3z"/>
</g>
</svg>
