<svg xmlns="http://www.w3.org/2000/svg" viewBox="0 0 400 300"><g id="_237_couple_flatline" data-name="#237_couple_flatline"><path d="M241.21,229.11c.19.49-3.07,13.07-4.16,15.13s-7.85,15-4.47,15.77S248,247.43,249.1,245.93s5.82-14.26,5.82-14.26Z" fill="#fff"/><path d="M232.85,260.53a2.34,2.34,0,0,1-.38,0,1.55,1.55,0,0,1-1.09-.9c-1.27-2.75,3.23-11.82,5.23-15.59,1-2,4.09-13.73,4.11-14.81a.51.51,0,0,1,.11-.41.48.48,0,0,1,.48-.17l13.7,2.55a.51.51,0,0,1,.34.25.52.52,0,0,1,0,.42c-.49,1.31-4.75,12.87-5.89,14.39C249.39,246.38,237.29,260.53,232.85,260.53Zm8.8-30.83a106.6,106.6,0,0,1-4.16,14.77c-3,5.59-6.09,12.79-5.21,14.71a.56.56,0,0,0,.41.34c2.94.65,14.56-12,16-13.89.84-1.13,4.11-9.71,5.54-13.58Z" fill="#231f20"/><path d="M201.92,232.51s-18.44,10.42-19.71,15.77c-1,4,23.51-2.86,26-3.71s4.42-6.18,4.42-6.18l5.95-13-11.5-5.4Z" fill="#fff"/><path d="M184.92,250a4.59,4.59,0,0,1-2.84-.62,1.21,1.21,0,0,1-.35-1.23c1.25-5.3,17.9-14.92,19.8-16l5.14-12.37a.48.48,0,0,1,.67-.26l11.5,5.39a.49.49,0,0,1,.24.66l-6,13c-.06.19-2,5.54-4.72,6.45C208.22,245.11,191.93,250,184.92,250Zm22.47-29.36-5,12a.49.49,0,0,1-.21.24c-.19.11-18.27,10.37-19.47,15.45,0,.16,0,.21.06.26,2.06,1.89,21.58-3.3,25.34-4.55,1.89-.63,3.6-4.45,4.1-5.87L218,225.62Zm-5.47,11.86h0Z" fill="#231f20"/><path d="M321.86,114.27s-5.46-21.65-16.5-27c-10-4.85-201.76-4.85-211.74,0-11,5.37-16.49,27-16.49,27a59.45,59.45,0,0,0-33,37.63l23.94,46.81H330.93l23.94-46.81A59.45,59.45,0,0,0,321.86,114.27Z" fill="#fff"/><path d="M330.93,199.21H68.05a.49.49,0,0,1-.44-.27L43.67,152.13a.45.45,0,0,1,0-.34c.06-.26,6.34-26,33.07-37.88C77.36,111.4,82.78,92,93.4,86.8c9.92-4.82,202.27-4.82,212.18,0,10.62,5.17,16,24.6,16.7,27.11,26.74,11.89,33,37.62,33.08,37.88a.51.51,0,0,1,0,.34l-23.94,46.81A.52.52,0,0,1,330.93,199.21Zm-262.57-1H330.63l23.71-46.37c-.6-2.27-7.38-26-32.68-37.11a.54.54,0,0,1-.29-.34c-.05-.21-5.53-21.49-16.23-26.69-9.87-4.8-201.42-4.8-211.3,0-10.7,5.21-16.17,26.48-16.23,26.69a.53.53,0,0,1-.28.34C52,125.87,45.24,149.57,44.64,151.84Z" fill="#d1d3d4"/><path d="M300.11,173.81l-.14,0a.49.49,0,0,1-.34-.62c.11-.4,11.67-40.52,19.5-53.11a.49.49,0,0,1,.69-.16.5.5,0,0,1,.16.68c-7.76,12.48-19.28,52.46-19.39,52.87A.51.51,0,0,1,300.11,173.81Z" fill="#d1d3d4"/><path d="M329.59,238.39h4.92c-3-3.83-8.29-11.27-9.8-30l-12.12,4S319.13,231.31,329.59,238.39Z" fill="#fff"/><path d="M334.51,238.89h-4.92a.57.57,0,0,1-.28-.08c-10.48-7.1-16.92-25.41-17.19-26.19a.46.46,0,0,1,0-.38.5.5,0,0,1,.29-.26l12.12-4a.49.49,0,0,1,.44.06.47.47,0,0,1,.22.38c1.56,19.44,7.26,26.63,9.69,29.7a.51.51,0,0,1,.06.53A.49.49,0,0,1,334.51,238.89Zm-4.76-1h3.73c-2.7-3.5-7.68-11-9.21-28.8l-11,3.68C314.33,215.72,320.53,231.55,329.75,237.89Z" fill="#d1d3d4"/><path d="M71.08,238.39H66.17c3-3.83,8.29-11.27,9.79-30l12.13,4S81.55,231.31,71.08,238.39Z" fill="#fff"/><path d="M71.08,238.89H66.17a.48.48,0,0,1-.45-.28.49.49,0,0,1,.06-.53c2.43-3.07,8.12-10.26,9.69-29.7a.5.5,0,0,1,.65-.44l12.13,4a.53.53,0,0,1,.29.26.55.55,0,0,1,0,.38c-.27.78-6.72,19.09-17.2,26.19A.54.54,0,0,1,71.08,238.89Zm-3.88-1h3.73c9.21-6.34,15.42-22.17,16.51-25.12l-11-3.68C74.88,226.85,69.89,234.39,67.2,237.89Z" fill="#d1d3d4"/><path d="M332.89,143.48c-7.52,5.82-11.09,48.49-10.72,49.62H77.83c.37-1.13-3.2-43.8-10.72-49.62-7-5.4-25.37-3.39-22.74,15.78,0,0,.94,13.16,9,35.9C59.94,213.58,60.91,216,87.22,216H312.78c26.31,0,27.28-2.45,33.83-20.87,8.08-22.74,9-35.9,9-35.9C358.26,140.09,339.84,138.08,332.89,143.48Z" fill="#fff"/><path d="M312.78,216.53H87.22c-26.77,0-27.77-2.83-34.3-21.2-8-22.54-9-35.9-9.05-36-1.07-7.78,1.27-13.78,6.59-16.86,5.79-3.34,13.17-2.3,17,.64,4.08,3.16,6.87,16.37,8.5,26.89a216.28,216.28,0,0,1,2.43,22.63h243.3A216.28,216.28,0,0,1,324.08,170c1.63-10.52,4.42-23.73,8.5-26.89h0c3.79-2.94,11.17-4,17-.63,5.32,3.07,7.66,9.07,6.59,16.88,0,.1-1,13.46-9.05,36C340.55,213.7,339.55,216.53,312.78,216.53ZM58.47,141.39A15,15,0,0,0,51,143.31c-4.94,2.86-7.11,8.5-6.1,15.89,0,.16,1,13.39,9,35.8,6.47,18.19,7.3,20.53,33.36,20.53H312.78c26.06,0,26.89-2.34,33.36-20.53,8-22.41,9-35.64,9-35.77,1-7.42-1.15-13.06-6.09-15.92-5.35-3.09-12.39-2.12-15.85.56-7.08,5.49-10.87,47.09-10.53,49.11a.45.45,0,0,1-.08.43.49.49,0,0,1-.41.19H77.83a.51.51,0,0,1-.41-.21.52.52,0,0,1-.07-.45c.33-2-3.46-43.58-10.54-49.07A14.07,14.07,0,0,0,58.47,141.39Z" fill="#d1d3d4"/><circle cx="341.72" cy="157.01" r="7.52" fill="#fff"/><path d="M341.72,165a8,8,0,1,1,8-8A8,8,0,0,1,341.72,165Zm0-15a7,7,0,1,0,7,7A7,7,0,0,0,341.72,150Z" fill="#d1d3d4"/><circle cx="60.53" cy="157.01" r="7.52" fill="#fff"/><path d="M60.53,165a8,8,0,1,1,8-8A8,8,0,0,1,60.53,165Zm0-15a7,7,0,1,0,7,7A7,7,0,0,0,60.53,150Z" fill="#d1d3d4"/><path d="M322.17,193.6a.51.51,0,0,1-.31-.11l-24.49-19.68H99.08L78.17,193.46a.5.5,0,0,1-.69-.73l21.06-19.79a.51.51,0,0,1,.34-.13H297.55a.51.51,0,0,1,.31.11l24.63,19.79a.49.49,0,0,1,.07.7A.51.51,0,0,1,322.17,193.6Z" fill="#d1d3d4"/><path d="M98.88,173.81a.49.49,0,0,1-.48-.36C98.28,173,86.76,133.06,79,120.58a.48.48,0,0,1,.16-.68.49.49,0,0,1,.69.16c7.83,12.59,19.38,52.71,19.5,53.11a.5.5,0,0,1-.34.62Z" fill="#d1d3d4"/><path d="M172.65,115.12s-48.29-1.35-61.75,5.72c0,0-5.05-4.71-6.4,0s7.75,55.55,10.44,54.54a21.38,21.38,0,0,0,4.85-2.66s42-1.43,58.81-7.86c0,0,5.08,4.51,6.76,1.49S179,110.07,177,110.75,172.65,115.12,172.65,115.12Z" fill="#fff"/><path d="M114.86,175.9a.88.88,0,0,1-.61-.27c-2.23-2.06-6.07-22.72-6.82-26.84-2.14-11.78-4.12-25.6-3.41-28.08a3,3,0,0,1,2-2.36c1.87-.52,4.17,1.24,4.94,1.9,13.42-6.68,57.1-5.75,61.41-5.64.58-.85,2.61-3.72,4.49-4.34a.7.7,0,0,1,.77.27c2.64,3.2,9.88,53,8.16,56.06a2.4,2.4,0,0,1-1.73,1.25c-2,.34-4.76-1.75-5.57-2.42-16.39,6.1-55.71,7.67-58.54,7.78a21.55,21.55,0,0,1-4.85,2.64A.79.79,0,0,1,114.86,175.9Zm-8.1-56.65a1.7,1.7,0,0,0-.46.06c-.61.17-1,.73-1.32,1.67-1.39,4.89,7.21,51.51,9.91,53.89a21.5,21.5,0,0,0,4.6-2.55.48.48,0,0,1,.28-.1c.42,0,42.07-1.5,58.65-7.83a.5.5,0,0,1,.51.09c.85.76,3.4,2.65,5,2.39a1.41,1.41,0,0,0,1-.76c1.41-2.51-5.72-51.3-8-54.8-1.48.67-3.29,3.14-3.89,4.08a.45.45,0,0,1-.44.23c-.48,0-48.3-1.26-61.5,5.67a.48.48,0,0,1-.57-.08C109.92,120.62,108.13,119.25,106.76,119.25Z" fill="#d1d3d4"/><path d="M107.33,123.57s4.21,31.47,7.75,47.13A116.17,116.17,0,0,0,107.33,123.57Z" fill="#d1d3d4"/><path d="M250.69,147.44s-22.46,15.06-27.06,21.81-23.14,57.81-23.14,57.81l18.07,3.46s23.9-48.44,34.3-54.28,33.21-27.39,33.21-27.39Z" fill="#231f20"/><path d="M218.56,231h-.09l-18.08-3.46a.51.51,0,0,1-.34-.25.49.49,0,0,1,0-.41c.76-2.09,18.62-51.18,23.2-57.92s26.28-21.33,27.2-21.95a.49.49,0,0,1,.29-.08l35.38,1.41a.48.48,0,0,1,.45.32.51.51,0,0,1-.12.54c-.23.21-23,21.65-33.31,27.46-10.15,5.71-33.86,53.59-34.1,54.07A.5.5,0,0,1,218.56,231Zm-17.4-4.34L218.28,230c2.33-4.69,24.27-48.5,34.34-54.16,9.08-5.1,28-22.52,32.24-26.5l-34-1.36c-1.88,1.27-22.49,15.27-26.79,21.6S203.18,221.13,201.16,226.68Z" fill="#231f20"/><path d="M296.83,155s.36,13.89-4.2,19.52S265,195.59,265,195.59l-10.11,40.35-17.15-3.44s4-38.59,11-49.93c4.43-7.14,26.46-31.67,26.46-31.67Z" fill="#231f20"/><path d="M254.89,236.45h-.1L237.64,233a.5.5,0,0,1-.4-.54c.17-1.58,4.08-38.84,11.1-50.14,4.4-7.1,25.62-30.74,26.52-31.74a.49.49,0,0,1,.46-.16l21.6,4.05a.5.5,0,0,1,.41.48c0,.57.31,14.13-4.31,19.84-4.4,5.44-25.36,19.62-27.59,21.11l-10.06,40.18A.51.51,0,0,1,254.89,236.45Zm-16.6-4.35,16.23,3.26,10-39.9a.47.47,0,0,1,.21-.29c.23-.15,23.06-15.51,27.52-21,4-4.89,4.11-16.48,4.09-18.78l-20.92-3.92c-2.15,2.41-22.08,24.72-26.22,31.38C242.7,193.29,238.76,227.74,238.29,232.1Z" fill="#231f20"/><path d="M200.49,105.18c-.1.17.87,10,10.54,9.88l5.91-19.62S201.88,102.8,200.49,105.18Z" fill="#fff"/><path d="M210.89,115.56a10.06,10.06,0,0,1-9.23-5.11c-1.36-2.34-1.83-5.12-1.6-5.52h0c1.42-2.44,15.11-9.17,16.67-9.93a.49.49,0,0,1,.69.59l-5.91,19.61a.52.52,0,0,1-.47.36ZM201,105.33a11.8,11.8,0,0,0,3,6.54,9.22,9.22,0,0,0,6.7,2.69l5.48-18.16C210.28,99.3,202.16,103.69,201,105.33Z" fill="#231f20"/><path d="M248.77,87.18s4.28-5.52,14-7.12,32-4.32,36.53,0,3.94,24,3.94,24h-2.44s2.46,34.2-2.72,54.07c0,0-47.34-9.53-58.84-13.19C239.29,145,244.91,92.67,248.77,87.18Z" fill="#ff0440"/><path d="M278.47,47.63a5.66,5.66,0,0,0-3.5-.16,12.44,12.44,0,0,0-8.7-4.24,11.19,11.19,0,0,0-8.55,3.24c-3.21,3.32-3.76,8.36-3.61,13,.19,6.34,2.43,13.79,8.49,16.8,5.67,2.82,12.53,1,18.11-1.29,1.44-.59,4.64-2.18,4.56-4.17-.07-1.78-3.28-2.31-4.59-3,1.93-3.82,4.26-8.34,3.73-12.77A10.72,10.72,0,0,0,278.47,47.63Z" fill="#fff"/><path d="M269.11,78.18a14.91,14.91,0,0,1-6.74-1.49c-5.23-2.61-8.51-9-8.76-17.23-.2-6.24,1-10.48,3.75-13.33a11.66,11.66,0,0,1,8.93-3.4,13,13,0,0,1,8.86,4.19,6,6,0,0,1,3.49.24h0A11.09,11.09,0,0,1,284.9,55c.53,4.4-1.59,8.74-3.54,12.58.24.1.51.19.79.29,1.58.56,3.55,1.26,3.62,2.92.1,2.35-3.37,4-4.87,4.65A31.46,31.46,0,0,1,269.11,78.18Zm-3.4-34.47a10.67,10.67,0,0,0-7.63,3.11c-2.56,2.65-3.66,6.65-3.47,12.6.09,2.93.95,12.76,8.21,16.37,4.43,2.21,10.22,1.78,17.7-1.3,2-.82,4.31-2.28,4.25-3.69,0-1-1.66-1.56-2.95-2a11.2,11.2,0,0,1-1.37-.54.5.5,0,0,1-.22-.67l.1-.19c1.91-3.78,4.09-8.08,3.58-12.29a10.26,10.26,0,0,0-5.61-7h0a5.16,5.16,0,0,0-3.21-.14.5.5,0,0,1-.5-.17,12.05,12.05,0,0,0-8.35-4.07Z" fill="#231f20"/><path d="M267,79.42l.73,7.74s3.7,5.56,9.56,2.72S283,83.8,283,83.8l-2.87-18.41s-5.12-1.45-5.95-11.7a31.39,31.39,0,0,1-15.59,5.74s-.45,11.42,1.34,16.05S267,79.42,267,79.42Z" fill="#fff"/><path d="M274,91.18c-4.14,0-6.67-3.7-6.7-3.74a.49.49,0,0,1-.08-.23L266.54,80c-1.44,0-5.5-.24-7.06-4.29-1.81-4.67-1.4-15.78-1.38-16.25a.51.51,0,0,1,.46-.48,31.09,31.09,0,0,0,15.32-5.64.49.49,0,0,1,.51-.06.48.48,0,0,1,.3.42c.78,9.72,5.54,11.25,5.59,11.26a.49.49,0,0,1,.36.4l2.87,18.41c0,.2.08,3.65-6,6.61A8,8,0,0,1,274,91.18ZM268.2,87c.53.73,3.83,4.89,8.87,2.45,5.43-2.64,5.44-5.59,5.44-5.61l-2.82-18.06c-1.14-.49-5-2.74-5.91-11.15a32.38,32.38,0,0,1-14.69,5.28c-.06,2.12-.22,11.43,1.32,15.41,1.62,4.2,6.32,3.65,6.51,3.62a.57.57,0,0,1,.38.11.53.53,0,0,1,.19.34Z" fill="#231f20"/><path d="M277.78,70.41a5.05,5.05,0,0,0,3.8-.75,5.4,5.4,0,0,0,2.25-4.81,4.53,4.53,0,0,0-.45-2,2.38,2.38,0,0,0-1.53-1.28,3.87,3.87,0,0,0-2.39.52c-1.12.51-1.15,1.13-1.83,2,.08-.08.14-.32.21-.4" fill="#fff"/><path d="M278.78,71a5.78,5.78,0,0,1-1.1-.11.5.5,0,1,1,.2-1,4.58,4.58,0,0,0,3.42-.67,4.9,4.9,0,0,0,2-4.38,4,4,0,0,0-.39-1.78,1.92,1.92,0,0,0-1.2-1,3.49,3.49,0,0,0-2.07.48,2.22,2.22,0,0,0-1.14,1.12,8.32,8.32,0,0,1-.46.71l-.06.08a.51.51,0,0,1-.69.06.5.5,0,0,1-.09-.69l0,0s0,0,0-.06a1,1,0,0,1,.19-.34.52.52,0,0,1,.11-.1l.09-.14a3.18,3.18,0,0,1,1.59-1.52,4.33,4.33,0,0,1,2.7-.54,2.92,2.92,0,0,1,1.87,1.52,5.16,5.16,0,0,1,.5,2.22,5.89,5.89,0,0,1-2.47,5.24A5.54,5.54,0,0,1,278.78,71Z" fill="#231f20"/><path d="M267.47,84.56a6.36,6.36,0,0,0,5.14-3.12c2.15-3.22,1.46-5.38,1.46-5.38A10.53,10.53,0,0,1,267,79.42Z" fill="#231f20"/><path d="M267.51,85.06h-.06a.49.49,0,0,1-.47-.45l-.49-5.14a.52.52,0,0,1,.13-.38.53.53,0,0,1,.36-.17,10,10,0,0,0,6.71-3.19.54.54,0,0,1,.48-.16.49.49,0,0,1,.37.34c0,.1.74,2.42-1.52,5.81A6.87,6.87,0,0,1,267.51,85.06Zm0-5.17.39,4.14a6.1,6.1,0,0,0,4.28-2.86,7.87,7.87,0,0,0,1.47-4A10.79,10.79,0,0,1,267.53,79.89Z" fill="#231f20"/><path d="M266.48,70.9a2.06,2.06,0,0,1-1.25-.36c-1-.78.13-4.12,1.29-6.77a.5.5,0,0,1,.92.39c-1.11,2.55-1.85,5.17-1.59,5.61.5.36,1.88-.06,2.47-.33a.5.5,0,0,1,.42.9A6,6,0,0,1,266.48,70.9Z" fill="#231f20"/><path d="M267.18,77.6a2.91,2.91,0,0,1-1.8-.57c-1.8-1.44-1.79-4.42-1.79-4.54A.5.5,0,0,1,264,72c7.46-1.27,7.52-1.22,7.75-1a.49.49,0,0,1,.18.37h0a7.44,7.44,0,0,1-.63,3.42,4.85,4.85,0,0,1-3.24,2.73A3.94,3.94,0,0,1,267.18,77.6Zm-2.57-4.69A5,5,0,0,0,266,76.24a2.23,2.23,0,0,0,1.85.28,3.83,3.83,0,0,0,2.56-2.19,6.16,6.16,0,0,0,.54-2.43C269.77,72.06,266.77,72.55,264.61,72.91Z" fill="#231f20"/><ellipse cx="262.93" cy="62.85" rx="0.66" ry="1.51" transform="translate(-5.28 29) rotate(-6.25)" fill="#231f20"/><ellipse cx="271.05" cy="61.34" rx="0.66" ry="1.51" transform="translate(-5.07 29.88) rotate(-6.25)" fill="#231f20"/><path d="M176.59,147.16l-11,8.73s-29.85,8.72-41.11,13.79c0,0-23.93.28-24.78,4.79s16.33,5.63,16.33,5.63L207,170.81S200.89,146.4,176.59,147.16Z" fill="#fff"/><path d="M116.1,180.6c-.64,0-13.71-.93-16.38-4.37a2.25,2.25,0,0,1-.49-1.85c.15-.79.6-3.19,13.14-4.49,5.61-.59,11.19-.69,12-.71,10.92-4.89,39.12-13.2,41-13.75l10.91-8.66a.44.44,0,0,1,.29-.11c24.43-.77,30.85,23.78,30.91,24a.47.47,0,0,1-.08.4.47.47,0,0,1-.35.21Zm60.67-32.95-10.85,8.63a.38.38,0,0,1-.17.08c-.3.09-29.94,8.78-41,13.78a.45.45,0,0,1-.2,0c-9.09.11-23.73,1.39-24.29,4.38a1.26,1.26,0,0,0,.3,1.05c2,2.57,11.92,3.75,15.57,4l90.27-9.23C205.25,166.78,198.25,147.1,176.77,147.65Zm-11.16,8.23h0Z" fill="#231f20"/><path d="M189.54,166.21s-61.38,10.51-65.89,9.67-7.32-2-10.41-1.13S92.4,183.2,96.62,185.17s23.37.84,25.06,0,80,1.09,80,1.09S206.71,168.09,189.54,166.21Z" fill="#fff"/><path d="M107.45,186.78c-4.72,0-9.21-.31-11-1.16a1.36,1.36,0,0,1-.93-1.36c.28-3.23,15.41-9.39,17.62-10,2.46-.67,4.74-.16,7.63.48.92.21,1.92.43,3,.63,3.49.67,44.5-6,65.7-9.66h.14c5,.54,8.6,2.47,10.81,5.74,4.13,6.1,1.83,14.59,1.73,15a.57.57,0,0,1-.5.36c-31-.77-77.83-1.7-79.76-1.13C120.72,186.21,113.87,186.78,107.45,186.78ZM115.54,175a8.08,8.08,0,0,0-2.17.28,74.66,74.66,0,0,0-9.48,4c-5.37,2.66-7.35,4.39-7.41,5.12,0,.05,0,.19.35.36,4.1,1.92,23.13.76,24.63,0,1.7-.85,65.83.69,79.8,1,.38-1.69,1.71-8.72-1.69-13.74-2-3-5.4-4.78-10-5.3-3.36.58-61.48,10.52-66,9.66-1.11-.21-2.11-.43-3-.64A23.5,23.5,0,0,0,115.54,175Z" fill="#231f20"/><path d="M197.05,133.92s-9.2,2.81-20.46,13.24c0,0,11.82,7,12.95,19.05,0,0,11.26,8.63,9.76,19.9,0,0,28.07,6.57,38.44-4.23s11-34.44,11-34.44Z" fill="#231f20"/><path d="M217.18,188.59c-.84,0-1.69,0-2.57-.05a89.77,89.77,0,0,1-15.42-1.95.5.5,0,0,1-.39-.55c1.45-10.85-9.46-19.35-9.57-19.43a.51.51,0,0,1-.19-.35c-1.09-11.63-12.59-18.6-12.71-18.67a.52.52,0,0,1-.24-.38.48.48,0,0,1,.16-.42c11.21-10.38,20.56-13.32,20.65-13.34a.5.5,0,0,1,.27,0L248.89,147a.49.49,0,0,1,.38.49c0,1-.79,24-11.17,34.78C234,186.45,227,188.59,217.18,188.59Zm-17.33-2.88c3.58.77,28.17,5.56,37.52-4.17S248.1,151,248.25,147.82l-51.19-13.38c-1.14.39-9.55,3.44-19.66,12.65,2.37,1.59,11.52,8.37,12.61,18.86C191.48,167.12,201,175.16,199.85,185.71Z" fill="#231f20"/><path d="M253,49.07c-9-11.78-24.72-6.44-29.63,5.9-2,4.9-3.81,9.33-7.29,13.38-3.09,3.62-7.87,6.74-8.2,12-.23,3.62,2.1,7.06,5.16,9s6.77,2.64,10.39,2.94a58,58,0,0,0,23.88-3c3.12-1.08,6.78-2.86,8.5-5.87,2.11-3.68,0-6.59-.71-10.42-.6-3.19.53-6.4,1.31-9.55C257.67,58.18,256.22,53.32,253,49.07Z" fill="#fff"/><path d="M228.22,93c-1.62,0-3.25-.07-4.86-.21-3.15-.27-7.2-.85-10.61-3s-5.62-5.94-5.4-9.47c.26-4.09,3.09-6.9,5.82-9.61.9-.89,1.75-1.74,2.51-2.62,3.33-3.88,5.15-8.11,7.19-13.24,2.69-6.76,8.73-11.72,15.38-12.64,5.86-.81,11.23,1.54,15.11,6.61h0c3.59,4.69,4.76,9.66,3.5,14.78-.13.52-.26,1-.4,1.57-.68,2.56-1.38,5.21-.9,7.76a24.89,24.89,0,0,0,.77,2.92c.78,2.57,1.52,5-.11,7.85-1.45,2.52-4.4,4.57-8.77,6.09A58.94,58.94,0,0,1,228.22,93Zm12.26-50a14.8,14.8,0,0,0-2.09.15c-6.31.87-12,5.59-14.59,12-2.08,5.21-3.94,9.52-7.37,13.52-.78.91-1.69,1.81-2.56,2.68-2.6,2.58-5.29,5.25-5.53,9-.2,3.16,1.74,6.52,4.94,8.56s7.13,2.61,10.16,2.87a57.89,57.89,0,0,0,23.68-3c4.14-1.44,6.91-3.34,8.23-5.65,1.42-2.48.78-4.6,0-7.06a26.08,26.08,0,0,1-.8-3c-.52-2.77.21-5.54.92-8.21.13-.52.27-1,.4-1.55,1.18-4.81.06-9.5-3.33-13.93C249.39,45.21,245.15,43,240.48,43Z" fill="#231f20"/><path d="M256.42,83.69C256.34,82.57,217,66,213.2,80.42c-7.86,30.11-16.15,53.5-16.15,53.5s18.52,16,31.9,16.9a42.57,42.57,0,0,0,19.82-3.38S258.49,114.39,256.42,83.69Z" fill="#ff0440"/><path d="M256.49,84.93s3.94.85,3.72,10.56c-.15,6.88-3.94,45.83-6.48,48.76s-33.27,12.28-35.33,14.31-8.21,11.4-9.9,10.65,4-16.4,6.81-17.71,33.46-20.2,33.46-20.2S257.13,95.74,256.49,84.93Z" fill="#fff"/><path d="M208.7,169.75a.94.94,0,0,1-.41-.08c-.59-.26-.6-1.08-.6-1.34,0-3.52,4.71-16,7.41-17.29s30.71-18.51,33.23-20.06c.67-2.9,8.26-35.83,7.66-46a.49.49,0,0,1,.18-.41.45.45,0,0,1,.43-.11c.17,0,4.33,1,4.11,11.06-.13,5.73-3.81,45.86-6.6,49.07-1.39,1.61-9.5,4.59-20.81,8.63-6.74,2.41-13.71,4.89-14.55,5.72a42.57,42.57,0,0,0-2.92,3.59C212.42,166.94,210.14,169.75,208.7,169.75Zm48.32-84c.2,11.63-7.43,44.22-7.77,45.64a.5.5,0,0,1-.22.31c-1.25.77-30.7,18.92-33.51,20.23-1.61.75-4.73,7.68-6.17,12.82-1,3.43-.59,4-.59,4,.82.18,4.51-4.61,6.28-6.9a44.26,44.26,0,0,1,3-3.7c.94-.93,6.28-2.86,14.91-5.94s19.07-6.81,20.4-8.34c2.36-2.73,6.19-41.15,6.35-48.44C259.86,88.85,258,86.54,257,85.77Zm-8.25,45.53Z" fill="#231f20"/><path d="M243.07,78.73l-.32,9.17s-1.33,4.15-7.42,2.51-6.87-5.88-6.87-5.88l1.2-17.07s9.73-4.85,8.65-14.75A12.59,12.59,0,0,0,251,59.65a109.68,109.68,0,0,1-1,13.52C249.13,77.89,243.07,78.73,243.07,78.73Z" fill="#fff"/><path d="M238,91.29a10.73,10.73,0,0,1-2.76-.4c-6.31-1.7-7.2-6.08-7.24-6.27a.56.56,0,0,1,0-.13l1.2-17.07a.53.53,0,0,1,.28-.41c.09-.05,9.41-4.82,8.38-14.24a.5.5,0,0,1,.36-.54.51.51,0,0,1,.59.28,12,12,0,0,0,12.14,6.64.48.48,0,0,1,.39.13.51.51,0,0,1,.16.37,107.26,107.26,0,0,1-1,13.61c-.78,4.33-5.48,5.6-6.92,5.9l-.31,8.76a.59.59,0,0,1,0,.13A5.3,5.3,0,0,1,238,91.29Zm-9-6.8c.12.51,1.13,4,6.5,5.43,5.2,1.4,6.61-1.63,6.8-2.12l.31-9.08a.49.49,0,0,1,.43-.48c.06,0,5.72-.85,6.5-5.16a103,103,0,0,0,.95-12.89,12.88,12.88,0,0,1-11.56-5.57c-.23,8-7.3,12.33-8.75,13.15Zm13.79,3.41h0Z" fill="#231f20"/><path d="M232.57,67a4.75,4.75,0,0,0-4.85-3.45c-2.67.33-2.73,3.34-1.95,5.31a4.85,4.85,0,0,0,6.36,2.69" fill="#fff"/><path d="M230.28,72.46a5.18,5.18,0,0,1-2.09-.43,5.34,5.34,0,0,1-2.88-3,5.52,5.52,0,0,1,.05-4.55,3,3,0,0,1,2.3-1.44,5.21,5.21,0,0,1,5.4,3.85.49.49,0,0,1-.38.59.5.5,0,0,1-.6-.38,4.28,4.28,0,0,0-4.3-3.07,2,2,0,0,0-1.56,1,4.55,4.55,0,0,0,0,3.67,4.37,4.37,0,0,0,5.71,2.42.5.5,0,0,1,.38.92A5.35,5.35,0,0,1,230.28,72.46Z" fill="#231f20"/><path d="M243.11,63.91s3.25,4.76,2.5,5.6-2.9.31-2.9.31" fill="#fff"/><path d="M244.08,70.49a6.86,6.86,0,0,1-1.49-.18.51.51,0,0,1-.36-.61.49.49,0,0,1,.6-.36c.61.14,2,.3,2.41-.16.14-.44-1-2.78-2.54-5a.5.5,0,0,1,.82-.56c1.59,2.32,3.3,5.28,2.46,6.22A2.54,2.54,0,0,1,244.08,70.49Z" fill="#231f20"/><ellipse cx="240.46" cy="61.36" rx="0.75" ry="1.73" fill="#231f20"/><ellipse cx="248.01" cy="62.66" rx="0.75" ry="1.73" fill="#231f20"/><path d="M243.07,78.73a11.34,11.34,0,0,1-7.57-2.31s1.34,6.5,7.4,7.27Z" fill="#231f20"/><path d="M242.9,84.19h-.06c-6.34-.81-7.81-7.6-7.83-7.67a.51.51,0,0,1,.22-.52.5.5,0,0,1,.56,0A11.05,11.05,0,0,0,243,78.24a.46.46,0,0,1,.4.12.49.49,0,0,1,.17.39l-.17,5a.5.5,0,0,1-.18.36A.47.47,0,0,1,242.9,84.19Zm-6.53-6.62a8.38,8.38,0,0,0,6,5.54l.13-3.84A12.06,12.06,0,0,1,236.37,77.57Z" fill="#231f20"/><path d="M242.92,74.51a5,5,0,0,1-3.08-1c-2.71-2-2.61-6.43-2.6-6.62a.49.49,0,0,1,.51-.48.51.51,0,0,1,.49.51s-.09,4.09,2.2,5.79c1.23.91,2.95,1,5.12.27a.5.5,0,0,1,.64.32.51.51,0,0,1-.32.63A9.35,9.35,0,0,1,242.92,74.51Z" fill="#231f20"/><path d="M209.25,87c-1.48,6.4-8.62,41.6-6.91,45.23s47.32,3.1,49.42,3.1,8.6,8.45,10.7,5.63-5.59-11.54-7-11.82-35.29-7.79-35.29-7.79,7.16-29.66,5.21-37.66C223.64,76.78,212.58,72.57,209.25,87Z" fill="#fff"/><path d="M261.32,142c-1.69,0-3.89-1.88-6-3.71-1.36-1.17-2.92-2.5-3.54-2.5H251c-21.59.14-47.63-.32-49.07-3.39-1.89-4,6-41.64,6.87-45.57h0c2.09-9,6.91-10,8.89-10h0a8.87,8.87,0,0,1,8.13,6.73c1.85,7.55-4.12,33.36-5.08,37.4,4.19.93,33.45,7.42,34.78,7.68s6,5.4,7.35,9c.61,1.58.61,2.79,0,3.61a1.78,1.78,0,0,1-1.31.76Zm-9.56-7.21c1,0,2.21,1,4.19,2.74s4.21,3.61,5.49,3.46a.82.82,0,0,0,.62-.37c.48-.63.22-1.74-.09-2.56-1.37-3.66-5.86-8.3-6.64-8.47-1.44-.28-33.92-7.48-35.3-7.79a.52.52,0,0,1-.32-.22.54.54,0,0,1-.06-.39c.07-.29,7.11-29.63,5.2-37.42-.83-3.37-3.95-6-7.2-6-3.67,0-6.56,3.4-7.92,9.27h0c-1.83,7.92-8.5,41.58-6.93,44.91.68,1.45,13.69,3,48.15,2.82Z" fill="#231f20"/><path d="M300.85,104.08s-.38,35.85-4.13,38.67c-1.59,1.19-4.78.42-6.54.16a101.55,101.55,0,0,1-10.45-2.32c-2.4-.63-4.76-1.39-7.14-2.12-1.19-.37-2.38-.72-3.58-1.05-.7-.19-2.78-1.08-3.44-.8s-1.22,1.78-1.63,2.25a12.61,12.61,0,0,1-2.16,2,12.81,12.81,0,0,1-5.06,2.24,3.82,3.82,0,0,1-2.88-.67c-.27-.18-2-1.57-1.71-2,1.34-2.28,5.09-4.92,7.07-6.66-.51-.63-1.67-2.85-2.18-3.48,2.94-1.25,5.94-1,9.13-.74,2.46.18,4.92.42,7.37.64q5.69.53,11.37,1.1l.19-28.35" fill="#fff"/><path d="M294.17,143.9a20.16,20.16,0,0,1-3.31-.38l-.75-.12a101.07,101.07,0,0,1-10.5-2.32c-1.87-.49-3.74-1.07-5.54-1.63l-1.62-.5q-1.79-.55-3.57-1c-.18,0-.46-.14-.77-.25a7.19,7.19,0,0,0-2.34-.57,5.19,5.19,0,0,0-.85,1.2,6.63,6.63,0,0,1-.61.92,13.45,13.45,0,0,1-7.5,4.37,4.3,4.3,0,0,1-3.24-.74s-2.43-1.69-1.87-2.64c1.05-1.8,3.49-3.77,5.44-5.36l1.39-1.13c-.25-.38-.54-.88-.85-1.4a17.41,17.41,0,0,0-1.05-1.68.49.49,0,0,1-.1-.44.54.54,0,0,1,.29-.34c2.91-1.24,5.82-1,8.9-.81l.47,0c2.11.15,4.24.34,6.31.54l1.07.1c3.61.33,7.22.68,10.83,1l.18-27.79a.5.5,0,0,1,.5-.5h0a.5.5,0,0,1,.5.51l-.19,28.34a.52.52,0,0,1-.16.37.51.51,0,0,1-.39.12q-5.67-.56-11.36-1.09l-1.07-.1c-2.06-.19-4.19-.39-6.29-.54l-.47,0c-2.75-.2-5.35-.39-7.86.51.22.35.48.79.75,1.25a18.31,18.31,0,0,0,1,1.67.5.5,0,0,1-.06.69c-.5.44-1.1.93-1.76,1.46-1.84,1.5-4.13,3.35-5.13,4.95a7.62,7.62,0,0,0,1.47,1.43,3.33,3.33,0,0,0,2.51.6,12.51,12.51,0,0,0,6.94-4.05,6.52,6.52,0,0,0,.5-.77c.51-.85.87-1.43,1.32-1.62.62-.25,1.71.08,3.06.56l.7.23c1.21.32,2.4.68,3.6,1.05l1.63.5c1.79.56,3.65,1.14,5.49,1.62a97.77,97.77,0,0,0,10.4,2.3l.77.13c1.67.28,4.18.71,5.39-.19,2.61-2,3.78-24,3.93-38.28a.49.49,0,0,1,.5-.49h0a.5.5,0,0,1,.5.5c0,3.7-.49,36.18-4.33,39.07A4.78,4.78,0,0,1,294.17,143.9Z" fill="#231f20"/><path d="M211.33,92a3,3,0,0,1,.55,0,.9.9,0,0,1,.55.27.76.76,0,0,1,.15.62,1.76,1.76,0,0,1-.72,1.14,5.53,5.53,0,0,1-1.23.64l-4.34,1.8a15.72,15.72,0,0,1,4.35-.72,2.34,2.34,0,0,1,1.3.31c3,2-3.86,4.31-5,4.5,1.16-.18,3.59-1.7,4.46-.15a1.41,1.41,0,0,1-.2,1.49,3.74,3.74,0,0,1-1.26,1,43.17,43.17,0,0,1-7.33,3.25c-3.56,1.2-2.47-7.15-2.2-8.85a11.29,11.29,0,0,1,5.16-7.71,8.56,8.56,0,0,1,4.59-1.42c2.36.16,1.17,2.23-.07,3.11a25.53,25.53,0,0,1-3.64,2.14A13.31,13.31,0,0,1,211.33,92Z" fill="#fff"/><path d="M201.92,106.81a1.86,1.86,0,0,1-1.19-.43c-2-1.67-1-7.89-.85-9.12a11.76,11.76,0,0,1,5.39-8.05,9.14,9.14,0,0,1,4.88-1.49c1.23.08,1.65.63,1.77,1.08.26.92-.5,2.08-1.4,2.79a4.48,4.48,0,0,1,.81-.06h0a3.37,3.37,0,0,1,.66.06,1.42,1.42,0,0,1,.82.44,1.26,1.26,0,0,1,.27,1,2.26,2.26,0,0,1-.92,1.47,5.61,5.61,0,0,1-1.34.71l-.29.12h.12a2.82,2.82,0,0,1,1.56.4,1.68,1.68,0,0,1,.93,1.79,3.73,3.73,0,0,1-2,2,1.74,1.74,0,0,1,.65.69,1.9,1.9,0,0,1-.23,2,4.38,4.38,0,0,1-1.42,1.1,45.81,45.81,0,0,1-7.41,3.29A2.55,2.55,0,0,1,201.92,106.81Zm7.9-18.11a8.74,8.74,0,0,0-4,1.35,10.8,10.8,0,0,0-4.92,7.38c-.45,2.73-.69,7.17.51,8.19a1,1,0,0,0,1,.1,43,43,0,0,0,7.25-3.21,3.46,3.46,0,0,0,1.1-.83.93.93,0,0,0,.17-1c-.29-.52-.9-.51-1.69-.3s-1.36.47-1.79.59l-.47.12h0a.5.5,0,0,1-.15-1,6.81,6.81,0,0,0,1-.31c.34-.13.73-.26,1.13-.37,1.45-.58,3-1.43,3.2-2.16,0-.09.08-.36-.51-.76a2,2,0,0,0-1-.23,15.68,15.68,0,0,0-4.22.71.5.5,0,0,1-.31-.94l4.34-1.8a5.15,5.15,0,0,0,1.12-.58,1.29,1.29,0,0,0,.53-.8.45.45,0,0,0,0-.24.58.58,0,0,0-.28-.1,2.29,2.29,0,0,0-.47,0,13,13,0,0,0-4.47,1.27l-.21.11a.5.5,0,0,1-.66-.23.51.51,0,0,1,.22-.67l.22-.1a25.23,25.23,0,0,0,3.36-2c.73-.52,1.32-1.41,1.2-1.83s-.65-.35-.88-.37Z" fill="#231f20"/><path d="M189.36,74l-9.12-7.24C180,51.93,166,40,148.82,40S117.4,52.15,117.4,67.18,131.47,94.4,148.82,94.4c14.23,0,26.24-8.18,30.11-19.41Z" fill="#fff"/><path d="M148.82,94.9c-17.6,0-31.92-12.43-31.92-27.72s14.32-27.72,31.92-27.72c17.25,0,31.51,12.12,31.91,27.06l8.94,7.1a.49.49,0,0,1,.17.53.49.49,0,0,1-.44.35l-10.1,1C175.17,86.92,162.7,94.9,148.82,94.9Zm0-54.44c-17,0-30.92,12-30.92,26.72S131.77,93.9,148.82,93.9c13.58,0,25.76-7.84,29.64-19.08a.51.51,0,0,1,.43-.33l9.18-.87-8.14-6.46a.47.47,0,0,1-.19-.38C179.49,52.27,165.62,40.46,148.82,40.46Z" fill="#231f20"/><path d="M149.34,83s-15.84-10.12-15.5-19.91,8.77-8.94,11.64-7.42,4.73,5.23,4.73,5.23a8.8,8.8,0,0,1,7.8-5.83c6.07-.34,8.67,5.28,4.29,14.89A26.64,26.64,0,0,1,149.34,83Z" fill="#ff0440"/></g></svg>