<svg xmlns="http://www.w3.org/2000/svg" viewBox="0 0 400 300"><g id="_156_data_collecting_flatline" data-name="#156_data_collecting_flatline"><rect x="238.42" y="46.71" width="35.11" height="23.89" fill="#d1d3d4"/><rect x="123.53" y="52.33" width="36.76" height="25.79" fill="#fff"/><path d="M160.29,78.62H123.52a.5.5,0,0,1-.5-.5V52.33a.5.5,0,0,1,.5-.5h36.77a.5.5,0,0,1,.5.5V78.12A.5.5,0,0,1,160.29,78.62Zm-36.27-1h35.77V52.83H124Z" fill="#231f20"/><polygon points="289.38 250.2 111.7 250.2 132.52 227 268.56 227 289.38 250.2" fill="#fff"/><path d="M289.38,250.7H111.7a.5.5,0,0,1-.46-.29.51.51,0,0,1,.09-.54l20.82-23.2a.48.48,0,0,1,.37-.17h136a.5.5,0,0,1,.38.17l20.82,23.2a.51.51,0,0,1,.08.54A.5.5,0,0,1,289.38,250.7Zm-176.56-1H288.26l-19.92-22.2H132.74Z" fill="#d1d3d4"/><path d="M138.1,231.3l-11.32,12.62c-.9,1,.09,2.33,1.74,2.33h144c1.65,0,2.63-1.33,1.73-2.33L263,231.3a3.39,3.39,0,0,0-2.51-1H140.62A3.41,3.41,0,0,0,138.1,231.3Z" fill="#fff"/><path d="M272.57,246.75h-144a2.56,2.56,0,0,1-2.43-1.34,1.65,1.65,0,0,1,.32-1.83L137.73,231a3.88,3.88,0,0,1,2.89-1.16H260.47a3.87,3.87,0,0,1,2.88,1.16l11.32,12.61a1.64,1.64,0,0,1,.33,1.83A2.58,2.58,0,0,1,272.57,246.75ZM138.1,231.3l.38.33-11.33,12.62a.68.68,0,0,0-.15.75,1.6,1.6,0,0,0,1.52.75h144a1.61,1.61,0,0,0,1.52-.75.66.66,0,0,0-.16-.75l-11.32-12.62a3,3,0,0,0-2.14-.82H140.62a2.94,2.94,0,0,0-2.14.82Z" fill="#d1d3d4"/><path d="M184.54,207.37c-3.94-4.66-5.17-8.66-5.71-14.81a9.38,9.38,0,0,1,.24-3.88,8.31,8.31,0,0,1,4.26-4.26,20.64,20.64,0,0,1,11.23-2.25c4.2.34,7.4,2.69,11.07,4.62,3.13,1.65,7.12,3.52,7.94,7.17.56,2.46.1,15.52.1,18,0,8.5,0,24.89,0,24.89H185.44l-.3-24.84S185.52,208.52,184.54,207.37Z" fill="#fff"/><path d="M213.68,237.38H185.44a.49.49,0,0,1-.5-.49l-.3-24.83c.14-1.35.13-3.65-.48-4.37h0c-4.21-5-5.32-9.29-5.83-15.09a10,10,0,0,1,.27-4.08c.61-1.76,2.12-3.29,4.5-4.54a21.25,21.25,0,0,1,11.5-2.31c3.43.28,6.14,1.81,9,3.43.74.42,1.49.84,2.25,1.25l.57.29c3,1.58,6.8,3.55,7.63,7.2.45,2,.27,10.15.17,15,0,1.42-.06,2.55-.06,3.12,0,8.5,0,24.88,0,24.88a.53.53,0,0,1-.15.36A.5.5,0,0,1,213.68,237.38Zm-27.75-1h27.25c0-2.8,0-16.76,0-24.38,0-.58,0-1.71.06-3.15.09-4.52.27-12.95-.14-14.78-.73-3.2-4.13-5-7.12-6.54l-.57-.3c-.78-.41-1.53-.83-2.28-1.25-2.77-1.57-5.39-3-8.6-3.31a20.26,20.26,0,0,0-11,2.2c-2.14,1.12-3.49,2.46-4,4a9,9,0,0,0-.23,3.66c.51,5.74,1.55,9.75,5.61,14.53h0c1.08,1.29.75,4.68.71,5.06Z" fill="#231f20"/><polygon points="217.92 240.09 181.8 240.09 183.03 219.04 216.7 219.04 217.92 240.09" fill="#231f20"/><path d="M217.92,240.59H181.8a.48.48,0,0,1-.36-.16.55.55,0,0,1-.14-.37L182.53,219a.49.49,0,0,1,.49-.47H216.7a.51.51,0,0,1,.5.47l1.22,21.05a.47.47,0,0,1-.14.37A.48.48,0,0,1,217.92,240.59Zm-35.59-1h35.06l-1.16-20.05H183.49Z" fill="#231f20"/><path d="M237.85,129.7v35.53a37.31,37.31,0,0,1-74.62,0V129.7h12.83v35.53a24.49,24.49,0,1,0,49,0V129.7Z" fill="#ff0440"/><path d="M200.54,203a37.84,37.84,0,0,1-37.8-37.81V129.7a.49.49,0,0,1,.49-.5h12.83a.5.5,0,0,1,.5.5v35.53a24,24,0,1,0,48,0V129.7a.5.5,0,0,1,.5-.5h12.82a.5.5,0,0,1,.5.5v35.53A37.85,37.85,0,0,1,200.54,203ZM163.73,130.2v35a36.81,36.81,0,0,0,73.62,0v-35H225.52v35a25,25,0,0,1-50,0v-35Z" fill="#ff0440"/><polygon points="176.06 142.53 176.06 129.7 163.23 129.7 163.23 142.53 169.65 142.53 176.06 142.53" fill="#231f20"/><path d="M176.06,143H163.23a.49.49,0,0,1-.49-.49V129.7a.49.49,0,0,1,.49-.5h12.83a.5.5,0,0,1,.5.5v12.84A.5.5,0,0,1,176.06,143Zm-12.33-1h11.83V130.2H163.73Z" fill="#231f20"/><rect x="225.03" y="129.7" width="12.83" height="12.84" fill="#231f20"/><path d="M237.85,143H225a.49.49,0,0,1-.5-.49V129.7a.5.5,0,0,1,.5-.5h12.82a.5.5,0,0,1,.5.5v12.84A.49.49,0,0,1,237.85,143Zm-12.33-1h11.83V130.2H225.52Z" fill="#231f20"/><path d="M194.67,178.78c-5.08.52-10.61,1.76-13.61,5.76-1.5,2-2.11,4.9-.64,6.93,1.65,2.26,5,2.46,7.84,2.3A45.61,45.61,0,0,0,205,190.05c3.73-1.75,7.95-7,2.85-10.1-1.33-.8-3.16-.7-4.66-.92A34.46,34.46,0,0,0,194.67,178.78Z" fill="#fff"/><path d="M186.83,194.31c-2.43,0-5.27-.43-6.81-2.55-1.69-2.32-.85-5.52.64-7.52,3.29-4.39,9.54-5.5,14-6a34.67,34.67,0,0,1,8.68.26c.39.05.8.09,1.21.12a8.34,8.34,0,0,1,3.64.87c2.25,1.35,2.65,3,2.59,4.21-.14,2.79-2.93,5.56-5.49,6.76-4.57,2.14-10.11,3.38-17,3.77C187.83,194.29,187.34,194.31,186.83,194.31Zm11-15.19a29.69,29.69,0,0,0-3.13.16h0c-4.23.43-10.21,1.49-13.26,5.56-1.28,1.71-2,4.42-.63,6.33,1.58,2.17,5,2.24,7.41,2.1,6.7-.39,12.13-1.59,16.58-3.67,2.32-1.09,4.8-3.6,4.91-5.91a3.62,3.62,0,0,0-2.1-3.31,7.54,7.54,0,0,0-3.21-.72l-1.27-.13A36.34,36.34,0,0,0,197.85,179.12Zm-3.18-.34Z" fill="#231f20"/><path d="M213.67,215.83s4.93-30.67,2.78-37.17c-.7-2.14-4.54,1.09-6.21,7.55a50.81,50.81,0,0,0-1.76,10.67s-8.41.37-8.61,9.25c-.15,6.9,1.32,9,1.32,9" fill="#fff"/><path d="M213.67,216.33h-.08a.5.5,0,0,1-.41-.58c0-.3,4.89-30.62,2.8-36.93-.11-.33-.25-.32-.34-.32-1,0-3.6,2.76-4.92,7.84A51,51,0,0,0,209,196.89a.49.49,0,0,1-.47.49,8.51,8.51,0,0,0-8.14,8.76c-.14,6.57,1.21,8.66,1.23,8.68a.51.51,0,0,1-.13.69.49.49,0,0,1-.69-.12c-.07-.09-1.56-2.29-1.41-9.27.18-8,6.81-9.45,8.63-9.69a54.51,54.51,0,0,1,1.75-10.34c1.36-5.23,4.1-8.53,5.86-8.59a1.29,1.29,0,0,1,1.32,1c2.16,6.55-2.56,36.16-2.77,37.41A.49.49,0,0,1,213.67,216.33Z" fill="#231f20"/><rect x="110.62" y="92.87" width="38.82" height="26.18" fill="#d1d3d4"/><rect x="262.47" y="79.48" width="16.89" height="16.89" fill="#fff"/><path d="M279.36,96.86H262.47a.5.5,0,0,1-.5-.5V79.48a.5.5,0,0,1,.5-.5h16.89a.5.5,0,0,1,.5.5V96.36A.5.5,0,0,1,279.36,96.86Zm-16.39-1h15.89V80H263Z" fill="#231f20"/><rect x="111.7" y="250.2" width="177.68" height="4.98" fill="#fff"/><path d="M289.38,255.68H111.7a.5.5,0,0,1-.5-.5v-5a.5.5,0,0,1,.5-.5H289.38a.5.5,0,0,1,.5.5v5A.5.5,0,0,1,289.38,255.68Zm-177.18-1H288.88v-4H112.2Z" fill="#d1d3d4"/><rect x="193.37" y="73.64" width="36.02" height="28.56" fill="#fff"/><path d="M229.39,102.7h-36a.51.51,0,0,1-.5-.5V73.64a.51.51,0,0,1,.5-.5h36a.5.5,0,0,1,.5.5V102.2A.5.5,0,0,1,229.39,102.7Zm-35.52-1h35V74.14h-35Z" fill="#231f20"/><rect x="154.76" y="56.85" width="15.89" height="12.04" fill="#d1d3d4"/><rect x="236.41" y="110.63" width="14.75" height="14.75" fill="#d1d3d4"/><rect x="166.81" y="88.63" width="12.77" height="12.77" fill="#fff"/><path d="M179.58,101.89H166.81a.5.5,0,0,1-.5-.5V88.63a.5.5,0,0,1,.5-.5h12.77a.5.5,0,0,1,.5.5v12.76A.5.5,0,0,1,179.58,101.89Zm-12.27-1h11.77V89.13H167.31Z" fill="#d1d3d4"/><rect x="214.78" y="58.66" width="11.24" height="8.43" fill="#fff"/><path d="M226,67.59H214.78a.51.51,0,0,1-.5-.5V58.66a.5.5,0,0,1,.5-.5H226a.5.5,0,0,1,.5.5v8.43A.5.5,0,0,1,226,67.59Zm-10.74-1h10.24V59.16H215.28Z" fill="#d1d3d4"/><rect x="211.58" y="114.79" width="6.41" height="6.41" fill="#fff"/><path d="M218,121.71h-6.41a.5.5,0,0,1-.5-.5v-6.42a.5.5,0,0,1,.5-.5H218a.5.5,0,0,1,.5.5v6.42A.5.5,0,0,1,218,121.71Zm-5.91-1h5.41v-5.42h-5.41Z" fill="#231f20"/><rect x="168.8" y="118" width="16.05" height="7.37" fill="#d1d3d4"/><rect x="154.76" y="113.74" width="5.32" height="5.32" fill="#fff"/><path d="M160.07,119.55h-5.31a.5.5,0,0,1-.5-.5v-5.31a.5.5,0,0,1,.5-.5h5.31a.5.5,0,0,1,.5.5v5.31A.5.5,0,0,1,160.07,119.55Zm-4.81-1h4.31v-4.31h-4.31Z" fill="#d1d3d4"/><rect x="193.37" y="44.82" width="10.99" height="10.99" fill="#d1d3d4"/><rect x="243.79" y="92.87" width="9.78" height="7.62" fill="#fff"/><path d="M253.57,101h-9.78a.5.5,0,0,1-.5-.5V92.87a.5.5,0,0,1,.5-.5h9.78a.5.5,0,0,1,.5.5v7.62A.5.5,0,0,1,253.57,101Zm-9.28-1h8.78V93.37h-8.78Z" fill="#d1d3d4"/></g></svg>