<svg xmlns="http://www.w3.org/2000/svg" viewBox="0 0 400 300"><g id="_316_decision_flatline" data-name="#316_decision_flatline"><path d="M293.71,238.54H106.29a.5.5,0,1,1,0-1H293.71a.5.5,0,0,1,0,1Z" fill="#d1d3d4"/><path d="M148.91,248.82c-.54.14,11,2.2,13.6,3.34.88.38.76,5.42.76,5.42L132.84,259V245.5Z" fill="#fff"/><path d="M132.84,259.46a.52.52,0,0,1-.35-.14.55.55,0,0,1-.15-.36V245.5a.49.49,0,0,1,.18-.38.46.46,0,0,1,.42-.1L149,248.34a.48.48,0,0,1,.23.1c.44.14,2,.46,3.49.78a83.59,83.59,0,0,1,10,2.48c1,.43,1.12,3.44,1.06,5.89a.49.49,0,0,1-.47.49l-30.44,1.37Zm.5-13.34v12.31l29.44-1.33c0-2.2-.2-4.21-.51-4.5a88.31,88.31,0,0,0-9.75-2.4,31.63,31.63,0,0,1-3.83-.91Z" fill="#231f20"/><path d="M140,254v10.71s25.21,1.36,25.76,0,0-4.47,0-4.47-16-4.34-16-4.88S140,254,140,254Z" fill="#fff"/><path d="M157.91,265.86c-4.31,0-10.29-.2-17.89-.61a.5.5,0,0,1-.48-.5V254a.48.48,0,0,1,.16-.36.49.49,0,0,1,.38-.13c8.36.69,9.88,1.14,10.16,1.57,1.18.63,10.14,3.17,15.69,4.68a.5.5,0,0,1,.36.39c.06.34.55,3.3,0,4.75C166,265.56,163.22,265.86,157.91,265.86Zm-17.37-1.58c11.18.59,23.43.85,24.83.19a10.5,10.5,0,0,0,0-3.79c-12.63-3.43-15.32-4.44-15.89-4.94-.58-.3-4.87-.8-8.92-1.15Zm8.88-8.58s0,0,0,0Z" fill="#231f20"/><path d="M127.62,165.12c0,.81,2.71,86.08,2.71,86.08s17.08,2.17,17.08,0,3.8-88.52,3.8-88.52Z" fill="#231f20"/><path d="M125.18,158.07c0,.82,0,8.68,1.9,11.66s10,86.35,10,86.35H153s9.28-93.94,9-99.36Z" fill="#231f20"/><polygon points="184.81 180.57 148.91 192.14 158.1 194.83 195.25 182.26 184.81 180.57" fill="#fff"/><path d="M158.1,195.33l-.14,0-9.19-2.69a.52.52,0,0,1-.36-.48.5.5,0,0,1,.35-.48l35.89-11.57a.45.45,0,0,1,.23,0l10.45,1.68a.52.52,0,0,1,.42.46.51.51,0,0,1-.34.51L158.26,195.3A.41.41,0,0,1,158.1,195.33Zm-7.49-3.22,7.48,2.19,35.09-11.87-8.34-1.35Z" fill="#231f20"/><polygon points="148.91 192.14 150.16 226.28 159.42 228.78 158.1 194.83 148.91 192.14" fill="#fff"/><path d="M159.42,229.28l-.13,0-9.26-2.5a.5.5,0,0,1-.37-.46l-1.25-34.14a.53.53,0,0,1,.2-.42.46.46,0,0,1,.44-.08l9.19,2.69a.48.48,0,0,1,.36.46l1.32,33.95a.53.53,0,0,1-.19.41A.51.51,0,0,1,159.42,229.28Zm-8.77-3.39,8.24,2.23-1.27-32.91-8.18-2.4Z" fill="#231f20"/><polygon points="159.42 228.78 194.31 214.34 195.25 182.26 158.1 194.83 159.42 228.78" fill="#fff"/><path d="M159.42,229.28a.5.5,0,0,1-.27-.08.48.48,0,0,1-.23-.4l-1.32-34a.51.51,0,0,1,.34-.5l37.15-12.57a.49.49,0,0,1,.45.08.48.48,0,0,1,.21.41l-.94,32.08a.52.52,0,0,1-.31.45l-34.89,14.44A.43.43,0,0,1,159.42,229.28Zm-.8-34.1L159.89,228l33.93-14,.91-31Z" fill="#231f20"/><path d="M154.17,224a.5.5,0,0,1-.5-.48l-1.13-27.76a.5.5,0,1,1,1,0l1.13,27.77a.51.51,0,0,1-.48.52Z" fill="#e6e7e8"/><path d="M179.3,185.41a.5.5,0,0,1-.5-.5v-5.32l-6,2.2a.5.5,0,1,1-.34-.94l6.7-2.44a.5.5,0,0,1,.67.47v6A.5.5,0,0,1,179.3,185.41Z" fill="#231f20"/><path d="M173.85,171.44c0,.13,2.53,10,2.16,11.26-.67,2.15-4.11,3.26-6.12,3.43a7,7,0,0,1-6-3.33,3.92,3.92,0,0,1-.24-3.75,6.61,6.61,0,0,1,1.65-1.81,1,1,0,0,0,.38-.54,1,1,0,0,0-.07-.48l-1.92-5.73c1.52-.38,3.63.27,5.17.43C169.24,171,173.77,171.16,173.85,171.44Z" fill="#fff"/><path d="M169.53,186.64a7.61,7.61,0,0,1-6.08-3.58,4.41,4.41,0,0,1-.25-4.25,6.82,6.82,0,0,1,1.67-1.87l.09-.08c0-.05.21-.19.22-.24a.93.93,0,0,0-.06-.24l-1.91-5.73a.51.51,0,0,1,0-.4.49.49,0,0,1,.32-.24,9.79,9.79,0,0,1,3.9.19c.51.09,1,.18,1.44.22l.63,0c4.63.28,4.68.42,4.8.84v0l-.49.12.49-.11c.77,3.06,2.51,10.31,2.15,11.51-.75,2.42-4.42,3.6-6.56,3.78Zm-5.19-15.75,1.73,5.18a1.51,1.51,0,0,1,.1.71,1.46,1.46,0,0,1-.55.83l-.1.08a6.12,6.12,0,0,0-1.44,1.59,3.46,3.46,0,0,0,.23,3.27,6.54,6.54,0,0,0,5.54,3.08c2-.17,5.11-1.24,5.68-3.08.2-.71-.92-6-2.1-10.75-.72-.15-3.12-.29-4-.34l-.67,0c-.47,0-1-.14-1.52-.24A12.11,12.11,0,0,0,164.34,170.89Z" fill="#231f20"/><polygon points="160.91 165.63 162.28 172.44 175.48 172.44 173.42 163.96 160.91 165.63" fill="#231f20"/><path d="M140.93,86.4a9.81,9.81,0,0,1-2.27-.57,2.93,2.93,0,0,1-1.48-1,1.24,1.24,0,0,1,.1-1.64c.14-.11.31-.2.35-.37a.59.59,0,0,0-.18-.47,26.66,26.66,0,0,1-5-9.5A11.09,11.09,0,0,1,132,68a5.64,5.64,0,0,1,1.4-3c.59-.63,1.45-.82,1.75-1.67,2-5.41,8.28-5.92,13.08-5.44,2.79.28,6.44,1.33,7.45,4.12,1.87,5.13.87,10.88-1.77,15.55S146.55,87.09,140.93,86.4Z" fill="#fff"/><path d="M142,87a10.71,10.71,0,0,1-1.13-.07h0a10.47,10.47,0,0,1-2.39-.6,3.5,3.5,0,0,1-1.71-1.17,1.76,1.76,0,0,1,.19-2.32l.12-.09h0l0,0A27.24,27.24,0,0,1,132,73a11.68,11.68,0,0,1-.51-5.06A6.15,6.15,0,0,1,133,64.73a4.24,4.24,0,0,1,.82-.65c.39-.27.7-.47.83-.85,2-5.68,8.53-6.27,13.6-5.77,2,.2,6.62,1,7.87,4.45,1.8,4.93,1.14,10.75-1.81,16C151.06,83.65,146.53,87,142,87Zm-1-1.06c6.63.81,11.22-6.32,12.46-8.53,2.81-5,3.44-10.48,1.74-15.13-1.05-2.9-5.26-3.62-7-3.79-4.73-.47-10.74,0-12.57,5.11a2.69,2.69,0,0,1-1.21,1.33,4.32,4.32,0,0,0-.65.51,5.24,5.24,0,0,0-1.27,2.69,10.37,10.37,0,0,0,.48,4.62A26.28,26.28,0,0,0,137.83,82a1.05,1.05,0,0,1,.29.9,1,1,0,0,1-.45.59.78.78,0,0,0-.08,1,2.55,2.55,0,0,0,1.24.8,9.66,9.66,0,0,0,2.16.55Z" fill="#231f20"/><path d="M157.12,74.65s4.24,4.72,3.69,5.91-3.05.83-3.05.83" fill="#fff"/><path d="M158.61,82a5.51,5.51,0,0,1-.92-.07.5.5,0,0,1-.42-.56.51.51,0,0,1,.57-.43c.69.11,2.21.11,2.51-.54s-1.51-3-3.6-5.37a.49.49,0,0,1,0-.7.5.5,0,0,1,.71,0c1.34,1.5,4.39,5.12,3.76,6.47C160.8,81.76,159.51,82,158.61,82Z" fill="#231f20"/><path d="M155.36,67.84c2.47,1.47,2.39,5.37,2.74,7.84.49,3.48.9,7,1.23,10.48.2,2.22-5.5,3.12-6.6,2.61l2.18,8.57-12.68-2.82-1.11-10.11s3.78-.54,5.34-5.36.45-11.72.45-11.72S153,66.4,155.36,67.84Z" fill="#fff"/><path d="M154.91,97.84h-.11L142.12,95a.51.51,0,0,1-.39-.44l-1.11-10.11a.5.5,0,0,1,.43-.55c.14,0,3.49-.57,4.94-5,1.51-4.65.44-11.42.43-11.49a.49.49,0,0,1,.09-.37.48.48,0,0,1,.32-.2c.26,0,6.25-.94,8.78.57,2.27,1.35,2.58,4.41,2.83,6.86.05.48.1.93.15,1.34.49,3.48.91,7,1.23,10.5A2.08,2.08,0,0,1,158.76,88a9.79,9.79,0,0,1-5.36,1.36l2,7.83a.48.48,0,0,1-.12.47A.51.51,0,0,1,154.91,97.84Zm-12.22-3.73,11.53,2.57-2-7.79a.5.5,0,0,1,.69-.58,8.45,8.45,0,0,0,5.25-1.1c.46-.32.68-.66.65-1-.33-3.48-.74-7-1.23-10.46-.06-.42-.1-.89-.15-1.38-.23-2.23-.51-5-2.35-6.1h0c-1.85-1.1-6.16-.69-7.62-.51.23,1.71.81,7.27-.54,11.45a8,8,0,0,1-5.27,5.58Z" fill="#231f20"/><path d="M158.86,83.58a13.74,13.74,0,0,0-4.51-.48" fill="#fff"/><path d="M158.86,84.08a.39.39,0,0,1-.18,0,15.15,15.15,0,0,0-4.33-.44h0a.49.49,0,0,1-.5-.49.55.55,0,0,1,.6-.51,14,14,0,0,1,4.59.51.5.5,0,0,1,.28.65A.49.49,0,0,1,158.86,84.08Z" fill="#231f20"/><path d="M150.78,77.87a4.83,4.83,0,0,0-1.33-2.25A7,7,0,0,0,148,74.23a2.29,2.29,0,0,0-2-.29,2.11,2.11,0,0,0-1.2,1.28,3.88,3.88,0,0,0-.18,1.79A7.55,7.55,0,0,0,149,83.12l-.22-.18" fill="#fff"/><path d="M149,83.62a.48.48,0,0,1-.2,0,8.09,8.09,0,0,1-4.72-6.53,4.43,4.43,0,0,1,.21-2,2.59,2.59,0,0,1,1.5-1.57,2.77,2.77,0,0,1,2.39.33,7.46,7.46,0,0,1,1.61,1.49,5.24,5.24,0,0,1,1.45,2.5.51.51,0,0,1-.42.57.49.49,0,0,1-.57-.41,4.45,4.45,0,0,0-1.21-2,6.46,6.46,0,0,0-1.38-1.29,1.82,1.82,0,0,0-1.53-.25,1.64,1.64,0,0,0-.91,1,3.65,3.65,0,0,0-.15,1.57,7.1,7.1,0,0,0,3.68,5.48.5.5,0,0,1,.34.11l.22.18a.5.5,0,0,1,.12.65A.51.51,0,0,1,149,83.62Z" fill="#231f20"/><path d="M152.73,88.77A9.37,9.37,0,0,1,148,86.46a7,7,0,0,0,5.58,5.46Z" fill="#231f20"/><path d="M153.53,92.42h-.09a7.61,7.61,0,0,1-6-5.87.5.5,0,0,1,.86-.43,8.8,8.8,0,0,0,4.48,2.15.5.5,0,0,1,.41.37l.8,3.16a.49.49,0,0,1-.48.62ZM149,87.92a6.23,6.23,0,0,0,3.85,3.33l-.52-2A10.9,10.9,0,0,1,149,87.92Z" fill="#231f20"/><ellipse cx="154.78" cy="72.53" rx="1.26" ry="0.49" transform="translate(79.09 225.8) rotate(-88.82)" fill="#231f20"/><path d="M138.75,96.15l1.29-4.5s15.69,1.29,17.11,2.25,2.7,5.95,2.7,5.95Z" fill="#fff"/><path d="M159.85,100.35h-.08l-21.11-3.71a.54.54,0,0,1-.34-.23.51.51,0,0,1,0-.4l1.29-4.5a.51.51,0,0,1,.52-.36c2.64.21,15.9,1.35,17.35,2.33s2.77,5.72,2.91,6.25a.5.5,0,0,1-.49.62Zm-20.47-4.6,19.78,3.47c-.54-1.86-1.48-4.37-2.29-4.91s-10.42-1.63-16.47-2.13Z" fill="#231f20"/><path d="M163.93,99.85c-7.54-4.89-16.26-7.48-28.59-4-9.67,2.75-12,47.32-10.16,65.17h45.36l-.43-7.91S171.46,104.75,163.93,99.85Z" fill="#ff0440"/><path d="M159.85,168.25h16.8c-1.07-8.4-10.55-65.85-11-66.27-8.51-8.08-14.82,12.06-14.44,18.18C151.53,125.25,158.32,157.49,159.85,168.25Z" fill="#ff0440"/><path d="M158.15,160.48a.51.51,0,0,1-.5-.42L150,114a.51.51,0,0,1,.41-.58.51.51,0,0,1,.58.41l7.63,46.11a.5.5,0,0,1-.41.57Z" fill="#231f20"/><path d="M163.42,191.29a.5.5,0,0,1-.5-.5v-6.57a.49.49,0,0,1,.33-.46l5.11-2a.49.49,0,0,1,.64.29.49.49,0,0,1-.28.64l-4.8,1.85v6.22A.5.5,0,0,1,163.42,191.29Z" fill="#231f20"/><path d="M179.3,206h-.11l-21-4.62a.49.49,0,0,1-.38-.59.5.5,0,0,1,.6-.38L179.13,205l15.56-16.42a.5.5,0,1,1,.73.69l-15.75,16.62A.52.52,0,0,1,179.3,206Z" fill="#231f20"/><path d="M255,34.65h0A3.34,3.34,0,0,1,258.36,38V255a0,0,0,0,1,0,0h-6.68a0,0,0,0,1,0,0V38A3.34,3.34,0,0,1,255,34.65Z" fill="#231f20"/><polygon points="278.42 49.14 234.98 49.14 234.98 44.21 217.1 58.85 234.98 73.49 234.98 68.56 278.42 68.56 278.42 49.14" fill="#fff"/><path d="M235,74a.56.56,0,0,1-.32-.11L216.79,59.24a.5.5,0,0,1,0-.78l17.87-14.64a.51.51,0,0,1,.82.39v4.43h42.94a.51.51,0,0,1,.5.5V68.56a.51.51,0,0,1-.5.5H235.48v4.43a.48.48,0,0,1-.29.45A.38.38,0,0,1,235,74ZM217.89,58.85l16.59,13.59V68.56a.5.5,0,0,1,.5-.5h42.94V49.64H235a.5.5,0,0,1-.5-.5V45.27Z" fill="#231f20"/><polygon points="232.39 82.45 275.83 82.45 275.83 77.51 293.71 92.15 275.83 106.79 275.83 101.86 232.39 101.86 232.39 82.45" fill="#fff"/><path d="M275.83,107.29a.49.49,0,0,1-.21,0,.51.51,0,0,1-.29-.46v-4.43H232.39a.5.5,0,0,1-.5-.5V82.45a.5.5,0,0,1,.5-.5h42.94V77.51a.49.49,0,0,1,.29-.45.51.51,0,0,1,.53.06L294,91.77a.47.47,0,0,1,.19.38.49.49,0,0,1-.19.39l-17.87,14.64A.48.48,0,0,1,275.83,107.29Zm-42.94-5.93h42.94a.5.5,0,0,1,.5.5v3.88l16.59-13.59L276.33,78.57v3.88a.5.5,0,0,1-.5.5H232.89Z" fill="#231f20"/><polygon points="234.18 110.81 273.83 128.56 275.84 124.05 286.18 144.72 263.88 150.78 265.9 146.28 226.25 128.53 234.18 110.81" fill="#fff"/><path d="M263.88,151.28a.5.5,0,0,1-.45-.7l1.81-4.05L226,129a.48.48,0,0,1-.26-.28.5.5,0,0,1,0-.38l7.93-17.72a.49.49,0,0,1,.66-.25l39.19,17.53,1.82-4a.48.48,0,0,1,.44-.3.51.51,0,0,1,.46.28l10.34,20.66a.54.54,0,0,1,0,.43.51.51,0,0,1-.33.28L264,151.26Zm-37-23,39.19,17.54a.49.49,0,0,1,.25.66L264.77,150l20.69-5.63-9.59-19.17-1.59,3.54a.49.49,0,0,1-.66.25l-39.19-17.54Z" fill="#231f20"/><path d="M269.09,255.47H244.62a.51.51,0,0,1-.5-.5.5.5,0,0,1,.5-.5h24.47a.5.5,0,0,1,.5.5A.51.51,0,0,1,269.09,255.47Z" fill="#d1d3d4"/></g></svg>