<svg xmlns="http://www.w3.org/2000/svg" viewBox="0 0 400 300"><g id="_397_dream_flatline" data-name="#397_dream_flatline"><path d="M243.86,98.27c6.5-4.26,16-15.43,21.07-18.12,19.68-10.47,43.59-10.14,61,4.69,10.64,9.06,13.69,26.21,13.06,39.58a5.16,5.16,0,0,0,.22,2.35,5.29,5.29,0,0,0,1.59,1.78c8.82,7.34,11.5,19.36,9.59,30.52-1.27,7.42-4.44,14.4-8.1,21-4.85,8.74-12.18,18.92-22.41,21.58a5.28,5.28,0,0,0-1.65.61,5.46,5.46,0,0,0-1.74,2.83c-6.32,16-24.39,13.54-36.95,7.24-1.25,19.89-21.83,26.51-37.86,30.16a80.51,80.51,0,0,1-28.78,1.24c-2.55-.34-26.52-8.19-26.26-8.45a45.64,45.64,0,0,1-35.18,12.81,39.38,39.38,0,0,1-17-5.14c-1.18-.68-14-11-12.6-11.76-20.58,11.57-49.88,3.14-61.18-17.59-5.82-10.69-6-26.14,4-33.06-13.23-7-18.43-24.56-14.32-38.95,5-17.54,22.28-32.73,39.52-38s37.93-12,56-6.86C152.65,91,159.64,85,168,82s18.65-2.59,25.26,3.4c6.12-4.83,14.94-5,22.27-2.29,6.89,2.49,18.15,16.94,24.28,16.8A8.37,8.37,0,0,0,243.86,98.27Z" fill="#fff"/><path d="M154.73,248.69c-1.1,0-2.2,0-3.29-.11a40,40,0,0,1-17.24-5.21c-.6-.34-11.16-8.5-12.75-11.4-9.83,5.27-22.1,6.38-33.81,3-12-3.44-22-11.15-27.41-21.15-7.42-13.63-4-27.38,3.55-33.24-13.51-7.68-17.69-25.79-13.87-39.15,4.76-16.62,21.52-32.73,39.85-38.3l2.23-.68c17.08-5.2,36.42-11.1,53.75-6.25,6.39-5.46,13.63-11.6,22.13-14.67,9.36-3.37,19.29-2.1,25.45,3.23,6.77-5.1,16-4.46,22.42-2.12,3.16,1.14,7,4.57,11.14,8.21,4.76,4.21,9.68,8.56,12.88,8.56h.08a8,8,0,0,0,3.75-1.57h0c3.14-2.06,7-5.76,10.75-9.35,4-3.8,7.71-7.38,10.35-8.79,21.25-11.31,44.84-9.49,61.57,4.74,13.5,11.5,13.54,33.52,13.24,40a4.8,4.8,0,0,0,.18,2.12,4.65,4.65,0,0,0,1.4,1.55c8.31,6.92,12,18.5,9.81,31-1.1,6.4-3.69,13.12-8.15,21.15-7,12.52-14.39,19.66-22.72,21.83l-.16,0a4.49,4.49,0,0,0-1.35.49,4.65,4.65,0,0,0-1.44,2.33l-.11.27c-2.13,5.42-5.71,9.12-10.64,11-6.95,2.66-16.75,1.48-26.33-3.17-1.69,19.13-21.25,26-38.19,29.88a80.68,80.68,0,0,1-29,1.25c-1.37-.19-8.19-2.31-14.12-4.23-8.15-2.64-11-3.66-12-4.12A46,46,0,0,1,154.73,248.69Zm-32.46-17.24c.61,1.67,11,10.22,12.43,11.06a39,39,0,0,0,16.81,5.07,45.07,45.07,0,0,0,34.79-12.66h0a.5.5,0,0,1,.7,0c1.56.79,23.52,8,26,8.32a79.87,79.87,0,0,0,28.6-1.23c32-7.3,36.84-19.71,37.47-29.71a.48.48,0,0,1,.25-.4.49.49,0,0,1,.47,0c9.54,4.79,19.34,6.08,26.2,3.46,4.65-1.78,8-5.29,10.06-10.44l.1-.26a5.47,5.47,0,0,1,1.83-2.8,5.3,5.3,0,0,1,1.65-.63l.16,0c8.05-2.1,15.28-9.08,22.1-21.34,4.4-7.93,7-14.55,8-20.84,2.08-12.17-1.44-23.4-9.42-30a5.56,5.56,0,0,1-1.73-2,5.41,5.41,0,0,1-.27-2.47c.95-20.08-6-33.44-12.88-39.27-16.4-14-39.57-15.74-60.45-4.63-2.52,1.34-6.22,4.88-10.13,8.63s-7.68,7.36-10.89,9.46h0a8.71,8.71,0,0,1-4.28,1.74h-.1c-3.58,0-8.42-4.28-13.54-8.81-3.85-3.42-7.84-6.94-10.82-8-6.29-2.27-15.31-2.89-21.79,2.23a.49.49,0,0,1-.64,0c-5.87-5.31-15.58-6.6-24.76-3.29-8.42,3-15.64,9.2-22,14.65a.48.48,0,0,1-.46.1c-17.12-4.9-36.42,1-53.44,6.18l-2.24.68c-18,5.47-34.51,21.29-39.17,37.62-3.78,13.2.45,31.16,14.06,38.37a.48.48,0,0,1,.27.41.5.5,0,0,1-.22.44c-7.69,5.32-11.24,18.89-3.88,32.41,5.32,9.77,15.09,17.3,26.81,20.67s24,2.17,33.68-3.28a.51.51,0,0,1,.69.19A.51.51,0,0,1,122.27,231.45Z" fill="#231f20"/><path d="M137.3,172.17a.66.66,0,0,1-.65-.54c-1-5.68-4.53-11.3-10.94-17.18A83.1,83.1,0,0,0,98.2,137.77c-8.07-2.93-14.68-3.58-20.21-2a.66.66,0,1,1-.37-1.27c5.82-1.66,12.69-1,21,2a84.27,84.27,0,0,1,27.95,17c6.63,6.08,10.34,11.94,11.35,17.92a.66.66,0,0,1-.54.76Z" fill="#d1d3d4"/><path d="M162,111.74l-3.1-11.37s-37,6-42.58,10.08-6.8,7.23-12.47,6l-.09,0c-2.71-.9-4.94-3.89-6.73-6a123.54,123.54,0,0,1-9-12A83.53,83.53,0,0,1,81.6,87c-.54-1.17-4.63-10.47,0-8.85-1.33-2,1.71-1.93,2.7-.91A1.61,1.61,0,1,1,87,75.56a1.17,1.17,0,0,1,.55-1.66,1.93,1.93,0,0,1,1.89.35,6.35,6.35,0,0,1,1.26,1.56,59.52,59.52,0,0,0,7.16,9c2,2,4.41,5.44,7.22,6.21,3.22.89,8.89-1.51,12.07-2.16,5.12-1,10.23-2.14,15.36-3.2,8.47-1.75,16.95-3.51,25.47-5,3.12-.54,6.25-1.08,9.4-1.42,1.29-.14,3.43-.65,4.66,0,4,2,13.38,26,13.38,26" fill="#fff"/><path d="M106.07,117.21a11.18,11.18,0,0,1-2.37-.27l-.14,0c-2.48-.82-4.56-3.28-6.23-5.25l-.72-.85a121.91,121.91,0,0,1-9-12,83.33,83.33,0,0,1-6.41-11.6c-.8-1.74-3.29-7.53-1.72-9.25a1.61,1.61,0,0,1,1.34-.5,1.15,1.15,0,0,1,.4-1,2.63,2.63,0,0,1,2.21-.23c0-.1,0-.21,0-.32a2.14,2.14,0,0,1,.94-1.54,2.09,2.09,0,0,1,1.8-.16l.32.14a1.73,1.73,0,0,1,.86-.85,2.38,2.38,0,0,1,2.39.42A6.07,6.07,0,0,1,91,75.48a59.32,59.32,0,0,0,7.15,9c.41.44.85.93,1.31,1.45,1.69,1.91,3.6,4.06,5.67,4.63s5.73-.45,8.6-1.3c1.19-.35,2.31-.68,3.24-.86q4.53-.93,9-1.89l6.3-1.32c8.29-1.71,16.87-3.49,25.49-5,2.9-.51,6.19-1.08,9.44-1.43.25,0,.54-.07.84-.11,1.32-.19,3-.43,4.1.13,4,2,12.65,23.75,13.62,26.22a.5.5,0,1,1-.93.36c-2.6-6.61-10-24.11-13.14-25.68-.85-.43-2.32-.21-3.5,0l-.89.12c-3.21.34-6.48.91-9.37,1.42-8.61,1.5-17.17,3.28-25.45,5l-6.3,1.32-9.06,1.89c-.88.17-2,.5-3.16.84-3.14.93-6.7,2-9.15,1.3s-4.37-2.92-6.15-4.92c-.45-.51-.88-1-1.29-1.42a60.43,60.43,0,0,1-7.22-9.12,5.53,5.53,0,0,0-1.15-1.43,1.46,1.46,0,0,0-1.38-.3.75.75,0,0,0-.4.51.48.48,0,0,0,0,.22,1.23,1.23,0,0,1,.14.31.5.5,0,0,1-.86.47,1.27,1.27,0,0,1-.2-.36,1.22,1.22,0,0,0-.57-.41,1.12,1.12,0,0,0-.94.07,1.2,1.2,0,0,0-.21,1.72.5.5,0,0,1-.72.69h0a2.14,2.14,0,0,0-2.12-.39c-.16.13.13.58.19.67a.48.48,0,0,1,0,.58.5.5,0,0,1-.56.17c-.43-.15-1-.27-1.26,0-.81.89.37,4.87,1.88,8.16a82.93,82.93,0,0,0,6.34,11.46,121.43,121.43,0,0,0,9,11.91l.73.86c1.58,1.88,3.56,4.21,5.78,5,4,.88,5.64-.51,8.56-3,1-.87,2.13-1.84,3.55-2.88,5.59-4.12,41.27-9.93,42.79-10.17a.48.48,0,0,1,.56.36l3.1,11.37a.5.5,0,0,1-1,.26l-3-10.94c-4.21.7-36.85,6.19-41.92,9.92-1.38,1-2.5,2-3.49,2.83C110.72,115.73,109,117.21,106.07,117.21Z" fill="#231f20"/><path d="M258.07,101.31l10.83,3.53,19.19-9.91L280.91,90l5.7-9.15s39.1,11.26,42.49,19c8.92,20.28-30.91,12.84-53.08,29,0,0-22.07,26.7-47.68,42.5,0,0-22.81-21.74-32.8-41.86l21.12-25.53s-11.08-36.46,6.76-51.45c5.21-4.39,36.71,15.65,36.71,15.65l-7.64,6.84-12.12-2.51,0,12.09S253.74,92.77,258.07,101.31Z" fill="#ff0440"/><path d="M288.36,77.22l0-.15a2.78,2.78,0,0,0-2.3-2.15,14.87,14.87,0,0,0-3.75-11.34c-1.36-1.5-3-2.71-4.38-4.21a7.41,7.41,0,0,1-2.23-5.47A8.44,8.44,0,0,0,272.91,60a11.53,11.53,0,0,1-2.52-7.54c-4.26,3.1-8.84,6.67-9.93,11.83a10.68,10.68,0,0,1,0-6.38c-3.23,1.62-4.53,5.47-5.52,8.94a46.57,46.57,0,0,0-1.7,7.46c-.31,2.69.49,4.42,1.4,6.91,1.56,4.27,3.73,8.43,7.09,11.5,4.25,3.87,11.49,6.18,16.45,2.49a26.78,26.78,0,0,0,9.93-14.79A7,7,0,0,0,288.36,77.22Z" fill="#fff"/><path d="M272.33,97.54a17,17,0,0,1-10.91-4.47c-3-2.72-5.34-6.54-7.22-11.7l-.28-.77c-.8-2.15-1.44-3.85-1.15-6.36a46.61,46.61,0,0,1,1.68-7.41l0-.14c1-3.59,2.41-7.56,5.77-9.24a.5.5,0,0,1,.55.06.51.51,0,0,1,.15.54,10.37,10.37,0,0,0-.41,4.18C262.19,58.06,266,55,270.09,52a.51.51,0,0,1,.53,0,.5.5,0,0,1,.27.46,11.14,11.14,0,0,0,1.65,6.15,9,9,0,0,1,2.8-5.07.48.48,0,0,1,.56-.07.5.5,0,0,1,.27.49c-.22,2.16,1.22,4.11,2.1,5.08.67.74,1.43,1.42,2.17,2.09a29.38,29.38,0,0,1,2.21,2.12,15.49,15.49,0,0,1,3.92,11.27A3.35,3.35,0,0,1,288.81,77l0,.16a7.47,7.47,0,0,1-.23,3.41,27.1,27.1,0,0,1-10.11,15.07A10.16,10.16,0,0,1,272.33,97.54ZM259.7,59c-2.29,1.74-3.36,4.89-4.25,8l0,.13a46.12,46.12,0,0,0-1.65,7.25c-.26,2.28.31,3.8,1.09,5.91l.29.77c1.83,5,4.1,8.69,7,11.3,4.16,3.79,11.12,6,15.81,2.46a26.06,26.06,0,0,0,9.74-14.52,6.49,6.49,0,0,0,.22-2.94h0l0-.12A2.28,2.28,0,0,0,286,75.42a.53.53,0,0,1-.35-.17.47.47,0,0,1-.11-.37,14.49,14.49,0,0,0-3.63-11,29.6,29.6,0,0,0-2.14-2,28.43,28.43,0,0,1-2.24-2.16,8.76,8.76,0,0,1-2.34-4.57A8,8,0,0,0,273.41,60a.5.5,0,0,1-.34.46.48.48,0,0,1-.55-.16,12,12,0,0,1-2.62-6.87c-4.23,3.12-8,6.38-8.95,11a.5.5,0,0,1-.47.4.51.51,0,0,1-.5-.35A11.3,11.3,0,0,1,259.7,59Z" fill="#231f20"/><path d="M247.53,93.51l-6.2,6.73s-2.16,5.84,5.68,9.2S259.47,108,259.47,108l13.21-13.48s-3-6.31,6.49-15.91a41.09,41.09,0,0,1-19-10.51s-11.68,9.33-14.73,15.07S247.53,93.51,247.53,93.51Z" fill="#fff"/><path d="M252.39,111.13a14.14,14.14,0,0,1-5.58-1.23c-8.18-3.51-6-9.77-5.95-9.83a1,1,0,0,1,.1-.17l5.88-6.38c-1.16-1.24-4.58-5.52-1.88-10.6,3.06-5.76,14.38-14.84,14.86-15.22a.5.5,0,0,1,.66,0,40.89,40.89,0,0,0,18.78,10.38.52.52,0,0,1,.39.34.51.51,0,0,1-.13.5c-9,9.2-6.42,15.29-6.39,15.35a.49.49,0,0,1-.1.56l-13.2,13.48A10.92,10.92,0,0,1,252.39,111.13ZM241.77,100.5c-.23.73-1.42,5.54,5.43,8.48,7.41,3.18,11.73-1.15,11.91-1.33l13-13.26c-.48-1.43-1.71-7.22,6.1-15.5a42.63,42.63,0,0,1-18.1-10.14c-1.93,1.59-11.58,9.6-14.26,14.64-2.83,5.33,2,9.7,2,9.74a.53.53,0,0,1,.17.35.47.47,0,0,1-.13.36Z" fill="#231f20"/><path d="M265.69,96.47a6.6,6.6,0,0,0,4,3.12,7.11,7.11,0,0,0,6.69-1.89A6,6,0,0,0,278,95.55a3.13,3.13,0,0,0-.06-2.61A5,5,0,0,0,275.36,91c-1.47-.67-2.12-.17-3.58-.07.14,0,.43-.14.57-.14" fill="#fff"/><path d="M271.34,100.32a7,7,0,0,1-1.8-.24,7.11,7.11,0,0,1-4.29-3.36.5.5,0,0,1,.19-.68.49.49,0,0,1,.68.19,6.22,6.22,0,0,0,3.69,2.88A6.57,6.57,0,0,0,276,97.33a5.44,5.44,0,0,0,1.47-2,2.64,2.64,0,0,0,0-2.19,4.57,4.57,0,0,0-2.31-1.71,3.09,3.09,0,0,0-2.17-.18,9.78,9.78,0,0,1-1.1.15h-.11a.5.5,0,0,1,0-1h.06l.11,0a1.73,1.73,0,0,1,.45-.1l.18,0,.26,0a4,4,0,0,1,2.77.26,5.53,5.53,0,0,1,2.77,2.13,3.65,3.65,0,0,1,.09,3,6.46,6.46,0,0,1-1.72,2.33A8,8,0,0,1,271.34,100.32Z" fill="#231f20"/><path d="M242.27,99.22a11.91,11.91,0,0,0,8.07,1.58c5-.63,6.58-3.16,6.58-3.16s-5.7,0-9.39-4.13Z" fill="#231f20"/><path d="M248.54,101.41A11.72,11.72,0,0,1,242,99.62a.49.49,0,0,1-.2-.35.48.48,0,0,1,.13-.39l5.25-5.71a.52.52,0,0,1,.37-.16.46.46,0,0,1,.37.16c3.5,3.91,9,4,9,4a.5.5,0,0,1,.43.25.49.49,0,0,1,0,.51c-.07.11-1.73,2.74-6.94,3.39A13.48,13.48,0,0,1,248.54,101.41Zm-5.49-2.3a12.17,12.17,0,0,0,7.23,1.2,10,10,0,0,0,5.58-2.25,14,14,0,0,1-8.33-3.82Z" fill="#231f20"/><path d="M262.11,79.14s-7.45,2.32-7.35,3.85,2.82,2.76,2.82,2.76" fill="#fff"/><path d="M257.57,86.25a.53.53,0,0,1-.2,0c-.31-.14-3-1.41-3.11-3.18S259,79.57,262,78.66a.5.5,0,0,1,.29,1c-3.68,1.14-6.95,2.71-7,3.34.06,1,1.89,2,2.52,2.33a.5.5,0,0,1-.21,1Z" fill="#231f20"/><path d="M258,92l-.13,0c-.08,0-7.59-2.17-8.45-10.07a.5.5,0,0,1,.44-.55.5.5,0,0,1,.55.44c.79,7.22,7.44,9.13,7.72,9.21a.5.5,0,0,1-.13,1Z" fill="#231f20"/><path d="M269.4,83.12h-.11c-1.81-.39-3-1-3.58-2a1.93,1.93,0,0,1-.3-1.44.5.5,0,0,1,.6-.37.51.51,0,0,1,.37.6c-.1.51.43,1.61,3.12,2.19a.52.52,0,0,1,.39.6A.5.5,0,0,1,269.4,83.12Z" fill="#231f20"/><path d="M260.16,76.53h-.1a3.48,3.48,0,0,1-2.45-3.1.52.52,0,0,1,.42-.58.51.51,0,0,1,.57.42c.31,1.95,1.61,2.27,1.67,2.28a.52.52,0,0,1,.38.6A.51.51,0,0,1,260.16,76.53Z" fill="#231f20"/><path d="M201,133.72s-12-33.84-13.13-34.66S157,110.61,157,110.61l10.92,41.08S201.14,150.92,201,133.72Z" fill="#231f20"/><path d="M167.91,152.18a.49.49,0,0,1-.48-.37l-10.92-41.08a.48.48,0,0,1,.29-.58c13.69-5.69,30.25-12.29,31.34-11.49s10.46,26.92,13.3,34.89a.88.88,0,0,1,0,.16c.08,7.29-5.74,12.79-16.82,15.92a76.82,76.82,0,0,1-16.72,2.55ZM157.58,110.9l10.71,40.27c3.7-.16,32.24-1.92,32.18-17.36-4.62-13-11.73-32.46-12.9-34.29C185.5,99.6,168.38,106.42,157.58,110.9Z" fill="#231f20"/><path d="M170.55,126.55s-34.21-22.34-40.09-18.7S106.57,178.54,105,178.93c-6.56,1.64-17.91,3.9-18.3,3.84-2-.28-11.48-1.31-8.67,3.27,2.31,3.74,6.57,3.41,10.39,4.31,5,1.21,6.13,1.58,11.21,2.65q6.93,1.45,13.9,2.81a6.19,6.19,0,0,0,6.69-3.28L143.05,138l14.63,10.84Z" fill="#fff"/><path d="M114.72,196.42a6.72,6.72,0,0,1-1.26-.12c-4.51-.88-9.19-1.82-13.9-2.81-3.35-.7-4.93-1.1-7.11-1.64-1.12-.28-2.39-.6-4.12-1-.86-.2-1.77-.35-2.64-.49-3-.48-6.16-1-8-4a2.51,2.51,0,0,1-.29-2.79c1.42-2.17,7.59-1.49,9.44-1.23.69,0,11.54-2.2,18-3.8.71-1.09,3.43-10,6.32-19.35,8-25.95,15.43-49.44,19.09-51.7,2.64-1.64,10.09,1,22.76,8,9.2,5.08,17.79,10.67,17.88,10.73a.51.51,0,0,1,.16.67L158.12,149a.55.55,0,0,1-.34.24.45.45,0,0,1-.39-.09l-14.12-10.46-22.56,54A6.74,6.74,0,0,1,114.72,196.42ZM82.65,183c-2.14,0-4,.31-4.46,1.09-.26.39-.16,1,.3,1.72,1.65,2.68,4.42,3.12,7.35,3.59.9.14,1.82.28,2.72.5,1.74.41,3,.73,4.13,1,2.17.54,3.75.93,7.07,1.63,4.71,1,9.39,1.93,13.89,2.81a5.7,5.7,0,0,0,6.15-3l22.79-54.55a.53.53,0,0,1,.33-.29.51.51,0,0,1,.43.09l14.18,10.5,12.35-21.34c-9.74-6.33-34.62-21.24-39.16-18.43-3.64,2.25-12.69,31.68-18.67,51.15-5.59,18.19-6.21,19.81-6.9,20-6,1.5-17.85,4-18.49,3.86A28.82,28.82,0,0,0,82.65,183Z" fill="#231f20"/><path d="M228.34,171.28s-20.8,17.62-39.46,14.22S147,150.8,147,150.8l20.57-29.16L201,133.72S226,163.1,228.34,171.28Z" fill="#231f20"/><path d="M193.78,186.43a27.77,27.77,0,0,1-5-.44c-7.85-1.43-17.33-7.74-28.2-18.76a172.65,172.65,0,0,1-14-16.13.5.5,0,0,1,0-.58l20.57-29.17a.49.49,0,0,1,.57-.18l33.38,12.08a.51.51,0,0,1,.21.15c1,1.2,25.11,29.55,27.46,37.75a.49.49,0,0,1-.15.52C228.47,171.83,211,186.43,193.78,186.43Zm-46.14-35.64c2.39,3.15,24,31.07,41.33,34.22,17.12,3.12,36.37-11.93,38.79-13.9-2.73-8.15-25.5-35.1-27.09-37l-32.89-11.9Z" fill="#231f20"/><path d="M203.81,143.11a.43.43,0,0,1-.27-.08c-15.63-9.94-36-20.84-36.18-21a.5.5,0,0,1-.2-.68.49.49,0,0,1,.67-.2c.2.11,20.58,11,36.24,21a.51.51,0,0,1,.16.69A.51.51,0,0,1,203.81,143.11Z" fill="#fff"/><path d="M265.4,108.74a.52.52,0,0,1-.36-.16.49.49,0,0,1,0-.7c10-9.62,31-16.47,31.19-16.53a.49.49,0,0,1,.63.32.5.5,0,0,1-.32.63c-.21.06-21,6.84-30.81,16.3A.52.52,0,0,1,265.4,108.74Z" fill="#231f20"/><path d="M240.37,72.92a.55.55,0,0,1-.5-.5,14.36,14.36,0,0,0-2.2-8,.5.5,0,0,1,.8-.6,15,15,0,0,1,2.4,8.65A.5.5,0,0,1,240.37,72.92Z" fill="#231f20"/><path d="M293.93,171.86c-3.63-4.58-8.58-8-13.75-10.72-6-3.19-12.61-5.68-19.37-5.16s-13.56,4.71-15.46,11.21a37.69,37.69,0,0,0-62,18.24c-16.24-6.46-36.85,1.95-43.93,17.93" fill="#fff"/><path d="M139.4,203.86a.52.52,0,0,1-.21,0,.5.5,0,0,1-.25-.66c7.13-16.1,27.6-24.6,44.05-18.39a38.2,38.2,0,0,1,62.13-18.47c2.1-5.85,8.41-10.26,15.66-10.82,5.87-.46,12.12,1.21,19.64,5.22,6.27,3.35,10.69,6.8,13.91,10.85a.51.51,0,0,1-.09.71.5.5,0,0,1-.7-.09c-3.12-3.94-7.44-7.31-13.59-10.59-7.35-3.92-13.42-5.53-19.1-5.1-7.14.55-13.32,5-15,10.85a.49.49,0,0,1-.34.34.5.5,0,0,1-.48-.11,37.19,37.19,0,0,0-61.2,18,.49.49,0,0,1-.26.32.53.53,0,0,1-.41,0c-16.06-6.39-36.29,1.86-43.29,17.66A.49.49,0,0,1,139.4,203.86Z" fill="#d1d3d4"/><path d="M280,185.86a.66.66,0,0,1-.48-1.1c6.37-7.12,12.61-12,19.07-14.91,8.1-3.65,16.83-4.14,24-1.34a.66.66,0,0,1,.38.85.67.67,0,0,1-.86.37c-6.79-2.67-15.15-2.19-22.93,1.32-6.29,2.83-12.39,7.61-18.64,14.59A.63.63,0,0,1,280,185.86Z" fill="#d1d3d4"/><path d="M124.18,211.48c1.67-1.7,4-2.53,6.26-3.3a27.75,27.75,0,0,1,8-1.91c5.66-.22,10.84,3,15.61,6" fill="#fff"/><path d="M154,212.8a.5.5,0,0,1-.27-.08c-5.26-3.38-10-6.16-15.32-5.95a27.36,27.36,0,0,0-7.85,1.88c-2.08.72-4.44,1.53-6.06,3.18a.5.5,0,0,1-.72-.7c1.79-1.82,4.27-2.67,6.45-3.43a28.54,28.54,0,0,1,8.14-1.93c5.57-.19,10.5,2.64,15.9,6.11a.5.5,0,0,1,.15.69A.51.51,0,0,1,154,212.8Z" fill="#d1d3d4"/><path d="M276.37,142.42a56,56,0,0,1,12.16-21.32c3.33-3.71,7.35-7.23,12.5-9.11,8.62-3.13,18.73-.93,25.82,3.57" fill="#fff"/><path d="M276.37,142.92l-.15,0a.5.5,0,0,1-.33-.62,56.84,56.84,0,0,1,12.27-21.51c4.2-4.68,8.23-7.62,12.7-9.25,7.94-2.89,18.24-1.47,26.25,3.61a.49.49,0,0,1,.16.69.5.5,0,0,1-.69.16c-7.76-4.93-17.72-6.31-25.37-3.52-4.31,1.57-8.22,4.42-12.3,9a55.66,55.66,0,0,0-12.06,21.12A.51.51,0,0,1,276.37,142.92Z" fill="#d1d3d4"/></g></svg>