<svg id="_430_eating_ice_cream_flatline" data-name="#430_eating_ice_cream_flatline" xmlns="http://www.w3.org/2000/svg" viewBox="0 0 400 300"><polygon points="151.92 248.87 149.84 276.79 249.68 276.79 239.25 238.04 151.92 248.87" fill="#231f20"/><path d="M249.68,277.38H149.84a.61.61,0,0,1-.44-.19.56.56,0,0,1-.15-.44l2.08-27.92a.59.59,0,0,1,.51-.55l87.34-10.83a.6.6,0,0,1,.65.44l10.42,38.74a.6.6,0,0,1-.1.52A.58.58,0,0,1,249.68,277.38Zm-99.2-1.18H248.9l-10.09-37.51L152.47,249.4Z" fill="#231f20"/><path d="M165.52,124.56s-.5-57.32,4-74.09,27-32.48,43.4-25.6a33,33,0,0,1,5.13-.36,57.23,57.23,0,0,1,6.69,2.07,25.68,25.68,0,0,1,13.59,10.87c4.11,6.51,5.73,14.28,6.61,21.93s1.1,15.4,2.71,22.92c4.78,22.21,21.45,41,23.42,63.66.42,4.78,1.5,13.12-3.8,14-2,.32-4.83-.49-6.87-.7l-20.87-2.12L189.28,152l-23.76-2.41Z" fill="#fff"/><path d="M266.19,160.6a22,22,0,0,1-3.77-.46c-.75-.13-1.47-.25-2.1-.32l-94.86-9.63a.6.6,0,0,1-.53-.59v-25c0-2.38-.45-57.6,4-74.25,2.56-9.57,10.91-19,21.28-24.14,8.07-4,16.15-4.64,22.79-1.92a30.81,30.81,0,0,1,5.13-.34,33.59,33.59,0,0,1,4.93,1.47l1.84.63a26.2,26.2,0,0,1,13.91,11.12c4.5,7.13,5.95,15.59,6.7,22.17.29,2.47.5,5,.72,7.42a124.82,124.82,0,0,0,2,15.45c2.14,9.92,6.75,19.33,11.21,28.43,5.47,11.18,11.13,22.74,12.22,35.3l.08.85c.46,5.12,1.17,12.87-4.38,13.75A7.15,7.15,0,0,1,266.19,160.6ZM166.11,149.06l94.33,9.58c.67.07,1.41.2,2.19.34a14.84,14.84,0,0,0,4.52.36c4.46-.71,3.81-7.79,3.39-12.47l-.08-.86c-1.07-12.34-6.68-23.8-12.11-34.88-4.49-9.16-9.13-18.64-11.3-28.7a128,128,0,0,1-2-15.6c-.21-2.42-.42-4.93-.71-7.38-.74-6.45-2.15-14.75-6.53-21.68a25,25,0,0,0-13.27-10.62c-.59-.19-1.22-.42-1.86-.64a33,33,0,0,0-4.75-1.42c-.42,0-4,.16-4.72.29a.61.61,0,0,1-.53,0c-6.34-2.65-14.13-2-21.93,1.83-10.08,4.95-18.19,14.13-20.67,23.39-4.41,16.49-4,73.36-4,73.93h0Z" fill="#231f20"/><path d="M246.52,135.12s22.9,7.27,30.41,15.53-5.26,88.18-13.89,92.68-20.78,7.48-23.79-5.29,3.1-39.51,3.1-39.51l-8.22-12.35S241.64,139.63,246.52,135.12Z" fill="#fff"/><path d="M250,247.78a12.17,12.17,0,0,1-5.08-1c-3.11-1.43-5.2-4.32-6.2-8.59-2.88-12.24,2.39-36.63,3-39.53l-8.08-12.15a.56.56,0,0,1-.09-.42c.3-1.91,7.6-46.8,12.57-51.4a.62.62,0,0,1,.58-.13c.94.3,23.14,7.42,30.67,15.7,4.35,4.79,2.27,31.76-2,55.93-1.45,8.12-6.58,34.83-12,37.68C260.13,245.52,254.88,247.78,250,247.78ZM234.75,186l8.09,12.16a.62.62,0,0,1,.09.46c-.06.27-6,26.76-3.1,39.25.92,3.9,2.78,6.51,5.54,7.78,5.5,2.52,13.26-.73,17.39-2.88,3.21-1.68,7.8-16.48,11.42-36.83,5.55-31.23,5.33-51.6,2.31-54.93-6.81-7.5-26.88-14.29-29.8-15.25C242.82,140.43,236.83,173.23,234.75,186Z" fill="#231f20"/><path d="M121.75,217s2.25-56.68,10.51-75.45S166.42,121,166.42,121Z" fill="#fff"/><path d="M121.75,217.61h-.14a.59.59,0,0,1-.45-.6c.09-2.32,2.35-57,10.56-75.67,8.31-18.87,34.39-20.91,34.66-20.93a.6.6,0,0,1,.53.26.63.63,0,0,1,.05.58l-44.67,96A.6.6,0,0,1,121.75,217.61Zm43.69-95.92c-4.84.59-25.54,4-32.64,20.12s-9.71,60.26-10.32,72.23Z" fill="#231f20"/><path d="M160.47,87.68a6.21,6.21,0,0,1,2-3.06,2.31,2.31,0,0,1,3.25.42,3.51,3.51,0,0,1,0,2.57,59.31,59.31,0,0,0-1.83,13.91,23.61,23.61,0,0,1-.37,5.18c-.46,2-2.16,4.89-4.59,4.62s-2.32-2.87-2.29-4.72A56.8,56.8,0,0,1,160.47,87.68Z" fill="#fff"/><path d="M159.22,111.93l-.38,0c-2.91-.33-2.85-3.58-2.82-5.32a57.22,57.22,0,0,1,3.9-19.12h0a6.73,6.73,0,0,1,2.19-3.34,3.33,3.33,0,0,1,2.55-.5,2.37,2.37,0,0,1,1.56,1.12,4,4,0,0,1,0,3,59.26,59.26,0,0,0-1.81,13.78v.72a20.25,20.25,0,0,1-.38,4.58C163.59,108.87,161.86,111.93,159.22,111.93Zm1.81-24a56.2,56.2,0,0,0-3.83,18.72c0,2.14.07,3.93,1.77,4.12,1.95.23,3.51-2.36,3.95-4.17a19.31,19.31,0,0,0,.34-4.31v-.74a59.45,59.45,0,0,1,1.85-14.05,3.09,3.09,0,0,0,.07-2.13,1.21,1.21,0,0,0-.8-.54,2.06,2.06,0,0,0-1.6.31A5.71,5.71,0,0,0,161,87.89Z" fill="#231f20"/><path d="M225.39,119.8c.65-1.2,3.21-37.25,3.28-42.6.07-5.52-.11-11-.45-16.46s-.06-10.25-3.82-14.62c-1.39-1.61-9.36-5.36-9.16-.24a8,8,0,0,0-.71-3.6,2.75,2.75,0,0,0-3.07-1.5A3.57,3.57,0,0,0,209.94,42c-2.54,3.06-4.65,7.55-8.63,7.55-1.34,0-2.68-.56-4-.28-3.18.67-3.46,5.23-5.82,7.46-1.67,1.58-4.19,1.79-6.29,2.76a12,12,0,0,0-6,7.32c-1.92,5.88-1.92,13.54-1.26,19.63,1.25,11.74,16,14.89,16,14.89s-1.55,9-2.22,16c-16.41.54-31.53,1.67-33.9,5.31-4.53,7-8.55,40.91-7.29,48s79.89,35.7,80.59,25.35c.76-11.06,18.57-62.17,18.57-62.17Z" fill="#fff"/><path d="M226.17,198.72c-16.68,0-75-21.33-76.24-28.06-1.32-7.42,2.89-41.48,7.38-48.39,2.08-3.2,11.91-4.81,33.86-5.56.59-5.83,1.75-12.95,2.08-14.95-2.73-.73-14.73-4.57-15.87-15.27-.48-4.48-.95-13,1.29-19.87A12.51,12.51,0,0,1,185,58.94a20.14,20.14,0,0,1,2.39-.86,9.18,9.18,0,0,0,3.74-1.79,10.91,10.91,0,0,0,2-3.24c.92-1.92,1.88-3.91,4.06-4.37a6.66,6.66,0,0,1,2.6.09,9.23,9.23,0,0,0,1.52.18h0c2.79,0,4.59-2.49,6.49-5.12.55-.75,1.11-1.53,1.69-2.22a4.15,4.15,0,0,1,1.78-1.39A3.34,3.34,0,0,1,215.05,42a5.44,5.44,0,0,1,.52,1.37,2.59,2.59,0,0,1,.72-.43c2.56-1,7.44,1.5,8.56,2.8,3.41,4,3.63,8.33,3.85,13,0,.66.07,1.33.11,2,.37,5.87.52,11.27.45,16.51,0,3.86-2.26,37.28-3.2,42.29L250,133.21a.6.6,0,0,1,.27.71c-.18.51-17.8,51.16-18.54,62-.11,1.67-1.67,2.6-4.63,2.76ZM198.1,49.77a3,3,0,0,0-.66.07c-1.61.34-2.37,1.91-3.24,3.72a11.77,11.77,0,0,1-2.29,3.59,10.26,10.26,0,0,1-4.2,2.06,18.17,18.17,0,0,0-2.25.81,11.34,11.34,0,0,0-5.67,7c-2.17,6.65-1.7,15-1.23,19.38,1.19,11.19,15.35,14.35,15.49,14.38a.58.58,0,0,1,.46.68c0,.09-1.55,9.07-2.21,15.92a.59.59,0,0,1-.57.54c-8.43.28-30.81,1-33.42,5-4.32,6.64-8.45,40.59-7.21,47.53,1,5.44,59.5,28,75.91,27.06,2.26-.12,3.44-.68,3.51-1.65.72-10.58,16.54-56.4,18.44-61.86l-23.87-13.69a.59.59,0,0,1-.24-.77c.63-1.79,3.15-36.5,3.23-42.35.06-5.21-.08-10.58-.45-16.41,0-.69-.08-1.37-.11-2-.23-4.6-.42-8.57-3.57-12.24-.93-1.08-5.27-3.24-7.22-2.46-.41.16-.95.52-.9,1.81h0a.61.61,0,0,1-.57.62h0a.6.6,0,0,1-.6-.57,7.61,7.61,0,0,0-.63-3.35,2.18,2.18,0,0,0-2.36-1.22,3.06,3.06,0,0,0-1.25,1c-.56.66-1.08,1.39-1.64,2.16-2,2.75-4,5.6-7.44,5.6h0a9.74,9.74,0,0,1-1.72-.19A9.86,9.86,0,0,0,198.1,49.77Z" fill="#231f20"/><path d="M154.92,174.54s3.46-47.3-3-53.93l4.68-2.38s15,39.18,14.46,56.31Z" fill="#ff0440"/><path d="M224.8,71.74c1.24-4.14,6.4-7.35,10.69-6.48,5.54,1.11,5.19,7.42,3.26,11.41A10.18,10.18,0,0,1,225,81.33" fill="#fff"/><path d="M229.6,83a10.69,10.69,0,0,1-4.83-1.14.59.59,0,0,1-.27-.8.6.6,0,0,1,.8-.26,9.76,9.76,0,0,0,7.37.51,9.63,9.63,0,0,0,5.54-4.9c1.14-2.34,1.76-5.75.61-8.08a4.63,4.63,0,0,0-3.45-2.49c-4-.8-8.83,2.15-10,6.07a.58.58,0,0,1-.74.4.59.59,0,0,1-.4-.73c1.33-4.46,6.86-7.82,11.37-6.91a5.85,5.85,0,0,1,4.28,3.13c1.43,2.88.57,6.72-.6,9.13a10.83,10.83,0,0,1-6.23,5.5A10.67,10.67,0,0,1,229.6,83Z" fill="#231f20"/><path d="M200.15,66.38S191.31,77.47,193,79.66s7,1.28,7,1.28" fill="#fff"/><path d="M197.62,81.72c-1.77,0-4-.3-5.08-1.7-1.84-2.37,5-11.32,7.15-14a.6.6,0,0,1,.83-.09.59.59,0,0,1,.1.83c-4.12,5.16-8,11.42-7.14,12.55,1.21,1.56,5.08,1.3,6.47,1.06a.58.58,0,0,1,.68.48.59.59,0,0,1-.48.69A17.93,17.93,0,0,1,197.62,81.72Z" fill="#231f20"/><path d="M193.93,101.32s8.5,1.93,19-4.3c0,0-5.5,13.51-20.49,14.32Z" fill="#231f20"/><path d="M192.41,111.93a.59.59,0,0,1-.58-.68l1.51-10a.63.63,0,0,1,.26-.4.62.62,0,0,1,.46-.09c.08,0,8.42,1.79,18.54-4.23a.59.59,0,0,1,.69.06.57.57,0,0,1,.16.67c0,.14-5.82,13.87-21,14.69Zm2-9.92-1.32,8.68c10.79-.9,16.39-8.7,18.39-12.2C203.21,102.84,196.47,102.32,194.43,102Z" fill="#231f20"/><path d="M187.21,66.48c-3,0-4-1.66-4-1.76a.6.6,0,0,1,.23-.81.59.59,0,0,1,.8.23s1.77,2.7,8.33-.25a.59.59,0,0,1,.78.3A.59.59,0,0,1,193,65,14.58,14.58,0,0,1,187.21,66.48Z" fill="#231f20"/><path d="M210.76,67.06a9.6,9.6,0,0,1-5.26-1.42.59.59,0,0,1-.15-.82.6.6,0,0,1,.83-.15c.18.13,4.52,3.09,11.18-.75a.58.58,0,0,1,.81.22A.59.59,0,0,1,218,65,14.44,14.44,0,0,1,210.76,67.06Z" fill="#231f20"/><path d="M206.81,93.21a.6.6,0,0,1-.58-.46C205,87,208.91,85.42,209,85.4a.59.59,0,0,1,.77.34.58.58,0,0,1-.34.76h0c-.12,0-3,1.3-2,6a.6.6,0,0,1-.45.71Z" fill="#231f20"/><path d="M206.57,90s-1.68,2.09-7.37,1.72c-9.3-.62-10.4-7-10.4-7s6.74,5.47,19.19,2.08Z" fill="#231f20"/><path d="M200.52,92.38c-.43,0-.88,0-1.36,0-9.65-.64-10.94-7.46-10.95-7.53a.6.6,0,0,1,1-.56c.06.05,6.69,5.23,18.66,2a.61.61,0,0,1,.61.18.59.59,0,0,1,.09.62l-1.41,3.25a.64.64,0,0,1-.08.14C207,90.48,205.38,92.38,200.52,92.38ZM190,86.13c.94,1.82,3.35,4.62,9.29,5,4.79.31,6.55-1.18,6.83-1.45l.89-2C198.29,89.7,192.53,87.53,190,86.13ZM206.58,90Z" fill="#231f20"/><path d="M189.23,86.44c.36-.45.71-1,1.23-1.15.37-.1.76,0,1.12-.08s.74-.56,1.13-.82a1.6,1.6,0,0,1,2.2.48,6,6,0,0,0,.43.68,1.51,1.51,0,0,0,.76.42,17.49,17.49,0,0,1,2.61.53,1.94,1.94,0,0,1,1.09,2.38,2.11,2.11,0,0,1-1.37,1,14.31,14.31,0,0,1-9.3,0,2.86,2.86,0,0,1-1.46-.93C186.44,87.22,188.58,87.24,189.23,86.44Z" fill="#ff0440"/><path d="M157.48,86.35s27.87.56,28.72,1a15.62,15.62,0,0,0,3,1.78c1,.28,13.52-.66,13.52-.66a7.7,7.7,0,0,1-4.6,4.23c-3.66,1.41-8.08.94-9.58,0S184.7,90,184.7,90s-25.25.82-27.22,0S157.48,86.35,157.48,86.35Z" fill="#fff"/><path d="M193.06,94.2a10.19,10.19,0,0,1-4.83-1c-1.29-.81-3.16-2.21-3.73-2.65-3.43.11-25.27.77-27.25,0a2,2,0,0,1-1.16-1.24c-.4-1.37.77-3.09.9-3.28a.58.58,0,0,1,.5-.26c10.47.21,28.15.64,29,1.11.3.17.65.41,1,.67a7,7,0,0,0,1.85,1.06c.7.16,7.38-.23,13.31-.68a.54.54,0,0,1,.51.23.61.61,0,0,1,.1.55,8.21,8.21,0,0,1-4.95,4.59A14.87,14.87,0,0,1,193.06,94.2Zm-8.36-4.81a.6.6,0,0,1,.36.12s2.34,1.8,3.8,2.71,5.6,1.28,9,0a7.63,7.63,0,0,0,3.82-3c-3.38.25-11.73.82-12.68.56a7.72,7.72,0,0,1-2.22-1.23,8.83,8.83,0,0,0-.91-.6c-1-.3-17.26-.73-28.11-1a3.17,3.17,0,0,0-.57,2,.7.7,0,0,0,.48.47c1.34.57,17.25.27,27,0Z" fill="#231f20"/><path d="M151.92,155.17s49.55,10.14,82.21,9.39c0,0,4.87-18.43,13.79-34.51l8.79,4.22s-16.57,34.28-15.45,49.65l5,12,3.44,65.5-101.73-4s-1.35-49.5.53-58.89S151.92,155.17,151.92,155.17Z" fill="#ff0440"/><path d="M145.76,116.17c1.67-6.86,7.13-29.92,11.72-29.82s3.17,10.62,0,24.41c0,0,3.94-10.65,4.92-13.74s.64-8.31,2.47-9,5.77-.06,6.9,2,2.09,10,.14,19.94a18,18,0,0,1,3.59-.07c2.16.21,2.73.67,2.7,2.82a27.69,27.69,0,0,1-4.64,14.6,47.13,47.13,0,0,1-8,9.49c-.58.54-.65.29-.88,1a4.71,4.71,0,0,0-.05,1.19c-.06,1.38-.11,2.76-.17,4.15q-.28,6.93-.6,13.87c-.57,12.45-4.46,44.46-6.32,52.89-5.63,25.58-27.84,23.68-35.45,12.42s19.87-78.55,21.28-85S144.09,123,145.76,116.17Z" fill="#fff"/><path d="M137.43,230.76a19.32,19.32,0,0,1-15.8-8.15c-6.1-9,9-51.13,17.16-73.74,2.17-6,3.73-10.36,4-11.74a63.62,63.62,0,0,0,1-9.74A63.27,63.27,0,0,1,145.18,116h0l.17-.68c5-20.46,8.7-29.6,12.1-29.6h0a2.84,2.84,0,0,1,2.29,1.15c1.62,2.07,1.64,7,0,15.87.87-2.41,1.7-4.74,2.08-5.93a23.91,23.91,0,0,0,.69-3.85c.34-2.67.64-5,2.12-5.56,2-.81,6.34-.1,7.64,2.27,1.21,2.21,2.12,9.89.35,19.56a17.63,17.63,0,0,1,2.91,0c2.55.24,3.27,1,3.24,3.42a28.07,28.07,0,0,1-4.73,14.9A47.36,47.36,0,0,1,166,137.2a3.85,3.85,0,0,1-.52.4l-.09.06a1.81,1.81,0,0,0-.11.28,2.41,2.41,0,0,0,0,.62c0,.14,0,.29,0,.41l-.17,4.15q-.29,6.94-.6,13.87c-.59,12.9-4.54,44.88-6.33,53-3.43,15.57-12.32,19.5-17.31,20.45A18.66,18.66,0,0,1,137.43,230.76Zm8.9-114.45A63.14,63.14,0,0,0,145,127.45a65.26,65.26,0,0,1-1.06,9.93c-.32,1.46-1.89,5.84-4.07,11.89-7.49,20.82-23.06,64.13-17.29,72.67a18.1,18.1,0,0,0,18,7.33c4.7-.89,13.09-4.63,16.37-19.53,1.78-8.09,5.72-40,6.3-52.8q.32-6.93.61-13.87l.17-4.15c0-.09,0-.21,0-.32a3.2,3.2,0,0,1,.08-1,1.48,1.48,0,0,1,.68-1,3.94,3.94,0,0,0,.37-.28,46.53,46.53,0,0,0,7.87-9.38,27,27,0,0,0,4.55-14.29c0-1.77-.24-2-2.17-2.22a17.93,17.93,0,0,0-3.47.07.6.6,0,0,1-.5-.19.58.58,0,0,1-.14-.52c2-10.09.92-17.7-.08-19.54s-4.59-2.35-6.16-1.73c-.83.33-1.12,2.6-1.38,4.61A24.24,24.24,0,0,1,163,97.2c-1,3.07-4.9,13.66-4.94,13.77a.59.59,0,0,1-.72.36.6.6,0,0,1-.41-.7c1.94-8.46,4.26-20,1.95-23a1.68,1.68,0,0,0-1.39-.69h0c-1.81,0-5.18,5-10.94,28.69Z" fill="#231f20"/><path d="M247.69,199.12h-.12a.59.59,0,0,1-.46-.7c0-.27,5.62-27.94,10.46-40.23a.58.58,0,0,1,.76-.34.59.59,0,0,1,.34.77c-4.79,12.2-10.35,39.76-10.4,40A.6.6,0,0,1,247.69,199.12Z" fill="#231f20"/><path d="M178.93,151l8.43,44.34c0,1.77,5.58,3.21,12.46,3.21s12.47-1.44,12.47-3.21L220.72,151Z" fill="#fff"/><path d="M199.82,199c-6.44,0-13-1.28-13-3.71l-8.43-44.24a.53.53,0,0,1,.11-.42.51.51,0,0,1,.38-.18h41.8a.53.53,0,0,1,.39.18.53.53,0,0,1,.1.42l-8.43,44.33C212.79,197.75,206.27,199,199.82,199Zm-20.29-47.55,8.32,43.74c0,1.2,4.67,2.81,12,2.81s12-1.61,12-2.71l8.33-43.84Z" fill="#231f20"/><path d="M220.72,151a1.31,1.31,0,0,1-.57,1,5.69,5.69,0,0,1-1.46.83c-3.09,1.29-9.39,2.21-16.82,2.36l-2,0-1.58,0h-.44c-7.19-.14-13.32-1-16.51-2.23-1.52-.58-2.37-1.24-2.37-1.94s.65-1.19,1.82-1.71c2.88-1.29,8.89-2.22,16.09-2.43l1.21,0h1.78c1.12,0,2.22,0,3.29,0,7.37.23,13.45,1.23,16.13,2.58a5,5,0,0,1,.9.57A1.33,1.33,0,0,1,220.72,151Z" fill="#231f20"/><path d="M199.83,155.71l-1.59,0h-.45c-7.1-.13-13.34-1-16.68-2.26-1.83-.7-2.72-1.49-2.72-2.44s.7-1.56,2.14-2.2c3-1.35,9.1-2.27,16.29-2.48l1.22,0c1.68,0,3.45,0,5.1,0,7.31.23,13.57,1.24,16.35,2.64a6.1,6.1,0,0,1,1,.64,1.86,1.86,0,0,1,.76,1.39,1.83,1.83,0,0,1-.76,1.39,6.06,6.06,0,0,1-1.61.91c-3.25,1.36-9.61,2.26-17,2.41Zm0-8.38-1.77,0c-.41,0-.81,0-1.21,0-6.95.2-13,1.11-15.88,2.38-1.4.62-1.51,1.09-1.51,1.22,0,.32.54.87,2,1.44,3.24,1.24,9.34,2.06,16.33,2.19h.43c1.2,0,2.43,0,3.61,0,7.16-.14,13.53-1,16.62-2.32a4.74,4.74,0,0,0,1.32-.75.86.86,0,0,0,.39-.56c0-.2-.21-.42-.38-.56a4.27,4.27,0,0,0-.8-.51c-2.65-1.33-8.75-2.3-15.9-2.52C202,147.35,200.94,147.33,199.83,147.33Z" fill="#231f20"/><path d="M205.65,129.45a10.92,10.92,0,0,1-3.66,1.23,9.59,9.59,0,0,1-5.94-1.12,12.59,12.59,0,1,0,9.6-.11Z" fill="#fff"/><path d="M201,154.2a13.08,13.08,0,0,1-5.14-25.1.5.5,0,0,1,.43,0,9.14,9.14,0,0,0,5.63,1.07,10.5,10.5,0,0,0,3.5-1.18.48.48,0,0,1,.42,0A13.07,13.07,0,0,1,201,154.2Zm-5-24.08a12.07,12.07,0,1,0,9.64-.12,11.2,11.2,0,0,1-3.62,1.18A10,10,0,0,1,196,130.12Z" fill="#231f20"/><path d="M201.87,155.15l-2,0-1.58,0c-7.38-.1-13.69-1-16.95-2.23a11.3,11.3,0,0,1-.55-3.26v-.39a11.33,11.33,0,0,1,22.37-2.42,11.17,11.17,0,0,1,.3,2.33A11.42,11.42,0,0,1,201.87,155.15Z" fill="#fff"/><path d="M199.83,155.67l-1.59,0c-7.29-.1-13.7-1-17.12-2.27a.49.49,0,0,1-.3-.31,12.23,12.23,0,0,1-.57-3.4v-.42a11.84,11.84,0,0,1,23.36-2.51,11.55,11.55,0,0,1,.31,2.43,11.84,11.84,0,0,1-1.62,6.23.5.5,0,0,1-.42.25Zm2-.52h0Zm-20.17-2.61c3.34,1.2,9.64,2,16.55,2.11,1.11,0,2.23,0,3.32,0a10.72,10.72,0,0,0,1.35-5.46,11.16,11.16,0,0,0-.28-2.23,10.84,10.84,0,0,0-21.39,2.32v.37A10.89,10.89,0,0,0,181.7,152.54Z" fill="#231f20"/><path d="M184.88,145.57a6.16,6.16,0,0,1,2.39-2.31,2.34,2.34,0,0,1,3,.77c.26.48.28,1.07.62,1.5.6.76,1.82.55,2.65.05a8,8,0,0,1,2.51-1.41,5.59,5.59,0,0,1,3.21.91c1,.48,2.34.78,3.2,0s.7-2.41.09-3.54a10.26,10.26,0,0,0-8.22-5,15,15,0,0,0-9.45,2.78,9,9,0,0,0-3.78,4.25,4.29,4.29,0,0,0-.29,2.39,1.82,1.82,0,0,0,1.7,1.47C183.44,147.39,184.38,146.3,184.88,145.57Z" fill="#ff0440"/><path d="M182.4,147.9a2.28,2.28,0,0,1-2.06-1.82,4.7,4.7,0,0,1,.31-2.64A9.48,9.48,0,0,1,184.6,139a15.34,15.34,0,0,1,9.74-2.86,10.69,10.69,0,0,1,8.58,5.26c.72,1.34.94,3.12-.2,4.1-.85.72-2.15.72-3.68,0l-.42-.21a4.38,4.38,0,0,0-2.52-.67,4.26,4.26,0,0,0-1.61.85c-.24.17-.49.35-.75.51-1,.63-2.48.78-3.23-.16a2.94,2.94,0,0,1-.46-1,3.3,3.3,0,0,0-.2-.56,1.92,1.92,0,0,0-2.4-.57,5.77,5.77,0,0,0-2.2,2.16h0c-.51.74-1.55,2-2.74,2.06Zm11-10.93a14.9,14.9,0,0,0-8.27,2.74,8.59,8.59,0,0,0-3.61,4,4,4,0,0,0-.28,2.14,1.43,1.43,0,0,0,1.25,1.12c.69,0,1.51-.89,2-1.68h0a6.67,6.67,0,0,1,2.58-2.47,2.77,2.77,0,0,1,3.55,1,4.56,4.56,0,0,1,.27.72,2.11,2.11,0,0,0,.3.71c.42.53,1.38.37,2.07-.05.24-.14.47-.31.69-.47a5.08,5.08,0,0,1,2-1,5.14,5.14,0,0,1,3.05.75l.42.19c.69.33,2,.77,2.72.11s.53-2,0-3a9.75,9.75,0,0,0-7.86-4.8Q193.82,137,193.37,137Z" fill="#231f20"/><path d="M223.39,151.34a25.58,25.58,0,0,1-.82,4,37.5,37.5,0,0,0-.5,4.62,7.1,7.1,0,0,1-.34,2.34,1.06,1.06,0,0,1-.62.71.87.87,0,0,1-.94-.44,2.62,2.62,0,0,1-.29-1.07l-.3-2.52a.9.9,0,0,1-1.24.51,1.58,1.58,0,0,1-.8-1.25,9.91,9.91,0,0,1,0-1.54,6.31,6.31,0,0,0-.43-2.47c-4.44.19-5.36.24-6.53.38-2.89.35-5.81.52-8.72.58l-2,0-1.58,0h-.44a13,13,0,0,1-.57-3.81,12.8,12.8,0,0,1,.3-2.78,13.07,13.07,0,0,1,25.85,2.78Z" fill="#fff"/><path d="M220.93,163.5a1.42,1.42,0,0,1-1.19-.71,3.14,3.14,0,0,1-.36-1.26L219.2,160a1.51,1.51,0,0,1-1.07-.05,2.11,2.11,0,0,1-1.09-1.63,6.78,6.78,0,0,1,0-1.19c0-.14,0-.29,0-.44a5.91,5.91,0,0,0-.28-2c-4.2.18-5,.24-6.12.37a85.83,85.83,0,0,1-8.77.58c-1.19,0-2.44,0-3.64,0h-.45a.5.5,0,0,1-.46-.36,13.55,13.55,0,0,1-.59-3.95,13.23,13.23,0,0,1,.31-2.88,12.29,12.29,0,0,1,.53-1.82,13.57,13.57,0,0,1,26.31,4.7,9.94,9.94,0,0,1-.47,2.57c-.14.51-.28,1-.36,1.47a38.75,38.75,0,0,0-.49,4.56v.18a6.9,6.9,0,0,1-.36,2.32,1.51,1.51,0,0,1-.95,1A1.19,1.19,0,0,1,220.93,163.5Zm-1.35-5.06h0a.49.49,0,0,1,.47.44l.31,2.53a2.47,2.47,0,0,0,.21.86.41.41,0,0,0,.38.22c.1,0,.21-.18.3-.41a6.47,6.47,0,0,0,.29-2v-.18a36.79,36.79,0,0,1,.51-4.68c.09-.52.23-1.05.37-1.56a8.84,8.84,0,0,0,.44-2.31A12.57,12.57,0,0,0,198.52,147a12.16,12.16,0,0,0-.5,1.69,12.54,12.54,0,0,0-.28,2.67,12.69,12.69,0,0,0,.44,3.31h.07c1.2,0,2.43,0,3.61,0a83.61,83.61,0,0,0,8.67-.58c1.15-.14,2-.19,6.57-.38a.52.52,0,0,1,.49.32,6.92,6.92,0,0,1,.46,2.67c0,.15,0,.31,0,.47a4.55,4.55,0,0,0,0,1,1.09,1.09,0,0,0,.51.87.51.51,0,0,0,.4,0,.24.24,0,0,0,.14-.14A.49.49,0,0,1,219.58,158.44Z" fill="#231f20"/><path d="M207.69,143.58a4.78,4.78,0,0,1,3.54,1.29c.85.82,1.37,1.92,2.18,2.77s2.17,1.41,3.17.78a7.71,7.71,0,0,1,.93-.69c.88-.4,1.83.34,2.48,1.05s1.49,1.52,2.42,1.28a1.86,1.86,0,0,0,1-.77,4.08,4.08,0,0,0,.2-3.94,9,9,0,0,0-2.6-3.15,18.17,18.17,0,0,0-11.39-4.62c-2.75,0-8.42,1.27-9.35,4.42C198.85,146.82,206,143.69,207.69,143.58Z" fill="#ff0440"/><path d="M222.07,150.55a3.68,3.68,0,0,1-2.41-1.47c-.44-.48-1.29-1.24-2-.94a1.79,1.79,0,0,0-.45.32,4.58,4.58,0,0,1-.43.34c-1.19.76-2.78.14-3.73-.85a10.39,10.39,0,0,1-1.06-1.36,9.15,9.15,0,0,0-1.11-1.39,4.27,4.27,0,0,0-3.2-1.17,11.73,11.73,0,0,0-1.66.37c-2.13.56-4.78,1.27-5.92.09a2.57,2.57,0,0,1-.3-2.61c1-3.38,6.87-4.79,9.78-4.75a18.6,18.6,0,0,1,11.68,4.72,9.7,9.7,0,0,1,2.72,3.32,4.5,4.5,0,0,1-.24,4.38,2.3,2.3,0,0,1-1.26.94A1.74,1.74,0,0,1,222.07,150.55Zm-4-3.38a3.24,3.24,0,0,1,2.29,1.31c.64.69,1.33,1.31,2,1.14a1.4,1.4,0,0,0,.75-.59,3.67,3.67,0,0,0,.15-3.5,8.81,8.81,0,0,0-2.48-3,17.7,17.7,0,0,0-11.1-4.51h0c-2.61,0-8,1.23-8.88,4.1-.25.84-.22,1.42.08,1.73.78.81,3.45.1,5.05-.32a12.14,12.14,0,0,1,1.84-.41h0a5.23,5.23,0,0,1,3.87,1.42,9.31,9.31,0,0,1,1.22,1.53,10.41,10.41,0,0,0,1,1.25c.68.71,1.83,1.21,2.59.71a2.78,2.78,0,0,0,.34-.26,2.57,2.57,0,0,1,.66-.46A1.68,1.68,0,0,1,218,147.17Z" fill="#231f20"/><path d="M207.05,128.61a11.77,11.77,0,0,1-5.06,2.07,9.93,9.93,0,0,1-7.25-1.93,7.59,7.59,0,0,0-3,2.05c-.7.87-2,2-1.75,3.22a1.76,1.76,0,0,0,2.74,1c1-.69,1.76-2.25,3-2.56,1.54-.4,2.74,1.61,4.33,1.63a5,5,0,0,0,2.12-.8,2.09,2.09,0,0,1,2.17,0c.5.41.61,1,1.22,1.34a1.93,1.93,0,0,0,2-.12c.39-.29.69-.75,1.18-.82a2,2,0,0,1,1.1.31,5.6,5.6,0,0,0,.81.3c.67.19,1-.18.74-.83A8.69,8.69,0,0,0,207.05,128.61Z" fill="#ff0440"/><path d="M191.69,135.84a2.35,2.35,0,0,1-.86-.17,2.11,2.11,0,0,1-1.29-1.57c-.22-1.21.69-2.26,1.43-3.09l.42-.49a8.11,8.11,0,0,1,3.18-2.18.44.44,0,0,1,.43,0,9.5,9.5,0,0,0,6.93,1.86,11.17,11.17,0,0,0,4.86-2,.44.44,0,0,1,.47,0,9.1,9.1,0,0,1,4.5,5.14,1.09,1.09,0,0,1-.16,1.19,1.06,1.06,0,0,1-1.12.2,4.94,4.94,0,0,1-.88-.33l-.12-.06a1.41,1.41,0,0,0-.72-.21,1.26,1.26,0,0,0-.59.4,4.23,4.23,0,0,1-.4.34,2.29,2.29,0,0,1-3.34-.73,2.62,2.62,0,0,0-.41-.51c-.41-.33-1.14-.16-1.69.11a4,4,0,0,0-.41.21,4.11,4.11,0,0,1-1.9.62h0a4.23,4.23,0,0,1-2.26-.93c-.7-.47-1.31-.87-2-.71a4,4,0,0,0-1.63,1.34,6.8,6.8,0,0,1-1.18,1.16A2.31,2.31,0,0,1,191.69,135.84Zm3-6.58a6.76,6.76,0,0,0-2.61,1.82l-.44.52c-.64.72-1.37,1.55-1.22,2.33a1.2,1.2,0,0,0,.75.91,1.34,1.34,0,0,0,1.3-.14,6.43,6.43,0,0,0,1-1,4.51,4.51,0,0,1,2.08-1.61,3.32,3.32,0,0,1,2.66.82,3.64,3.64,0,0,0,1.78.79h0a3.26,3.26,0,0,0,1.48-.52l.44-.23a2.42,2.42,0,0,1,2.64,0,3,3,0,0,1,.59.7,1.52,1.52,0,0,0,.56.59,1.48,1.48,0,0,0,1.51-.08,4,4,0,0,0,.31-.27,2,2,0,0,1,1.07-.64,2.16,2.16,0,0,1,1.24.3l.12,0a4,4,0,0,0,.75.28.48.48,0,0,0,.24,0,1.82,1.82,0,0,0-.06-.29,8.11,8.11,0,0,0-3.84-4.49,11.71,11.71,0,0,1-5,2A10.25,10.25,0,0,1,194.69,129.26Z" fill="#231f20"/><path d="M217.12,154.73a.56.56,0,0,1-.48-.29,10.34,10.34,0,0,0-1.37-2.06.54.54,0,0,1,.76-.76,12.59,12.59,0,0,1,1.57,2.32.54.54,0,0,1-.23.72A.45.45,0,0,1,217.12,154.73Z" fill="#231f20"/><path d="M267,237c-4.85-24-39.35-64-43.23-68.22s-28.84-6.7-31.38-5.45-.11,3.51,7.88,4.48c0,0-13.78-1.29-10.65,2.91s11.9,3.23,11.9,3.23-8.61-2.05-8.77,1c-.09,1.79,3.52,2.3,4.7,2.53a15.07,15.07,0,0,1,6,2.24,12.81,12.81,0,0,1-5.41.78,1.69,1.69,0,0,0-1.32.39c-.49.56-.06,1.45.48,2,3.59,3.37,17.27.42,17.27.42s18.33,54.56,23.65,62.77C248.47,262,271.85,261,267,237Z" fill="#fff"/><path d="M255.75,257.33c-6.48,0-13.71-4.19-18.12-11-5.09-7.86-21.58-56.58-23.55-62.41-2.6.51-13.87,2.52-17.27-.67-.81-.77-1.25-2-.52-2.8a2.29,2.29,0,0,1,1.76-.59h.13a16.07,16.07,0,0,0,3.88-.32,15.79,15.79,0,0,0-4.71-1.52l-.3-.05c-1.62-.3-5-.91-4.88-3.09a1.9,1.9,0,0,1,.57-1.28,7.81,7.81,0,0,1-3.58-2.53,2,2,0,0,1-.38-2.26c.64-1.14,2.85-1.6,5.19-1.74-1.87-.67-2.95-1.5-3.11-2.42-.07-.42,0-1.23,1.27-1.86,2.89-1.42,28,1.16,32.09,5.58.37.41,38.23,43,43.37,68.5,2.81,13.95-3.86,18.3-6.86,19.52A13.28,13.28,0,0,1,255.75,257.33Zm-41.27-74.69a.59.59,0,0,1,.56.4c.18.55,18.37,54.59,23.58,62.64,4.64,7.17,14,12.73,21.66,9.61,5.76-2.35,8-9,6.15-18.19-5.08-25.17-42.71-67.52-43.09-67.93-3.69-4-28.34-6.47-30.68-5.32-.42.21-.66.44-.63.6.08.47,1.78,2,8.32,2.76a.59.59,0,0,1,.52.66.58.58,0,0,1-.64.52c-3.89-.36-9.69-.29-10.42,1-.12.22,0,.54.3,1a7.5,7.5,0,0,0,4.19,2.49c2.6-.58,6.81.38,7.37.51a.6.6,0,0,1,.45.62.59.59,0,0,1-.52.55,23.22,23.22,0,0,1-7.32-.45,2,2,0,0,0-.61.28.75.75,0,0,0-.32.58c0,1.14,2.93,1.68,3.91,1.86l.32.06a15.64,15.64,0,0,1,6.2,2.33.59.59,0,0,1-.07,1,13,13,0,0,1-5.52.83h-.13c-.38,0-.74,0-.88.19s.06.79.44,1.14c2.75,2.59,13,1.08,16.73.27Z" fill="#231f20"/><path d="M165.52,111.93a.57.57,0,0,1-.22,0,.6.6,0,0,1-.33-.77c2.83-7.12,2.52-23.12,2.52-23.28a.58.58,0,0,1,.58-.6.55.55,0,0,1,.6.58c0,.66.32,16.39-2.6,23.73A.58.58,0,0,1,165.52,111.93Z" fill="#231f20"/></svg>