<svg xmlns="http://www.w3.org/2000/svg" viewBox="0 0 400 300"><g id="_524_facebook_flatline" data-name="#524_facebook_flatline"><path d="M288.35,63.61s-2.33-4.28-6-10.19c0,0-11.83,8.83-11.73,8.34S288.35,63.61,288.35,63.61Z" fill="#231f20"/><path d="M288.35,64.11h-.07c-6.22-.83-16.39-2.06-17.48-1.91-.3.12-.38.06-.48,0a.52.52,0,0,1-.23-.54c0-.14.06-.28.39-.36h0c.69-.27,7.44-5.22,11.54-8.28a.49.49,0,0,1,.39-.09.48.48,0,0,1,.33.22c3.68,5.86,6,10.18,6.06,10.22a.49.49,0,0,1,0,.52A.5.5,0,0,1,288.35,64.11Zm-16-2.84c2.18.12,6.49.59,15.05,1.72-.83-1.49-2.7-4.76-5.26-8.84C276.8,58.15,273.94,60.22,272.38,61.27Z" fill="#231f20"/><polygon points="131.73 241.96 125.83 232.12 133.99 224.74 131.73 241.96" fill="#231f20"/><path d="M131.73,242.46a.51.51,0,0,1-.43-.24l-5.9-9.84a.5.5,0,0,1,.1-.63l8.16-7.38a.5.5,0,0,1,.57-.07.51.51,0,0,1,.26.51L132.23,242a.5.5,0,0,1-.4.43Zm-5.26-10.24,4.95,8.25,1.9-14.45Z" fill="#231f20"/><path d="M135.56,244l95,13.53a8.28,8.28,0,0,0,9-5.83l49.15-183.9c1-3.81-1.43-7.16-5.46-7.49l-96.86-7.81a8.57,8.57,0,0,0-8.63,6.12L130.59,236.44A5.92,5.92,0,0,0,135.56,244Z" fill="#231f20"/><path d="M231.61,258.14a8.89,8.89,0,0,1-1.15-.08l-95-13.54h0a6.45,6.45,0,0,1-4.57-2.81,6.6,6.6,0,0,1-.81-5.4L177.25,58.52A9.11,9.11,0,0,1,186.4,52l96.86,7.81a6.71,6.71,0,0,1,5.05,2.72,6.4,6.4,0,0,1,.86,5.4L240,251.86A8.81,8.81,0,0,1,231.61,258.14Zm-96-14.61,95,13.54A7.76,7.76,0,0,0,239,251.6L288.2,67.71a5.37,5.37,0,0,0-.71-4.57,5.67,5.67,0,0,0-4.31-2.3L186.32,53a8,8,0,0,0-8.1,5.75L131.08,236.57a5.59,5.59,0,0,0,.67,4.59A5.5,5.5,0,0,0,135.63,243.53Z" fill="#231f20"/><path d="M129.37,233.88l95,13.53a8.26,8.26,0,0,0,9-5.83L282.5,57.68c1-3.81-1.43-7.16-5.46-7.49l-96.86-7.81a8.57,8.57,0,0,0-8.63,6.12L124.41,226.29A5.92,5.92,0,0,0,129.37,233.88Z" fill="#fff"/><path d="M225.42,248a8.74,8.74,0,0,1-1.14-.08l-95-13.54a6.43,6.43,0,0,1-4.56-2.81,6.56,6.56,0,0,1-.81-5.4L171.07,48.38a9.08,9.08,0,0,1,9.15-6.5l96.86,7.81a6.67,6.67,0,0,1,5,2.72,6.33,6.33,0,0,1,.86,5.4l-49.15,183.9A8.83,8.83,0,0,1,225.42,248ZM179.59,42.86A8.07,8.07,0,0,0,172,48.63L124.89,226.42a5.63,5.63,0,0,0,.68,4.59,5.48,5.48,0,0,0,3.87,2.37h0l95,13.54a7.78,7.78,0,0,0,8.44-5.47L282,57.56a5.41,5.41,0,0,0-.71-4.57,5.7,5.7,0,0,0-4.31-2.3l-96.86-7.81Z" fill="#231f20"/><path d="M168.63,232.81l18.54,2.61a5,5,0,0,0,5.4-3.56l1.85-6.91a3.72,3.72,0,0,0-3.2-4.75l-18.56-2.52a5,5,0,0,0-5.35,3.56l-1.82,6.85A3.69,3.69,0,0,0,168.63,232.81Z" fill="#fff"/><path d="M187.79,236a4,4,0,0,1-.69-.05l-18.54-2.6A4.2,4.2,0,0,1,165,228l1.82-6.85a5.49,5.49,0,0,1,5.89-3.92l18.57,2.51a4.34,4.34,0,0,1,3.08,1.87,4.29,4.29,0,0,1,.53,3.51L193.06,232A5.55,5.55,0,0,1,187.79,236Zm-15.74-17.82a4.48,4.48,0,0,0-4.25,3.22L166,228.22a3.21,3.21,0,0,0,2.73,4.1h0l18.53,2.6a4.49,4.49,0,0,0,4.86-3.19l1.84-6.91a3.26,3.26,0,0,0-.4-2.7,3.34,3.34,0,0,0-2.38-1.43l-18.56-2.51A3.27,3.27,0,0,0,172.05,218.14Z" fill="#e6e7e8"/><path d="M243.78,57.45h0l-28.33-2.37a.5.5,0,1,1,.08-1l28.33,2.36a.5.5,0,0,1,0,1Z" fill="#d1d3d4"/><path d="M211.52,54.75h-.05l-3.75-.31a.5.5,0,1,1,.08-1l3.76.32a.5.5,0,0,1,0,1Z" fill="#d1d3d4"/><polygon points="272.33 69.8 234.24 216.89 135.34 205.13 173.66 61.19 272.33 69.8" fill="#fff"/><path d="M234.24,217.39h-.05l-98.91-11.77a.47.47,0,0,1-.35-.21.5.5,0,0,1-.07-.41L173.18,61.06a.5.5,0,0,1,.53-.37l98.66,8.61a.54.54,0,0,1,.37.21.52.52,0,0,1,.07.42L234.73,217A.5.5,0,0,1,234.24,217.39ZM136,204.7l97.9,11.65L271.7,70.25,174,61.73Z" fill="#231f20"/><path d="M244.46,86.73,195.89,82.2a4,4,0,0,1-3.6-5.09h0a5.92,5.92,0,0,1,6.06-4.21l48.57,4.39a4.06,4.06,0,0,1,3.76,5.18h0A6,6,0,0,1,244.46,86.73Z" fill="#e6e7e8"/><path d="M263.91,89.05h0l-10.38-1a.49.49,0,0,1-.36-.21.5.5,0,0,1-.08-.41l2.29-8.79a.5.5,0,0,1,.53-.37l10.37.94a.51.51,0,0,1,.37.21.5.5,0,0,1,.07.41l-2.28,8.82A.5.5,0,0,1,263.91,89.05Zm-9.74-1.91,9.37.87,2-7.83-9.37-.85Z" fill="#d1d3d4"/><path d="M261.24,85.25a.5.5,0,0,1-.43-.25l-1.6-2.66c-2,1.1-4.16,2.29-4.5,2.57a.52.52,0,0,1-.53.18.5.5,0,0,1-.35-.61c.06-.25.12-.45,5.33-3.25a.5.5,0,0,1,.66.19l1.85,3.07a.51.51,0,0,1-.17.69A.59.59,0,0,1,261.24,85.25Z" fill="#d1d3d4"/><path d="M265.06,84.64a.48.48,0,0,1-.38-.17l-1.58-1.79-2.19,1.47a.5.5,0,0,1-.56-.83l2.55-1.72a.51.51,0,0,1,.66.09l1.87,2.12a.51.51,0,0,1,0,.71A.54.54,0,0,1,265.06,84.64Z" fill="#d1d3d4"/><path d="M183.89,106.66a7.37,7.37,0,0,1-7.62,5.26,5,5,0,0,1-4.48-6.48,7.37,7.37,0,0,1,7.59-5.26A5,5,0,0,1,183.89,106.66Z" fill="#ff0440"/><path d="M170.53,157.1a7.24,7.24,0,0,1-7.62,5.2,5.15,5.15,0,0,1-4.46-6.63,7.23,7.23,0,0,1,7.6-5.2A5.14,5.14,0,0,1,170.53,157.1Z" fill="#e6e7e8"/><path d="M164.64,179.38a7.18,7.18,0,0,1-7.63,5.17,5.2,5.2,0,0,1-4.46-6.69,7.18,7.18,0,0,1,7.6-5.17A5.21,5.21,0,0,1,164.64,179.38Z" fill="#e6e7e8"/><path d="M231.1,108.7h0l-41.19-4.12a.5.5,0,0,1-.45-.55.5.5,0,0,1,.55-.44l41.19,4.11a.5.5,0,0,1-.05,1Z" fill="#d1d3d4"/><path d="M203.55,112.32h-.06l-15.26-1.55a.5.5,0,0,1-.45-.55.51.51,0,0,1,.55-.45l15.27,1.56a.5.5,0,0,1,0,1Z" fill="#d1d3d4"/><path d="M246,124.89H246l-73.86-7.74a.5.5,0,0,1-.45-.55.5.5,0,0,1,.55-.44l73.86,7.74a.5.5,0,0,1,.44.55A.49.49,0,0,1,246,124.89Z" fill="#d1d3d4"/><path d="M237.74,131.6h-.05l-67.52-7.24a.5.5,0,0,1-.44-.55.51.51,0,0,1,.55-.45l67.51,7.25a.5.5,0,0,1,0,1Z" fill="#d1d3d4"/><path d="M227.46,199.11a7.22,7.22,0,0,1-.92-.06h0l-76.13-9.92a5.67,5.67,0,0,1-4.08-2.45,5.78,5.78,0,0,1-.72-4.79l21.92-82.4a7.8,7.8,0,0,1,8-5.56l76.23,7.41a5.94,5.94,0,0,1,4.4,2.45,5.66,5.66,0,0,1,.78,4.73l-22,85A7.84,7.84,0,0,1,227.46,199.11Zm-.79-1.05a6.78,6.78,0,0,0,7.29-4.84l22-84.95a4.67,4.67,0,0,0-.63-3.91,5,5,0,0,0-3.67-2l-76.24-7.4a6.76,6.76,0,0,0-6.94,4.82l-21.93,82.4a4.83,4.83,0,0,0,.59,4,4.69,4.69,0,0,0,3.37,2Z" fill="#d1d3d4"/><path d="M248.31,140.35h-.06l-88.41-9.71a.5.5,0,0,1-.44-.55.51.51,0,0,1,.55-.45l88.41,9.72a.5.5,0,0,1,.45.55A.51.51,0,0,1,248.31,140.35Z" fill="#d1d3d4"/><path d="M244.75,154.1h-.06L156.29,144a.5.5,0,0,1,.11-1l88.4,10.13a.5.5,0,0,1-.05,1Z" fill="#d1d3d4"/><path d="M167.55,142.91h-.05l-1.39-.07a1,1,0,0,1-.71-.36,1,1,0,0,1-.18-.77l.77-3.85a1.13,1.13,0,0,1,1.13-.87l1.39.06a1,1,0,0,1,.71.36,1,1,0,0,1,.18.77l-.77,3.85A1.11,1.11,0,0,1,167.55,142.91Zm-.48-4.92s-.1,0-.1.07l-.76,3.85h1.34a.09.09,0,0,0,.1-.07l.77-3.86Z" fill="#d1d3d4"/><path d="M175.23,143.29h0l-5.92-.29a.51.51,0,0,1-.37-.2.48.48,0,0,1-.09-.4l.79-4a.52.52,0,0,1,.14-.25c.54-.57,1.12-1.28,1.68-2,1.54-1.89,2.46-2.95,3.32-2.7a.81.81,0,0,1,.54.48c.28.67-.27,2-.75,2.95a7.82,7.82,0,0,1,2.5.44c.35.18,1.15.6-1.36,5.68A.49.49,0,0,1,175.23,143.29ZM169.91,142l5,.25a16.71,16.71,0,0,0,1.53-4.11,12.16,12.16,0,0,0-2.73-.31.48.48,0,0,1-.43-.25.48.48,0,0,1,0-.49,9,9,0,0,0,1.08-2.66,13.46,13.46,0,0,0-2.17,2.33c-.53.66-1.09,1.34-1.63,1.92Z" fill="#d1d3d4"/><path d="M224.9,191l-52.55-6.71a3.05,3.05,0,0,1-2.62-3.91h0a4.18,4.18,0,0,1,4.45-3L226.73,184a3.14,3.14,0,0,1,2.75,4h0A4.28,4.28,0,0,1,224.9,191Z" fill="#e6e7e8"/><path d="M214.12,170.3l-33.73-4.09a5.7,5.7,0,0,1-5-7.32l.62-2.34a8,8,0,0,1,8.41-5.73l33.74,3.91a5.82,5.82,0,0,1,5.15,7.41l-.62,2.38A8.09,8.09,0,0,1,214.12,170.3Z" fill="#ff0440"/><path d="M226.27,185.88l.26-1-4-.51-.25,1-.79-.1-1,3.75,5.61.71,1-3.76Zm-2.67,2.29a1,1,0,0,1-.9-1.3,1.41,1.41,0,0,1,1.5-1,1,1,0,0,1,.9,1.31A1.39,1.39,0,0,1,223.6,188.17Z" fill="#231f20"/><path d="M184.09,170.69H184l-9-1.1a.51.51,0,0,1-.44-.56.52.52,0,0,1,.56-.44l9,1.1a.5.5,0,0,1-.06,1Z" fill="#d1d3d4"/><path d="M196.64,172.23h-.06l-9.06-1.11a.49.49,0,0,1-.43-.55.49.49,0,0,1,.55-.44l9.06,1.11a.5.5,0,0,1,.44.56A.51.51,0,0,1,196.64,172.23Z" fill="#d1d3d4"/><path d="M217.17,160.85h-.06l-33.25-3.92a.51.51,0,0,1-.44-.56.51.51,0,0,1,.56-.44l33.25,3.92a.5.5,0,0,1-.06,1Z" fill="#fff"/><path d="M211.27,164.71h-.06l-28.5-3.41a.5.5,0,0,1-.44-.55.5.5,0,0,1,.55-.44l28.51,3.4a.5.5,0,0,1,.43.56A.5.5,0,0,1,211.27,164.71Z" fill="#fff"/><path d="M203.48,147.84c-.28,0-.5-.29-1.51-1.92-.35,0-.69,0-1,0a5.83,5.83,0,0,1-4.25-2.26,3.25,3.25,0,0,1-.51-2.74c.62-2.34,3.63-3.9,6.85-3.54a5.86,5.86,0,0,1,4.28,2.25,3.26,3.26,0,0,1,.51,2.74h0a4.91,4.91,0,0,1-3.29,3.14c-.32,1.2-.48,1.83-.5,1.93a.55.55,0,0,1-.4.43Zm-1.24-2.93a.51.51,0,0,1,.43.23c.27.45.48.79.65,1l.33-1.24a.49.49,0,0,1,.33-.34,4.08,4.08,0,0,0,2.88-2.53h0a2.3,2.3,0,0,0-.36-1.92,5,5,0,0,0-3.56-1.83c-2.72-.3-5.3,1-5.78,2.81a2.3,2.3,0,0,0,.36,1.92,4.94,4.94,0,0,0,3.54,1.82,6.34,6.34,0,0,0,1.16,0Zm5.1-2.71h0Z" fill="#d1d3d4"/><path d="M200.82,141.6a.8.8,0,0,1-.83.57.55.55,0,0,1-.49-.71.78.78,0,0,1,.82-.57A.56.56,0,0,1,200.82,141.6Z" fill="#d1d3d4"/><path d="M202.85,141.83a.78.78,0,0,1-.83.57.56.56,0,0,1-.49-.72.79.79,0,0,1,.83-.56A.55.55,0,0,1,202.85,141.83Z" fill="#d1d3d4"/><path d="M204.89,142.06a.79.79,0,0,1-.83.57.57.57,0,0,1-.49-.72.79.79,0,0,1,.83-.56A.55.55,0,0,1,204.89,142.06Z" fill="#d1d3d4"/><path d="M230.44,148.48a.52.52,0,0,1-.33-.12.5.5,0,0,1-.1-.63,12.58,12.58,0,0,1,4.89-4.45l-.36-.83a.51.51,0,0,1,0-.48.49.49,0,0,1,.43-.22l4.58.15a.51.51,0,0,1,.41.24.49.49,0,0,1,0,.47l-1.88,4a.49.49,0,0,1-.4.29.5.5,0,0,1-.45-.19l-.82-1.06a20,20,0,0,0-5.73,2.73A.5.5,0,0,1,230.44,148.48Zm5.33-5.7.24.54a.5.5,0,0,1-.25.66,11.36,11.36,0,0,0-3,2.06,26.66,26.66,0,0,1,3.82-1.45.5.5,0,0,1,.53.17l.53.69,1.21-2.57Z" fill="#d1d3d4"/><path d="M235.91,150.14h0l-6.83-.78a.47.47,0,0,1-.36-.21.5.5,0,0,1-.07-.41l1.6-6.13a.5.5,0,0,1,.53-.37l3.06.34a.5.5,0,0,1-.11,1l-2.63-.3-1.34,5.16,5.83.66.6-2.3a.49.49,0,0,1,.61-.36.5.5,0,0,1,.35.61l-.7,2.72A.5.5,0,0,1,235.91,150.14Z" fill="#d1d3d4"/><path d="M264.62,94.9h-.05l-96.1-9.15a.49.49,0,0,1-.45-.54.49.49,0,0,1,.54-.45l96.1,9.14a.5.5,0,0,1,.45.55A.49.49,0,0,1,264.62,94.9Z" fill="#d1d3d4"/><path d="M187,82.22h-.1l-3.4-.24c-.11,0-.12,0-.09-.14.41-1.46.81-2.92,1.22-4.38,0-.14,0-.14.17-.13l1.28.11c.09,0,.13,0,.17-.11.18-.45.36-.9.55-1.35l.14-.33c0-.09,0-.12-.07-.13l-1.54-.12c-.1,0-.12,0-.09-.14.12-.41.23-.82.35-1.23a.8.8,0,0,1,.81-.56l1.05.09c.09,0,.13,0,.15-.12l.42-1.51c0-.08,0-.12-.07-.13-.56,0-1.11-.11-1.68-.12a2.51,2.51,0,0,0-2,1,2.64,2.64,0,0,0-.53,1c-.13.46-.26.93-.38,1.39,0,.1-.07.12-.17.11l-1.31-.11c-.09,0-.12,0-.15.11-.15.57-.31,1.14-.47,1.71,0,.1,0,.12.08.13l1.33.1c.09,0,.11,0,.08.13l-1.23,4.42c0,.09,0,.12-.14.11l-6.16-.45h-.1l3.35-12.23,11.93,1.06Z" fill="#ff0440"/><path d="M148.8,61.94,87.69,73.05a11.4,11.4,0,0,0-9.18,13.26l7.79,42.88a11.42,11.42,0,0,0,13.27,9.18l52.34-9.52L162,137.52l-.53-10.45A11.39,11.39,0,0,0,169.86,114l-7.8-42.87A11.4,11.4,0,0,0,148.8,61.94Z" fill="#fff"/><path d="M97.52,139.05a11.93,11.93,0,0,1-11.71-9.78L78,86.4A11.89,11.89,0,0,1,87.6,72.56l61.11-11.11A11.91,11.91,0,0,1,162.55,71l7.8,42.87A11.93,11.93,0,0,1,162,127.45l.51,10a.5.5,0,0,1-.82.4l-9.9-8.51-52.1,9.48A12.07,12.07,0,0,1,97.52,139.05Zm51.37-76.62L87.78,73.54A10.9,10.9,0,0,0,79,86.22l7.8,42.88a10.92,10.92,0,0,0,12.68,8.78l52.34-9.52a.5.5,0,0,1,.42.11l9.18,7.91L161,127.1a.51.51,0,0,1,.38-.51,10.93,10.93,0,0,0,8-12.51l-7.79-42.87a10.92,10.92,0,0,0-12.68-8.78Z" fill="#231f20"/><polygon points="98.43 101.81 113.35 99.09 117.28 120.71 104.37 123.06 98.43 101.81" fill="#ff0440"/><path d="M104.37,123.56a.5.5,0,0,1-.48-.37L98,101.94a.51.51,0,0,1,0-.4.49.49,0,0,1,.34-.22l14.92-2.72a.5.5,0,0,1,.58.41l3.93,21.61a.5.5,0,0,1-.4.58l-12.91,2.35ZM99.06,102.2l5.67,20.28,12-2.17L113,99.68Z" fill="#231f20"/><circle cx="112.6" cy="117.69" r="1.74" fill="#231f20"/><path d="M113.6,100.44s.89-.31,3.07-3.55,4.81-11.23,4.86-12.55-1.39-6.45-.81-7.65,3.61-2.63,5.36-1a16.63,16.63,0,0,1,4,6.92c.32,1.77.42,9.11.42,9.11l15-2.72c2.19-.39,3,1.07,3.13,2.79s-1.45,4.07-1.45,4.07,2,.35,1.85,2.93a4.69,4.69,0,0,1-2,3.7,2.27,2.27,0,0,1,1.06,2.65,4.56,4.56,0,0,1-1.79,3,2.23,2.23,0,0,1,1.38,2.81c-.46,2.28-1.48,3.85-3.31,4.25s-20,3.65-21.8,4-2-.58-3-.73a9.65,9.65,0,0,0-2.74.27Z" fill="#fff"/><path d="M121.91,119.7a2.93,2.93,0,0,1-1.65-.5,1.91,1.91,0,0,0-.69-.3,8.86,8.86,0,0,0-2.54.26.49.49,0,0,1-.39-.06.49.49,0,0,1-.22-.33l-3.32-18.24a.51.51,0,0,1,.31-.56c.07,0,.91-.49,2.84-3.36,2.19-3.25,4.74-11.16,4.78-12.29a18.33,18.33,0,0,0-.38-2.6c-.48-2.55-.78-4.42-.38-5.25a4.43,4.43,0,0,1,3-1.93,3.54,3.54,0,0,1,3.14.81,17.11,17.11,0,0,1,4.18,7.19c.27,1.51.38,6.81.41,8.61l14.38-2.62a3,3,0,0,1,2.44.45,3.78,3.78,0,0,1,1.28,2.78,7.29,7.29,0,0,1-1.2,3.86,3.23,3.23,0,0,1,1.6,3.21,5.31,5.31,0,0,1-1.63,3.66,3,3,0,0,1,.74,2.76,5.22,5.22,0,0,1-1.41,2.76,2.8,2.8,0,0,1,1,3c-.54,2.66-1.78,4.22-3.69,4.64-1.46.32-13.3,2.44-19,3.46l-2.82.51A4.79,4.79,0,0,1,121.91,119.7Zm-2.75-1.82a3.28,3.28,0,0,1,.56,0,2.6,2.6,0,0,1,1,.42,2.09,2.09,0,0,0,1.75.3l2.83-.5c5.68-1,17.51-3.14,19-3.46s2.47-1.59,2.93-3.86a1.73,1.73,0,0,0-1-2.23.51.51,0,0,1-.35-.41.53.53,0,0,1,.23-.49,4,4,0,0,0,1.57-2.61c.28-1.57-.67-2.06-.78-2.11a.52.52,0,0,1-.29-.43.49.49,0,0,1,.24-.45,4.22,4.22,0,0,0,1.71-3.31c.09-2-1.28-2.38-1.44-2.41a.55.55,0,0,1-.37-.31.52.52,0,0,1,0-.47c.42-.61,1.49-2.48,1.36-3.73a2.82,2.82,0,0,0-.88-2.09,2.06,2.06,0,0,0-1.66-.25l-15,2.72a.55.55,0,0,1-.41-.11.49.49,0,0,1-.18-.38c0-.07-.1-7.32-.41-9a16.17,16.17,0,0,0-3.88-6.64,2.54,2.54,0,0,0-2.26-.56,3.51,3.51,0,0,0-2.31,1.39c-.29.59.16,3,.46,4.63a16.92,16.92,0,0,1,.4,2.82c-.06,1.41-2.74,9.52-5,12.81a14.93,14.93,0,0,1-2.93,3.51l3.16,17.4A10.8,10.8,0,0,1,119.16,117.88Z" fill="#231f20"/><path d="M142.6,188.32l12.85-7.75L142,183.24l-.44-3.72a7.32,7.32,0,0,0-8.12-6.43L89,178.26a7.32,7.32,0,0,0-6.43,8.12l3,26.22A7.34,7.34,0,0,0,93.77,219l44.42-5.17a7.33,7.33,0,0,0,6.43-8.13Z" fill="#fff"/><path d="M92.92,219.58a7.85,7.85,0,0,1-7.78-6.92l-3-26.22A7.85,7.85,0,0,1,89,177.76l44.43-5.17a7.84,7.84,0,0,1,8.68,6.87l.37,3.19,12.91-2.57a.5.5,0,0,1,.36.92l-12.58,7.58,2,17.1a7.83,7.83,0,0,1-6.87,8.68l-44.42,5.17A7,7,0,0,1,92.92,219.58Zm41.38-46a7,7,0,0,0-.79,0l-44.43,5.17a6.83,6.83,0,0,0-6,7.57l3,26.23a6.84,6.84,0,0,0,7.57,6l44.43-5.17a6.84,6.84,0,0,0,6-7.57l-2-17.42a.52.52,0,0,1,.24-.49l10.41-6.27-10.65,2.11a.5.5,0,0,1-.39-.08.55.55,0,0,1-.2-.35l-.43-3.72A6.84,6.84,0,0,0,134.3,173.54Z" fill="#231f20"/><polygon points="94.89 196.18 104.54 195.11 106.08 209.08 97.73 210 94.89 196.18" fill="#ff0440"/><path d="M97.73,210.5a.5.5,0,0,1-.49-.4L94.4,196.28a.5.5,0,0,1,.44-.6l9.64-1.06a.5.5,0,0,1,.55.44l1.55,14a.5.5,0,0,1-.45.55l-8.34.92Zm-2.24-13.89,2.64,12.84,7.4-.81-1.44-13Z" fill="#231f20"/><circle cx="103.23" cy="206.94" r="1.12" fill="#231f20"/><path d="M104.63,196s.59-.16,2.12-2.13a29.65,29.65,0,0,0,3.67-7.79c.09-.84-.6-4.18-.18-4.92s2.42-1.51,3.47-.38a10.67,10.67,0,0,1,2.26,4.6c.12,1.14-.14,5.83-.14,5.83l9.67-1.07c1.41-.15,1.84.82,1.87,1.92a5.13,5.13,0,0,1-1.11,2.53,1.63,1.63,0,0,1,1,2,3,3,0,0,1-1.41,2.28,1.45,1.45,0,0,1,.56,1.74,2.92,2.92,0,0,1-1.28,1.8,1.43,1.43,0,0,1,.76,1.86c-.4,1.43-1.12,2.38-2.3,2.56s-13,1.43-14.09,1.55-1.24-.45-1.86-.59a6.17,6.17,0,0,0-1.76.05Z" fill="#fff"/><path d="M109.25,208.83a2.11,2.11,0,0,1-1.31-.43.84.84,0,0,0-.36-.19,5.2,5.2,0,0,0-1.57,0,.52.52,0,0,1-.38-.09.49.49,0,0,1-.19-.35L104.14,196a.48.48,0,0,1,.33-.52,7.26,7.26,0,0,0,1.89-2,29.57,29.57,0,0,0,3.56-7.54,11.37,11.37,0,0,0-.13-1.64c-.2-1.73-.3-2.91,0-3.48a3,3,0,0,1,2.15-1.18,2.43,2.43,0,0,1,2.11.71,11.1,11.1,0,0,1,2.4,4.88c.1.93,0,4-.11,5.33l9.08-1a2.12,2.12,0,0,1,1.68.43,2.65,2.65,0,0,1,.75,2,4.67,4.67,0,0,1-.87,2.37,2.25,2.25,0,0,1,.81,2.18,3.61,3.61,0,0,1-1.14,2.27,2.14,2.14,0,0,1,.28,1.81,3.59,3.59,0,0,1-.94,1.66,2,2,0,0,1,.41,2c-.48,1.74-1.39,2.73-2.71,2.92-1,.15-8.68,1-12.38,1.38l-1.73.18A2.11,2.11,0,0,1,109.25,208.83Zm-2.15-1.66a3,3,0,0,1,.7.06,1.74,1.74,0,0,1,.71.35,1.2,1.2,0,0,0,1,.24l1.73-.19c3.41-.37,11.4-1.22,12.34-1.36s1.53-.86,1.9-2.21c.26-.95-.38-1.22-.45-1.25a.53.53,0,0,1-.33-.43.52.52,0,0,1,.26-.48,2.33,2.33,0,0,0,1-1.48c.23-.89-.3-1.17-.3-1.18a.49.49,0,0,1,0-.88,2.52,2.52,0,0,0,1.14-1.89c.13-1.12-.54-1.38-.68-1.42a.49.49,0,0,1-.34-.33.5.5,0,0,1,.08-.46,4.45,4.45,0,0,0,1-2.21,1.72,1.72,0,0,0-.41-1.23,1.16,1.16,0,0,0-.91-.2l-9.67,1.07a.55.55,0,0,1-.4-.14.51.51,0,0,1-.15-.39c.09-1.61.24-4.88.14-5.75a10.26,10.26,0,0,0-2.13-4.31,1.48,1.48,0,0,0-1.27-.4,2.08,2.08,0,0,0-1.39.69,10,10,0,0,0,.1,2.87,10,10,0,0,1,.13,1.86,29.26,29.26,0,0,1-3.76,8,10.64,10.64,0,0,1-2,2.09l1.21,11C106.59,207.19,106.85,207.17,107.1,207.17Z" fill="#231f20"/><path d="M320.67,217.49l-7.15-48.1a6.08,6.08,0,0,0-6.91-5.13l-60.37,9-14.89-11,6.25,12.36a6.08,6.08,0,0,0-4,6.65l7.15,48.11a6.08,6.08,0,0,0,6.91,5.12l67.94-10.1A6.08,6.08,0,0,0,320.67,217.49Z" fill="#fff"/><path d="M246.71,235.07a6.61,6.61,0,0,1-6.51-5.62l-7.15-48.1a6.58,6.58,0,0,1,3.86-7l-6-11.87a.51.51,0,0,1,.13-.61.5.5,0,0,1,.62,0l14.72,10.85,60.16-9a6.62,6.62,0,0,1,7.49,5.55l7.15,48.1h0a6.61,6.61,0,0,1-5.55,7.49L247.69,235A8.22,8.22,0,0,1,246.71,235.07Zm-14-71.16,5.31,10.49a.49.49,0,0,1,0,.41.51.51,0,0,1-.3.29,5.58,5.58,0,0,0-3.72,6.1l7.15,48.1a5.59,5.59,0,0,0,6.35,4.71l67.93-10.1a5.6,5.6,0,0,0,4.71-6.35L313,169.46a5.6,5.6,0,0,0-6.35-4.71l-60.36,9a.49.49,0,0,1-.37-.1Z" fill="#231f20"/><polygon points="303.03 195.09 286.86 195.93 288.09 219.34 302.07 218.61 303.03 195.09" fill="#ff0440"/><path d="M288.09,219.84a.5.5,0,0,1-.5-.47L286.36,196a.5.5,0,0,1,.48-.52l16.16-.85a.49.49,0,0,1,.38.14.54.54,0,0,1,.15.38l-1,23.52a.49.49,0,0,1-.47.48l-14,.73Zm-.7-23.43,1.17,22.41,13-.69.91-22.51Z" fill="#231f20"/><circle cx="292.21" cy="215.06" r="1.86" fill="#231f20"/><path d="M286.94,197.39s-1-.1-4.06-2.93-7.75-10.48-8.13-11.84-.14-7-1-8.14-4.39-1.84-5.81.3a17.75,17.75,0,0,0-2.48,8.18c.1,1.91,1.8,9.56,1.8,9.56l-16.2.84c-2.37.13-2.82,1.84-2.57,3.66s2.5,3.87,2.5,3.87-1.94.86-1.19,3.5a5,5,0,0,0,2.93,3.37,2.41,2.41,0,0,0-.45,3,4.87,4.87,0,0,0,2.59,2.63,2.37,2.37,0,0,0-.75,3.25c1,2.25,2.48,3.63,4.48,3.6s21.7-1.13,23.61-1.23,1.92-1.09,2.89-1.49a10.5,10.5,0,0,1,2.91-.39Z" fill="#fff"/><path d="M258.5,220.75c-2.05,0-3.69-1.31-4.88-3.89a3,3,0,0,1,.31-3.36,5.56,5.56,0,0,1-2.15-2.53,3.16,3.16,0,0,1,.1-3.05,5.55,5.55,0,0,1-2.6-3.4,3.39,3.39,0,0,1,.88-3.71,7.8,7.8,0,0,1-2.2-3.72,4,4,0,0,1,.63-3.17,3.17,3.17,0,0,1,2.4-1.06l15.62-.81c-.41-1.83-1.61-7.43-1.69-9.07a18.07,18.07,0,0,1,2.57-8.48,3.72,3.72,0,0,1,3-1.59,4.68,4.68,0,0,1,3.58,1.25c.61.76.76,2.77.89,5.53a19.07,19.07,0,0,0,.24,2.8c.33,1.16,4.92,8.76,8,11.6,2.78,2.57,3.76,2.79,3.8,2.8a.48.48,0,0,1,.42.47l1,19.76a.48.48,0,0,1-.14.37.51.51,0,0,1-.36.15h0a9.24,9.24,0,0,0-2.71.36,2,2,0,0,0-.65.48,3.22,3.22,0,0,1-2.4,1l-3.17.17c-6.12.34-18.88,1-20.47,1.06Zm12.28-46.84h-.21a2.76,2.76,0,0,0-2.25,1.15,17.43,17.43,0,0,0-2.4,7.87c.09,1.85,1.77,9.4,1.79,9.48a.51.51,0,0,1-.09.41.51.51,0,0,1-.37.2l-16.2.84a2.25,2.25,0,0,0-1.69.69A3.09,3.09,0,0,0,249,197c.18,1.35,1.75,3,2.34,3.56a.52.52,0,0,1,.16.45.51.51,0,0,1-.3.38c-.15.07-1.52.77-.91,2.9a4.47,4.47,0,0,0,2.61,3,.47.47,0,0,1,.33.4.5.5,0,0,1-.19.48,1.94,1.94,0,0,0-.29,2.41,4.29,4.29,0,0,0,2.29,2.35.5.5,0,0,1,.08.91,1.88,1.88,0,0,0-.54,2.61c1,2.25,2.36,3.36,4,3.31s14.31-.72,20.43-1.06l3.16-.17a2.28,2.28,0,0,0,1.77-.76,3,3,0,0,1,1-.69,8.79,8.79,0,0,1,2.57-.42l-1-18.9a15.24,15.24,0,0,1-3.92-2.93c-3.1-2.86-7.87-10.62-8.27-12.07a18.54,18.54,0,0,1-.28-3c-.08-1.75-.21-4.39-.67-5A3.64,3.64,0,0,0,270.78,173.91Z" fill="#231f20"/><path d="M316.51,93.66l-50.6-11.48a6.63,6.63,0,0,0-7.94,5l-6.11,26.93-13.07,5,11.73.92-.45,2a6.62,6.62,0,0,0,5,7.94l50.6,11.48a6.64,6.64,0,0,0,7.94-5l7.9-34.85A6.64,6.64,0,0,0,316.51,93.66Z" fill="#fff"/><path d="M307.15,142.12a7.18,7.18,0,0,1-1.59-.18L255,130.46a7.14,7.14,0,0,1-5.38-8.54l.32-1.44-11.15-.87a.5.5,0,0,1-.14-1l12.82-4.89,6.05-26.68A7.14,7.14,0,0,1,266,81.7l50.6,11.47h0a7.15,7.15,0,0,1,5.38,8.54l-7.9,34.85a7.15,7.15,0,0,1-7,5.56ZM241,118.78l9.52.75a.51.51,0,0,1,.45.61l-.46,2a6.14,6.14,0,0,0,4.63,7.33L305.78,141a6.13,6.13,0,0,0,7.34-4.62L321,101.49a6.15,6.15,0,0,0-4.63-7.34L265.8,82.67a6.13,6.13,0,0,0-7.34,4.63l-6.11,26.93a.5.5,0,0,1-.31.35Z" fill="#231f20"/><polygon points="306.48 112.86 293.56 111.08 290.97 129.79 302.15 131.33 306.48 112.86" fill="#ff0440"/><path d="M302.15,131.83h-.07l-11.18-1.54a.5.5,0,0,1-.42-.57L293.06,111a.51.51,0,0,1,.56-.43l12.92,1.79a.5.5,0,0,1,.35.21.51.51,0,0,1,.07.4l-4.32,18.47A.5.5,0,0,1,302.15,131.83Zm-10.61-2.47,10.23,1.42,4.09-17.5L294,111.64Z" fill="#231f20"/><circle cx="294.88" cy="127.02" r="1.5" fill="#231f20"/><path d="M293.39,112.24s-.77-.23-2.77-2.94A39.35,39.35,0,0,1,286,98.7c-.1-1.13,1-5.59.41-6.6s-3.19-2.12-4.64-.64a14.32,14.32,0,0,0-3.21,6.09c-.21,1.53,0,7.84,0,7.84l-12.95-1.78c-1.9-.27-2.51,1-2.59,2.5s1.39,3.44,1.39,3.44a2.2,2.2,0,0,0-1.48,2.59,4,4,0,0,0,1.82,3.11,1.94,1.94,0,0,0-.82,2.32,3.94,3.94,0,0,0,1.65,2.47,1.92,1.92,0,0,0-1.09,2.46c.48,1.94,1.42,3.25,3,3.53s17.35,2.39,18.88,2.6,1.68-.56,2.51-.73a8.46,8.46,0,0,1,2.36.13Z" fill="#fff"/><path d="M286.83,129.17a3.78,3.78,0,0,1-.56,0l-2.35-.32c-5-.67-15.27-2.06-16.55-2.29-1.68-.3-2.83-1.61-3.39-3.9a2.49,2.49,0,0,1,.7-2.64,4.62,4.62,0,0,1-1.27-2.3,2.68,2.68,0,0,1,.5-2.41,4.66,4.66,0,0,1-1.5-3.09,2.84,2.84,0,0,1,1.22-2.84,6.35,6.35,0,0,1-1.14-3.25,3.27,3.27,0,0,1,1-2.49,2.63,2.63,0,0,1,2.13-.49L278,104.82c0-1.62-.13-6,.05-7.34a14.72,14.72,0,0,1,3.34-6.37,3.1,3.1,0,0,1,2.72-.83,3.87,3.87,0,0,1,2.72,1.58c.39.72.2,2.28-.12,4.57a15.75,15.75,0,0,0-.23,2.23A39.27,39.27,0,0,0,291,109c1.78,2.41,2.51,2.75,2.54,2.76a.48.48,0,0,1,.32.54l-2.18,15.79a.5.5,0,0,1-.2.34.49.49,0,0,1-.39.08,7.45,7.45,0,0,0-2.17-.13,1.48,1.48,0,0,0-.55.27A2.59,2.59,0,0,1,286.83,129.17Zm-21.72-25.1a1.48,1.48,0,0,0-1,.3,2.52,2.52,0,0,0-.65,1.77,6.17,6.17,0,0,0,1.29,3.11.52.52,0,0,1,.07.48.49.49,0,0,1-.36.31c-.12,0-1.24.36-1.09,2.06a3.59,3.59,0,0,0,1.56,2.72.5.5,0,0,1,0,.88c-.08,0-.83.48-.54,1.76a3.45,3.45,0,0,0,1.41,2.15.48.48,0,0,1,.24.48.5.5,0,0,1-.33.42,1.42,1.42,0,0,0-.76,1.87c.47,1.9,1.32,2.93,2.6,3.16s11.55,1.61,16.5,2.28l2.36.32a1.7,1.7,0,0,0,1.44-.32,2.57,2.57,0,0,1,.91-.41,6.88,6.88,0,0,1,2,0l2.06-15a12.91,12.91,0,0,1-2.63-2.9,40.24,40.24,0,0,1-4.73-10.85,14.07,14.07,0,0,1,.24-2.46c.18-1.3.49-3.47.23-4a3,3,0,0,0-2-1.07,2.13,2.13,0,0,0-1.86.54,13.94,13.94,0,0,0-3.07,5.81c-.21,1.47,0,7.7,0,7.76a.52.52,0,0,1-.17.39.53.53,0,0,1-.4.12l-12.95-1.79Z" fill="#231f20"/></g></svg>