<svg xmlns="http://www.w3.org/2000/svg" viewBox="0 0 400 300"><g id="_549_flying_kite_flatline" data-name="#549_flying_kite_flatline"><path d="M179.31,263.33l-.16,0a.5.5,0,0,1-.31-.64,100.78,100.78,0,0,1,5.79-14,41.39,41.39,0,0,0-10.4,11.66.49.49,0,0,1-.59.21.5.5,0,0,1-.34-.52c.54-4.83,1.14-10.21-.33-15.11l-1,10.91a.5.5,0,0,1-.36.44.53.53,0,0,1-.54-.18,61,61,0,0,0-18.42-16,90.3,90.3,0,0,1,9.92,14.13.5.5,0,0,1-.07.57.48.48,0,0,1-.55.13c-5.63-2.22-11.36-4.41-17-6.51-.37.71.39,1.9.95,2.55l7.2,8.32a.5.5,0,0,1,0,.61.5.5,0,0,1-.57.2,38.39,38.39,0,0,1-7.25-3.19l4.13,5.08a.5.5,0,0,1-.78.64l-6-7.4a.49.49,0,0,1,0-.65.5.5,0,0,1,.65-.08,37.05,37.05,0,0,0,7.78,4l-6-6.9c-1.12-1.3-1.89-3.08-.7-4.17a.5.5,0,0,1,.52-.1c5.34,2,10.75,4,16.08,6.13-3-5.29-6.94-10.07-10.74-14.71a.51.51,0,0,1,0-.63.49.49,0,0,1,.62-.13,61.85,61.85,0,0,1,20.19,16.52l1.08-11.85a.5.5,0,0,1,.42-.45.49.49,0,0,1,.53.29c2.19,4.92,1.91,10.6,1.41,15.52a42.44,42.44,0,0,1,11.23-11.36.5.5,0,0,1,.72.65A99.27,99.27,0,0,0,179.79,263,.5.5,0,0,1,179.31,263.33Z" fill="#e6e7e8"/><polygon points="93.93 30.15 62.02 42.23 69.77 101.72 107.88 57.73 93.93 30.15" fill="#ff0440"/><path d="M107.88,58.22a.48.48,0,0,1-.41-.21C98.15,44.58,86.35,41.13,78.1,40.6a40.85,40.85,0,0,0-15.9,2.1.51.51,0,0,1-.65-.28.5.5,0,0,1,.29-.65c.27-.11,28.15-10.69,46.45,15.67a.5.5,0,0,1-.13.7A.46.46,0,0,1,107.88,58.22Z" fill="#231f20"/><path d="M67.08,173.69a.51.51,0,0,1-.5-.45c-.82-8.27,1.17-15,7.11-23.87,3.08-4.62.16-8.29-3.52-12.93-2.79-3.52-6-7.49-6.68-12.54-1.62-11.11,5.17-21.44,5.83-22.4L93.46,30a.51.51,0,0,1,.63-.32.5.5,0,0,1,.32.64L70.24,101.88a.52.52,0,0,1-.06.13c-.08.1-7.31,10.71-5.7,21.74.69,4.79,3.76,8.65,6.47,12.06,3.63,4.57,7,8.89,3.57,14.11-5.8,8.7-7.74,15.21-6.94,23.22a.5.5,0,0,1-.45.55Z" fill="#231f20"/><polygon points="64.41 114.45 56.24 108.95 54.48 115.77 64.41 114.45" fill="#ff0440"/><polygon points="64.41 114.45 72.35 111.74 70.9 118.45 64.41 114.45" fill="#ff0440"/><polygon points="66.52 130.55 56.55 130.55 60.06 136.84 66.52 130.55" fill="#ff0440"/><polygon points="66.52 130.55 73.17 123 76.17 130.02 66.52 130.55" fill="#ff0440"/><polygon points="73.17 151.08 65.53 145.72 62.54 151.92 73.17 151.08" fill="#ff0440"/><polygon points="73.17 151.08 81.44 151.08 77.3 157.5 73.17 151.08" fill="#ff0440"/><path d="M261.19,170.83a22.25,22.25,0,0,1-5-.52c-6.19-1.43-6.13-12.51-6.06-25.34.08-14.5.17-30.93-9-35.57-1.94-1-6.38-1.59-12.52-2.44-11.82-1.63-31.61-4.36-55.8-13C143.68,83.6,115.35,67.24,88.61,45.37a.52.52,0,0,1-.07-.71.5.5,0,0,1,.7-.07c62,50.69,114.34,57.91,139.5,61.38,6.47.89,10.74,1.48,12.83,2.54,9.77,4.92,9.68,21.68,9.6,36.47-.07,11.88-.13,23.11,5.28,24.36,12.32,2.84,31.55-7.63,31.74-7.74a.5.5,0,0,1,.68.2.49.49,0,0,1-.19.68C288,162.87,273.33,170.83,261.19,170.83Z" fill="#231f20"/><path d="M320.84,262.4s-.85,3.64.61,5.59,11.43.85,11.55.49-3.89-10-3.89-10Z" fill="#231f20"/><path d="M326.72,269.61c-2.44,0-4.89-.29-5.67-1.32-1.58-2.11-.73-5.85-.69-6a.47.47,0,0,1,.27-.34l8.26-3.89a.55.55,0,0,1,.4,0,.55.55,0,0,1,.28.28c4.08,9.77,4,10.1,3.9,10.31s-.37.43-1.35.59A39.46,39.46,0,0,1,326.72,269.61Zm-5.44-6.87c-.15.8-.54,3.48.57,4.95s8.72.91,10.57.48c-.43-1.32-2.27-5.86-3.57-9Z" fill="#231f20"/><polygon points="318.53 257.1 320.63 263.81 329.11 258.51 324.4 252.37 318.53 257.1" fill="#fff"/><path d="M320.63,264.31l-.17,0a.48.48,0,0,1-.3-.32l-2.11-6.71a.5.5,0,0,1,.17-.54l5.87-4.73a.47.47,0,0,1,.37-.11.46.46,0,0,1,.34.19l4.7,6.14a.53.53,0,0,1,.1.4.49.49,0,0,1-.23.33l-8.47,5.3A.43.43,0,0,1,320.63,264.31Zm-1.52-7,1.81,5.77,7.46-4.66-4.06-5.3Z" fill="#231f20"/><path d="M265.77,181l-38.41,73.66,12.81,3,40.18-57.47s9.44,23.34,13.72,28.21,22.19,31.44,22.19,31.44l10.54-6.64S309.7,231.78,308,224.12s-6-38.75-6-38.75Z" fill="#231f20"/><path d="M316.26,260.35a.49.49,0,0,1-.41-.22c-.18-.27-17.94-26.61-22.15-31.39-3.87-4.4-11.7-23.2-13.47-27.5L240.58,258a.5.5,0,0,1-.52.2l-12.82-3a.49.49,0,0,1-.33-.28.46.46,0,0,1,0-.44l38.41-73.66a.49.49,0,0,1,.5-.27l36.23,4.38a.5.5,0,0,1,.43.42c0,.32,4.31,31.16,6,38.71s18.54,28.67,18.71,28.88a.56.56,0,0,1,.1.4.54.54,0,0,1-.23.34l-10.53,6.64A.56.56,0,0,1,316.26,260.35Zm-35.91-60.64h0a.49.49,0,0,1,.41.31c.09.23,9.46,23.31,13.64,28.06,4,4.56,19.61,27.63,21.95,31.09l9.66-6.09c-2.5-3.17-17-21.68-18.55-28.85s-5.46-34.83-5.95-38.41l-35.51-4.29-38,72.8L240,257.11l40-57.19A.48.48,0,0,1,280.35,199.71Z" fill="#231f20"/><path d="M234.18,261.55s-.34,6.32-2,6.57-22.37,1.46-21.4,0,13.86-8.27,13.86-8.27Z" fill="#231f20"/><path d="M216.73,269.33c-3.37,0-6-.2-6.42-.78a.63.63,0,0,1,0-.71c1-1.49,11.87-7.28,14-8.43a.51.51,0,0,1,.32-.05l9.57,1.7a.5.5,0,0,1,.41.52c-.08,1.58-.51,6.75-2.46,7C232.08,268.63,223.15,269.33,216.73,269.33Zm-5.27-1.24c2.86.66,18.68-.19,20.61-.47.72-.1,1.39-3,1.58-5.66l-9-1.59C220.14,262.78,213.09,266.7,211.46,268.09Z" fill="#231f20"/><polygon points="227.36 254.66 224.6 259.85 234.18 261.55 236.93 256.37 227.36 254.66" fill="#fff"/><path d="M234.18,262.05h-.09l-9.58-1.7a.52.52,0,0,1-.36-.27.48.48,0,0,1,0-.45l2.76-5.19a.51.51,0,0,1,.53-.26l9.57,1.7a.49.49,0,0,1,.36.28.48.48,0,0,1,0,.45l-2.75,5.19A.51.51,0,0,1,234.18,262.05Zm-8.81-2.57,8.54,1.52,2.26-4.26-8.54-1.52Z" fill="#231f20"/><path d="M256.1,135.06c-.37.12-9.33,3.41-9.33,3.41s1.31-24.08,1.55-25.54-.85-7.25-2.31-6.85-1.34,4-1.34,4-4.13-1.7-4.25-3.4-1.1-3.52-1.83-2.19,2.07,6.22,2.19,7.12-9.45,37-4.22,40.18,22.33-5,22.33-5Z" fill="#fff"/><path d="M239.89,153.06a6.92,6.92,0,0,1-3.59-.79c-4-2.42-.64-20,3.18-36.86.43-1.87.79-3.49.8-3.73a14.46,14.46,0,0,0-.68-1.63c-1.17-2.61-2-4.7-1.44-5.75.4-.74.92-.76,1.18-.7,1,.22,1.5,2,1.58,3.1.05.82,1.76,2,3.26,2.66,0-1.24.33-3.38,1.7-3.76a1.11,1.11,0,0,1,1.08.3c1.33,1.2,2.06,5.86,1.85,7.11-.18,1.1-1,16.23-1.5,24.73l8.63-3.16a.5.5,0,0,1,.4,0,.49.49,0,0,1,.24.32l2.8,11.75a.5.5,0,0,1-.27.57C258.52,147.54,246.91,153.06,239.89,153.06Zm-.74-48.47-.12.19c-.38.7.88,3.51,1.49,4.86a10.79,10.79,0,0,1,.76,2,24.09,24.09,0,0,1-.82,4c-1.88,8.27-7.57,33.41-3.65,35.79,4.53,2.73,19-3.74,21.5-4.89l-2.57-10.81-8.8,3.22a.5.5,0,0,1-.47-.07.51.51,0,0,1-.2-.43c0-1,1.31-24.12,1.56-25.59.18-1.12-.57-5.33-1.54-6.2,0,0-.1-.1-.15-.09-.73.21-1,2.24-1,3.55a.49.49,0,0,1-.21.43.51.51,0,0,1-.48,0c-.74-.3-4.43-1.91-4.56-3.82A3.52,3.52,0,0,0,239.15,104.59Z" fill="#231f20"/><path d="M297.72,132.35S318.67,153.86,313,161.7s-22.62-7.44-22.62-7.44Z" fill="#fff"/><path d="M308.36,164.44c-7.35,0-17.86-9.39-18.32-9.81a.5.5,0,0,1-.13-.53l7.34-21.91a.5.5,0,0,1,.36-.33.51.51,0,0,1,.47.14c.87.89,21.18,21.91,15.32,30a5.7,5.7,0,0,1-4.21,2.4A7.55,7.55,0,0,1,308.36,164.44ZM291,154.11c1.7,1.47,11.8,9.95,18.13,9.29a4.7,4.7,0,0,0,3.5-2c2.19-3,.28-8.9-5.5-17a112.75,112.75,0,0,0-9.16-11.08Z" fill="#231f20"/><line x1="297.71" y1="146.81" x2="306.91" y2="156.41" fill="#fff"/><path d="M306.91,156.91a.51.51,0,0,1-.36-.15l-9.21-9.61a.5.5,0,0,1,.73-.69l9.2,9.61a.49.49,0,0,1,0,.7A.47.47,0,0,1,306.91,156.91Z" fill="#231f20"/><path d="M284,123.89a9.67,9.67,0,0,0,4.85.52c1-.13,2.2-.76,2-1.72l-1.18-.7a19.87,19.87,0,0,0,6.45-9.1A13.35,13.35,0,0,0,295,102a6.49,6.49,0,0,0-4.14-3.19l3,0a13.31,13.31,0,0,0-10.19-5.16l2.12-1A11.61,11.61,0,0,0,273,94.89a5,5,0,0,0-1.49,2.46c-.32,1.63,1.09,2.78,2.15,3.8-1.37,1.37-2,1.67-2,3.6a15.4,15.4,0,0,0,1.21,5.25,37.25,37.25,0,0,0,2.74,5C277.88,118.75,280.3,122.46,284,123.89Z" fill="#fff"/><path d="M287.39,125a9.73,9.73,0,0,1-3.58-.66c-3.84-1.48-6.34-5.31-8.57-9.09l-.64-1.07a26.74,26.74,0,0,1-2.13-4,16.09,16.09,0,0,1-1.25-5.44,3.94,3.94,0,0,1,1.62-3.47l.13-.12c-1-1-2.25-2.2-1.92-3.9a5.46,5.46,0,0,1,1.63-2.73A12.15,12.15,0,0,1,286,92.17a.5.5,0,0,1,0,.9l-.53.26a13.94,13.94,0,0,1,8.78,5.2.47.47,0,0,1,.05.52.5.5,0,0,1-.45.28h-.63a8.83,8.83,0,0,1,2.16,2.4A13.84,13.84,0,0,1,296.55,113a20,20,0,0,1-6.06,8.88l.57.34a.48.48,0,0,1,.23.31,1.41,1.41,0,0,1-.22,1.19,3.25,3.25,0,0,1-2.17,1.15A13,13,0,0,1,287.39,125Zm-6.23-32.89a11,11,0,0,0-7.77,3.12A4.46,4.46,0,0,0,272,97.45c-.24,1.22.76,2.16,1.73,3.07l.27.27a.52.52,0,0,1,.16.35.51.51,0,0,1-.15.36l-.5.49c-1,1-1.32,1.29-1.32,2.76a15.39,15.39,0,0,0,1.17,5.07,27,27,0,0,0,2.06,3.85c.22.36.44.72.65,1.08,2.15,3.63,4.53,7.3,8.08,8.67h0a9.1,9.1,0,0,0,4.59.49,2.3,2.3,0,0,0,1.48-.71.6.6,0,0,0,.08-.21l-.95-.57a.46.46,0,0,1-.25-.39.49.49,0,0,1,.18-.42,19.24,19.24,0,0,0,6.29-8.87,12.87,12.87,0,0,0-1.05-10.49,6.14,6.14,0,0,0-3.81-3,.51.51,0,0,1-.41-.54.5.5,0,0,1,.5-.45h0l2,0a12.89,12.89,0,0,0-9.11-4.14.5.5,0,0,1-.22-1l1.11-.55A10.64,10.64,0,0,0,281.16,92.12Z" fill="#231f20"/><path d="M271.3,110.49s-3.66,4.28-3.14,5.32,2.72.67,2.72.67" fill="#fff"/><path d="M270,117.05a2.43,2.43,0,0,1-2.3-1c-.58-1.16,1.77-4.18,3.21-5.87a.51.51,0,0,1,.71,0,.49.49,0,0,1,.05.7c-1.76,2.06-3.19,4.3-3.07,4.79s1.61.48,2.18.39a.49.49,0,0,1,.58.4.5.5,0,0,1-.41.58A5.46,5.46,0,0,1,270,117.05Z" fill="#231f20"/><path d="M273.53,100.35c-2.16,1.36-2.82,8.87-3.07,11.07q-.54,4.65-.87,9.32c-.13,2,4.94,2.65,5.91,2.17l.23,8.06s.37.56,4.7-.83,4.49-2.35,4.49-2.35l.77-9s-3.35-.39-4.84-4.63-.65-10.38-.65-10.38S275.64,99,273.53,100.35Z" fill="#fff"/><path d="M276.26,131.59c-.72,0-.87-.23-.95-.35a.45.45,0,0,1-.08-.26l-.21-7.46a8.89,8.89,0,0,1-4.92-1.09,1.89,1.89,0,0,1-1-1.72c.22-3.11.51-6.25.87-9.34l.07-.6c.51-4.68,1.3-9.63,3.23-10.84,2.38-1.5,6.8,3,7.3,3.51a.49.49,0,0,1,.13.42c0,.06-.8,6.06.63,10.14,1.36,3.87,4.31,4.29,4.43,4.3a.5.5,0,0,1,.44.54l-.77,9c-.06.42-.66,1.45-4.83,2.79A16,16,0,0,1,276.26,131.59Zm0-1a14.56,14.56,0,0,0,4.06-.91c3.33-1.07,4-1.85,4.15-2l.73-8.46a7.14,7.14,0,0,1-4.79-4.87c-1.36-3.87-.84-9.16-.7-10.37-1.69-1.71-4.64-4-5.87-3.19h0c-1.79,1.13-2.54,7.89-2.78,10.11l-.07.6c-.35,3.08-.64,6.2-.86,9.3,0,.28.17.56.57.82a7.44,7.44,0,0,0,4.62.86.5.5,0,0,1,.72.44Zm-.22,0Zm-2.47-30.21h0Z" fill="#231f20"/><path d="M270,118.44s1.17.5,4.43-1.8" fill="#fff"/><path d="M270.3,119a1.36,1.36,0,0,1-.54-.09.49.49,0,0,1-.27-.65.5.5,0,0,1,.63-.28c.07,0,1.18.23,4-1.74a.49.49,0,0,1,.69.12.5.5,0,0,1-.12.7C272.35,118.69,271,119,270.3,119Z" fill="#231f20"/><path d="M275.5,122.91a8.32,8.32,0,0,0,4.18-2.14s.86,6-4,6.92Z" fill="#231f20"/><path d="M275.64,128.19a.51.51,0,0,1-.5-.49l-.14-4.77a.5.5,0,0,1,.41-.51,8,8,0,0,0,3.9-2,.49.49,0,0,1,.52-.15.5.5,0,0,1,.35.41c.32,2.25-.2,6.73-4.46,7.48Zm.37-4.88.11,3.75c2.74-.82,3.13-3.67,3.13-5.22A9.31,9.31,0,0,1,276,123.31Z" fill="#231f20"/><ellipse cx="273.33" cy="107.33" rx="1.11" ry="0.44" transform="translate(144.2 371.05) rotate(-85.35)" fill="#231f20"/><path d="M277,113.21a4.25,4.25,0,0,1,1.13-2,6.26,6.26,0,0,1,1.3-1.27,2.09,2.09,0,0,1,1.73-.3,1.89,1.89,0,0,1,1.09,1.11,3.57,3.57,0,0,1,.2,1.59,6.71,6.71,0,0,1-3.79,5.51l.19-.17" fill="#fff"/><path d="M278.65,118.33a.54.54,0,0,1-.43-.23.51.51,0,0,1,.1-.65l.2-.17a.48.48,0,0,1,.33-.12,6.23,6.23,0,0,0,3.09-4.88,3.12,3.12,0,0,0-.16-1.36,1.39,1.39,0,0,0-.79-.82,1.55,1.55,0,0,0-1.3.24,5.73,5.73,0,0,0-1.19,1.17,3.89,3.89,0,0,0-1,1.77.51.51,0,0,1-.57.42.5.5,0,0,1-.42-.56,4.61,4.61,0,0,1,1.24-2.27,6.35,6.35,0,0,1,1.41-1.37,2.51,2.51,0,0,1,2.16-.35,2.41,2.41,0,0,1,1.4,1.4,4,4,0,0,1,.23,1.8,7.24,7.24,0,0,1-4.09,5.93A.46.46,0,0,1,278.65,118.33Z" fill="#231f20"/><path d="M265.42,128c3.58-3.82,23.53-9,32.3,4.32s9,52.13,5.69,56.7c0,0-29.57-1.56-40.42-12.26,5-17.4,3.19-28.1,3.19-28.1l-9.94,1.8-2.09-15.56S262.45,131.19,265.42,128Z" fill="#ff0440"/><polygon points="295.63 129.73 308.92 141.57 296.53 148.14 295.63 129.73" fill="#ff0440"/><path d="M302.08,143.69a.5.5,0,0,1-.49-.4,30.39,30.39,0,0,0-6.33-13.22.5.5,0,0,1,0-.7.5.5,0,0,1,.71,0,30.75,30.75,0,0,1,6.57,13.69.5.5,0,0,1-.39.59Z" fill="#231f20"/><path d="M220,270.35c-4.6,0-9.23-.19-13.8-.37-4.37-.18-8.9-.37-13.17-.37a268.11,268.11,0,0,1-27.39-1.84c-4.52-.46-9.2-.94-13.87-1.29a64.48,64.48,0,0,0-20.94,1.86l-.65.17a17.25,17.25,0,0,1-5.62.83,17,17,0,0,1-3.66-.79,19.32,19.32,0,0,0-2.87-.69c-3.8-.53-8,.13-12,.78a60.4,60.4,0,0,1-9,1c-5,0-10,0-15,0H54.48a.5.5,0,0,1-.5-.5.5.5,0,0,1,.5-.5H82.05c5,0,10,0,14.94,0a58.84,58.84,0,0,0,8.82-1c4.13-.65,8.4-1.33,12.34-.78a19.84,19.84,0,0,1,3,.72,16.05,16.05,0,0,0,3.45.75,16.44,16.44,0,0,0,5.3-.8l.65-.16a65.35,65.35,0,0,1,21.26-1.9c4.69.36,9.37.83,13.9,1.3A269.61,269.61,0,0,0,193,268.61c4.29,0,8.83.19,13.21.37,9.74.39,19.81.81,29-.65,11.61-1.83,23.79-1.7,35.57-1.57l4.64.05c12.11.1,24.37.58,36.44,1.42,8.44.59,16.45.52,24.94.44,2.87,0,5.76-.06,8.68-.06a.5.5,0,0,1,.5.5.5.5,0,0,1-.5.5c-2.92,0-5.81,0-8.67.06-8.51.08-16.54.15-25-.44-12.05-.84-24.29-1.32-36.38-1.42l-4.64-.05c-11.74-.12-23.87-.26-35.4,1.56A100,100,0,0,1,220,270.35Z" fill="#231f20"/><path d="M67.67,267.2a.5.5,0,0,1-.34-.13l-5.15-4.71a.49.49,0,0,1-.12-.57.51.51,0,0,1,.49-.3A34.12,34.12,0,0,1,75,264.85a76.54,76.54,0,0,1-.88-8,.5.5,0,0,1,.31-.49.51.51,0,0,1,.56.12l4.83,5.25c3-3.62,6.4-7.61,11.1-9.5a.52.52,0,0,1,.52.08.5.5,0,0,1,.16.49L90,260.08a21.31,21.31,0,0,1,13.51-2.42.49.49,0,0,1,.4.36.51.51,0,0,1-.16.52l-5.9,5a1.38,1.38,0,0,0-.43.5.51.51,0,0,1,.53,0,.49.49,0,0,1,.17.68.79.79,0,0,1-.93.35,1,1,0,0,1-.78-1,1.83,1.83,0,0,1,.8-1.32l5-4.26a20.31,20.31,0,0,0-12.72,3,.5.5,0,0,1-.56,0,.49.49,0,0,1-.2-.52l1.7-7.44c-4.21,2-7.36,5.85-10.17,9.26a.53.53,0,0,1-.37.18.51.51,0,0,1-.38-.16l-4.26-4.63a74.3,74.3,0,0,0,.93,7.45.5.5,0,0,1-.19.49.49.49,0,0,1-.53,0A33.33,33.33,0,0,0,64,262.63l4.06,3.7a.5.5,0,0,1,0,.71A.49.49,0,0,1,67.67,267.2Zm29.7-3.11Z" fill="#e6e7e8"/><path d="M303.75,267a.5.5,0,0,1-.33-.88l3.44-3a12.33,12.33,0,0,0-6.69,1.38.5.5,0,0,1-.43,0,.51.51,0,0,1-.29-.32,9.41,9.41,0,0,1-.17-4.38,21,21,0,0,0-3.17,3.74,1.79,1.79,0,0,1-1,.88,1.81,1.81,0,0,1-1.08-.15l-5.17-2,2.43,2.74a.5.5,0,0,1-.75.66l-3.8-4.27a.51.51,0,0,1,0-.62.5.5,0,0,1,.59-.18l7.09,2.73a1.06,1.06,0,0,0,.48.11c.14,0,.3-.28.42-.46a21.77,21.77,0,0,1,4.65-5.07.5.5,0,0,1,.61,0,.48.48,0,0,1,.16.58,8.42,8.42,0,0,0-.43,4.81,13.46,13.46,0,0,1,7.84-1.06.49.49,0,0,1,.4.36.52.52,0,0,1-.15.51L305,266a.51.51,0,0,1,.27.44.52.52,0,0,1-.5.51Z" fill="#e6e7e8"/></g></svg>