<svg xmlns="http://www.w3.org/2000/svg" viewBox="0 0 400 300"><g id="_463_information_carousel_flatline" data-name="#463_information_carousel_flatline"><path d="M120.1,237.86,76.56,214c10-15.28,10.76-24,12.47-36.14,5.49-38.84,44-63.63,73.95-84.06a88.63,88.63,0,0,1,7.83-4.93c3.19-1.71,12-7,14.35-2.11,2.23,4.69-3.3,13.23-6.06,16.66a68.24,68.24,0,0,1,6-7.73,5.56,5.56,0,0,1,2.7-1.94c2-.46,3.94,1.46,4.25,3.49s-.54,4.06-1.48,5.9a57.58,57.58,0,0,1-8.29,12.22c2.2-2.48,10.33-11.82,10.16-2.37a22.59,22.59,0,0,1-6.91,15.75,41.32,41.32,0,0,1,6-4.41,2.76,2.76,0,0,1,2.16-.56,2.59,2.59,0,0,1,1.45,2.09c1.36,6.06-2,10.39-4.32,15.57-1.79,4-2.84,7.83-5.13,11.72-8.27,14.06-16.88,23.82-26.35,37.11C157,193.68,120.23,237.92,120.1,237.86Z" fill="#fff"/><path d="M120.05,238.36a.55.55,0,0,1-.17-.05h0L76.32,214.47a.51.51,0,0,1-.24-.32.47.47,0,0,1,.07-.4c9.38-14.3,10.58-22.94,12.1-33.88l.29-2.05c5.31-37.56,41.54-62.21,70.66-82l3.5-2.39a85.54,85.54,0,0,1,7.88-5l.7-.38c3-1.64,8.56-4.68,12-3.56a3.74,3.74,0,0,1,2.31,2.06c1.21,2.53.35,5.94-1.07,9l.22-.25a6,6,0,0,1,3-2.09,3.53,3.53,0,0,1,2.78.59,5,5,0,0,1,2.08,3.32c.33,2.16-.53,4.25-1.52,6.2a58.5,58.5,0,0,1-3.8,6.44c1.52-1.13,2.94-1.75,4-1.32S193,110.45,193,113A23,23,0,0,1,189,125.42c.75-.52,1.52-1,2.31-1.49a3.17,3.17,0,0,1,2.56-.61,3,3,0,0,1,1.79,2.46c1.11,5-.8,8.74-2.82,12.74-.52,1-1,2.07-1.53,3.15-.63,1.4-1.17,2.81-1.7,4.17a49.78,49.78,0,0,1-3.46,7.59c-5.5,9.36-11.13,16.78-17.09,24.65-3,3.95-6.1,8-9.28,12.5-1.53,2.15-16.1,19.76-20.53,25.11-4.76,5.73-9.44,11.37-12.95,15.56C121.14,237.48,120.4,238.36,120.05,238.36ZM77.28,213.85,120,237.23c3-3.6,36.29-43.4,39-47.23,3.19-4.48,6.3-8.57,9.3-12.53,5.94-7.84,11.56-15.24,17-24.55a49.06,49.06,0,0,0,3.39-7.45c.53-1.37,1.08-2.78,1.72-4.21.48-1.1,1-2.16,1.54-3.19,1.94-3.83,3.77-7.45,2.74-12.07-.15-.68-.47-1.53-1.1-1.72a2.32,2.32,0,0,0-1.76.51,40.37,40.37,0,0,0-6,4.36.5.5,0,0,1-.7,0,.51.51,0,0,1,0-.7A22,22,0,0,0,192,113c0-2.05-.32-3.28-1-3.56-1.33-.52-4.08,1.56-8.15,6.17l-.08.09h0a.5.5,0,1,1-.74-.66A57.57,57.57,0,0,0,190.16,103c.91-1.8,1.71-3.72,1.42-5.6a4,4,0,0,0-1.66-2.64,2.48,2.48,0,0,0-2-.44,5.09,5.09,0,0,0-2.43,1.78c-1.28,1.42-2.51,2.89-3.67,4.42-1.21,1.86-2.23,3.15-2.36,3.3a.5.5,0,0,1-.68.09.5.5,0,0,1-.12-.69c.79-1.17,1.61-2.32,2.47-3.44,2.6-4,5.11-9.47,3.56-12.73A2.77,2.77,0,0,0,183,85.47c-3.05-1-8.57,2-11.23,3.48l-.71.39a85.6,85.6,0,0,0-7.79,4.9l-3.5,2.38c-28.95,19.7-65,44.22-70.23,81.34l-.29,2C87.72,191,86.51,199.62,77.28,213.85Z" fill="#231f20"/><path d="M130.5,263.18l6.19-37.54S78.91,202.87,78,202.36c-.72-.38-21.13,60.82-21.13,60.82Z" fill="#231f20"/><path d="M130.5,263.68H56.83a.5.5,0,0,1-.47-.66c20.23-60.65,21.11-61,21.4-61.12a.54.54,0,0,1,.43,0c.94.47,38.8,15.42,58.68,23.26a.49.49,0,0,1,.31.54L131,263.26A.5.5,0,0,1,130.5,263.68Zm-73-1h72.54L136.13,226c-5.17-2-52.93-20.87-58-23C76.42,206.61,65.11,239.94,57.53,262.68Z" fill="#231f20"/><rect x="108.82" y="45.95" width="99.21" height="168.85" rx="6.67" transform="translate(-31.05 51.67) rotate(-16.9)" fill="#231f20"/><path d="M140,224.42a7.17,7.17,0,0,1-6.86-5.09L87.89,70.54a7.17,7.17,0,0,1,4.77-9l82.17-25a7.16,7.16,0,0,1,8.94,4.77L229,190.21a7.17,7.17,0,0,1-4.78,8.94h0l-82.16,25A7.14,7.14,0,0,1,140,224.42Zm37-187.1a6.19,6.19,0,0,0-1.8.27L93,62.55a6.17,6.17,0,0,0-4.11,7.7L134,219a6.18,6.18,0,0,0,7.7,4.11l82.16-25A6.17,6.17,0,0,0,228,190.5L182.82,41.7a6.18,6.18,0,0,0-5.9-4.38Zm47.13,161.35h0Z" fill="#231f20"/><rect x="112.91" y="59.7" width="88.79" height="132.51" transform="translate(-29.82 51.16) rotate(-16.9)" fill="#fff"/><path d="M134.08,202.75a.46.46,0,0,1-.23-.06.48.48,0,0,1-.25-.29L95.09,75.61a.46.46,0,0,1,0-.38.49.49,0,0,1,.29-.24l85-25.81a.5.5,0,0,1,.62.33L219.52,176.3a.5.5,0,0,1-.34.63l-85,25.8A.39.39,0,0,1,134.08,202.75ZM96.19,75.8l38.22,125.83,84-25.52L180.19,50.28Z" fill="#231f20"/><path d="M173.49,207.57a3.72,3.72,0,0,1-3.55-2.62L168.75,201a3.71,3.71,0,0,1,2.46-4.62l15.5-4.7a3.69,3.69,0,0,1,4.62,2.46l1.19,4a3.69,3.69,0,0,1-2.46,4.62l-15.5,4.7A3.61,3.61,0,0,1,173.49,207.57Zm14.3-15.06a2.66,2.66,0,0,0-.79.12l-15.5,4.71a2.71,2.71,0,0,0-1.8,3.37l1.2,3.95a2.71,2.71,0,0,0,3.37,1.8l15.5-4.71h0a2.69,2.69,0,0,0,1.8-3.37l-1.2-3.95a2.7,2.7,0,0,0-2.58-1.92Z" fill="#d1d3d4"/><path d="M117.05,63.06a.5.5,0,0,1-.48-.35.51.51,0,0,1,.33-.63l26.9-8.17a.5.5,0,0,1,.3,1L117.19,63Z" fill="#d1d3d4"/><path d="M147.72,53.74a.51.51,0,0,1-.48-.35.5.5,0,0,1,.34-.63l3.61-1.09a.5.5,0,1,1,.29.95l-3.61,1.1A.39.39,0,0,1,147.72,53.74Z" fill="#d1d3d4"/><rect x="117.86" y="96" width="59.67" height="59.67" transform="translate(-30.2 48.36) rotate(-16.9)" fill="#ff0440"/><path d="M127.82,163.55a.5.5,0,0,1-.48-.35L110,106.1a.49.49,0,0,1,.33-.62l57.09-17.34a.51.51,0,0,1,.63.33l17.34,57.09a.51.51,0,0,1-.33.63L128,163.53A.36.36,0,0,1,127.82,163.55ZM111.1,106.29l17.05,56.14,56.14-17.05L167.23,89.24Z" fill="#231f20"/><rect x="128.73" y="154.05" width="59.67" height="15.17" transform="translate(-40.13 53.06) rotate(-16.9)" fill="#fff"/><path d="M132.22,178.06A.59.59,0,0,1,132,178a.48.48,0,0,1-.24-.3l-4.41-14.51a.51.51,0,0,1,.33-.63l57.1-17.34a.5.5,0,0,1,.62.33l4.41,14.52a.51.51,0,0,1,0,.38.52.52,0,0,1-.3.24L132.37,178A.39.39,0,0,1,132.22,178.06Zm-3.78-14.67,4.12,13.55,56.14-17.05-4.12-13.56Z" fill="#231f20"/><path d="M135.66,165.79a.5.5,0,0,1-.48-.35.51.51,0,0,1,.33-.63l44-13.36a.5.5,0,0,1,.3,1l-44,13.36Z" fill="#d1d3d4"/><path d="M137.2,170.87a.49.49,0,0,1-.48-.36.5.5,0,0,1,.33-.62l41.1-12.49a.5.5,0,0,1,.29,1l-41.1,12.48A.35.35,0,0,1,137.2,170.87Z" fill="#d1d3d4"/><path d="M133.66,143.34a.51.51,0,0,1-.48-.36l-7.08-23.33a.5.5,0,0,1,0-.38.55.55,0,0,1,.3-.24l35.15-10.68a.5.5,0,0,1,.38,0,.48.48,0,0,1,.24.3L169.29,132a.51.51,0,0,1,0,.38.53.53,0,0,1-.29.24l-35.15,10.68Zm-6.46-23.5L134,142.21l34.2-10.38-6.8-22.38Z" fill="#fff"/><path d="M133.66,143.34a.46.46,0,0,1-.23-.06.5.5,0,0,1-.21-.68l8.94-16.79a.51.51,0,0,1,.29-.25.53.53,0,0,1,.39,0l16.77,9a.5.5,0,0,1-.48.88l-16.32-8.75-8.71,16.35A.5.5,0,0,1,133.66,143.34Z" fill="#fff"/><path d="M155,133.17a.45.45,0,0,1-.25-.07.5.5,0,0,1-.19-.68l4.28-7.53a.51.51,0,0,1,.63-.22l8.54,3.65a.5.5,0,0,1-.39.92l-8.13-3.47-4.06,7.15A.5.5,0,0,1,155,133.17Z" fill="#fff"/><path d="M151.85,124.64a3.63,3.63,0,0,1-3.46-2.57,3.62,3.62,0,0,1,2.41-4.52,3.62,3.62,0,0,1,4.52,2.42h0a3.62,3.62,0,0,1-2.41,4.51A3.54,3.54,0,0,1,151.85,124.64Zm0-6.24a2.52,2.52,0,0,0-.77.11,2.62,2.62,0,0,0,1.52,5,2.65,2.65,0,0,0,1.56-1.28,2.6,2.6,0,0,0,.19-2h0a2.62,2.62,0,0,0-2.5-1.86Z" fill="#fff"/><rect x="178.61" y="77.54" width="59.67" height="59.67" transform="matrix(0.96, -0.29, 0.29, 0.96, -22.21, 65.22)" fill="#ff0440"/><path d="M188.57,145.1a.46.46,0,0,1-.23-.06.5.5,0,0,1-.25-.3L170.75,87.65a.5.5,0,0,1,.33-.62l57.1-17.35a.56.56,0,0,1,.38,0,.52.52,0,0,1,.24.3l17.34,57.09a.5.5,0,0,1-.33.62l-57.09,17.35ZM171.85,87.84,188.9,144l56.14-17L228,70.78Z" fill="#231f20"/><rect x="189.49" y="135.6" width="59.67" height="15.17" transform="matrix(0.96, -0.29, 0.29, 0.96, -32.15, 69.93)" fill="#fff"/><path d="M193,159.61a.53.53,0,0,1-.24-.06.52.52,0,0,1-.24-.3l-4.41-14.51a.5.5,0,0,1,.34-.62l57.09-17.34a.5.5,0,0,1,.62.33l4.41,14.51a.46.46,0,0,1,0,.38.48.48,0,0,1-.29.25l-57.1,17.34Zm-3.79-14.68,4.12,13.56,56.14-17.06-4.12-13.55Z" fill="#231f20"/><path d="M196.41,147.34a.51.51,0,0,1-.48-.36.5.5,0,0,1,.34-.62l44-13.36a.5.5,0,0,1,.29.95l-44,13.36A.4.4,0,0,1,196.41,147.34Z" fill="#d1d3d4"/><path d="M198,152.41a.51.51,0,0,1-.48-.35.5.5,0,0,1,.34-.63l35.41-10.75a.5.5,0,0,1,.29.95L198.1,152.39Z" fill="#d1d3d4"/><path d="M194.42,124.88a.48.48,0,0,1-.24-.06.49.49,0,0,1-.24-.29l-7.09-23.33a.5.5,0,0,1,0-.38.51.51,0,0,1,.29-.25L222.33,89.9a.51.51,0,0,1,.63.33L230,113.56a.5.5,0,0,1,0,.38.48.48,0,0,1-.3.24l-35.15,10.68A.36.36,0,0,1,194.42,124.88ZM188,101.39l6.8,22.37,34.19-10.39L222.15,91Z" fill="#fff"/><path d="M194.41,124.88a.5.5,0,0,1-.44-.73l8.94-16.8a.51.51,0,0,1,.3-.24.46.46,0,0,1,.38,0l16.77,9a.5.5,0,1,1-.47.88l-16.33-8.75-8.7,16.36A.5.5,0,0,1,194.41,124.88Z" fill="#fff"/><path d="M215.72,114.71a.5.5,0,0,1-.24-.06.5.5,0,0,1-.19-.68l4.28-7.54a.49.49,0,0,1,.63-.21l8.53,3.64a.5.5,0,1,1-.39.92l-8.12-3.47-4.06,7.15A.5.5,0,0,1,215.72,114.71Z" fill="#fff"/><path d="M212.6,106.19a3.63,3.63,0,0,1-3.46-2.57,3.62,3.62,0,1,1,6.93-2.11h0a3.62,3.62,0,0,1-2.41,4.52A3.84,3.84,0,0,1,212.6,106.19Zm0-6.25a2.46,2.46,0,0,0-.76.12,2.57,2.57,0,0,0-1.56,1.27,2.63,2.63,0,0,0-.19,2,2.62,2.62,0,0,0,4.82.47,2.63,2.63,0,0,0,.2-2h0A2.64,2.64,0,0,0,212.61,99.94Z" fill="#fff"/><rect x="239.37" y="59.09" width="59.67" height="59.67" transform="translate(-14.22 82.08) rotate(-16.9)" fill="#ff0440"/><path d="M249.33,126.64a.5.5,0,0,1-.24-.06.46.46,0,0,1-.24-.29L231.5,69.19a.5.5,0,0,1,.34-.62l57.09-17.34a.46.46,0,0,1,.38,0,.48.48,0,0,1,.25.29l17.34,57.1a.5.5,0,0,1-.33.62l-57.1,17.34A.34.34,0,0,1,249.33,126.64ZM232.61,69.38l17,56.14,56.14-17L288.74,52.33Z" fill="#231f20"/><rect x="250.24" y="117.14" width="59.67" height="15.17" transform="translate(-24.16 86.79) rotate(-16.9)" fill="#fff"/><path d="M253.73,141.15a.59.59,0,0,1-.23-.05.53.53,0,0,1-.25-.3l-4.4-14.51a.5.5,0,0,1,.33-.62l57.09-17.35a.5.5,0,0,1,.63.34l4.41,14.51a.56.56,0,0,1,0,.38.52.52,0,0,1-.3.24l-57.09,17.34A.39.39,0,0,1,253.73,141.15ZM250,126.48,254.07,140l56.13-17-4.11-13.56Z" fill="#231f20"/><path d="M257.17,128.88a.5.5,0,0,1-.48-.35.51.51,0,0,1,.33-.63l44-13.36a.5.5,0,0,1,.63.34.5.5,0,0,1-.34.62l-44,13.36Z" fill="#d1d3d4"/><path d="M258.71,134a.49.49,0,0,1-.48-.36.5.5,0,0,1,.33-.62l32.18-9.77a.48.48,0,0,1,.62.33.5.5,0,0,1-.33.62l-32.18,9.78Z" fill="#d1d3d4"/><path d="M255.17,106.43a.51.51,0,0,1-.48-.36L247.6,82.74a.56.56,0,0,1,0-.38.52.52,0,0,1,.3-.24l35.15-10.68a.5.5,0,0,1,.62.34l7.09,23.33a.51.51,0,0,1,0,.38.53.53,0,0,1-.29.24l-35.15,10.68Zm-6.46-23.5,6.79,22.37,34.2-10.38-6.8-22.38Z" fill="#fff"/><path d="M255.17,106.43a.53.53,0,0,1-.24-.06.5.5,0,0,1-.2-.68l8.94-16.79a.51.51,0,0,1,.29-.25.58.58,0,0,1,.39,0l16.77,9a.5.5,0,0,1-.48.88l-16.32-8.75-8.71,16.35A.5.5,0,0,1,255.17,106.43Z" fill="#fff"/><path d="M276.48,96.26a.45.45,0,0,1-.25-.07.5.5,0,0,1-.19-.68L280.32,88a.51.51,0,0,1,.63-.22l8.54,3.65a.5.5,0,0,1-.39.92L281,88.86,276.91,96A.5.5,0,0,1,276.48,96.26Z" fill="#fff"/><path d="M273.36,87.73a3.62,3.62,0,1,1,3.47-4.67h0a3.61,3.61,0,0,1-2.41,4.51A3.54,3.54,0,0,1,273.36,87.73Zm0-6.24a2.52,2.52,0,0,0-.77.11,2.62,2.62,0,1,0,3.07,3.74,2.6,2.6,0,0,0,.2-2h0a2.61,2.61,0,0,0-1.27-1.55A2.58,2.58,0,0,0,273.37,81.49Z" fill="#fff"/><circle cx="112.89" cy="89.25" r="5.89" fill="#d1d3d4"/><path d="M122.75,81.83a.5.5,0,0,1-.48-.35.51.51,0,0,1,.33-.63l53.91-16.37a.5.5,0,0,1,.62.33.51.51,0,0,1-.33.63L122.89,81.81Z" fill="#d1d3d4"/><path d="M124.12,86.34a.5.5,0,0,1-.15-1L177.88,69a.5.5,0,0,1,.62.33.51.51,0,0,1-.33.63L124.26,86.32Z" fill="#d1d3d4"/><path d="M125.49,90.85a.5.5,0,0,1-.48-.35.51.51,0,0,1,.33-.63L174.17,75a.49.49,0,0,1,.62.34.48.48,0,0,1-.33.62L125.63,90.83A.34.34,0,0,1,125.49,90.85Z" fill="#d1d3d4"/><path d="M137.06,189.58a.5.5,0,0,1-.48-.35.51.51,0,0,1,.33-.63l72.18-21.92a.5.5,0,0,1,.62.33.51.51,0,0,1-.33.63L137.2,189.56A.36.36,0,0,1,137.06,189.58Z" fill="#d1d3d4"/><path d="M322.37,209.66s-23.05-57-38.53-77.52c-2.11-2.8-5-3.44-7.15-2.2-2.53,1.46-3,6.88-3,6.88s-6.12-4.06-9.22-3.51-3.76,5.28-3.76,5.28-6.65-2.65-9.6-.45-3.31,6.52-3.31,6.52-33.9-30.71-37.68-33.35-11.15,1.13-8,6.39c2,3.27,18.86,22.19,24.34,28.21s18.07,22.21,19.29,26.82,2.18,9.81-7.14,9.83-17.7,1.09-22,4.21-7.3,8.07-5.33,9.2,31.72,2.2,43.85,8,26.72,26.07,26.72,26.07Z" fill="#fff"/><path d="M281.89,230.57a.49.49,0,0,1-.4-.2c-.15-.2-14.66-20.21-26.54-25.91-8.27-4-25.09-5.75-35.14-6.8-5.43-.57-8.06-.86-8.74-1.25a1.74,1.74,0,0,1-.86-1.5c-.11-2.17,2.65-6,6.15-8.55,3.91-2.84,11.41-4.29,22.28-4.3,3.33,0,5.55-.71,6.6-2.07,1.34-1.75.77-4.48.06-7.13-1.18-4.43-13.48-20.34-19.18-26.61s-22.41-25-24.4-28.29a4.69,4.69,0,0,1,.73-6.19c1.89-1.77,5.48-2.61,8-.87,3.51,2.45,32.07,28.26,37,32.76a9.8,9.8,0,0,1,3.37-5.92c2.65-2,7.8-.42,9.52.18.3-1.37,1.31-4.61,4-5.1s7.19,2.1,8.91,3.15c.24-1.63,1-5.24,3.14-6.47,2.51-1.45,5.64-.51,7.79,2.34,15.34,20.34,38.36,77.07,38.59,77.64a.49.49,0,0,1-.23.63l-40.48,20.41A.46.46,0,0,1,281.89,230.57ZM207.21,111a6.17,6.17,0,0,0-4.08,1.55,3.67,3.67,0,0,0-.55,5c1.92,3.19,18.71,22,24.28,28.13,5.12,5.63,18.1,22.1,19.41,27,.77,2.89,1.38,5.89-.23,8-1.27,1.65-3.69,2.45-7.4,2.46-10.65,0-17.95,1.4-21.69,4.11-3.49,2.53-5.83,6.08-5.74,7.68a.75.75,0,0,0,.36.69c.52.3,4.32.7,8.34,1.12,10.11,1.06,27,2.84,35.48,6.89,11.37,5.47,24.61,23.1,26.66,25.89l39.68-20c-2.15-5.29-23.73-57.69-38.29-77-1.83-2.43-4.44-3.25-6.49-2.07-1.9,1.09-2.62,5-2.75,6.49a.49.49,0,0,1-.77.37c-.06,0-6-3.93-8.85-3.42-2.71.48-3.35,4.81-3.36,4.85a.5.5,0,0,1-.24.37.52.52,0,0,1-.44,0c-.06,0-6.42-2.52-9.12-.52s-3.1,6.12-3.11,6.16a.49.49,0,0,1-.31.43.5.5,0,0,1-.52-.1c-.34-.31-33.92-30.72-37.63-33.31A4.56,4.56,0,0,0,207.21,111Z" fill="#231f20"/><path d="M343.17,263.18c-5.17-15.74-21-66.29-21.72-66S271.26,221,271.26,221l3,42.22Z" fill="#231f20"/><path d="M343.17,263.68H274.25a.5.5,0,0,1-.5-.47l-3-42.21a.51.51,0,0,1,.29-.49c2-.95,49.31-23.34,50.2-23.74a.56.56,0,0,1,.42,0c.7.31,2.92,6.69,15.45,46,2.7,8.45,5,15.74,6.52,20.29a.5.5,0,0,1-.47.66Zm-68.46-1h67.77c-1.5-4.58-3.74-11.59-6.31-19.65-5.71-17.87-13.44-42.08-14.89-45.17-4.45,2.09-45.5,21.51-49.49,23.41Z" fill="#231f20"/><path d="M85.51,196.07s8.95-67.27,16.68-74.49c9.18-8.56,17.54-14.38,19.07-9.48s3,13.05-9.58,22.23l1.83,16.32s12.35,8.53,5.92,35.46" fill="#fff"/><path d="M85.51,196.53h-.06a.46.46,0,0,1-.39-.52c.36-2.75,9.06-67.52,16.82-74.76,8.87-8.28,14.89-12.09,17.89-11.29a2.74,2.74,0,0,1,1.93,2c3.48,11.13-3.21,17.92-9.54,22.59l1.78,15.85c1.56,1.19,12,10.31,5.93,35.81a.45.45,0,0,1-.55.34A.45.45,0,0,1,119,186c6.28-26.32-5.62-34.89-5.74-35a.43.43,0,0,1-.19-.32l-1.84-16.32a.43.43,0,0,1,.19-.42c11.69-8.56,11.17-16.11,9.42-21.74a1.86,1.86,0,0,0-1.3-1.39c-2.6-.68-8.64,3.25-17,11.08-7.52,7-16.45,73.54-16.54,74.21A.46.46,0,0,1,85.51,196.53Z" fill="#231f20"/></g></svg>