<svg xmlns="http://www.w3.org/2000/svg" viewBox="0 0 400 300"><g id="_274_manager_flatline" data-name="#274_manager_flatline"><polygon points="36.84 200.34 36.84 208.78 185.15 246.51 363.17 181.09 363.17 174.35 36.84 200.34" fill="#fff"/><path d="M185.15,247a.25.25,0,0,1-.12,0L36.71,209.27a.51.51,0,0,1-.38-.49v-8.45a.5.5,0,0,1,.46-.49l326.33-26a.51.51,0,0,1,.55.49v6.74a.51.51,0,0,1-.33.47L185.32,247A.47.47,0,0,1,185.15,247ZM37.33,208.39,185.12,246l177.55-65.24V174.9L37.33,200.8Z" fill="#231f20"/><path d="M219.7,117.36c.14-.45-6-7.7-6-7.7s-1.59-6.94-4.5-11.54-6.57-9.57-10.61-9.29-12.58-.66-13.89,2.72,4.51,14.36,8.26,18.11,10.35,6.57,10.35,6.57l5.32,9.58S218,122.71,219.7,117.36Z" fill="#fff"/><path d="M208.62,126.32a.54.54,0,0,1-.45-.26l-5.24-9.42c-1.07-.47-6.85-3.12-10.35-6.61s-9.86-14.84-8.37-18.67c1.15-3,6.7-3,11.16-3,1.18,0,2.3,0,3.17-.07,4.29-.3,8,4.65,11.08,9.53,2.75,4.34,4.31,10.6,4.55,11.58,6.25,7.38,6.12,7.77,6,8.09h0c-1.75,5.54-11,8.66-11.4,8.78A.51.51,0,0,1,208.62,126.32Zm-9.71-37h-.29c-.91.07-2.05.07-3.25.07-3.93,0-9.3,0-10.2,2.33-1.21,3.12,4.49,13.9,8.14,17.56s10.12,6.43,10.19,6.46a.53.53,0,0,1,.25.22l5.11,9.19c1.76-.65,8.79-3.48,10.3-7.82-.42-.78-3.24-4.26-5.86-7.35a.51.51,0,0,1-.11-.22c0-.07-1.61-6.92-4.44-11.39S202.52,89.33,198.91,89.33Zm20.79,28h0Zm0,0h0Z" fill="#231f20"/><rect x="179.71" y="74.44" width="18.77" height="41.14" transform="translate(-22.52 96.12) rotate(-26.98)" fill="#231f20"/><path d="M190.07,118.1a.41.41,0,0,1-.16,0,.53.53,0,0,1-.29-.24L171,81.16a.49.49,0,0,1,.21-.67L187.9,72a.5.5,0,0,1,.67.22l18.67,36.67a.5.5,0,0,1,0,.38.51.51,0,0,1-.25.29L190.29,118A.46.46,0,0,1,190.07,118.1Zm-18-36.95,18.21,35.78,15.84-8.06L187.91,73.09Z" fill="#231f20"/><path d="M199.52,90.78A17.34,17.34,0,0,0,193,92.19a4,4,0,0,0-1.93,1.41,2.85,2.85,0,0,0,1.07,3.68,5.21,5.21,0,0,0,4.1.43c-.91.36-2,1-1.94,1.94s1.18,1.47,2.12,1.42,1.86-.46,2.8-.45a2.31,2.31,0,0,0-1,1.91,5.09,5.09,0,0,0,.51,2.19,2.61,2.61,0,0,0,.8,1.15,2.85,2.85,0,0,0,1.78.36,28.82,28.82,0,0,0,8.13-1.44" fill="#fff"/><path d="M201,106.75a2.9,2.9,0,0,1-1.77-.46,3.06,3.06,0,0,1-1-1.37,5.62,5.62,0,0,1-.56-2.4,3.15,3.15,0,0,1,.28-1.2l-.14,0a7.65,7.65,0,0,1-1.38.23,2.89,2.89,0,0,1-2.05-.67,1.74,1.74,0,0,1-.61-1.24,1.77,1.77,0,0,1,.42-1.23,4.76,4.76,0,0,1-2.35-.73,3.38,3.38,0,0,1-1.23-4.38,4.47,4.47,0,0,1,2.17-1.62,18.3,18.3,0,0,1,6.73-1.45.5.5,0,0,1,.53.51.52.52,0,0,1-.51.52,17.35,17.35,0,0,0-6.35,1.37,3.59,3.59,0,0,0-1.69,1.21,2.37,2.37,0,0,0,.91,3,4.83,4.83,0,0,0,3.69.36.51.51,0,0,1,.62.34.52.52,0,0,1-.3.64c-1.09.43-1.63.92-1.61,1.43a.74.74,0,0,0,.27.52,1.89,1.89,0,0,0,1.31.41,6.63,6.63,0,0,0,1.19-.21,7.55,7.55,0,0,1,1.64-.24.52.52,0,0,1,.49.39.5.5,0,0,1-.23.57,1.78,1.78,0,0,0-.77,1.49,4.83,4.83,0,0,0,.47,2,2.33,2.33,0,0,0,.63.95,2.48,2.48,0,0,0,1.46.25,28.18,28.18,0,0,0,8-1.41.52.52,0,0,1,.32,1,29.47,29.47,0,0,1-8.28,1.47Z" fill="#231f20"/><path d="M70.66,82.41s24.77,10,41.29,5.9,31.16-13.68,36-5.9,6.3,109.89,6.3,109.89L89.05,203.78,72.16,111.21Z" fill="#231f20"/><path d="M89.05,204.28a.51.51,0,0,1-.49-.41L71.67,111.3,70.16,82.43a.49.49,0,0,1,.21-.43.47.47,0,0,1,.47,0c.25.09,24.83,9.92,41,5.87a144.13,144.13,0,0,0,14.4-4.66c10.39-3.77,18.59-6.75,22.18-1,4.9,7.81,6.32,106,6.38,110.15a.51.51,0,0,1-.41.5L89.14,204.27ZM71.19,83.15l1.47,28,16.79,92,64.34-11.33c-.11-7.19-1.63-101.89-6.22-109.21-3.17-5-11-2.19-21,1.43a147.07,147.07,0,0,1-14.5,4.69C97.17,92.52,75.42,84.75,71.19,83.15Z" fill="#231f20"/><path d="M145.65,100.7s-21.4-2.82-29.29,13.23S109,206.84,109,206.84L177.8,194s2.76-34.21,10.36-47.44,3.75-23.77,0-28.44C185,114.23,163.1,98.62,145.65,100.7Z" fill="#ff0440"/><polygon points="149.46 116.89 159.78 171.84 175.05 126.89 149.46 116.89" fill="#231f20"/><path d="M159.79,172.33h0a.48.48,0,0,1-.45-.4L149,117a.49.49,0,0,1,.17-.48.5.5,0,0,1,.5-.08l25.59,10a.49.49,0,0,1,.29.62l-15.26,45A.5.5,0,0,1,159.79,172.33Zm-9.68-54.64,9.81,52.19,14.51-42.7Z" fill="#231f20"/><path d="M158.94,126.62l3.31,9s-5.08,22.31-5,22.69l2.54,13.52,4.52-13.31.11-24,4.1-7.32Z" fill="#fff"/><path d="M159.79,172.34h0a.5.5,0,0,1-.46-.4s-2.46-13.13-2.54-13.51c0-.14-.09-.48,5-22.76l-3.26-8.87a.5.5,0,0,1,.07-.47.51.51,0,0,1,.43-.2l9.57.57a.47.47,0,0,1,.41.25.5.5,0,0,1,0,.49l-4,7.21-.11,23.89a.78.78,0,0,1,0,.16L160.26,172A.51.51,0,0,1,159.79,172.34Zm-2-14.05c.15.79,1.51,8.07,2.17,11.58l3.88-11.42.11-23.95a.51.51,0,0,1,.07-.24l3.71-6.62-8-.47,3.05,8.29a.45.45,0,0,1,0,.28C160.79,144.3,157.88,157.23,157.75,158.29Z" fill="#231f20"/><path d="M89.05,203.78s7.89-92.41-7.13-113.89-23.65,8.41-24.4,25.37,11.26,86,11.26,86Z" fill="#231f20"/><path d="M89.05,204.28H89l-20.27-2.51a.49.49,0,0,1-.43-.4c-.12-.7-12-69.3-11.27-86.13.54-12.3,5-30.7,13.18-33.08,3.82-1.11,7.9,1.4,12.13,7.45,6.29,9,9.41,31,9.29,65.28-.1,25.52-2.05,48.7-2.07,48.93a.49.49,0,0,1-.5.46Zm-19.84-3.45,19.39,2.39c.6-7.46,7.08-92.78-7.09-113-4-5.67-7.67-8-11-7.06-7.62,2.22-11.94,20.5-12.46,32.17C57.3,131.37,68.27,195.39,69.21,200.83Z" fill="#231f20"/><polygon points="262.55 159.06 36.84 200.34 183.88 235.81 363.17 174.35 262.55 159.06" fill="#fff"/><path d="M183.88,236.33l-.12,0-147-35.47a.53.53,0,0,1-.39-.52.51.51,0,0,1,.42-.49l225.72-41.28a.48.48,0,0,1,.17,0l100.61,15.29a.52.52,0,0,1,.44.47.51.51,0,0,1-.35.53L184.05,236.3A.51.51,0,0,1,183.88,236.33ZM39.32,200.4l144.53,34.87L361,174.55l-98.45-15Z" fill="#231f20"/><ellipse cx="312.74" cy="174.46" rx="20.52" ry="6.18" fill="#fff"/><path d="M312.74,181.14c-10.33,0-21-2.5-21-6.68s10.69-6.68,21-6.68,21,2.5,21,6.68S323.08,181.14,312.74,181.14Zm0-12.36c-12,0-20,2.94-20,5.68s8,5.68,20,5.68,20-2.94,20-5.68S324.72,168.78,312.74,168.78Z" fill="#d1d3d4"/><path d="M328.21,157.66l.49.08a6.06,6.06,0,0,1,3.79,2.14,5.24,5.24,0,0,1,.13,5.54c-2.18,3.93-7.5,5-11.58,5.4a3.83,3.83,0,0,1-1.72-.13,1.27,1.27,0,0,1-.16-2.42,3.94,3.94,0,0,1,1.36-.38c2.54-.42,5.22-.73,7.54-1.91,1.36-.68,3.25-2.26,2.26-3.94a3.21,3.21,0,0,0-1.43-1.22c-2.33-1.12-4.55-.27-6.86.41a1.32,1.32,0,0,1-.52.08.94.94,0,0,1-.67-1c.08-1,1.08-1.67,2-2A10.57,10.57,0,0,1,328.21,157.66Z" fill="#fff"/><path d="M320.35,171.36a3.22,3.22,0,0,1-1.21-.21,1.77,1.77,0,0,1-.22-3.32,4.74,4.74,0,0,1,1.52-.44l.94-.15a22.08,22.08,0,0,0,6.46-1.7,4.35,4.35,0,0,0,2.2-2.15,1.34,1.34,0,0,0-.15-1.1,2.58,2.58,0,0,0-1.22-1c-1.95-.94-3.87-.36-5.9.26l-.6.18a1.61,1.61,0,0,1-.73.09,1.43,1.43,0,0,1-1.1-1.57c.08-1,.91-1.91,2.35-2.46a11.09,11.09,0,0,1,5.59-.61h0l.52.09a6.59,6.59,0,0,1,4.09,2.33,5.74,5.74,0,0,1,.17,6.09c-1.79,3.21-5.7,5.06-12,5.65C320.86,171.34,320.61,171.36,320.35,171.36Zm6.12-11.58a6,6,0,0,1,2.64.59,3.61,3.61,0,0,1,1.64,1.41,2.3,2.3,0,0,1,.25,1.89,5.39,5.39,0,0,1-2.71,2.76,22.49,22.49,0,0,1-6.76,1.8l-.93.15a3.79,3.79,0,0,0-1.2.33,1,1,0,0,0-.54.69,1,1,0,0,0,.65.82,3.24,3.24,0,0,0,1.49.1c5.91-.55,9.57-2.24,11.18-5.14a4.72,4.72,0,0,0-.09-5,5.66,5.66,0,0,0-3.49-1.94l-.46-.08h0a10,10,0,0,0-5.09.55c-.49.19-1.63.72-1.7,1.61,0,.23.1.48.24.5a1,1,0,0,0,.31-.06l.59-.18A14.06,14.06,0,0,1,326.47,159.78Z" fill="#d1d3d4"/><path d="M326.3,153.45s-3.85,19.17-4.16,20.32-10.51,4.12-16.62,1.24l-6.33-19.59Z" fill="#fff"/><path d="M311.94,176.73a15.83,15.83,0,0,1-6.64-1.27.49.49,0,0,1-.26-.3l-6.32-19.59a.5.5,0,0,1,.44-.65l27.1-2a.5.5,0,0,1,.41.17.51.51,0,0,1,.12.43c-.16.78-3.86,19.19-4.17,20.35-.1.37-.49.69-1.28,1.06A25.14,25.14,0,0,1,311.94,176.73Zm-6-2.08c5.86,2.6,15.15-.19,15.75-1.06.25-1,3.32-16.24,4-19.59l-25.81,1.87Z" fill="#d1d3d4"/><ellipse cx="312.71" cy="154.01" rx="13.59" ry="5.88" transform="translate(-6.05 12.94) rotate(-2.35)" fill="#d1d3d4"/><path d="M311.65,160.41A24.28,24.28,0,0,1,303.1,159c-2.81-1.08-4.4-2.65-4.47-4.44-.15-3.57,5.92-6.63,13.82-7a25.52,25.52,0,0,1,9.88,1.36c2.8,1.08,4.39,2.66,4.46,4.44s-1.37,3.48-4.08,4.79a25.58,25.58,0,0,1-9.74,2.16Q312.31,160.41,311.65,160.41Zm2.13-11.81-1.29,0c-7.09.29-13,3-12.86,5.91.05,1.34,1.45,2.63,3.83,3.55a27.27,27.27,0,0,0,18.81-.77c2.3-1.11,3.58-2.51,3.52-3.85s-1.45-2.63-3.82-3.55A23.44,23.44,0,0,0,313.78,148.6Z" fill="#d1d3d4"/><path d="M184.78,188.51s49-15.45,49.84-15.45,62.79,10.62,62.79,10.62L246,201.28Z" fill="#fff"/><path d="M246,201.8h-.1L184.68,189a.52.52,0,0,1-.41-.48.51.51,0,0,1,.36-.52c11.51-3.63,49.13-15.48,50-15.48s56.53,9.55,62.87,10.64a.51.51,0,0,1,.08,1l-51.43,17.6A.47.47,0,0,1,246,201.8Zm-59.15-13.39,59.12,12.34,49.39-16.9c-21.64-3.71-59.65-10.2-60.73-10.28C233.43,173.76,201.34,183.83,186.82,188.41Z" fill="#231f20"/><path d="M252.89,195h-.07l-33-4.69a.5.5,0,0,1-.43-.43.52.52,0,0,1,.3-.53l28.37-12.06a.58.58,0,0,1,.26,0l31.89,4.48a.51.51,0,0,1,.14,1l-27.27,12.26A.46.46,0,0,1,252.89,195Zm-31.14-5.44L252.81,194l25.56-11.5-30-4.22Z" fill="#d1d3d4"/><polygon points="245.97 201.28 184.5 194.03 184.78 188.51 245.97 196.71 245.97 201.28" fill="#fff"/><path d="M246,201.8h-.06l-61.47-7.24A.51.51,0,0,1,184,194l.28-5.52a.47.47,0,0,1,.18-.37.53.53,0,0,1,.4-.12L246,196.2a.51.51,0,0,1,.45.51v4.57a.52.52,0,0,1-.17.39A.56.56,0,0,1,246,201.8ZM185,193.58l60.42,7.12v-3.54l-60.19-8.06Z" fill="#231f20"/><polygon points="245.97 201.28 257.24 119.47 309.04 116.84 297.41 183.68 245.97 201.28" fill="#fff"/><path d="M246,201.8a.49.49,0,0,1-.32-.12.53.53,0,0,1-.19-.47l11.27-81.81a.5.5,0,0,1,.48-.45L309,116.32a.52.52,0,0,1,.53.61l-11.64,66.84a.5.5,0,0,1-.34.4l-51.43,17.6A.47.47,0,0,1,246,201.8ZM257.69,120,246.6,200.52,297,183.29l11.47-65.9Z" fill="#231f20"/><path d="M219.25,186.6h-.05l-10-1.13a.5.5,0,0,1-.44-.44.49.49,0,0,1,.32-.53l17.36-6.34a.71.71,0,0,1,.25,0l9.72,1.51a.5.5,0,0,1,.42.45.51.51,0,0,1-.33.52l-17.05,5.95A.47.47,0,0,1,219.25,186.6Zm-7.86-1.89,7.81.88,15.05-5.26-7.62-1.18Z" fill="#d1d3d4"/><path d="M118.33,110.66a143.76,143.76,0,0,0-19.14,43.61c-4.31,17.11-5.35,32.86,1.41,37.09s53.94,8.07,53.94,8.07-1.29-12,7.15-18.49c0,0-33.71-7.88-33.19-12.67s15.74-37.45,16-45.05S127.61,105.15,118.33,110.66Z" fill="#ff0440"/><path d="M180.25,200.51s17.48,5.7,24.1,3.27,7-3.55,6.48-6.65-13.52-12.53-23-13.37-15.2,5.91-15.06,9.29S180.25,200.51,180.25,200.51Z" fill="#231f20"/><path d="M200,204.88c-7.83,0-19.31-3.71-19.9-3.9l-.09,0c-.3-.17-7.53-4.26-7.68-7.87-.07-1.67,1.08-3.84,3-5.68a16.12,16.12,0,0,1,12.6-4.13c9.67.87,22.79,10.43,23.4,13.78s-.15,4.77-6.8,7.21A13.46,13.46,0,0,1,200,204.88Zm-19.54-4.83c1,.32,17.51,5.54,23.73,3.26,6.5-2.38,6.65-3.36,6.16-6.09s-13.15-12.13-22.5-13A15.15,15.15,0,0,0,176,188.11c-1.7,1.62-2.75,3.55-2.7,4.92C173.42,195.55,178.46,198.93,180.45,200.05Z" fill="#231f20"/><path d="M189.71,120.3s26.18,31.9,26.89,27C217,144.71,201.49,120,201.49,120l18.86-7.78s26.71,39.93,20.74,50.95-17.1,14.42-38.85,2-29.28-20-29.28-20Z" fill="#ff0440"/><path d="M160.12,182.32s12.13,1.94,15.16,0,7.53-4,9.5-3.63,23.51,12.25,21.26,14.08-11.26-4.23-11.26-4.23,7.6,5.63,6.05,8.31-3.38,1.55-6.19-.85-9.86-7.49-9.86-7.49,9.72,10.45,8.73,13.41-6.19-.85-12.53-8.59c0,0,7,9.85,3.38,10.42s-9.08-5.92-9.08-5.92-5.42,3.94-10.35,3.45a85.78,85.78,0,0,1-10.39-1.85A19.79,19.79,0,0,1,160.12,182.32Z" fill="#fff"/><path d="M183.91,204.3c-3.35,0-7.55-4.46-8.72-5.78-1.36.91-6,3.71-10.31,3.27a85.59,85.59,0,0,1-10.46-1.86.52.52,0,0,1-.38-.39A20.5,20.5,0,0,1,159.75,182a.5.5,0,0,1,.45-.15c3.32.53,12.45,1.58,14.8.08s7.44-4.23,9.89-3.71c1.25.27,21,10.6,21.8,14a1,1,0,0,1-.32,1c-1.37,1.11-4.5,0-7.23-1.45,1.66,1.8,3,3.89,2.14,5.39a3.19,3.19,0,0,1-2.13,1.77c-1.34.23-2.74-.69-4.85-2.48-1.39-1.19-3.87-3.07-6-4.65,2.87,3.45,6.39,8.24,5.69,10.33a1.81,1.81,0,0,1-1.41,1.32c-2,.37-5.3-2.42-8.08-5.3,1,2,1.74,4,1.26,5.18a1.62,1.62,0,0,1-1.33,1A4.73,4.73,0,0,1,183.91,204.3Zm-8.63-7a.5.5,0,0,1,.39.18c1.46,1.74,5.85,6.16,8.61,5.74a.62.62,0,0,0,.54-.36c.63-1.51-2.28-6.48-4.26-9.25a.52.52,0,0,1,.82-.63c6,7.32,9.68,9.63,11,9.39.2,0,.46-.15.62-.64.65-1.94-4.94-8.93-8.62-12.88a.52.52,0,0,1,0-.7.5.5,0,0,1,.68-.07c.08.05,7.09,5.13,9.89,7.51,1.78,1.51,3.06,2.41,4,2.25.5-.09,1-.5,1.4-1.27,1-1.66-3.11-5.56-5.91-7.63a.52.52,0,0,1,.6-.85c3.61,2.43,9.29,5.35,10.64,4.26,0-.47-2.05-2.6-9.75-7.19a91.52,91.52,0,0,0-11.29-6c-1.67-.36-5.95,1.53-9.11,3.56-2.94,1.89-13.41.4-15.26.12A19.48,19.48,0,0,0,155,199a86.94,86.94,0,0,0,10,1.76c4.67.46,9.94-3.32,10-3.35A.47.47,0,0,1,175.28,197.32Z" fill="#231f20"/><path d="M161.69,181.46a.58.58,0,0,1-.18,0l-33.19-12.67a.5.5,0,0,1-.29-.28.53.53,0,0,1,0-.41c.15-.34,15.08-34.29,8.68-52.63a.51.51,0,0,1,.32-.65.52.52,0,0,1,.66.31c2.74,7.88,2.11,19.27-1.89,33.84a157.59,157.59,0,0,1-6.61,19l32.69,12.48a.52.52,0,0,1,.3.66A.53.53,0,0,1,161.69,181.46Z" fill="#231f20"/><path d="M180.25,173.57a.34.34,0,0,1-.14,0,.51.51,0,0,1-.36-.63c0-.07,2-7.48,4.52-22.75s3.37-31.88,3.38-32a.52.52,0,0,1,.54-.49.52.52,0,0,1,.49.54c0,.16-.88,16.82-3.39,32.15s-4.53,22.79-4.54,22.86A.53.53,0,0,1,180.25,173.57Z" fill="#231f20"/><path d="M160.62,61.37c.76-.2,1.56-.37,2.39-.52,2.57-.46,5.11-2.4,7.54-3.43a62,62,0,0,1,9.13-3.06c3.41-.85,7.11-1.39,10.38-.09a14.12,14.12,0,0,1,4.45,3c3.43,3.3,5.93,7.81,5.84,12.57s-3.21,9.56-7.83,10.68c-3.5.85-2.94,2.39-3.21,5.49a17.75,17.75,0,0,1-3,9c-5.62,7.71-17.32,3.62-24.44.35-4.48-2-8.82-5.16-11.28-9.54-2.73-4.84-1.17-12.29,1.13-17.18A12.56,12.56,0,0,1,160.62,61.37Z" fill="#fff"/><path d="M176.77,100q-6.18,0-15.12-4.1c-3.7-1.7-8.7-4.77-11.51-9.75-2.71-4.8-1.39-12.32,1.12-17.65a13,13,0,0,1,9.23-7.61h0c.74-.2,1.54-.38,2.43-.54a16.35,16.35,0,0,0,4.71-2c.9-.49,1.82-1,2.72-1.38a62.89,62.89,0,0,1,9.2-3.08c3.12-.78,7.14-1.49,10.7-.07A14.48,14.48,0,0,1,194.86,57c3.89,3.74,6.07,8.46,6,12.93-.09,5.25-3.62,10-8.21,11.17-2.6.63-2.64,1.53-2.75,3.71,0,.41,0,.85-.08,1.33a18.15,18.15,0,0,1-3.1,9.28Q183.34,100,176.77,100Zm-16-38.15a12.1,12.1,0,0,0-8.59,7.08c-2.4,5.09-3.68,12.24-1.15,16.73,2.68,4.74,7.49,7.69,11.06,9.33,11.78,5.41,19.79,5.34,23.83-.2A17.13,17.13,0,0,0,188.81,86c0-.47.07-.9.08-1.3.11-2.22.19-3.83,3.51-4.64,4.17-1,7.37-5.4,7.45-10.2.08-4.2-2-8.65-5.68-12.2a13.72,13.72,0,0,0-4.29-3c-3.29-1.31-7.12-.63-10.08.12a61.76,61.76,0,0,0-9.06,3c-.85.36-1.71.84-2.62,1.34a17.37,17.37,0,0,1-5,2.12c-.87.15-1.64.32-2.35.51Z" fill="#231f20"/><path d="M176,111l-.92,15.89s-7.26,8.31-16.61,3.2-9-13.19-9-13.19l6.13-29.85s8.48-2,10.64-18.64a51.36,51.36,0,0,0,25,10.61s-.16,18.68-3.45,26.1S176,111,176,111Z" fill="#fff"/><path d="M164.58,132.24a13.11,13.11,0,0,1-6.38-1.71c-9.52-5.2-9.26-13.32-9.24-13.66L155.1,87a.49.49,0,0,1,.38-.38c.08,0,8.18-2.14,10.25-18.23a.51.51,0,0,1,.32-.4.52.52,0,0,1,.51.09,51.22,51.22,0,0,0,24.75,10.49.5.5,0,0,1,.43.5c0,.77-.2,18.87-3.5,26.3-2.91,6.57-9.8,6.44-11.8,6.24l-.89,15.36a.53.53,0,0,1-.12.3C175.37,127.29,170.94,132.24,164.58,132.24ZM156,87.45,150,117c0,.23-.22,7.76,8.73,12.65,8.37,4.58,14.92-1.93,15.88-3l.91-15.72a.52.52,0,0,1,.19-.36.48.48,0,0,1,.4-.1c.33.06,8.18,1.37,11.27-5.59,2.93-6.62,3.35-22.62,3.4-25.47a53.21,53.21,0,0,1-24.13-10.1C164.48,83.82,157.61,86.92,156,87.45Zm19,39.44h0Z" fill="#231f20"/><path d="M159.05,95.44a8.31,8.31,0,0,1-6.14-1.52,8.86,8.86,0,0,1-3.3-8,7.63,7.63,0,0,1,.88-3.22,4,4,0,0,1,2.62-2,6.37,6.37,0,0,1,3.85,1c1.79.92,1.8,1.94,2.82,3.46-.11-.14-.19-.53-.3-.66" fill="#fff"/><path d="M157.81,96a8.71,8.71,0,0,1-5.2-1.71,9.33,9.33,0,0,1-3.5-8.47,8,8,0,0,1,.95-3.44,4.48,4.48,0,0,1,3-2.2,6.91,6.91,0,0,1,4.17,1.07,4.87,4.87,0,0,1,2.33,2.47c.06.1.11.21.18.32a.55.55,0,0,1,.17.14,1.53,1.53,0,0,1,.23.48,1.82,1.82,0,0,0,.08.19l0,0a.49.49,0,0,1-.12.68.5.5,0,0,1-.68-.08.41.41,0,0,1-.07-.11,13.51,13.51,0,0,1-.69-1.18,3.92,3.92,0,0,0-1.91-2,5.84,5.84,0,0,0-3.54-1,3.39,3.39,0,0,0-2.26,1.71,7,7,0,0,0-.82,3,8.34,8.34,0,0,0,3.1,7.6A7.84,7.84,0,0,0,159,94.94a.51.51,0,0,1,.57.42.49.49,0,0,1-.41.57A8.38,8.38,0,0,1,157.81,96Z" fill="#231f20"/><path d="M175.49,119.35a11.15,11.15,0,0,1-8.86-5.49c-3.26-5.43-2-8.9-2-8.9s4.39,5.59,11.3,6Z" fill="#231f20"/><path d="M175.49,119.85h0a11.57,11.57,0,0,1-9.28-5.73c-3.34-5.58-2-9.19-2-9.34a.51.51,0,0,1,.86-.13s4.35,5.43,10.94,5.86a.49.49,0,0,1,.47.52l-.49,8.35A.49.49,0,0,1,175.49,119.85ZM165,106c-.14,1.32,0,4,2.1,7.57a10.8,10.8,0,0,0,8,5.21l.42-7.36A17.4,17.4,0,0,1,165,106Z" fill="#231f20"/><path d="M177.2,85.76s3.46,9.12,1.88,10.2-4.88-.64-4.88-.64" fill="#fff"/><path d="M177.72,96.82A9.36,9.36,0,0,1,174,95.76a.5.5,0,0,1-.21-.67.51.51,0,0,1,.68-.22c.84.44,3.28,1.42,4.36.68.67-.46-.3-5-2.07-9.61a.5.5,0,0,1,.29-.65.51.51,0,0,1,.65.29c1.08,2.85,3.41,9.61,1.7,10.79A2.91,2.91,0,0,1,177.72,96.82Z" fill="#231f20"/><ellipse cx="170.96" cy="83.73" rx="1.89" ry="1.34" transform="translate(38.71 220.65) rotate(-72.09)" fill="#231f20"/><ellipse cx="183.31" cy="86.66" rx="1.89" ry="1.34" transform="translate(94.16 268.77) rotate(-89.22)" fill="#231f20"/><path d="M176.08,107.7a6,6,0,0,1-1.64-.24,7.59,7.59,0,0,1-4.86-4.53,11.86,11.86,0,0,1-.75-5.5h0a.54.54,0,0,1,.21-.36c.23-.16.36-.26,12.31,2.36a.51.51,0,0,1,.39.51c0,.2-.22,4.91-3.12,7A4.3,4.3,0,0,1,176.08,107.7ZM169.8,98a10.5,10.5,0,0,0,.7,4.52,6.63,6.63,0,0,0,4.21,4,3.92,3.92,0,0,0,3.31-.35c2.06-1.5,2.57-4.7,2.69-5.84C176.94,99.48,171.43,98.31,169.8,98Z" fill="#231f20"/><path d="M170,102.74c1.77,4.28,6.21,5.31,8.27,3.82-.47-1.64-1.33-3.33-2.92-4A7.8,7.8,0,0,0,170,102.74Z" fill="#231f20"/><path d="M176.09,107.7a6,6,0,0,1-1.65-.24,7.59,7.59,0,0,1-4.86-4.53.53.53,0,0,1,0-.39.51.51,0,0,1,.29-.27,8.37,8.37,0,0,1,5.7-.12c1.5.57,2.58,2,3.22,4.27a.5.5,0,0,1-.19.54A4.23,4.23,0,0,1,176.09,107.7ZM170.72,103a6.5,6.5,0,0,0,4,3.46,4.13,4.13,0,0,0,3-.16c-.55-1.74-1.39-2.84-2.51-3.26A7.16,7.16,0,0,0,170.72,103Z" fill="#231f20"/><path d="M89,179.13h-.13a.5.5,0,0,1-.36-.61,144.06,144.06,0,0,0,.91-57C85.6,101.64,80,93.77,80,93.69a.5.5,0,0,1,.81-.59c.23.32,5.75,8.1,9.56,28.23a145,145,0,0,1-.92,57.43A.5.5,0,0,1,89,179.13Z" fill="#fff"/></g></svg>