<?xml version="1.0" encoding="utf-8"?>
<!-- Generator: Adobe Illustrator 25.0.0, SVG Export Plug-In . SVG Version: 6.00 Build 0)  -->
<svg version="1.1" id="Layer_1" xmlns="http://www.w3.org/2000/svg" xmlns:xlink="http://www.w3.org/1999/xlink" x="0px" y="0px"
	 viewBox="0 0 400 300" style="enable-background:new 0 0 400 300;" xml:space="preserve">
<style type="text/css">
	.st0{fill:#D1D3D4;}
	.st1{fill:#FFFFFF;}
	.st2{fill:#231F20;}
	.st3{fill:#FF0440;}
</style>
<g id="_265_money_jar_flatline">
	<ellipse class="st0" cx="185.5" cy="253.2" rx="78.1" ry="13.6"/>
	<path class="st1" d="M241.3,131.5c-6.8-6-4.4-25.9-4.4-25.9h-73.8c0,0,2.4,19.9-4.4,25.9c-6.8,6-20,9-20,26.6v92.4h122.7v-92.4
		C261.4,140.5,248.1,137.5,241.3,131.5z"/>
	<path class="st2" d="M261.4,251.1H138.6c-0.3,0-0.5-0.2-0.5-0.5v-92.4c0-13.7,8.1-18.9,14.6-23.1c2-1.2,3.8-2.5,5.6-3.9
		c6.5-5.8,4.3-25.3,4.2-25.5c0-0.1,0-0.3,0.1-0.4c0.1-0.1,0.2-0.2,0.4-0.2h73.8c0.1,0,0.3,0.1,0.4,0.2c0.1,0.1,0.1,0.2,0.1,0.4
		c0,0.2-2.2,19.7,4.2,25.5l0,0c1.8,1.5,3.6,2.8,5.6,3.9c6.5,4.2,14.7,9.3,14.7,23.1v92.4C261.9,250.9,261.6,251.1,261.4,251.1z
		 M139.2,250.1h121.7v-91.9c0-13.2-7.5-18-14.2-22.2c-2-1.2-3.9-2.6-5.7-4.1l0,0c-6.3-5.6-5-22.4-4.6-25.8h-72.7
		c0.3,3.3,1.7,20.2-4.6,25.8c-1.8,1.5-3.7,2.8-5.7,4.1c-6.6,4.2-14.2,9-14.2,22.2L139.2,250.1z"/>
	<path class="st3" d="M187,215.1c-3.6,5.9,0.4,19.1,0.4,19.1l5.3,3.8c7.9,4.7,18.2,2.2,22.9-5.7s2.2-18.2-5.7-22.9l-5.9-2.9
		C204,206.5,190.5,209.2,187,215.1z"/>
	<path class="st2" d="M201.2,240.9c-3.1,0-6.2-0.8-8.8-2.5l-5.3-3.9c-0.1-0.1-0.2-0.2-0.2-0.3c-0.2-0.5-4-13.4-0.4-19.5l0,0
		c3.6-6,16.8-8.7,17.4-8.8c0.1,0,0.2,0,0.3,0l5.9,2.9c8.2,4.8,10.9,15.4,6.1,23.5C213.1,237.7,207.4,241,201.2,240.9L201.2,240.9z
		 M187.8,233.9l5.1,3.7c7.7,4.6,17.6,2.1,22.2-5.6s2.1-17.6-5.6-22.2l-5.7-2.8c-1.5,0.3-13.4,3-16.6,8.3S187.4,232.4,187.8,233.9
		L187.8,233.9z"/>
	<circle class="st3" cx="197.6" cy="221.5" r="16.7"/>
	<path class="st2" d="M197.6,238.7c-9.5,0-17.2-7.7-17.1-17.2c0-9.5,7.7-17.2,17.2-17.1c9.5,0,17.2,7.7,17.1,17.2
		c0,3.1-0.9,6.1-2.5,8.8C209.3,235.6,203.6,238.7,197.6,238.7z M197.6,205.3c-1.3,0-2.7,0.2-3.9,0.5c-8.7,2.2-13.9,10.9-11.8,19.6
		c2.2,8.7,10.9,13.9,19.6,11.8c8.7-2.2,13.9-10.9,11.8-19.6C211.5,210.4,205.1,205.3,197.6,205.3z"/>
	<path class="st1" d="M188.3,213.9c0.7,0.4,1.4,0.8,2.1,1.3c0.1,0.1,0.2,0.1,0.3,0c0.8-0.9,1.8-1.6,3-2c1.2-0.4,2.5-0.4,3.7,0.1
		c0.3,0.1,0.6,0.3,1,0.4l-1.9,3.2c-0.5-0.3-1.1-0.4-1.6-0.3c-0.4,0.1-0.9,0.3-1.3,0.4v0l4,2.4l0.3-0.3c0.7-0.8,1.5-1.5,2.3-2.1
		c1.3-0.9,3-1,4.4-0.4c2.5,1,3.9,3.7,3.3,6.4c-0.1,0.7-0.4,1.4-0.6,2.2l1.6,0.9l-1.8,3l-1.6-1c-0.5,0.5-1,1-1.5,1.4
		c-1,0.9-2.3,1.4-3.6,1.4c-1.1,0-2.2-0.3-3.2-0.9l1.9-3.2c1.2,0.6,2.6,0.4,3.5-0.5l-4.3-2.6c-0.5,0.5-1.1,1-1.6,1.5
		c-0.6,0.6-1.4,1-2.2,1.3c-0.9,0.2-1.8,0.2-2.6-0.2c-1-0.4-1.9-1-2.6-1.9c-1-1.2-1.4-2.9-1.1-4.4c0.1-0.6,0.4-1.2,0.6-1.9l0.1-0.2
		l-2.2-1.3L188.3,213.9z M204.3,223.5c0.2-0.5,0.3-1.1,0.2-1.7c-0.2-1-1.1-1.7-2.1-1.6c-0.7,0.2-1.3,0.6-1.8,1.1L204.3,223.5z
		 M191.3,219.8c-0.1,0.5-0.1,1-0.1,1.5c0.1,1,1,1.8,2,1.7c0.1,0,0.2,0,0.3-0.1c0.5-0.2,1-0.6,1.4-1L191.3,219.8z"/>
	<path class="st3" d="M197.4,123.1c-4.4,5.3-2.7,18.9-2.7,18.9l4.6,4.7c7,6,17.6,5.2,23.6-1.8c6-7,5.2-17.6-1.8-23.6l0,0l-5.3-3.8
		C215.7,117.5,201.9,117.9,197.4,123.1z"/>
	<path class="st2" d="M210.1,151.1c-4.1,0-8-1.5-11.1-4.1l-4.6-4.7c-0.1-0.1-0.1-0.2-0.1-0.3c-0.1-0.6-1.7-13.9,2.9-19.3
		s18-5.8,18.6-5.8c0.1,0,0.2,0,0.3,0.1l5.3,3.8c7.2,6.1,8.1,17,2,24.2C220,148.9,215.2,151.1,210.1,151.1L210.1,151.1z M195.2,141.8
		l4.4,4.5c6.8,5.8,17,5,22.8-1.8c5.8-6.8,5-17-1.8-22.8l0,0l-5.1-3.7c-1.6,0.1-13.7,0.7-17.7,5.4C193.8,128.2,195,140.2,195.2,141.8
		L195.2,141.8z"/>
	<circle class="st3" cx="206.9" cy="131.2" r="16.7"/>
	<path class="st2" d="M206.9,148.4c-9.5,0-17.2-7.7-17.2-17.2s7.7-17.2,17.2-17.2c4.1,0,8.1,1.5,11.2,4.1l0,0
		c7.2,6.2,8.1,17,1.9,24.2C216.7,146.2,211.9,148.4,206.9,148.4z M206.9,115c-8.9,0-16.2,7.2-16.2,16.2c0,8.9,7.2,16.2,16.2,16.2
		c8.9,0,16.2-7.2,16.2-16.2c0-4.7-2.1-9.2-5.7-12.3l0,0C214.5,116.4,210.8,115,206.9,115L206.9,115z"/>
	<path class="st1" d="M198.9,122.1l1.9,1.6c0.1,0.1,0.2,0.1,0.3,0c0,0,0,0,0,0c0.9-0.8,2.1-1.3,3.3-1.5c1.3-0.2,2.5,0,3.6,0.7
		c0.3,0.2,0.6,0.4,0.9,0.6l-2.4,2.8c-0.4-0.4-1-0.6-1.6-0.6c-0.4,0-0.9,0.1-1.3,0.2v0.1l3.6,3l0.3-0.2c0.8-0.6,1.7-1.2,2.6-1.6
		c1.4-0.7,3.1-0.5,4.4,0.4c1.2,0.8,2.1,2,2.5,3.4c0.3,1.1,0.2,2.4-0.2,3.5c-0.3,0.7-0.6,1.3-0.9,2l1.4,1.2l-2.2,2.6l-1.4-1.2
		c-0.6,0.4-1.1,0.8-1.7,1.2c-2.1,1.4-4.9,1.1-6.8-0.6l2.4-2.8c1,0.8,2.5,0.8,3.6,0.1l-3.8-3.3c-0.6,0.4-1.2,0.8-1.8,1.2
		c-0.7,0.5-1.6,0.8-2.4,0.9c-0.9,0.1-1.8-0.1-2.6-0.6c-1-0.5-1.7-1.3-2.3-2.3c-0.8-1.4-0.9-3.1-0.3-4.6c0.2-0.6,0.5-1.2,0.9-1.7
		l0.1-0.2l-1.9-1.6L198.9,122.1z M213.2,134.3c0.3-0.5,0.5-1,0.5-1.6c0-1-0.8-1.9-1.8-2c-0.7,0.1-1.4,0.3-2,0.8L213.2,134.3z
		 M201.1,128.5c-0.2,0.5-0.3,1-0.4,1.4c-0.1,1,0.7,1.9,1.7,2c0.1,0,0.2,0,0.3,0c0.6-0.1,1.1-0.4,1.5-0.7L201.1,128.5z"/>
	<path class="st1" d="M154.2,99.6v13.5c0,5.6,20.5,10.1,45.8,10.1s45.8-4.5,45.8-10.1V99.6H154.2z"/>
	<path class="st2" d="M200,123.8c-22.8,0-46.3-4-46.3-10.6V99.6c0-0.3,0.2-0.5,0.5-0.5h91.6c0.3,0,0.5,0.2,0.5,0.5v13.5
		C246.3,119.8,222.8,123.8,200,123.8z M154.7,100.1v13c0,4.7,18.2,9.6,45.3,9.6s45.3-5,45.3-9.6v-13H154.7z"/>
	<ellipse class="st1" cx="200" cy="99.6" rx="45.8" ry="10.1"/>
	<path class="st2" d="M200,110.2c-22.8,0-46.3-4-46.3-10.6S177.2,89,200,89s46.3,4,46.3,10.6S222.8,110.2,200,110.2z M200,90
		c-27.1,0-45.3,5-45.3,9.6s18.2,9.6,45.3,9.6s45.3-5,45.3-9.6S227.1,90,200,90z"/>
	<ellipse class="st1" cx="200" cy="250.6" rx="61.4" ry="13.6"/>
	<path class="st2" d="M200,264.6c-34.7,0-61.9-6.2-61.9-14.1s27.2-14.1,61.9-14.1s61.9,6.2,61.9,14.1S234.7,264.6,200,264.6z
		 M200,237.5c-29.4,0-60.9,5.2-60.9,13.1s31.5,13.1,60.9,13.1s60.9-5.2,60.9-13.1S229.4,237.5,200,237.5z"/>
	<path class="st0" d="M146,239.1c-0.3,0-0.5-0.2-0.5-0.5v-83c0-5.4,7.2-10.7,13.5-15.4c3.8-2.8,7.4-5.5,7.9-7.2
		c0.9-3.1,1.5-6.4,1.7-9.6c0-0.3,0.2-0.5,0.5-0.5c0,0,0,0,0.1,0c0.3,0,0.5,0.2,0.5,0.5c0,0,0,0,0,0c-0.2,3.4-0.8,6.7-1.7,9.9
		c-0.6,2.1-4.2,4.7-8.3,7.8c-5.8,4.3-13.1,9.7-13.1,14.6v83C146.5,238.8,146.3,239.1,146,239.1z"/>
	<path class="st0" d="M254,239.1c-0.3,0-0.5-0.2-0.5-0.5v-83c0-4.9-7.3-10.3-13.1-14.6c-4.1-3-7.6-5.6-8.3-7.8
		c-0.9-3.2-1.5-6.5-1.7-9.9c0-0.3,0.2-0.5,0.5-0.5c0,0,0,0,0,0l0,0c0.3,0,0.5,0.2,0.5,0.5c0.2,3.3,0.7,6.5,1.7,9.6
		c0.5,1.8,4.1,4.4,7.9,7.2c6.3,4.7,13.5,10,13.5,15.4v83C254.5,238.8,254.3,239,254,239.1z"/>
	<path class="st3" d="M154.4,236.3v8.6c0,3.2,8,5.9,17.8,5.9s17.7-2.6,17.7-5.9v-8.6H154.4z"/>
	<path class="st2" d="M172.2,251.3c-9,0-18.2-2.4-18.2-6.4v-8.6c0-0.3,0.2-0.5,0.5-0.5h35.5c0.3,0,0.5,0.2,0.5,0.5v8.6
		C190.4,248.9,181.1,251.3,172.2,251.3z M154.9,236.8v8.1c0,2.6,6.9,5.4,17.2,5.4s17.2-2.8,17.2-5.4v-8.1H154.9z"/>
	<ellipse class="st2" cx="172.2" cy="236.3" rx="17.7" ry="5.9"/>
	<path class="st2" d="M172.2,242.7c-9,0-18.2-2.4-18.2-6.4s9.3-6.4,18.2-6.4s18.2,2.4,18.2,6.4S181.1,242.7,172.2,242.7z
		 M172.2,230.9c-10.3,0-17.2,2.8-17.2,5.4s6.9,5.4,17.2,5.4s17.2-2.8,17.2-5.4S182.5,230.9,172.2,230.9z"/>
	<path class="st3" d="M158.6,224.5v8.6c0,3.3,7.9,5.9,17.8,5.9s17.7-2.6,17.7-5.9v-8.6H158.6z"/>
	<path class="st2" d="M176.3,239.5c-9,0-18.2-2.4-18.2-6.4v-8.6c0-0.3,0.2-0.5,0.5-0.5h35.5c0.3,0,0.5,0.2,0.5,0.5v8.6
		C194.6,237.1,185.3,239.5,176.3,239.5z M159.1,225v8.1c0,2.6,6.9,5.4,17.2,5.4s17.2-2.8,17.2-5.4V225H159.1z"/>
	<ellipse class="st2" cx="176.3" cy="224.5" rx="17.7" ry="5.9"/>
	<path class="st2" d="M176.3,230.9c-9,0-18.2-2.4-18.2-6.4s9.3-6.4,18.2-6.4s18.2,2.4,18.2,6.4S185.3,230.9,176.3,230.9z
		 M176.3,219.1c-10.3,0-17.2,2.8-17.2,5.4s6.9,5.4,17.2,5.4s17.2-2.8,17.2-5.4S186.6,219.1,176.3,219.1z"/>
	<path class="st3" d="M155,211.4v8.6c0,3.2,7.9,5.9,17.8,5.9s17.7-2.6,17.7-5.9v-8.6H155z"/>
	<path class="st2" d="M172.7,226.4c-9,0-18.2-2.4-18.2-6.4v-8.6c0-0.3,0.2-0.5,0.5-0.5h35.5c0.3,0,0.5,0.2,0.5,0.5v8.6
		C191,224,181.7,226.4,172.7,226.4z M155.5,211.9v8.1c0,2.6,6.9,5.4,17.2,5.4s17.3-2.8,17.3-5.4v-8.1H155.5z"/>
	<ellipse class="st2" cx="172.7" cy="211.4" rx="17.7" ry="5.9"/>
	<path class="st2" d="M172.7,217.8c-9,0-18.2-2.4-18.2-6.4s9.3-6.4,18.2-6.4s18.3,2.4,18.3,6.4S181.7,217.8,172.7,217.8z M172.7,206
		c-10.3,0-17.2,2.8-17.2,5.4s6.9,5.4,17.2,5.4s17.3-2.8,17.3-5.4S183,206,172.7,206L172.7,206z"/>
	<path class="st3" d="M201.1,234.8v8.6c0,3.3,7.9,5.9,17.7,5.9s17.8-2.6,17.8-5.9v-8.6H201.1z"/>
	<path class="st2" d="M218.9,249.8c-9,0-18.2-2.4-18.2-6.4v-8.6c0-0.3,0.2-0.5,0.5-0.5h35.5c0.3,0,0.5,0.2,0.5,0.5v8.6
		C237.1,247.4,227.8,249.8,218.9,249.8z M201.6,235.3v8.1c0,2.6,6.9,5.4,17.2,5.4s17.2-2.8,17.2-5.4v-8.1H201.6z"/>
	<ellipse class="st2" cx="218.9" cy="234.8" rx="17.7" ry="5.9"/>
	<path class="st2" d="M218.9,241.2c-9,0-18.2-2.4-18.2-6.4s9.3-6.4,18.2-6.4s18.2,2.4,18.2,6.4S227.8,241.2,218.9,241.2z
		 M218.9,229.4c-10.3,0-17.2,2.8-17.2,5.4s6.9,5.4,17.2,5.4s17.2-2.8,17.2-5.4S229.2,229.4,218.9,229.4z"/>
	<path class="st3" d="M198.8,224.6v8.6c0,3.2,7.9,5.9,17.7,5.9s17.8-2.6,17.8-5.9v-8.6H198.8z"/>
	<path class="st2" d="M216.6,239.6c-9,0-18.2-2.4-18.2-6.4v-8.6c0-0.3,0.2-0.5,0.5-0.5h35.5c0.3,0,0.5,0.2,0.5,0.5v8.6
		C234.8,237.2,225.5,239.6,216.6,239.6z M199.3,225.1v8.1c0,2.6,6.9,5.4,17.2,5.4s17.2-2.8,17.2-5.4v-8.1H199.3z"/>
	<ellipse class="st2" cx="216.6" cy="224.6" rx="17.7" ry="5.9"/>
	<path class="st2" d="M216.6,231c-9,0-18.2-2.4-18.2-6.4s9.3-6.4,18.2-6.4s18.2,2.4,18.2,6.4S225.5,231,216.6,231z M216.6,219.2
		c-10.3,0-17.2,2.8-17.2,5.4s6.9,5.4,17.2,5.4s17.2-2.8,17.2-5.4S226.9,219.2,216.6,219.2L216.6,219.2z"/>
	<path class="st3" d="M201.7,212.2v8.6c0,3.2,7.9,5.9,17.7,5.9s17.8-2.6,17.8-5.9v-8.6H201.7z"/>
	<path class="st2" d="M219.4,227.2c-9,0-18.2-2.4-18.2-6.4v-8.6c0-0.3,0.2-0.5,0.5-0.5h35.5c0.3,0,0.5,0.2,0.5,0.5v8.6
		C237.7,224.8,228.4,227.2,219.4,227.2z M202.2,212.7v8.1c0,2.6,6.9,5.4,17.2,5.4s17.2-2.8,17.2-5.4v-8.1H202.2z"/>
	<ellipse class="st2" cx="219.4" cy="212.2" rx="17.7" ry="5.9"/>
	<path class="st2" d="M219.4,218.6c-9,0-18.2-2.4-18.2-6.4s9.3-6.4,18.2-6.4s18.2,2.4,18.2,6.4S228.4,218.6,219.4,218.6z
		 M219.4,206.8c-10.3,0-17.2,2.8-17.2,5.4s6.9,5.4,17.2,5.4s17.2-2.8,17.2-5.4S229.7,206.8,219.4,206.8z"/>
	<path class="st3" d="M198.8,199.8v8.6c0,3.2,7.9,5.9,17.7,5.9s17.8-2.6,17.8-5.9v-8.6H198.8z"/>
	<path class="st2" d="M216.6,214.8c-9,0-18.2-2.4-18.2-6.4v-8.6c0-0.3,0.2-0.5,0.5-0.5h35.5c0.3,0,0.5,0.2,0.5,0.5v8.6
		C234.8,212.4,225.5,214.8,216.6,214.8z M199.3,200.3v8.1c0,2.6,6.9,5.4,17.2,5.4s17.2-2.8,17.2-5.4v-8.1H199.3z"/>
	<ellipse class="st2" cx="216.6" cy="199.8" rx="17.7" ry="5.9"/>
	<path class="st2" d="M216.6,206.2c-9,0-18.2-2.4-18.2-6.4s9.3-6.4,18.2-6.4s18.2,2.4,18.2,6.4S225.5,206.2,216.6,206.2z
		 M216.6,194.4c-10.3,0-17.2,2.8-17.2,5.4s6.9,5.4,17.2,5.4s17.2-2.8,17.2-5.4S226.9,194.4,216.6,194.4z"/>
	<path class="st3" d="M204.5,189.6v8.6c0,3.2,7.9,5.9,17.7,5.9s17.7-2.6,17.7-5.9v-8.6H204.5z"/>
	<path class="st2" d="M222.3,204.6c-9,0-18.2-2.4-18.2-6.4v-8.6c0-0.3,0.2-0.5,0.5-0.5H240c0.3,0,0.5,0.2,0.5,0.5v8.6
		C240.5,202.2,231.2,204.6,222.3,204.6z M205,190.1v8.1c0,2.6,6.9,5.4,17.2,5.4s17.2-2.8,17.2-5.4v-8.1H205z"/>
	<ellipse class="st2" cx="222.3" cy="189.6" rx="17.7" ry="5.9"/>
	<path class="st2" d="M222.3,196c-9,0-18.2-2.4-18.2-6.4s9.3-6.4,18.2-6.4s18.2,2.4,18.2,6.4S231.2,196,222.3,196z M222.3,184.2
		c-10.3,0-17.3,2.8-17.3,5.4s7,5.4,17.3,5.4s17.2-2.8,17.2-5.4S232.6,184.2,222.3,184.2L222.3,184.2z"/>
	<path class="st3" d="M200.6,179.4v8.6c0,3.3,7.9,5.9,17.7,5.9s17.8-2.6,17.8-5.9v-8.6L200.6,179.4z"/>
	<path class="st2" d="M218.4,194.4c-9,0-18.2-2.4-18.2-6.4v-8.6c0-0.3,0.2-0.5,0.5-0.5h35.5c0.3,0,0.5,0.2,0.5,0.5v8.6
		C236.6,192,227.4,194.4,218.4,194.4z M201.1,179.9v8.1c0,2.6,6.9,5.4,17.2,5.4s17.2-2.8,17.2-5.4v-8.1L201.1,179.9z"/>
	<ellipse class="st3" cx="218.4" cy="179.4" rx="17.7" ry="5.9"/>
	<path class="st2" d="M218.4,185.8c-9,0-18.2-2.4-18.2-6.4s9.3-6.4,18.2-6.4s18.2,2.4,18.2,6.4S227.4,185.8,218.4,185.8z M218.4,174
		c-10.3,0-17.2,2.8-17.2,5.4s6.9,5.4,17.2,5.4s17.2-2.8,17.2-5.4S228.7,174,218.4,174L218.4,174z"/>
	<path class="st3" d="M181.1,245.6l0.4,6.4c0.1,4.3,8.3,7.6,18.3,7.4s18.1-3.8,18-8.1l-0.4-6.4L181.1,245.6z"/>
	<path class="st2" d="M199,259.9c-4.2,0.1-8.3-0.6-12.2-2.1c-3.6-1.5-5.7-3.6-5.7-5.9l-0.4-6.4c0-0.1,0-0.3,0.1-0.4
		c0.1-0.1,0.2-0.2,0.4-0.2l36.3-0.7l0,0c0.3,0,0.5,0.2,0.5,0.5l0.4,6.4c0.1,4.7-8,8.5-18.5,8.6L199,259.9z M181.7,246.1l0.3,5.9
		c0,1.9,1.9,3.7,5.1,5c4.1,1.5,8.4,2.2,12.7,2c9.6-0.2,17.6-3.7,17.5-7.6l-0.4-5.9L181.7,246.1z"/>
	
		<ellipse transform="matrix(0.9998 -1.867394e-02 1.867394e-02 0.9998 -4.5454 3.7629)" class="st3" cx="199.2" cy="245.3" rx="18.1" ry="7.8"/>
	<path class="st2" d="M198.6,253.5c-4.2,0.1-8.3-0.6-12.2-2.1c-3.6-1.5-5.7-3.6-5.7-5.9c-0.1-4.6,8-8.4,18.5-8.6
		c4.5-0.2,8.9,0.5,13.1,2.1c3.6,1.5,5.7,3.6,5.7,5.9c0.1,4.6-8,8.4-18.5,8.6L198.6,253.5z M199.9,238h-0.8
		c-9.6,0.2-17.6,3.7-17.5,7.6c0,1.8,1.9,3.6,5.1,4.9c4.1,1.5,8.4,2.2,12.7,2c9.6-0.2,17.6-3.7,17.5-7.6c0-1.8-1.9-3.6-5.1-4.9
		C208,238.6,203.9,237.9,199.9,238z"/>
	<path class="st1" d="M212.1,244.2l-2.6,0.3c-0.2,0-0.2,0-0.1,0.1c0.5,0.5,0.8,1.2,0.7,1.9c-0.2,0.7-1,1.1-2.2,1.4
		c-0.3,0.1-0.7,0.1-1.1,0.2l-2.5-2.2c0.5,0,0.9-0.2,1.3-0.5c0.1-0.2,0.2-0.4,0.3-0.6h-0.1l-4.8,0.5l0.1,0.2c0.4,0.5,0.6,1.1,0.7,1.7
		c0.1,1-0.6,1.6-2.3,1.9c-1.6,0.3-3.3,0.2-4.9-0.2c-1.2-0.3-2.4-0.7-3.4-1.4c-0.5-0.4-1-0.7-1.5-1.1l-1.8,0.2l-1.2-1.7l1.7-0.2
		c-0.1-0.3-0.2-0.7-0.2-1c0-0.7,0.4-1.3,1-1.6c0.8-0.4,1.6-0.6,2.5-0.7l1.4,1.6c-1.2,0.2-1.8,0.6-1.6,1.3l4.7-0.5
		c-0.1-0.4-0.3-0.7-0.4-1c-0.2-0.4-0.1-0.8,0.1-1.1c0.4-0.4,1-0.6,1.6-0.7c1-0.2,2-0.3,3-0.2c1.6,0.1,3.3,0.4,4.8,1.1
		c0.6,0.2,1.1,0.5,1.6,0.8l0.2,0.1l2.5-0.3L212.1,244.2z M192.9,246.1c0.4,0.3,0.9,0.6,1.4,0.8c0.9,0.4,1.9,0.3,2.8-0.1
		c0.4-0.3,0.1-0.7,0.1-1.1L192.9,246.1z M203.9,243.1c-0.5-0.2-0.9-0.4-1.4-0.5c-1.1-0.4-2.6-0.2-2.8,0.2c-0.1,0.2,0,0.5,0.1,0.8
		L203.9,243.1z"/>
	<path class="st3" d="M211.3,170.1l-1.3,6.3c-1,4.2,6,9.5,15.7,11.9s18.4,1,19.5-3.2l1.3-6.3L211.3,170.1z"/>
	<path class="st2" d="M234.8,190c-3.1,0-6.2-0.4-9.2-1.2c-10.1-2.5-17.2-8-16.1-12.5l1.3-6.3c0-0.1,0.1-0.2,0.2-0.3
		c0.1-0.1,0.3-0.1,0.4-0.1l35.2,8.8c0.3,0.1,0.4,0.3,0.4,0.6l-1.3,6.3c-0.6,2.2-3,3.8-6.9,4.4C237.5,189.9,236.2,190,234.8,190z
		 M211.7,170.7l-1.2,5.8c-1,3.9,6.1,9,15.4,11.3c4.2,1.1,8.5,1.4,12.8,0.9c3.4-0.6,5.6-1.9,6.1-3.7l1.2-5.8L211.7,170.7z"/>
	
		<ellipse transform="matrix(0.2414 -0.9704 0.9704 0.2414 4.3037 354.5148)" class="st3" cx="228.9" cy="174.5" rx="7.8" ry="18.1"/>
	<path class="st2" d="M236.1,183.7c-3.1,0-6.2-0.4-9.2-1.2c-4.3-1-8.4-2.8-12.1-5.4c-3.1-2.4-4.6-4.9-4-7.1s3-3.8,6.9-4.4
		c8.9-1,17.9,1.3,25.3,6.3c3.1,2.4,4.6,4.9,4,7.1l0,0c-0.6,2.2-3,3.8-6.9,4.4C238.8,183.6,237.4,183.7,236.1,183.7z M221.7,166.3
		c-1.3,0-2.6,0.1-3.9,0.3c-3.4,0.6-5.6,1.9-6.1,3.7s0.9,4,3.6,6.1c7.2,4.9,15.9,7,24.5,6.1c3.4-0.6,5.6-1.9,6.1-3.7l0,0
		c0.4-1.8-0.9-4-3.6-6.1c-3.5-2.5-7.5-4.3-11.7-5.2C227.7,166.7,224.7,166.3,221.7,166.3L221.7,166.3z"/>
	<path class="st1" d="M241.6,176.8l-2.6-0.4c-0.2,0-0.2,0-0.1,0.1c0.4,0.6,0.4,1.3,0.2,2c-0.4,0.6-1.2,0.9-2.5,0.8
		c-0.3,0-0.7-0.1-1.1-0.1l-1.8-2.7c0.5,0.1,0.9,0.1,1.4-0.1c0.2-0.2,0.3-0.3,0.4-0.5l-0.1-0.1l-4.8-0.8c0,0.1,0,0.2,0.1,0.2
		c0.2,0.6,0.3,1.2,0.3,1.9c-0.1,1-1,1.4-2.8,1.2c-1.6-0.2-3.2-0.7-4.7-1.4c-1.1-0.6-2.1-1.3-2.9-2.2c-0.4-0.5-0.8-1-1.1-1.5
		l-1.8-0.3l-0.7-2l1.7,0.3c0-0.3,0-0.7,0.1-1c0.1-0.7,0.7-1.2,1.4-1.3c0.8-0.2,1.7-0.2,2.6,0l1,1.9c-1.2-0.1-1.9,0.1-1.9,0.8
		l4.7,0.8c0-0.4-0.1-0.7-0.1-1.1c-0.1-0.4,0.1-0.8,0.4-1c0.5-0.3,1.1-0.4,1.7-0.3c1,0.1,2,0.3,3,0.6c1.6,0.5,3,1.3,4.3,2.3
		c0.5,0.4,0.9,0.8,1.3,1.2l0.1,0.1l2.5,0.4L241.6,176.8z M222.6,173.7c0.3,0.4,0.7,0.8,1.1,1.1c0.8,0.6,1.8,0.8,2.8,0.6
		c0.4-0.2,0.3-0.7,0.3-1L222.6,173.7z M234.1,173.6c-0.4-0.3-0.8-0.6-1.2-0.9c-1-0.6-2.4-0.9-2.8-0.6c-0.2,0.2-0.1,0.5-0.1,0.8
		L234.1,173.6z"/>
	<path class="st3" d="M167.9,182l5.5,3.4c3.6,2.4,11-2.4,16.6-10.7s7.2-17,3.7-19.4l-5.5-3.4L167.9,182z"/>
	<path class="st2" d="M175.6,186.4c-0.9,0-1.7-0.2-2.5-0.7l-5.4-3.4c-0.2-0.2-0.3-0.5-0.1-0.7l20.3-30.1c0.1-0.2,0.4-0.3,0.7-0.1
		l5.5,3.4c3.9,2.6,2.3,11.4-3.5,20.1C185.6,182,179.7,186.4,175.6,186.4z M168.6,181.8l5,3.1c3.3,2.2,10.6-2.6,15.9-10.6
		s7.1-16.5,3.8-18.7l-5-3.1L168.6,181.8z"/>
	
		<ellipse transform="matrix(0.5583 -0.8296 0.8296 0.5583 -59.817 221.4405)" class="st3" cx="178.1" cy="166.9" rx="18.1" ry="7.8"/>
	<path class="st2" d="M170.1,183.1c-0.9,0-1.7-0.2-2.5-0.7c-1.9-1.3-2.6-4.1-1.8-8c2.1-8.7,7.3-16.4,14.6-21.6
		c3.3-2.1,6.2-2.6,8.1-1.3l0,0c1.9,1.3,2.5,4.1,1.8,8c-2.1,8.7-7.3,16.4-14.6,21.6C174.1,182.2,172.1,182.9,170.1,183.1z M186,151.7
		c-1.8,0.1-3.6,0.8-5.1,1.9c-7,5.1-12,12.6-14.1,21c-0.6,3.4-0.1,5.9,1.4,7s4.1,0.5,7-1.3c7-5.1,12-12.6,14.1-21
		c0.6-3.4,0.1-5.9-1.4-7l0,0C187.3,151.9,186.7,151.7,186,151.7z"/>
	<path class="st1" d="M184.6,155.7l-1.3,2.3c-0.1,0.1-0.1,0.2,0,0.2c0.7-0.2,1.5,0,2,0.6c0.4,0.5,0.4,1.4-0.1,2.6
		c-0.1,0.3-0.3,0.6-0.5,1l-3.2,0.8c0.3-0.4,0.4-0.8,0.4-1.3c-0.1-0.2-0.2-0.4-0.4-0.6l-0.1,0.1l-2.4,4.2h0.2c0.6,0,1.3,0.1,1.8,0.4
		c0.9,0.4,0.9,1.4,0.2,3c-0.7,1.5-1.7,2.8-3,3.9c-0.9,0.9-2,1.5-3.1,2c-0.6,0.2-1.2,0.4-1.8,0.6l-0.9,1.5h-2.1l0.8-1.5
		c-0.3-0.1-0.6-0.2-0.9-0.4c-0.6-0.4-0.9-1-0.7-1.7c0.1-0.9,0.4-1.7,0.9-2.4l2.1-0.3c-0.5,1.1-0.6,1.9,0.1,2.1
		c0.8-1.4,1.5-2.8,2.3-4.2c-0.4-0.1-0.7-0.2-1.1-0.3c-0.4-0.1-0.7-0.4-0.8-0.8c-0.1-0.6,0-1.2,0.3-1.7c0.4-0.9,0.9-1.8,1.6-2.6
		c1-1.3,2.2-2.4,3.6-3.3c0.5-0.3,1-0.6,1.6-0.9l0.2-0.1l1.2-2.2L184.6,155.7z M175.1,172.5c0.5-0.1,1-0.4,1.4-0.7
		c0.8-0.5,1.4-1.4,1.6-2.4c-0.1-0.5-0.5-0.5-0.9-0.7L175.1,172.5z M179,161.8c-0.5,0.3-0.9,0.5-1.2,0.8c-0.9,0.7-1.7,1.9-1.5,2.4
		c0.1,0.2,0.4,0.3,0.7,0.3L179,161.8z"/>
	<path class="st3" d="M154.7,201.2l0.4,6.4c0.1,4.3,8.3,7.6,18.3,7.4s18.1-3.8,18-8.1l-0.4-6.4L154.7,201.2z"/>
	<path class="st2" d="M172.6,215.6c-10,0-17.9-3.4-18-7.9l-0.4-6.4c0-0.1,0-0.3,0.1-0.4c0.1-0.1,0.2-0.2,0.4-0.2L191,200l0,0
		c0.3,0,0.5,0.2,0.5,0.5l0.4,6.4c0,2.3-1.9,4.5-5.5,6.1c-4.1,1.7-8.5,2.6-13,2.6L172.6,215.6z M155.2,201.7l0.4,5.9
		c0.1,4,8.2,7.1,17.8,7c4.3,0,8.6-0.9,12.6-2.5c3.2-1.4,5-3.3,4.9-5.1l-0.4-5.9L155.2,201.7z"/>
	
		<ellipse transform="matrix(0.9998 -1.867394e-02 1.867394e-02 0.9998 -3.721 3.263)" class="st3" cx="172.9" cy="200.9" rx="18.1" ry="7.8"/>
	<path class="st2" d="M172.2,209.2c-10.1,0-17.9-3.4-18-7.9s8-8.4,18.5-8.6c4.5-0.2,8.9,0.5,13.1,2.1c3.6,1.5,5.7,3.6,5.7,5.9l0,0
		c0.1,2.3-1.9,4.4-5.5,6.1c-4.1,1.7-8.5,2.6-13,2.6L172.2,209.2z M173.5,193.6h-0.8c-9.6,0.2-17.6,3.7-17.5,7.6s8.2,7.1,17.8,6.9
		c4.3,0,8.6-0.8,12.6-2.5c3.2-1.4,5-3.3,4.9-5.1l0,0c0-1.8-1.9-3.6-5.1-4.9C181.6,194.2,177.6,193.5,173.5,193.6L173.5,193.6z"/>
	<path class="st1" d="M185.8,199.8l-2.6,0.2c-0.2,0-0.2,0.1-0.1,0.1c0.5,0.5,0.8,1.2,0.7,1.9c-0.2,0.7-1,1.1-2.2,1.4
		c-0.3,0.1-0.7,0.1-1.1,0.2l-2.5-2.2c0.5,0,0.9-0.2,1.3-0.5c0.1-0.2,0.2-0.4,0.3-0.6h-0.1l-4.8,0.5l0.1,0.2c0.4,0.5,0.6,1.1,0.7,1.7
		c0.1,1-0.6,1.6-2.3,1.9c-1.6,0.3-3.3,0.2-4.9-0.2c-1.2-0.3-2.4-0.7-3.4-1.4c-0.5-0.4-1-0.7-1.5-1.1l-1.8,0.2l-1.2-1.7l1.7-0.2
		c-0.1-0.3-0.2-0.7-0.2-1c0-0.7,0.4-1.3,1-1.6c0.8-0.4,1.6-0.6,2.5-0.7l1.5,1.6c-1.2,0.2-1.8,0.6-1.6,1.3l4.7-0.5
		c-0.1-0.4-0.3-0.7-0.4-1c-0.2-0.4-0.1-0.8,0.1-1.1c0.4-0.4,1-0.7,1.6-0.7c1-0.2,2-0.3,3-0.2c1.6,0.1,3.3,0.4,4.8,1.1
		c0.6,0.2,1.1,0.5,1.6,0.8l0.2,0.1l2.5-0.3L185.8,199.8z M166.6,201.7c0.4,0.3,0.9,0.6,1.4,0.8c0.9,0.4,1.9,0.3,2.8-0.1
		c0.4-0.3,0.1-0.7,0-1.1L166.6,201.7z M177.6,198.7c-0.5-0.2-0.9-0.4-1.4-0.6c-1.1-0.4-2.6-0.2-2.8,0.2c-0.1,0.2,0,0.5,0.1,0.8
		L177.6,198.7z"/>
	<path class="st3" d="M205.5,66.4l4.2,4.8c2.7,3.3,11.1,1,18.9-5.2s11.9-14,9.3-17.3l-4.2-4.8L205.5,66.4z"/>
	<path class="st2" d="M213.6,73.2c-1.6,0.1-3.2-0.5-4.4-1.7l-4.2-4.8c-0.1-0.1-0.1-0.2-0.1-0.4c0-0.1,0.1-0.3,0.2-0.3l28.2-22.6
		c0.2-0.2,0.5-0.1,0.7,0.1l4.2,4.8c1.4,1.8,1.2,4.7-0.6,8.1c-2.2,3.8-5.2,7.2-8.7,9.9C223.4,70.8,217.7,73.2,213.6,73.2z
		 M206.2,66.5l3.9,4.4c2.5,3.1,10.8,0.6,18.2-5.3c3.4-2.6,6.3-5.9,8.4-9.6c1.6-3,1.9-5.6,0.8-7l-3.9-4.4L206.2,66.5z"/>
	
		<ellipse transform="matrix(0.7805 -0.6251 0.6251 0.7805 13.7332 149.3623)" class="st3" cx="219.6" cy="55.1" rx="18.1" ry="7.7"/>
	<path class="st2" d="M209.4,68.4c-1.6,0.1-3.2-0.5-4.4-1.7c-2.9-3.6,1.2-11.5,9.3-18c3.4-2.9,7.3-5,11.6-6.4c3.8-1,6.6-0.7,8.1,1.1
		l0,0c2.9,3.6-1.2,11.5-9.3,18C219.2,66,213.5,68.4,209.4,68.4z M229.7,42.8c-1.2,0-2.3,0.2-3.5,0.5c-4.1,1.3-7.9,3.4-11.2,6.1
		c-7.4,6-11.6,13.6-9.2,16.6c2.4,3.1,10.8,0.6,18.2-5.3s11.6-13.6,9.2-16.6l0,0C232.4,43.2,231.1,42.7,229.7,42.8L229.7,42.8z"/>
	<path class="st1" d="M229.1,46.4l-1.9,1.8c-0.1,0.1-0.1,0.2,0,0.2c0.7,0,1.4,0.5,1.7,1.1c0.3,0.7-0.1,1.5-0.9,2.5l-0.7,0.8
		l-3.3-0.2c0.4-0.4,0.7-0.8,0.7-1.1c0-0.2-0.1-0.4-0.2-0.7h-0.1l-3.5,3.3l0.2,0.1c0.6,0.2,1.1,0.5,1.6,0.9c0.7,0.7,0.5,1.7-0.7,2.9
		c-1.1,1.2-2.5,2.2-4,2.8c-1.1,0.5-2.3,0.9-3.6,1c-0.6,0-1.2,0-1.8,0l-1.3,1.2l-2-0.6l1.3-1.2c-0.3-0.2-0.5-0.4-0.8-0.7
		c-0.4-0.5-0.5-1.2-0.2-1.8c0.4-0.8,0.9-1.4,1.5-2l2.1,0.4c-0.8,0.9-1.1,1.6-0.5,2l3.4-3.3c-0.3-0.2-0.6-0.4-0.9-0.6
		c-0.4-0.2-0.6-0.6-0.6-1c0.1-0.6,0.4-1.1,0.8-1.5c0.7-0.8,1.4-1.4,2.2-2c1.3-0.9,2.8-1.6,4.4-2.1c0.6-0.2,1.2-0.2,1.8-0.3h0.2
		l1.8-1.7L229.1,46.4z M215.1,59.6c0.5,0,1.1-0.1,1.6-0.2c1-0.3,2.1-1.2,2.2-1.8s-0.3-0.7-0.6-0.9L215.1,59.6z M222,50.5
		c-0.5,0.2-1,0.2-1.4,0.4c-1.1,0.4-2.2,1.3-2.1,1.8c0,0.3,0.3,0.4,0.6,0.5L222,50.5z"/>
	<path class="st3" d="M169,36.9l-4.5,4.6c-3.1,2.9-0.1,11.2,6.8,18.5s14.9,10.8,18,7.8l4.5-4.6L169,36.9z"/>
	<path class="st2" d="M186.4,69.3c-1.7-0.1-3.3-0.5-4.8-1.2c-4-1.9-7.6-4.6-10.6-7.9c-7.1-7.6-10.1-16-6.7-19.2l4.4-4.5
		c0.1-0.1,0.2-0.2,0.4-0.2c0.1,0,0.3,0.1,0.4,0.2l24.8,26.3c0.2,0.2,0.2,0.5,0,0.7l-4.5,4.6C188.8,68.9,187.6,69.3,186.4,69.3z
		 M169,37.6l-4.1,4.2c-2.9,2.7,0.2,10.8,6.8,17.8c2.9,3.2,6.4,5.8,10.3,7.6c3.2,1.4,5.7,1.4,7.1,0.2l4.1-4.2L169,37.6z"/>
	<ellipse transform="matrix(0.728 -0.6856 0.6856 0.728 15.0413 137.9937)" class="st3" cx="181.4" cy="50" rx="7.7" ry="18.1"/>
	<path class="st2" d="M190.8,64.7c-4.1,0-10-3.4-15.4-9c-7.1-7.6-10.1-16-6.7-19.2c1.7-1.6,4.6-1.6,8.2,0c4,1.9,7.6,4.6,10.6,7.9
		c3.1,3.2,5.5,6.9,7.2,11c1.4,3.7,1.2,6.6-0.5,8.1C193.2,64.4,192,64.8,190.8,64.7z M172.1,36.3c-1-0.1-1.9,0.3-2.7,0.9
		c-2.9,2.7,0.2,10.8,6.8,17.8s14.5,10.5,17.3,7.8c1.3-1.2,1.4-3.8,0.2-7.1c-1.6-4-4-7.6-7-10.7c-2.9-3.2-6.4-5.8-10.2-7.6
		C175.1,36.8,173.6,36.4,172.1,36.3z"/>
	<path class="st1" d="M190.9,58.8l-1.9-1.7c-0.1-0.1-0.2-0.1-0.2,0c0,0.7-0.4,1.4-1,1.8c-0.6,0.3-1.5,0.1-2.6-0.7
		c-0.3-0.2-0.6-0.4-0.9-0.7l-0.1-3.3c0.3,0.3,0.7,0.6,1.2,0.6c0.2,0,0.4-0.1,0.6-0.2v-0.1l-3.6-3.2c0,0.1-0.1,0.2-0.1,0.2
		c-0.1,0.6-0.4,1.2-0.8,1.7c-0.6,0.8-1.6,0.6-3-0.5c-1.3-1-2.4-2.3-3.1-3.8c-0.6-1.1-1-2.2-1.2-3.5c-0.1-0.6-0.1-1.2-0.2-1.8
		l-1.3-1.2l0.5-2l1.3,1.2c0.2-0.3,0.4-0.6,0.6-0.8c0.5-0.5,1.2-0.6,1.8-0.3c0.8,0.3,1.5,0.8,2.2,1.4l-0.2,2.1
		c-0.9-0.7-1.7-0.9-2.1-0.3l3.5,3.2c0.2-0.3,0.3-0.7,0.5-1c0.2-0.4,0.5-0.6,0.9-0.6c0.6,0.1,1.1,0.3,1.6,0.7
		c0.8,0.6,1.6,1.3,2.2,2.1c1,1.3,1.9,2.7,2.4,4.2c0.2,0.6,0.3,1.1,0.5,1.7c0,0.1,0,0.1,0,0.2l1.9,1.7L190.9,58.8z M176.6,46
		c0,0.5,0.1,1,0.4,1.5c0.4,1,1.4,2,2,2s0.6-0.4,0.9-0.7L176.6,46z M186.2,52.1c-0.2-0.5-0.3-1-0.5-1.4c-0.5-1.1-1.5-2-2-1.9
		c-0.3,0-0.4,0.3-0.5,0.6L186.2,52.1z"/>
	<path class="st3" d="M225,225.9c-3.6,5.9,0.4,19.1,0.4,19.1l5.3,3.8c7.9,4.7,18.2,2.2,22.9-5.7c4.7-7.9,2.2-18.2-5.7-22.9l-5.9-2.9
		C242,217.4,228.6,220,225,225.9z"/>
	<path class="st2" d="M239.3,251.7c-3.1,0-6.2-0.8-8.8-2.4l-5.3-3.9c-0.1-0.1-0.1-0.2-0.2-0.3c-0.2-0.6-4-13.4-0.4-19.5l0,0
		c3.6-6,16.8-8.7,17.4-8.8c0.1,0,0.2,0,0.3,0l5.9,2.9c8.1,4.9,10.8,15.4,5.9,23.6C251,248.5,245.3,251.7,239.3,251.7L239.3,251.7z
		 M225.9,244.7l5.1,3.7c7.7,4.5,17.6,2,22.2-5.7c4.5-7.6,2-17.4-5.5-22l-5.7-2.8c-1.5,0.3-13.4,3-16.6,8.3l0,0
		C222.2,231.5,225.4,243.2,225.9,244.7L225.9,244.7z"/>
	<circle class="st3" cx="235.7" cy="232.4" r="16.7"/>
	<path class="st2" d="M235.7,249.5c-3.1,0-6.2-0.8-8.8-2.5c-8.1-4.9-10.8-15.5-5.9-23.6c4.9-8.1,15.5-10.8,23.6-5.9l0,0l0,0
		c8.1,4.9,10.8,15.4,5.9,23.6C247.3,246.4,241.7,249.6,235.7,249.5L235.7,249.5z M235.7,216.2c-8.9,0-16.2,7.2-16.2,16.2
		c0,8.9,7.2,16.2,16.2,16.2c8.9,0,16.2-7.2,16.2-16.2c0-5.7-3-11-7.8-13.9C241.5,217,238.6,216.2,235.7,216.2L235.7,216.2z"/>
	<path class="st1" d="M226.3,224.7c0.7,0.4,1.4,0.8,2.1,1.2c0.1,0.1,0.2,0.1,0.3-0.1c0.8-0.9,1.8-1.6,3-2c1.2-0.4,2.5-0.4,3.7,0.1
		c0.3,0.1,0.6,0.3,1,0.4l-1.9,3.2c-0.5-0.3-1.1-0.4-1.6-0.3c-0.4,0.1-0.9,0.3-1.3,0.4v0.1l4,2.4l0.3-0.3c0.7-0.8,1.5-1.4,2.3-2
		c1.3-0.9,3-1.1,4.4-0.4c1.3,0.5,2.4,1.6,3,2.9c0.5,1.1,0.6,2.3,0.3,3.5c-0.1,0.7-0.4,1.4-0.6,2.2l1.6,0.9l-1.8,3l-1.6-1
		c-0.5,0.5-1,1-1.5,1.4c-1,0.9-2.3,1.4-3.6,1.4c-1.1,0-2.3-0.3-3.2-0.9l1.9-3.2c1.2,0.6,2.6,0.4,3.5-0.5l-4.3-2.6
		c-0.5,0.5-1,1-1.6,1.5c-0.6,0.6-1.4,1.1-2.2,1.3c-0.9,0.2-1.8,0.2-2.6-0.2c-1-0.4-1.9-1-2.6-1.9c-1-1.2-1.4-2.9-1.1-4.4
		c0.1-0.6,0.3-1.2,0.5-1.9c0-0.1,0-0.1,0.1-0.2l-2.2-1.3L226.3,224.7z M242.4,234.4c0.2-0.5,0.3-1.1,0.2-1.7c-0.2-1-1.1-1.7-2.1-1.6
		c-0.7,0.2-1.3,0.6-1.8,1.1L242.4,234.4z M229.4,230.6c-0.1,0.5-0.1,1-0.1,1.5c0.1,1,1,1.8,2,1.7c0.1,0,0.2,0,0.3-0.1
		c0.5-0.2,1-0.6,1.4-1L229.4,230.6z"/>
	<path class="st3" d="M166.5,222.5c-6.8-1.4-17.9,6.8-17.9,6.8l-1.9,6.2c-1.9,9,4,17.9,13,19.7c9,1.9,17.9-4,19.7-13l0,0l0.8-6.5
		C180.2,235.8,173.2,223.9,166.5,222.5z"/>
	<path class="st2" d="M163.2,256.1c-9.5,0-17.2-7.7-17.2-17.2c0-1.2,0.1-2.3,0.3-3.5l1.9-6.3c0-0.1,0.1-0.2,0.2-0.3
		c0.5-0.3,11.3-8.2,18.2-6.8l0,0c6.9,1.4,13.8,13,14.1,13.5c0,0.1,0.1,0.2,0.1,0.3l-0.8,6.5C178.4,250.3,171.3,256.1,163.2,256.1
		L163.2,256.1z M149.1,229.6l-1.8,6.1c-1.8,8.8,3.9,17.3,12.6,19.1c8.8,1.8,17.3-3.9,19.1-12.6l0.7-6.3c-0.8-1.3-7.2-11.6-13.3-12.9
		l0,0C160.3,221.8,150.3,228.7,149.1,229.6z"/>
	<circle class="st3" cx="164" cy="234.7" r="16.7"/>
	<path class="st2" d="M164,251.9c-9.5,0.1-17.3-7.4-17.5-16.9c-0.1-9.5,7.4-17.3,16.9-17.5c1.3,0,2.6,0.1,3.9,0.4
		c9.3,1.9,15.3,11,13.4,20.3l0,0C179.1,246.2,172.1,251.9,164,251.9z M163.9,218.5c-8.9,0-16.2,7.3-16.1,16.2
		c0,8.9,7.3,16.2,16.2,16.1c7.7,0,14.2-5.4,15.8-12.9l0.5,0.1l-0.5-0.1c1.8-8.8-3.9-17.3-12.6-19.1
		C166.1,218.7,165,218.5,163.9,218.5L163.9,218.5z"/>
	<path class="st1" d="M168.1,223.4c-0.2,0.8-0.3,1.6-0.5,2.4c0,0.2,0,0.2,0.1,0.3c1.1,0.5,2.1,1.2,2.9,2.1c0.8,1,1.2,2.2,1.1,3.5
		c0,0.3-0.1,0.7-0.1,1.1L168,232c0.1-0.6,0-1.1-0.2-1.6c-0.2-0.4-0.5-0.7-0.8-1.1h-0.1l-0.9,4.6l0.4,0.2c1,0.4,1.9,0.9,2.7,1.5
		c1.3,0.9,2,2.4,1.8,4c-0.1,1.4-0.7,2.8-1.8,3.8c-0.9,0.8-2,1.3-3.1,1.5c-0.7,0.1-1.5,0.1-2.2,0.1l-0.4,1.8l-3.4-0.7l0.4-1.8
		c-0.6-0.3-1.3-0.6-1.9-0.9c-1.2-0.6-2.1-1.7-2.6-2.9c-0.4-1.1-0.5-2.2-0.2-3.3l3.6,0.8c-0.2,1.3,0.5,2.6,1.7,3.1
		c0.3-1.7,0.7-3.3,1-4.9c-0.6-0.3-1.3-0.7-1.9-1c-0.8-0.4-1.5-1-2-1.7c-0.5-0.7-0.7-1.6-0.7-2.5c0-1.1,0.3-2.2,0.9-3.1
		c0.8-1.4,2.2-2.3,3.8-2.5c0.6-0.1,1.3-0.1,1.9-0.1h0.2l0.5-2.5L168.1,223.4z M164.3,241.7c0.6,0,1.1-0.1,1.6-0.4
		c0.9-0.5,1.2-1.6,0.8-2.5c-0.4-0.6-1-1.1-1.6-1.4L164.3,241.7z M163.5,228.3c-0.5,0.1-1,0.2-1.4,0.4c-0.9,0.4-1.3,1.5-0.9,2.4
		c0,0.1,0.1,0.2,0.1,0.3c0.4,0.4,0.9,0.8,1.4,1L163.5,228.3z"/>
	<path class="st3" d="M215.6,99.4c-1.7-4.8-4.9-11.6-9.2-14c-7-3.8-21.9,1.6-21.9,1.6l-4.1,6.3c-1,1.9-1.7,3.9-2,6L215.6,99.4z"/>
	<path class="st2" d="M215.6,99.9h-37.3c-0.1,0-0.3-0.1-0.4-0.2c-0.1-0.1-0.1-0.3-0.1-0.4c0.3-2.2,1.1-4.3,2.1-6.2l4.1-6.3
		c0.1-0.1,0.1-0.2,0.2-0.2c0.6-0.2,15.2-5.4,22.3-1.6c4.4,2.4,7.6,9,9.5,14.2c0.1,0.3,0,0.5-0.3,0.6
		C215.8,99.8,215.7,99.9,215.6,99.9L215.6,99.9z M179,98.9h36c-1.8-4.9-4.8-10.9-8.8-13c-6.4-3.4-19.8,1-21.4,1.6l-4,6.2
		C180,95.2,179.4,97,179,98.9L179,98.9z"/>
	<path class="st3" d="M218.8,99.4c0.8-10.6-7.2-19.8-17.8-20.6c-10.6-0.8-19.8,7.2-20.6,17.8c-0.1,0.9-0.1,1.8,0,2.8H218.8z"/>
	<path class="st2" d="M218.8,99.9h-38.3c-0.3,0-0.5-0.2-0.5-0.5c-0.8-10.9,7.4-20.3,18.3-21.1c10.9-0.8,20.3,7.4,21.1,18.3
		c0.1,0.9,0.1,1.9,0,2.8C219.3,99.7,219.1,99.9,218.8,99.9z M181,98.9h37.4c0.5-10.3-7.5-19.1-17.8-19.6s-19.1,7.5-19.6,17.8
		C180.9,97.7,180.9,98.3,181,98.9L181,98.9z"/>
	<path class="st1" d="M195.1,97.1c0.6,0.6,1.2,1.2,1.8,1.8l-0.3,0.5h7.1c-0.4-0.4-0.9-0.9-1.4-1.3l-0.4-0.3l2.5-4.8h0.1
		c0.2,0.5,0.4,0.9,0.5,1.4c0.1,0.6,0,1.3-0.3,1.9l3.8,2c0.1-0.4,0.3-0.8,0.4-1.1c0.5-1.4,0.4-2.9-0.1-4.3c-0.5-1.3-1.4-2.4-2.5-3.3
		c-0.1-0.1-0.2-0.2-0.1-0.3c0.4-0.8,0.9-1.7,1.3-2.5l-3.5-1.8l-1.4,2.5l-0.2-0.1c-0.7-0.2-1.4-0.4-2.2-0.5c-1.8-0.3-3.7,0.3-5.1,1.5
		c-0.9,0.8-1.6,1.9-2,3.2c-0.3,1-0.4,2-0.1,3C193.8,95.6,194.4,96.4,195.1,97.1z M199.6,90.8c0.6,0,1.1,0,1.7,0
		c-0.8,1.5-1.5,2.8-2.3,4.2c-0.5-0.4-0.9-0.9-1.2-1.5c-0.3-1.1,0.3-2.3,1.4-2.6C199.4,90.8,199.5,90.8,199.6,90.8z"/>
	<path class="st2" d="M224.5,99.9h-50.2c-0.3,0-0.5-0.2-0.5-0.5s0.2-0.5,0.5-0.5h50.2c0.3,0,0.5,0.2,0.5,0.5S224.8,99.9,224.5,99.9
		L224.5,99.9z"/>
</g>
</svg>
