<svg xmlns="http://www.w3.org/2000/svg" viewBox="0 0 400 300"><g id="_008" data-name="008"><path d="M86.52,105.85h-.08a.46.46,0,0,1-.38-.53l9.66-57.2-30.6,4-2.56,10.2a.45.45,0,0,1-.4.35L36.64,65.3a.46.46,0,1,1-.1-.92l25.21-2.59,2.55-10.2a.47.47,0,0,1,.39-.35l31.53-4.12a.47.47,0,0,1,.39.13.45.45,0,0,1,.12.4L87,105.46A.46.46,0,0,1,86.52,105.85Z" fill="#d1d3d4"/><path d="M366.42,165.69h-.08L33.51,110a.46.46,0,0,1-.38-.53.46.46,0,0,1,.53-.38l332.83,55.72a.46.46,0,0,1-.07.91Z" fill="#d1d3d4"/><ellipse cx="74.42" cy="151.34" rx="11.43" ry="3.3" fill="#d1d3d4"/><path d="M318.75,247.49l11.71,3.82s3,11.44,4.36,10.62,1.09-22.34,1.09-22.34l-16.35-5.72" fill="#fff"/><path d="M334.67,262.47a1,1,0,0,1-.32-.06c-1.51-.62-3.59-8-4.3-10.71L318.59,248a.51.51,0,0,1-.32-.63.5.5,0,0,1,.63-.32l11.72,3.81a.49.49,0,0,1,.32.35c1.17,4.45,2.86,9.44,3.68,10.22.62-1.41.9-11.79.79-21.45l-16-5.6a.5.5,0,0,1,.33-.95l16.34,5.72a.52.52,0,0,1,.34.47c.1,8.14.06,21.93-1.33,22.77A.87.87,0,0,1,334.67,262.47Z" fill="#231f20"/><path d="M246.41,235.42l-4.91,9.87s-16.51-2.56-15.09.3,23.52,16,23.52,16l8.86-18.55" fill="#fff"/><path d="M249.93,262.11a.52.52,0,0,1-.25-.07c-2.28-1.36-22.27-13.33-23.72-16.23a1.07,1.07,0,0,1,.06-1.15c1.34-1.83,11.53-.47,15.2.08l4.75-9.55a.5.5,0,0,1,.67-.22.5.5,0,0,1,.22.67L242,245.52a.51.51,0,0,1-.52.27c-7.42-1.15-14.24-1.4-14.61-.53h0a.24.24,0,0,0,0,.1c1,2,14,10.26,22.86,15.54l8.62-18.06a.5.5,0,0,1,.91.43l-8.87,18.55a.53.53,0,0,1-.3.27Z" fill="#231f20"/><path d="M271.35,163.05l-28.87,74.09,16.34,14.17L292.33,196s-4.08,29.57,4.35,41.13C306.22,250.22,321.2,251,321.2,251l3-17.43s-13.16-3.9-12.8-19.16,4.36-41.4,4.36-41.4Z" fill="#231f20"/><path d="M288.31,88.72S284.3,94,285,95.2s3.24.6,3.24.6" fill="#fff"/><path d="M286.87,96.45a2.53,2.53,0,0,1-2.32-1c-.76-1.33,2.1-5.36,3.36-7a.5.5,0,0,1,.8.61c-2,2.63-3.54,5.41-3.29,5.93s2,.52,2.69.35a.5.5,0,0,1,.6.38.5.5,0,0,1-.37.6A7.23,7.23,0,0,1,286.87,96.45Z" fill="#231f20"/><path d="M246.65,123.05s1.69,3.91,12,5.14c5.55.66,19.69,1.11,19.69,1.11l8.77-13.23s-16.75,10.89-43.57-2C230.91,108,246.65,123.05,246.65,123.05Z" fill="#fff"/><path d="M278.38,129.8h0c-.14,0-14.22-.46-19.73-1.12-9.71-1.14-12-4.67-12.38-5.33-3.49-3.34-9.07-9.12-7.92-10.78.59-.85,2.17-.54,5.47,1,26.23,12.62,42.91,2.14,43.08,2a.5.5,0,0,1,.69.69l-8.77,13.24A.51.51,0,0,1,278.38,129.8Zm-31.27-7c0,.07,1.83,3.69,11.64,4.85,5,.6,17.36,1,19.37,1.1l7.54-11.37c-5,2.34-20.45,7.6-42.29-2.91-3.63-1.74-4.21-1.37-4.23-1.36-.3.78,3.29,5.16,7.86,9.54A.53.53,0,0,1,247.11,122.84Z" fill="#231f20"/><path d="M289.56,81.47c-2.44,1.75-2,5.8-2.18,8.41q-.31,5.5-.37,11c0,2.33,6,2.77,7.1,2.14l-1.53,9.13,13-4,.28-10.63s-4-.23-6-5.12-1.48-12.17-1.48-12.17S292,79.77,289.56,81.47Z" fill="#fff"/><path d="M292.58,112.68a.51.51,0,0,1-.33-.13.5.5,0,0,1-.17-.46l1.41-8.36a10.43,10.43,0,0,1-5.72-.94,2.15,2.15,0,0,1-1.26-1.89c0-3.67.17-7.39.37-11,0-.44,0-.92.05-1.41,0-2.58.1-5.78,2.34-7.38,2.51-1.79,8.81-1.36,9.08-1.35a.51.51,0,0,1,.47.54c0,.07-.54,7.22,1.44,11.94,1.89,4.52,5.44,4.8,5.59,4.81a.5.5,0,0,1,.47.51L306,108.15a.52.52,0,0,1-.35.47l-13,4Zm1.53-10.13a.52.52,0,0,1,.29.09.47.47,0,0,1,.2.49l-1.4,8.33,11.85-3.69.26-9.83c-1.18-.23-4.24-1.2-6-5.36s-1.63-10.12-1.54-11.88c-1.51-.06-6.09-.14-7.94,1.18h0c-1.83,1.31-1.88,4.23-1.92,6.58,0,.52,0,1-.05,1.45-.21,3.64-.33,7.34-.37,11,0,.37.25.71.77,1a9,9,0,0,0,5.58.7A.47.47,0,0,1,294.11,102.55Zm-4.55-21.08h0Z" fill="#231f20"/><path d="M287,109.22c-6.6,5-23.37,18.42-23.37,18.42l7.86,17.16,6.07-4.59-6.21,22.84s28.38,21.33,42.71,12.92c0,0,6.6-51.63,1.82-63S293.59,104.22,287,109.22Z" fill="#ff0440"/><path d="M316.34,117.64a17.21,17.21,0,0,0-7.62-11.49,51,51,0,0,1,6.71,2.62s5.11,2.27,6.14,9.89l-4.89-.23" fill="#231f20"/><path d="M326.23,117.29s-15.31-7-22.3-3.24-20.77,50.15-20.57,52.71,10.51,8.64,21.62,9.83,14.6.34,16.25-1.53S328,152.89,327,148.79s-3.93-4-3.93-4S330.14,121.39,326.23,117.29Z" fill="#231f20"/><path d="M287.91,162.78l-.41-.81L277,141.29l-1.45,7.33s5.55,16.89,9.81,20.64" fill="#231f20"/><path d="M287.29,99.21s2.73,1.94,4.43-.91" fill="#fff"/><path d="M289.29,100.35a4.32,4.32,0,0,1-2.29-.73.49.49,0,0,1-.12-.69.51.51,0,0,1,.7-.13,3.1,3.1,0,0,0,2.15.51,2.47,2.47,0,0,0,1.56-1.26.51.51,0,0,1,.69-.18.5.5,0,0,1,.17.69,3.4,3.4,0,0,1-2.22,1.73A3.55,3.55,0,0,1,289.29,100.35Z" fill="#231f20"/><path d="M297.31,91a5,5,0,0,1,1.19-2.45A7,7,0,0,1,299.94,87a2.39,2.39,0,0,1,2-.48,2.25,2.25,0,0,1,1.37,1.23,4.17,4.17,0,0,1,.34,1.85,7.89,7.89,0,0,1-4.08,6.75l.22-.21" fill="#fff"/><path d="M299.58,96.85a.5.5,0,0,1-.34-.86l.21-.21a.51.51,0,0,1,.34-.14,7.41,7.41,0,0,0,3.37-6,3.77,3.77,0,0,0-.29-1.64,1.76,1.76,0,0,0-1.05-1,1.94,1.94,0,0,0-1.59.4,6.94,6.94,0,0,0-1.33,1.47,4.54,4.54,0,0,0-1.09,2.2.5.5,0,0,1-1-.08,5.5,5.5,0,0,1,1.29-2.71,7.62,7.62,0,0,1,1.54-1.69,2.9,2.9,0,0,1,2.45-.55,2.69,2.69,0,0,1,1.68,1.5,4.64,4.64,0,0,1,.39,2.07,8.42,8.42,0,0,1-4.35,7.18A.46.46,0,0,1,299.58,96.85Z" fill="#231f20"/><path d="M307.17,102.5a.64.64,0,0,1-.59-.35.6.6,0,0,1,.15-.67.57.57,0,0,1,.67,0,7.39,7.39,0,0,0,4.28-4c2.29-4.92,2.14-11.91-.38-17.38a8.81,8.81,0,0,0-3.79-4.48c-1.6-.79-4-.6-5,1a.5.5,0,0,1-.92-.25c-.1-2.11-2.17-3.67-4.11-4a9.9,9.9,0,0,0-6.24,1.54c-.8.44-1.58.94-2.35,1.43a33.35,33.35,0,0,1-3.6,2.07,4.32,4.32,0,0,1-3.32.25l-.12-.06a9.67,9.67,0,0,0,.74,4.59c.8,1.58,2.81,2.83,4.45,2.08a.5.5,0,0,1,.66.25.51.51,0,0,1-.25.66c-2.17,1-4.73-.51-5.75-2.54s-.89-4.41-.8-6.33a.49.49,0,0,1,.44-.47.49.49,0,0,1,.54.35.81.81,0,0,0,.5.55,3.4,3.4,0,0,0,2.49-.24,32.81,32.81,0,0,0,3.49-2c.77-.49,1.57-1,2.4-1.45a10.81,10.81,0,0,1,6.87-1.66,6,6,0,0,1,4.77,3.82,5.3,5.3,0,0,1,5.57-.48,9.64,9.64,0,0,1,4.25,5c2.65,5.73,2.8,13,.38,18.23a8.26,8.26,0,0,1-5.19,4.65Z" fill="#231f20"/><path d="M294.11,103.05a9.88,9.88,0,0,0,4.78-2.81s-.57,5.57-5.46,6.88Z" fill="#231f20"/><path d="M293.43,107.62a.51.51,0,0,1-.34-.13.56.56,0,0,1-.16-.46l.69-4.06a.5.5,0,0,1,.37-.41,9.26,9.26,0,0,0,4.5-2.63.5.5,0,0,1,.89.36c0,.06-.66,5.93-5.82,7.31Zm1.12-4.17-.49,2.93a7.13,7.13,0,0,0,4-4.63A11.76,11.76,0,0,1,294.55,103.45Z" fill="#231f20"/><path d="M286.2,109.68c6.83,2,13.76,2.38,17.63,11.48l5-2.27s-3-10-16.83-12.85C292,106,288.76,105.75,286.2,109.68Z" fill="#231f20"/><path d="M232.53,127.22c-1.37-6.36-6.43-31.11-7.77-37.66a1.25,1.25,0,0,1,1.3-1.5l15.26,1a2,2,0,0,1,1.79,1.6l6.42,35.79a1.14,1.14,0,0,1-1,1.34l-14.1.85A1.79,1.79,0,0,1,232.53,127.22Z" fill="#231f20"/><polygon points="226.68 90.33 234.31 126.01 247.11 125.87 240.71 91.14 226.68 90.33" fill="#fff"/><path d="M234.31,126.51a.5.5,0,0,1-.49-.4l-7.63-35.68a.52.52,0,0,1,.11-.43.5.5,0,0,1,.41-.17l14,.81a.51.51,0,0,1,.46.41l6.4,34.73a.49.49,0,0,1-.1.41.53.53,0,0,1-.38.18l-12.81.14Zm-7-35.65,7.4,34.64,11.8-.12-6.22-33.76Z" fill="#231f20"/><path d="M271.08,142.62a30.3,30.3,0,0,1-17.88,4.89c-6.08-.41-11.21-5.58-15.3-9.6a170.08,170.08,0,0,1-13.15-15.1c-.78-1-1.43-2.66-.32-3.22a3.17,3.17,0,0,1,.89-4.72c-.35-.83-.71-2.49-.2-3.33,0,0,1-1.51,1.1-.68a8.06,8.06,0,0,1,1.37-4.31l1.87,5c.17-1.09,1.77-.29,2.85,1.25s1.42,4.71,1.53,5c0,0,15.09,18.69,20.72,17.16a50.29,50.29,0,0,0,10.71-4.54" fill="#fff"/><path d="M254.94,148.07q-.87,0-1.77-.06c-6.12-.41-11.22-5.42-15.33-9.45l-.29-.29a168.25,168.25,0,0,1-13.19-15.15,4,4,0,0,1-1-2.92,1.55,1.55,0,0,1,.36-.71,3.71,3.71,0,0,1,1-4.83c-.28-.87-.6-2.43,0-3.38a3.29,3.29,0,0,1,1-1.08,9.31,9.31,0,0,1,1.45-3.93.5.5,0,0,1,.47-.22.49.49,0,0,1,.41.32l1.59,4.18.1,0c.94-.23,2.21.84,3,1.93a12.81,12.81,0,0,1,1.51,4.64c0,.19.06.33.07.42,4.2,5.18,15.8,18.1,20.13,16.9a49.75,49.75,0,0,0,10.6-4.48.49.49,0,0,1,.68.17.51.51,0,0,1-.18.69,51.25,51.25,0,0,1-10.83,4.59C248.9,137,235,120,233.45,118.06a.75.75,0,0,1-.07-.12,3.36,3.36,0,0,1-.14-.66A12.43,12.43,0,0,0,231.9,113c-.81-1.14-1.73-1.6-1.94-1.53a.55.55,0,0,1-.44.46.48.48,0,0,1-.52-.29l-1.5-4a6.3,6.3,0,0,0-.78,3.1h0a.5.5,0,0,1-.76.47,3.63,3.63,0,0,0-.42.53,4.09,4.09,0,0,0,.24,2.86.5.5,0,0,1-.23.64,2.52,2.52,0,0,0-1.27,1.8,2.49,2.49,0,0,0,.52,2.13.49.49,0,0,1,.12.43.52.52,0,0,1-.26.35.54.54,0,0,0-.3.39,3.07,3.07,0,0,0,.78,2.08,169.64,169.64,0,0,0,13.11,15.06l.29.29c4,3.91,9,8.77,14.69,9.16,9.74.66,17.48-4.74,17.56-4.79a.5.5,0,1,1,.58.81A30.73,30.73,0,0,1,254.94,148.07Z" fill="#231f20"/><path d="M252.6,117.84s-6.48-6.13-7.45-5.09,1.6,3.84,3,5.44,3,3.69,3,3.69" fill="#fff"/><path d="M251.14,122.38a.51.51,0,0,1-.4-.2s-1.61-2.09-3-3.66l-.29-.34c-1.74-2-3.91-4.46-2.69-5.77a.94.94,0,0,1,.65-.28h0c1.75,0,6.54,4.45,7.48,5.35a.5.5,0,1,1-.68.72c-3-2.88-6.16-5.21-6.81-5.06-.54.6,1.87,3.34,2.77,4.38l.3.34c1.39,1.6,3,3.69,3,3.72a.5.5,0,0,1-.09.7A.49.49,0,0,1,251.14,122.38Z" fill="#231f20"/><path d="M277,141.29s8-7.51,12.11-10.58" fill="#fff"/><path d="M277,141.79a.52.52,0,0,1-.36-.16.5.5,0,0,1,0-.71c.08-.07,8.09-7.56,12.15-10.61a.51.51,0,0,1,.7.1.5.5,0,0,1-.1.7c-4,3-12,10.47-12.07,10.54A.48.48,0,0,1,277,141.79Z" fill="#231f20"/><path d="M292.33,166.82h-.07a.51.51,0,0,1-.43-.56c.09-.7,2.25-17.09,6.11-21.51s22.58-.34,23.37-.16a.5.5,0,0,1-.22,1c-5.23-1.19-19.43-3.55-22.4-.16-3.67,4.2-5.85,20.82-5.87,21A.5.5,0,0,1,292.33,166.82Z" fill="#fff"/><path d="M304,139.6a.45.45,0,0,1-.16,0,.49.49,0,0,1-.32-.62,130.78,130.78,0,0,0,3.84-13.64,7.39,7.39,0,0,0-.06-4.49,2.88,2.88,0,0,0-1.8-1.52,1.71,1.71,0,0,0-1.46.19.5.5,0,0,1-.69-.12.51.51,0,0,1,.13-.7,2.7,2.7,0,0,1,2.28-.33,3.87,3.87,0,0,1,2.45,2.07,8.24,8.24,0,0,1,.13,5.1,130.61,130.61,0,0,1-3.87,13.74A.5.5,0,0,1,304,139.6Z" fill="#fff"/><circle cx="315.66" cy="158.24" r="1.73" fill="#fff"/><path d="M236.94,112.06c-.22-.46-.45-.91-.67-1.35-.71-1.44-1.41-2.88-2.13-4.31a3.49,3.49,0,0,1-.43-1.67,3.24,3.24,0,0,1,6.37-.75,3.14,3.14,0,0,1-.24,2.25l-1.79,3.6L237,112A.41.41,0,0,1,236.94,112.06Zm0-5.66a1.62,1.62,0,0,0,0-3.24,1.62,1.62,0,0,0,0,3.24Z" fill="#ff0440"/><path d="M292.87,194.6a.5.5,0,0,1-.26-.92c.06,0,6.35-4.06,7.39-11.36a.51.51,0,0,1,.57-.42.5.5,0,0,1,.42.56c-1.11,7.77-7.58,11.9-7.86,12.07A.48.48,0,0,1,292.87,194.6Z" fill="#fff"/><path d="M197.52,251.56a1,1,0,0,1,0-2,74.93,74.93,0,0,0,9.81-1,1,1,0,0,1,.33,2,77.17,77.17,0,0,1-10.08,1Zm-10-.41h-.13a33.25,33.25,0,0,1-9.93-2.63,1,1,0,0,1-.48-1.33,1,1,0,0,1,1.33-.48,31.6,31.6,0,0,0,9.33,2.46,1,1,0,0,1-.12,2ZM220,248.06a.9.9,0,0,1-.52-.15c-.45-.27-1.05-.25-2.06.08a1,1,0,1,1-.62-1.9,4.22,4.22,0,0,1,3.73.12,1,1,0,0,1,.32,1.38A1,1,0,0,1,220,248.06Zm-48.44-6.71a1,1,0,0,1-1-.72,38.49,38.49,0,0,1-1.13-7.59c-.07-.83-.13-1.66-.22-2.49a1,1,0,0,1,2-.2c.09.84.16,1.69.23,2.53a36,36,0,0,0,1.05,7.19,1,1,0,0,1-.68,1.24A1,1,0,0,1,171.57,241.35Zm-66.72-9.53a24,24,0,0,1-4-.33,1,1,0,1,1,.34-2,25.47,25.47,0,0,0,9.55-.36,1,1,0,1,1,.43,2A29.17,29.17,0,0,1,104.85,231.82Zm15.51-3.94A1,1,0,0,1,120,226c1.34-.58,2.67-1.18,4-1.79,1.59-.73,3.24-1.48,4.88-2.18l.28-.12a1,1,0,1,1,.77,1.85l-.26.11c-1.62.69-3.26,1.43-4.84,2.16-1.33.61-2.67,1.22-4,1.81A1.1,1.1,0,0,1,120.36,227.88Zm-28.23-.66a1,1,0,0,1-.71-.29,21.17,21.17,0,0,1-5-9.14,1,1,0,0,1,.68-1.24,1,1,0,0,1,1.24.69,19.22,19.22,0,0,0,4.46,8.28,1,1,0,0,1-.71,1.7Zm75.08-5.14a1,1,0,0,1-.78-.38q-.3-.37-.66-.75a12.32,12.32,0,0,0-7.34-3.37,1,1,0,1,1,.27-2,14.23,14.23,0,0,1,8.5,4c.28.3.55.6.8.91a1,1,0,0,1-.79,1.62Zm-28.31-1.65a1,1,0,0,1-.28-2,93.76,93.76,0,0,1,9.73-2.36l.27,1,.18,1a93.51,93.51,0,0,0-9.61,2.32A1,1,0,0,1,138.9,220.43ZM86.3,208.62h-.06a1,1,0,0,1-.94-1.06,19.29,19.29,0,0,1,2.91-9.77l.13-.2a1,1,0,0,1,1.39-.24,1,1,0,0,1,.25,1.4l-.12.16a17.46,17.46,0,0,0-2.56,8.77A1,1,0,0,1,86.3,208.62Zm10.42-15.89a1,1,0,0,1-.53-1.85l1.57-1,7-4.22a1,1,0,1,1,1,1.71l-7,4.23-1.54.94A1,1,0,0,1,96.72,192.73Zm17.09-10.39a1,1,0,0,1-.56-1.84,23.8,23.8,0,0,0,6.17-5.46,12.36,12.36,0,0,0,.72-1.06,1,1,0,0,1,1.38-.33,1,1,0,0,1,.33,1.37,12.48,12.48,0,0,1-.83,1.22,25.72,25.72,0,0,1-6.66,5.93A1,1,0,0,1,113.81,182.34Zm8.67-16.42a1,1,0,0,1-1-.68,7.66,7.66,0,0,0-.51-1.17c-1.36-2.49-4.09-4-6-4.95a1,1,0,1,1,.86-1.8c2.18,1.05,5.28,2.79,6.91,5.79a9.5,9.5,0,0,1,.66,1.49,1,1,0,0,1-.63,1.27A1.25,1.25,0,0,1,122.48,165.92ZM106,155.81a1.07,1.07,0,0,1-.25,0,53.79,53.79,0,0,0-9.67-1.61,1,1,0,0,1,.15-2,54.29,54.29,0,0,1,10,1.67,1,1,0,0,1-.26,2Z" fill="#d1d3d4"/><path d="M173.57,121h-.07a.47.47,0,0,1-.39-.52L181.28,60a.46.46,0,0,1,.43-.4l69.46-4.08a.45.45,0,0,1,.37.15.47.47,0,0,1,.11.38l-4.08,26.15a.47.47,0,0,1-.53.38.46.46,0,0,1-.38-.53l4-25.58-68.51,4L174,120.62A.46.46,0,0,1,173.57,121Z" fill="#d1d3d4"/><path d="M350.89,108.88h0a.46.46,0,0,1-.42-.5l5.95-68.14L253.51,38.5l-4.85,38.81a.48.48,0,0,1-.52.4.46.46,0,0,1-.4-.52L252.65,38a.43.43,0,0,1,.46-.4l103.78,1.74a.53.53,0,0,1,.34.15.51.51,0,0,1,.11.35l-6,68.64A.47.47,0,0,1,350.89,108.88Z" fill="#d1d3d4"/><path d="M75,145.41l-5-10.15C64.67,124.49,59.4,113.69,54,103a26.75,26.75,0,0,1-3.22-12.5,24.26,24.26,0,0,1,47.77-5.61,23.65,23.65,0,0,1-1.83,16.82l-13.41,27q-3.93,7.92-7.85,15.86C75.33,144.81,75.2,145.05,75,145.41ZM75,103a12.14,12.14,0,1,0-12.1-12.14A12.17,12.17,0,0,0,75,103Z" fill="#ff0440"/><path d="M133.45,115.61l-.11,0A.45.45,0,0,1,133,115l6.38-27.4a.46.46,0,0,1,.37-.35l34.91-6a.47.47,0,0,1,.53.38.45.45,0,0,1-.37.53l-34.61,6-6.32,27.11A.47.47,0,0,1,133.45,115.61Z" fill="#d1d3d4"/></g></svg>