<svg xmlns="http://www.w3.org/2000/svg" viewBox="0 0 400 300"><g id="_298_new_message_flatline" data-name="#298_new_message_flatline"><path d="M260.06,254.49l13.09-64.75L277.47,150S234,107.29,221.58,93.3s-26.41-34.06-32.81-32.56-7.63,8.8-3.44,17.79c1.72,3.69,4.33,7.79,5.51,11.61,1,3.11.67,11.87-2.34,14.07-3.61,2.64-7.06-10.12-11.64-7.85-2.41,1.19-4.8,7.38-2.74,14a51,51,0,0,0,4.64,9.1c3.77,6.07,3.8,9.86,6.21,16.51,2.48,6.84,1.85-2.4-.46,3.87-2.81,7.61-6.76,16.51-6.93,24.76-.26,13.19,15.62,34.54,22.15,44.95s-6.07,35.13-6.07,35.13Z" fill="#fff"/><path d="M260.06,255H260l-66.41-9.79a.5.5,0,0,1-.37-.26.53.53,0,0,1,0-.46c.13-.25,12.41-24.58,6.1-34.63-1.07-1.71-2.43-3.76-3.86-5.93-7.4-11.2-18.59-28.12-18.37-39.3.14-7.06,3-14.63,5.59-21.31.47-1.23.93-2.44,1.37-3.61a7.62,7.62,0,0,1,1-2.08c-.18-.38-.37-.86-.58-1.45-.82-2.25-1.36-4.15-1.87-6a36.25,36.25,0,0,0-4.3-10.43,50.88,50.88,0,0,1-4.69-9.23c-2.15-6.94.34-13.29,3-14.61s5,1.73,7,4.45a19.65,19.65,0,0,0,2.59,3.11c1,.85,1.58.65,2,.34,2.74-2,3.14-10.4,2.17-13.52a47.1,47.1,0,0,0-3.48-7.58c-.73-1.38-1.42-2.68-2-4-2.68-5.77-3.22-10.87-1.52-14.38a7.62,7.62,0,0,1,5.3-4.11c5.1-1.17,13.77,9.32,23.81,21.48,3.14,3.8,6.39,7.73,9.5,11.24,12.25,13.81,55.42,56.2,55.86,56.63a.49.49,0,0,1,.14.41l-4.31,39.79-13.1,64.79A.49.49,0,0,1,260.06,255ZM194.41,244.3l65.26,9.62,13-64.27,4.28-39.51c-3-3-43.85-43.11-55.73-56.51-3.12-3.52-6.38-7.46-9.52-11.27-9-10.9-18.32-22.19-22.81-21.13a6.52,6.52,0,0,0-4.63,3.57c-1.55,3.18-1,8.11,1.53,13.52.59,1.26,1.27,2.55,2,3.92A48.36,48.36,0,0,1,191.32,90c1,3.11.8,12.19-2.53,14.63-1,.72-2.07.59-3.23-.39a19.12,19.12,0,0,1-2.75-3.28c-1.84-2.52-3.75-5.13-5.73-4.14s-4.52,6.86-2.48,13.42a51.32,51.32,0,0,0,4.58,9,36.77,36.77,0,0,1,4.41,10.69c.51,1.81,1,3.69,1.85,5.91.18.51.35.92.49,1.23a1.15,1.15,0,0,1,.26,0,1.26,1.26,0,0,1,.87,1.3.71.71,0,0,1-.55.79c-.28,0-.56-.06-.89-.54A8.49,8.49,0,0,0,185,140c-.44,1.18-.9,2.4-1.38,3.63-2.52,6.6-5.38,14.08-5.52,21-.21,10.86,10.87,27.63,18.2,38.73,1.44,2.18,2.8,4.23,3.88,5.95C206.26,219,196.37,240.3,194.41,244.3Z" fill="#231f20"/><rect x="176.92" y="46.16" width="80.23" height="159.92" rx="5.11" transform="translate(386.79 311.04) rotate(-162.72)" fill="#fff"/><path d="M228.21,213.61a5.62,5.62,0,0,1-1.66-.25l-66.85-20.8h0a5.63,5.63,0,0,1-3.69-7L200.49,42.59a5.62,5.62,0,0,1,7-3.69l66.84,20.8a5.62,5.62,0,0,1,3.69,7L233.58,209.66A5.64,5.64,0,0,1,228.21,213.61ZM160,191.6l66.84,20.8a4.63,4.63,0,0,0,5.78-3L277.09,66.43a4.62,4.62,0,0,0-3-5.78l-66.84-20.8a4.62,4.62,0,0,0-5.78,3L157,185.83a4.61,4.61,0,0,0,3,5.77Z" fill="#231f20"/><rect x="182.15" y="60.76" width="71.8" height="123.08" transform="translate(389.91 303.86) rotate(-162.72)" fill="#e6e7e8"/><path d="M201.39,200.24a3.69,3.69,0,0,1-1.09-.16l-13-4.06a3.64,3.64,0,0,1-2.39-4.56l1.55-5a3.65,3.65,0,0,1,4.56-2.4l13,4.06a3.65,3.65,0,0,1,2.4,4.56l-1.55,5a3.66,3.66,0,0,1-3.48,2.56Zm-11.5-15.33a2.64,2.64,0,0,0-2.52,1.86l-1.55,5a2.63,2.63,0,0,0,1.74,3.31h0l13,4.06a2.63,2.63,0,0,0,3.31-1.74l1.55-5a2.66,2.66,0,0,0-1.74-3.32l-13-4.05A2.66,2.66,0,0,0,189.89,184.91Z" fill="#d1d3d4"/><path d="M252.46,61.42l-.14,0-19.53-6.07a.5.5,0,0,1,.3-1l19.52,6.07a.51.51,0,0,1,.33.63A.5.5,0,0,1,252.46,61.42Z" fill="#d1d3d4"/><path d="M230.28,54.26l-.15,0-2.62-.82a.5.5,0,0,1,.3-1l2.62.82a.51.51,0,0,1,.33.63A.51.51,0,0,1,230.28,54.26Z" fill="#d1d3d4"/><path d="M195.5,109.58a7,7,0,0,1-6,5.14,14.05,14.05,0,0,1-9.85-2.53,15.37,15.37,0,0,1-4.12-4.29c-1.86-2.91-2.45-6.22-1.3-8.76,1.88-4.15,8.36-5.11,13.94-2.66C193.39,98.77,196.36,105.7,195.5,109.58Z" fill="#fff"/><path d="M187.79,115.35a15.09,15.09,0,0,1-8.43-2.75,15.73,15.73,0,0,1-4.25-4.43c-2-3.16-2.52-6.62-1.34-9.24,1.95-4.28,8.49-5.58,14.6-2.9,5.37,2.35,8.56,9.4,7.61,13.66h0a7.43,7.43,0,0,1-6.4,5.52A10.55,10.55,0,0,1,187.79,115.35ZM182,95.66c-3.38,0-6.25,1.3-7.33,3.69s-.58,5.4,1.26,8.28a14.74,14.74,0,0,0,4,4.15,13.49,13.49,0,0,0,9.47,2.45,6.48,6.48,0,0,0,5.6-4.76c.77-3.46-1.85-10.25-7-12.53A15,15,0,0,0,182,95.66Zm13.48,13.92h0Z" fill="#231f20"/><path d="M188.51,128.56a6.58,6.58,0,0,1-.81,5.69,7.72,7.72,0,0,1-2.86,2.16c-3,1.46-6.59,2-9.57.58a13.55,13.55,0,0,1-4.52-4c-2.17-2.76-4.07-6-4-9.51.12-5.08,5.63-10.85,10.89-8.46C182,116.94,187.26,124.11,188.51,128.56Z" fill="#fff"/><path d="M179.14,138.33a9.28,9.28,0,0,1-4.09-.89,14,14,0,0,1-4.69-4.18c-2.87-3.65-4.17-6.77-4.1-9.83a10.7,10.7,0,0,1,4.9-8.29,6.89,6.89,0,0,1,6.7-.61c4.47,2,9.86,9.34,11.13,13.9h0a7.08,7.08,0,0,1-.89,6.13,8.23,8.23,0,0,1-3,2.3A13.5,13.5,0,0,1,179.14,138.33Zm-4-23.4a6.44,6.44,0,0,0-3.43,1,9.7,9.7,0,0,0-4.43,7.47c-.07,2.82,1.17,5.74,3.88,9.19a13.21,13.21,0,0,0,4.35,3.9c2.54,1.23,5.87,1,9.13-.58a7,7,0,0,0,2.68-2,6.05,6.05,0,0,0,.73-5.25h0c-1.19-4.27-6.42-11.37-10.59-13.26A5.52,5.52,0,0,0,175.12,114.93Z" fill="#231f20"/><path d="M181.14,142.71a9.29,9.29,0,0,1,1.73,3.61,8,8,0,0,1-3.38,7.86,11.34,11.34,0,0,1-8.66,1.59,12.74,12.74,0,0,1-8.56-5.87,10.28,10.28,0,0,1-.12-10.21C167,131.57,176.91,137,181.14,142.71Z" fill="#fff"/><path d="M173.33,156.52a13.64,13.64,0,0,1-2.6-.26,13.25,13.25,0,0,1-8.89-6.11,10.75,10.75,0,0,1-.12-10.72,8.19,8.19,0,0,1,6.74-4.34c4.8-.27,10.23,3.49,13.08,7.32h0a9.69,9.69,0,0,1,1.82,3.81,8.54,8.54,0,0,1-3.58,8.37A11.19,11.19,0,0,1,173.33,156.52Zm-4.4-20.44h-.42a7.14,7.14,0,0,0-5.93,3.85,9.74,9.74,0,0,0,.12,9.7,12.23,12.23,0,0,0,8.23,5.64,10.75,10.75,0,0,0,8.27-1.51,7.52,7.52,0,0,0,3.18-7.35,8.73,8.73,0,0,0-1.64-3.41C178.13,139.5,173.3,136.08,168.93,136.08Z" fill="#231f20"/><polygon points="268.45 260.86 270.58 220.12 192.86 221.09 177.44 260.86 268.45 260.86" fill="#231f20"/><path d="M268.45,261.35h-91a.52.52,0,0,1-.41-.21.5.5,0,0,1-.05-.46l15.42-39.77a.49.49,0,0,1,.46-.32l77.72-1a.43.43,0,0,1,.36.15.5.5,0,0,1,.14.37L269,260.88A.5.5,0,0,1,268.45,261.35Zm-90.28-1H268l2.08-39.74-76.85,1Z" fill="#231f20"/><path d="M272.44,192s12.27-41.1,10-50.7-6.7-48.44-10.69-49.94-12,9.55-11.79,21.64a69.55,69.55,0,0,0,3.42,21s-13.26,5.84-14.75,38.4" fill="#fff"/><path d="M272.44,192.52l-.14,0a.52.52,0,0,1-.34-.63c.13-.41,12.2-41.07,10-50.44-.69-3-1.59-8.66-2.63-15.24-2-12.5-5.25-33.41-7.74-34.34a3.2,3.2,0,0,0-2.75.74c-4.12,2.89-8.49,11.52-8.37,20.43a70,70,0,0,0,3.39,20.8.5.5,0,0,1-.26.63s-3.28,1.51-6.66,6.89c-3.14,5-7,14.44-7.8,31.07a.49.49,0,0,1-.53.48.5.5,0,0,1-.47-.52c1.36-29.67,12.32-37.33,14.64-38.63A72,72,0,0,1,259.48,113c-.13-9.23,4.47-18.22,8.8-21.26a4,4,0,0,1,3.67-.86c2.82,1.06,5.25,15.23,8.38,35.12,1,6.57,1.93,12.24,2.61,15.17,2.26,9.63-9.52,49.28-10,51A.49.49,0,0,1,272.44,192.52Z" fill="#231f20"/><path d="M220.48,58.64H126.2a8.93,8.93,0,0,0-8.93,8.93v62.25a8.93,8.93,0,0,0,8.93,8.94h79.94L219.3,155.5V138.76h1.18a8.93,8.93,0,0,0,8.93-8.94V67.57A8.93,8.93,0,0,0,220.48,58.64Z" fill="#fff"/><path d="M219.3,156a.51.51,0,0,1-.4-.2l-13-16.54H126.2a9.45,9.45,0,0,1-9.43-9.44V67.57a9.44,9.44,0,0,1,9.43-9.43h94.28a9.44,9.44,0,0,1,9.43,9.43v62.25a9.45,9.45,0,0,1-9.43,9.44h-.68V155.5a.51.51,0,0,1-.34.47A.45.45,0,0,1,219.3,156ZM126.2,59.14a8.44,8.44,0,0,0-8.43,8.43v62.25a8.45,8.45,0,0,0,8.43,8.44h79.94a.53.53,0,0,1,.4.19l12.26,15.6V138.76a.5.5,0,0,1,.5-.5h1.18a8.45,8.45,0,0,0,8.43-8.44V67.57a8.44,8.44,0,0,0-8.43-8.43Z" fill="#231f20"/><path d="M204.05,90.09,175.12,68.33a3,3,0,0,0-3.57,0L142.62,90.09V126.7h61.43V90.09Z" fill="#231f20"/><path d="M204.05,127.2H142.62a.49.49,0,0,1-.49-.49V90.09a.49.49,0,0,1,.2-.4l28.92-21.75a3.47,3.47,0,0,1,4.17,0l28.93,21.75a.52.52,0,0,1,.2.4v36.62a.49.49,0,0,1-.15.35A.5.5,0,0,1,204.05,127.2Zm-60.93-1h60.43V90.34L174.83,68.73a2.49,2.49,0,0,0-3,0L143.12,90.34Z" fill="#231f20"/><rect x="148.36" y="78.11" width="48.43" height="45.87" fill="#fff"/><path d="M196.79,124.44H148.36a.46.46,0,0,1-.46-.46V78.11a.46.46,0,0,1,.46-.46h48.43a.47.47,0,0,1,.46.46V124A.47.47,0,0,1,196.79,124.44Zm-48-.91h47.52v-45H148.81Z" fill="#231f20"/><path d="M189.68,102.56H155.47a.5.5,0,0,1-.5-.5.5.5,0,0,1,.5-.5h34.21a.5.5,0,0,1,.5.5A.51.51,0,0,1,189.68,102.56Z" fill="#d1d3d4"/><path d="M174.14,107.45H155.47a.5.5,0,0,1,0-1h18.67a.5.5,0,0,1,0,1Z" fill="#d1d3d4"/><path d="M189.68,87.88H155.47a.5.5,0,0,1,0-1h34.21a.5.5,0,0,1,0,1Z" fill="#d1d3d4"/><path d="M189.68,92.77H155.47a.5.5,0,0,1-.5-.5.5.5,0,0,1,.5-.5h34.21a.51.51,0,0,1,.5.5A.5.5,0,0,1,189.68,92.77Z" fill="#d1d3d4"/><path d="M189.68,97.67H155.47a.5.5,0,0,1-.5-.5.5.5,0,0,1,.5-.5h34.21a.5.5,0,0,1,.5.5A.51.51,0,0,1,189.68,97.67Z" fill="#d1d3d4"/><polygon points="204.05 90.09 204.05 129.44 142.63 129.44 142.63 90.09 173.34 113.19 204.05 90.09" fill="#fff"/><path d="M204.05,129.9H142.62a.45.45,0,0,1-.45-.46V90.09a.47.47,0,0,1,.25-.41.46.46,0,0,1,.48,0l30.44,22.9,30.44-22.9a.46.46,0,0,1,.48,0,.47.47,0,0,1,.25.41v39.35A.46.46,0,0,1,204.05,129.9Zm-61-.91h60.51V91l-30,22.55a.47.47,0,0,1-.55,0L143.08,91Z" fill="#231f20"/><line x1="142.62" y1="129.44" x2="168.29" y2="109.39" fill="#fff"/><path d="M142.62,129.9a.45.45,0,0,1-.36-.18.46.46,0,0,1,.08-.64L168,109a.46.46,0,0,1,.64.08.45.45,0,0,1-.08.64L142.91,129.8A.46.46,0,0,1,142.62,129.9Z" fill="#231f20"/><line x1="177.89" y1="109.77" x2="204.05" y2="129.44" fill="#fff"/><path d="M204.05,129.9a.46.46,0,0,1-.27-.09l-26.17-19.68a.46.46,0,0,1,.55-.73l26.17,19.68a.46.46,0,0,1-.28.82Z" fill="#231f20"/><circle cx="204.05" cy="109.77" r="12.85" fill="#ff0440"/><path d="M204.05,105.43l-4,2v-3.1l4.19-2.13h2.88v12.12h-3.12Z" fill="#fff"/><path d="M135.67,87.1h-.12l-11.5-2.73a.5.5,0,0,1,.23-1l11.5,2.73a.49.49,0,0,1,.37.6A.48.48,0,0,1,135.67,87.1Z" fill="#d1d3d4"/><path d="M138.77,80.5a.49.49,0,0,1-.3-.1l-11.2-8.67a.49.49,0,0,1-.09-.7.51.51,0,0,1,.7-.09l11.2,8.67a.5.5,0,0,1-.31.89Z" fill="#d1d3d4"/><path d="M145.56,73.42a.51.51,0,0,1-.47-.32l-2.94-8a.52.52,0,0,1,.3-.65.5.5,0,0,1,.64.3l2.94,8a.49.49,0,0,1-.3.64A.47.47,0,0,1,145.56,73.42Z" fill="#d1d3d4"/></g></svg>