<svg xmlns="http://www.w3.org/2000/svg" viewBox="0 0 400 300"><g id="_270_order_confirmation_flatline" data-name="#270_order_confirmation_flatline"><path d="M339.05,255.14H63.28a.5.5,0,0,1-.5-.5.5.5,0,0,1,.5-.5H339.05a.5.5,0,0,1,.5.5A.5.5,0,0,1,339.05,255.14Z" fill="#d1d3d4"/><path d="M282.09,269.85H163.44a7.49,7.49,0,0,1-7.56-8L167.8,35.53a8.49,8.49,0,0,1,8.39-8H294.84a7.48,7.48,0,0,1,7.55,8L290.48,261.87A8.49,8.49,0,0,1,282.09,269.85Z" fill="#231f20"/><path d="M282.09,270.29H163.44a7.94,7.94,0,0,1-8-8.44L167.35,35.5a9,9,0,0,1,8.84-8.39H294.84a7.93,7.93,0,0,1,8,8.44L290.92,261.9A9,9,0,0,1,282.09,270.29ZM176.19,28a8.05,8.05,0,0,0-7.95,7.55L156.33,261.9a7.05,7.05,0,0,0,7.11,7.51H282.09a8.06,8.06,0,0,0,8-7.56L302,35.5a7,7,0,0,0-7.11-7.5Z" fill="#231f20"/><path d="M273.32,269.45H154.67a7.49,7.49,0,0,1-7.56-8L159,35.13a8.51,8.51,0,0,1,8.4-8H286.07a7.48,7.48,0,0,1,7.55,8L281.71,261.47A8.5,8.5,0,0,1,273.32,269.45Z" fill="#fff"/><path d="M273.32,270H154.67a8,8,0,0,1-8.06-8.5L158.53,35.1a9,9,0,0,1,8.89-8.44H286.07a8,8,0,0,1,8.05,8.49L282.21,261.5A9,9,0,0,1,273.32,270ZM167.42,27.66a8,8,0,0,0-7.9,7.49L147.61,261.5a7,7,0,0,0,7.06,7.45H273.32a8,8,0,0,0,7.89-7.5L293.12,35.1a7,7,0,0,0-7.05-7.44Z" fill="#231f20"/><path d="M265.69,255.14h-102a6.44,6.44,0,0,1-6.5-6.85L167.65,49.06a7.26,7.26,0,0,1,7.16-6.8h102a6.44,6.44,0,0,1,6.49,6.85L272.85,248.34A7.26,7.26,0,0,1,265.69,255.14ZM174.81,43.26a6.24,6.24,0,0,0-6.16,5.85L158.16,248.34a5.45,5.45,0,0,0,5.5,5.8h102a6.25,6.25,0,0,0,6.16-5.85L282.33,49.06a5.43,5.43,0,0,0-5.49-5.8Z" fill="#d1d3d4"/><path d="M228.94,36.16h-22.3a.51.51,0,0,1-.5-.5.5.5,0,0,1,.5-.5h22.3a.5.5,0,0,1,.5.5A.51.51,0,0,1,228.94,36.16Z" fill="#d1d3d4"/><path d="M236.14,36.16h-3.9a.51.51,0,0,1-.5-.5.5.5,0,0,1,.5-.5h3.9a.5.5,0,0,1,.5.5A.5.5,0,0,1,236.14,36.16Z" fill="#d1d3d4"/><path d="M296,81.56h0a.5.5,0,0,1-.47-.53l1.23-23.4a.48.48,0,0,1,.52-.47.5.5,0,0,1,.48.52l-1.24,23.4A.5.5,0,0,1,296,81.56Z" fill="#d1d3d4"/><path d="M261.29,169.38H175.66a5.93,5.93,0,0,1-6-6.34l1-18.25a6.8,6.8,0,0,1,6.7-6.34h85.64a5.93,5.93,0,0,1,6,6.34L268,163A6.8,6.8,0,0,1,261.29,169.38Z" fill="#fff"/><path d="M261.29,169.88H175.66a6.44,6.44,0,0,1-6.49-6.87l1-18.24a7.32,7.32,0,0,1,7.21-6.82h85.63a6.44,6.44,0,0,1,6.49,6.87l-1,18.25A7.31,7.31,0,0,1,261.29,169.88ZM177.42,139a6.3,6.3,0,0,0-6.21,5.87l-1,18.25a5.43,5.43,0,0,0,5.49,5.81h85.63A6.3,6.3,0,0,0,267.5,163l1-18.24a5.51,5.51,0,0,0-1.48-4.12,5.43,5.43,0,0,0-4-1.7Z" fill="#231f20"/><path d="M204.79,153.67a3.62,3.62,0,0,1,1.81,1.09,2.84,2.84,0,0,1,.55,1,3,3,0,0,1,.15,1.22,3.88,3.88,0,0,1-.59,2,4,4,0,0,1-1.33,1.3,5.62,5.62,0,0,1-1.82.71,10.24,10.24,0,0,1-2.07.21H195l.82-14.35h5.9a13.37,13.37,0,0,1,1.84.13,5.73,5.73,0,0,1,1.79.53,3.3,3.3,0,0,1,1.31,1.15,3.26,3.26,0,0,1,.44,2,3.21,3.21,0,0,1-.69,1.9,3.64,3.64,0,0,1-1.59,1.12Zm-4.71-3.14-.1,1.76h1.3a1.44,1.44,0,0,0,.85-.23.91.91,0,0,0,.36-.72.62.62,0,0,0-.31-.61,1.77,1.77,0,0,0-.9-.2Zm-.27,4.86-.11,2h1.44a1.57,1.57,0,0,0,.93-.25.91.91,0,0,0,.4-.74.71.71,0,0,0-.12-.47,1.12,1.12,0,0,0-.36-.29,1.29,1.29,0,0,0-.47-.15,2.8,2.8,0,0,0-.48-.05Z"/><path d="M217.48,161.54a8.12,8.12,0,0,1-2.9-.47,5.55,5.55,0,0,1-2-1.28,4.67,4.67,0,0,1-1.12-1.91,6.63,6.63,0,0,1-.27-2.38l.49-8.72h4.83L216,155a2.29,2.29,0,0,0,.41,1.61,1.63,1.63,0,0,0,1.37.58,1.87,1.87,0,0,0,1.45-.58,2.54,2.54,0,0,0,.58-1.61l.47-8.19h4.8l-.49,8.72a6.76,6.76,0,0,1-.57,2.38,5.87,5.87,0,0,1-1.4,1.91,6.56,6.56,0,0,1-2.19,1.28A8.79,8.79,0,0,1,217.48,161.54Z"/><path d="M237.21,161.13h-4.82l.33-5.88-4.93-8.47h5.82l2,4.21,2.41-4.21h5.67l-6.17,8.47Z"/><polygon points="244.51 114.98 198.62 114.98 206.4 76.33 241.12 76.33 244.51 114.98" fill="#fff"/><path d="M244.51,115.48H198.62a.53.53,0,0,1-.39-.18.53.53,0,0,1-.1-.42l7.78-38.65a.51.51,0,0,1,.49-.4h34.72a.5.5,0,0,1,.49.46l3.4,38.65a.48.48,0,0,1-.13.38A.51.51,0,0,1,244.51,115.48Zm-45.28-1H244l-3.31-37.65H206.81Z" fill="#231f20"/><path d="M234.87,76.83H212.65a.5.5,0,0,1-.36-.16.55.55,0,0,1-.14-.37l.42-7.28A12.42,12.42,0,0,1,224.8,57.44a10.88,10.88,0,0,1,11,11.64l-.41,7.28A.51.51,0,0,1,234.87,76.83Zm-21.69-1h21.21l.39-6.81a9.88,9.88,0,0,0-10-10.58,11.4,11.4,0,0,0-11.23,10.64Z" fill="#231f20"/><path d="M237.94,84.9H208.67a.5.5,0,0,1-.5-.5.5.5,0,0,1,.5-.5h29.27a.51.51,0,0,1,.5.5A.5.5,0,0,1,237.94,84.9Z" fill="#d1d3d4"/><path d="M257.28,183.86H178.09a.5.5,0,0,1,0-1h79.19a.5.5,0,0,1,0,1Z" fill="#d1d3d4"/><path d="M256.31,200.94H177.12a.5.5,0,0,1,0-1h79.19a.5.5,0,0,1,0,1Z" fill="#d1d3d4"/><path d="M255.34,218H176.15a.5.5,0,0,1,0-1h79.19a.5.5,0,0,1,0,1Z" fill="#d1d3d4"/><path d="M242.63,235.1H186.91a.5.5,0,0,1-.5-.5.51.51,0,0,1,.5-.5h55.72a.5.5,0,0,1,.5.5A.5.5,0,0,1,242.63,235.1Z" fill="#d1d3d4"/><path d="M317.06,223.55a7.75,7.75,0,0,0-.89-4.19,31.74,31.74,0,0,1-1.87-2.65c-.8-1.7-.24-3.7-.43-5.57a7,7,0,0,0-2-4.16c-1-1-2.23-1.66-3.17-2.69-1.53-1.69-2-4.07-2.84-6.18a15.41,15.41,0,0,0-6.11-7.19c1.67,3.35-2.14,7.62-.41,11,.54,1.06,1.59,1.82,2,2.94,1,2.71-2.26,5.63-1.23,8.31.52,1.33,1.95,2.11,2.62,3.38.89,1.71.19,3.78.26,5.71.1,2.67,1.72,5,3.65,6.89,1.2,1.15,2.53,2.14,3.83,3.18,1.55,1.24,2.2,2.55,3.57.56A17.14,17.14,0,0,0,317.06,223.55Z" fill="#231f20"/><path d="M318.79,225.08c-.49-2.06-.85-4.3,0-6.24,1-2.2,3.32-3.76,3.6-6.14.18-1.56-.61-3.13-.3-4.67s1.57-2.59,2.6-3.73a15.54,15.54,0,0,0,4-9.52,23.54,23.54,0,0,1,3.83,6.34,8.1,8.1,0,0,1-.55,7.14,6.4,6.4,0,0,0-1,1.59c-.47,1.52.83,2.93,1.5,4.37a5,5,0,0,1-.48,5.17c-1.36,1.69-4,2.36-4.65,4.42a10.9,10.9,0,0,0-.24,2.35,6.89,6.89,0,0,1-4.95,5.92c-1.61.39-1.58-.25-1.87-1.61C319.93,228.65,319.23,226.89,318.79,225.08Z" fill="#231f20"/><path d="M313.67,210.26c-1.15-4-1.61-8.1-2.81-12a65.63,65.63,0,0,0-3.75-9l4.91,2.07c1.58.66,3.28,1.44,4,3,1.3,2.68-1,6.12.33,8.76a21.6,21.6,0,0,0,1.95,2.45c1.44,2,1.22,4.82.43,7.18-.34,1-1.83,6.27-3.16,4.81-.53-.59-.58-2.76-.8-3.56C314.44,212.7,314,211.49,313.67,210.26Z" fill="#231f20"/><path d="M316.28,262.86c-1-6.47-4-29.28-4.08-29.51l1-.13c0,.23,3.1,23,4.07,29.49Z" fill="#231f20"/><path d="M317.58,269h-1c.05-7.68,3.27-37.08,5.13-39.11l.73.68C321,232.05,317.64,260.43,317.58,269Z" fill="#231f20"/><path d="M319.24,267.5l-1-.05c.73-16.55-2.78-51.34-2.81-51.69l1-.1C316.46,216,320,250.87,319.24,267.5Z" fill="#231f20"/><path d="M307.94,244.31h18.28l-1.28,20.76c-.22,3.59-2.89,6.38-6.09,6.38h-3.54c-3.21,0-5.87-2.79-6.09-6.38Z" fill="#fff"/><path d="M318.85,272h-3.54c-3.47,0-6.37-3-6.61-6.86l-1.28-20.76a.57.57,0,0,1,.14-.39.55.55,0,0,1,.38-.16h18.28a.51.51,0,0,1,.37.16.52.52,0,0,1,.14.39l-1.28,20.76C325.22,269,322.31,272,318.85,272Zm-10.36-27.14L309.73,265c.21,3.3,2.66,5.89,5.58,5.89h3.54c2.92,0,5.37-2.59,5.57-5.9l1.25-20.21Z" fill="#231f20"/><path d="M80.83,187.05l-5.61,8.2s-.36,4.37-1.52,4.46-.71-3.66-.71-3.66-11.77,6-12,3.12,8-7.57,8.11-7.84,4.81-7,4.81-7Z" fill="#fff"/><path d="M62.21,200.43a2.38,2.38,0,0,1-1.11-.22,1.21,1.21,0,0,1-.64-1c-.21-2.26,3.6-5.12,7.36-7.62l.85-.58c.22-.37,1.09-1.7,4.8-7a.51.51,0,0,1,.6-.18l7,2.76a.51.51,0,0,1,.29.32.5.5,0,0,1-.06.43l-5.54,8.09c-.14,1.51-.58,4.68-2,4.79a1,1,0,0,1-.78-.31c-.56-.58-.6-2-.54-3C70.15,198,64.89,200.43,62.21,200.43ZM74.06,184.9c-1.75,2.51-4.36,6.29-4.54,6.63,0,.17-.13.23-1.14.9-1.76,1.17-7.11,4.73-6.93,6.69a.24.24,0,0,0,.13.21c1.27.7,7.31-1.76,11.18-3.72a.51.51,0,0,1,.52,0,.52.52,0,0,1,.21.47c-.17,1.4-.07,2.91.2,3.11.36-.13.87-2.08,1-4a.5.5,0,0,1,.09-.24l5.26-7.69Z" fill="#231f20"/><path d="M98.21,137.87c-1.61.53-26.91,47.57-26.91,47.57L80,189.72s27.41-26.08,28.48-34.37S98.21,137.87,98.21,137.87Z" fill="#ff0440"/><path d="M112.36,213.71c.25.75,4,5.76,3.5,8s-1.73,47.9-1.73,47.9l7.24,2.5s9-45.39,10-51.9a44.56,44.56,0,0,0,0-12.52Z" fill="#fff"/><path d="M121.37,272.62a.45.45,0,0,1-.16,0l-7.24-2.5a.51.51,0,0,1-.34-.49c.05-1.86,1.24-45.71,1.74-48,.33-1.48-1.72-4.78-2.7-6.37a9.22,9.22,0,0,1-.79-1.37.53.53,0,0,1,0-.39.5.5,0,0,1,.3-.25l19-6a.54.54,0,0,1,.41.05.5.5,0,0,1,.23.35,45.51,45.51,0,0,1,0,12.67c-1,6.45-9.93,51.47-10,51.93a.48.48,0,0,1-.24.33A.45.45,0,0,1,121.37,272.62Zm-6.73-3.36,6.35,2.2c1-5.25,9-45.29,9.9-51.32a43.9,43.9,0,0,0,.08-11.79L113.08,214c.13.22.29.47.44.71,1.21,2,3.25,5.24,2.83,7.12C116,223.56,115.07,253.4,114.64,269.26Z" fill="#231f20"/><path d="M95.23,211.83s.1,5.13-.4,6.64-16.2,44.8-16.2,44.8l5.68,2.84s26.53-41.57,27.21-45a32.47,32.47,0,0,0,0-8.51Z" fill="#fff"/><path d="M84.31,266.61a.54.54,0,0,1-.22-.05l-5.68-2.84a.51.51,0,0,1-.25-.62c.16-.43,15.7-43.31,16.19-44.79.39-1.17.4-5.07.38-6.47a.48.48,0,0,1,.15-.37.52.52,0,0,1,.37-.14l16.29.8a.51.51,0,0,1,.48.44,32.84,32.84,0,0,1,0,8.67c-.69,3.45-26.19,43.44-27.28,45.14A.48.48,0,0,1,84.31,266.61Zm-5-3.58,4.87,2.43C91.67,253.65,110.5,223.73,111,221a30.7,30.7,0,0,0,0-7.93l-15.34-.76a29.61,29.61,0,0,1-.43,6.27C94.82,220.05,81,258.3,79.26,263Z" fill="#231f20"/><path d="M114.13,269.62l-.44,6.92h2.84l.33-1.67s2.54,2.26,5.23,2.17,8.13.68,8.3,0-9-4.93-9-4.93Z" fill="#231f20"/><path d="M128.93,277.83c-.74,0-1.74-.06-3.06-.14s-2.76-.18-3.76-.15a8.7,8.7,0,0,1-4.92-1.77l-.17.87a.49.49,0,0,1-.49.4h-2.84a.48.48,0,0,1-.36-.15.49.49,0,0,1-.14-.38l.44-6.93a.5.5,0,0,1,.22-.38.5.5,0,0,1,.44-.06l7.24,2.51c9.61,4.45,9.45,5.09,9.34,5.52S130.21,277.83,128.93,277.83Zm-6.38-1.29c1,0,2.2.07,3.38.15s2.66.17,3.51.13a87.12,87.12,0,0,0-8.28-4.25l-6.57-2.27-.37,5.74h1.9l.25-1.26a.5.5,0,0,1,.83-.28s2.39,2.15,4.88,2Z" fill="#231f20"/><path d="M78.63,263.27l-2.42,7.18,2.42.84,1.76-2.17s3.34,3.17,4.17,3.84,7.76,2.61,7.93,1.35-7.51-5.44-8.18-8.2Z" fill="#231f20"/><path d="M91.4,275.22a19.31,19.31,0,0,1-7.15-1.87c-.68-.55-2.9-2.64-3.81-3.5L79,271.6a.5.5,0,0,1-.55.16l-2.42-.84a.5.5,0,0,1-.31-.63l2.42-7.18a.55.55,0,0,1,.28-.3.51.51,0,0,1,.42,0l5.67,2.83a.52.52,0,0,1,.27.33c.33,1.37,2.87,3.34,4.91,4.92,2.29,1.77,3.38,2.65,3.28,3.46a.9.9,0,0,1-.6.71A2.77,2.77,0,0,1,91.4,275.22Zm-11-6.6a.53.53,0,0,1,.34.13s3.33,3.17,4.14,3.82,6.09,2,7.1,1.61a18.08,18.08,0,0,0-2.87-2.48c-2.18-1.69-4.63-3.58-5.21-5.24l-5-2.48-2.07,6.16,1.61.56L80,268.8a.47.47,0,0,1,.35-.18Z" fill="#231f20"/><path d="M128.18,174.27s4.75,32.55,4.25,40.56c0,0-23.61,7.4-39.14.14,0,0,1.33-10.68-1.17-18.8s-3.51-16.64,0-21.9C92.12,174.27,116.41,183.53,128.18,174.27Z" fill="#231f20"/><path d="M110.08,218.64c-5.8,0-11.85-.81-17-3.22a.48.48,0,0,1-.28-.51c0-.11,1.28-10.67-1.16-18.6-2.14-6.93-3.86-16.43.06-22.32a.52.52,0,0,1,.6-.19c.24.09,24.16,9.06,35.57.08a.51.51,0,0,1,.49-.08.49.49,0,0,1,.31.4c.2,1.33,4.76,32.69,4.26,40.67a.49.49,0,0,1-.35.44A85.66,85.66,0,0,1,110.08,218.64Zm-16.25-4c14.18,6.39,35.23.63,38.12-.21.31-7.66-3.43-34.24-4.15-39.29-6.22,4.37-15.41,4.1-22.14,3.07a77.08,77.08,0,0,1-13.34-3.36c-3.42,5.58-1.76,14.54.28,21.14C94.87,203.4,94,212.69,93.83,214.67Z" fill="#231f20"/><path d="M164.89,150l8.44-1.12s5.19-3.6,6.6-4,9.21.62,8.84,1.31-2.34.62-3,.68c-.91.09-1.83.13-2.74.19a7.92,7.92,0,0,1,.94,5.12,4,4,0,0,1-2.45,3.17,1.75,1.75,0,0,1-1.15.06.92.92,0,0,1-.64-.88l-.15.05a13,13,0,0,1-3.7.75c-1,0-1.89-.52-2.83-.32a33.16,33.16,0,0,0-4.1,1.43L161.61,159Z" fill="#fff"/><path d="M161.61,159.48a.51.51,0,0,1-.36-.15.5.5,0,0,1-.11-.52l3.28-9a.5.5,0,0,1,.4-.33l8.33-1.1c.86-.6,5.26-3.6,6.64-4s8.59.4,9.35,1.35a.59.59,0,0,1,.07.67c-.39.73-1.61.86-2.94.93l-.4,0c-.64.06-1.29.1-1.93.14h0a8.87,8.87,0,0,1,.61,4.75,4.48,4.48,0,0,1-2.78,3.56,2.12,2.12,0,0,1-1.48.06,1.5,1.5,0,0,1-.83-.71,12.38,12.38,0,0,1-3.48.66,7.06,7.06,0,0,1-1.36-.2,3.22,3.22,0,0,0-1.38-.13,16.56,16.56,0,0,0-2.68.9c-.46.18-.91.36-1.35.51l-7.4,2.59A.45.45,0,0,1,161.61,159.48Zm3.65-9.07-2.82,7.75,6.4-2.24c.43-.15.87-.33,1.31-.5a17.22,17.22,0,0,1,2.84-.95,4.19,4.19,0,0,1,1.81.13,4.3,4.3,0,0,0,1.13.18,12.48,12.48,0,0,0,3.56-.73l.13,0a.52.52,0,0,1,.47.08.51.51,0,0,1,.19.43.43.43,0,0,0,.31.37,1.31,1.31,0,0,0,.81-.06,3.48,3.48,0,0,0,2.13-2.78,7.49,7.49,0,0,0-.86-4.76.5.5,0,0,1,0-.5.53.53,0,0,1,.42-.28l.83,0c.63,0,1.26-.07,1.89-.13l.45,0a10.18,10.18,0,0,0,1.6-.18c-1.74-.49-6.64-1.12-7.75-.81s-5,2.94-6.45,3.93a.47.47,0,0,1-.22.09Z" fill="#231f20"/><path d="M91.32,175s4.61-37.05,9.91-44.53,18.34-8.68,24.37-3.86,2.86,49,2.86,49S109.3,181.05,91.32,175Z" fill="#ff0440"/><path d="M125.6,126.64a14.83,14.83,0,0,1,8.81,6.74c2.89,5.35,6,12.66,6,12.66l28.8,2.4,1.33,9.17s-18.58,5.69-27.79,7.31c-7.63,1.35-11.67-2.47-15-6.32a40.79,40.79,0,0,1-3.47-5.53Z" fill="#ff0440"/><path d="M126.93,110.28s2.68,4.43,2.06,5.3-2.57.21-2.57.21" fill="#fff"/><path d="M127.82,116.53a5.12,5.12,0,0,1-1.56-.27.5.5,0,0,1-.31-.63.49.49,0,0,1,.63-.31c.65.21,1.73.36,2,0s-.81-2.65-2.08-4.75a.5.5,0,1,1,.85-.52c1.07,1.76,2.76,4.86,2.05,5.86A1.88,1.88,0,0,1,127.82,116.53Z" fill="#231f20"/><path d="M126.54,104.55c1.76,1.55,1.11,4.67,1,6.71q-.19,4.3-.59,8.59c-.17,1.81-4.88,1.67-5.69,1.1l1,4.54L112,124l.64-5.92s-.66-8.25,1.32-11.89a6.39,6.39,0,0,1,5.89-3.29S124.82,103,126.54,104.55Z" fill="#fff"/><path d="M122.27,126h-.08l-10.28-1.5a.5.5,0,0,1-.42-.55l.63-5.92c0-.25-.65-8.35,1.38-12.08a6.85,6.85,0,0,1,6.38-3.55c.18,0,5.15.18,7,1.79h0c1.65,1.46,1.43,4,1.26,6,0,.38-.06.75-.08,1.09-.13,2.85-.33,5.75-.59,8.62a1.78,1.78,0,0,1-1.2,1.45,8.35,8.35,0,0,1-4.31.35l.8,3.68a.49.49,0,0,1-.12.45A.5.5,0,0,1,122.27,126Zm-9.74-2.43,9.09,1.33-.84-3.84a.5.5,0,0,1,.21-.52.51.51,0,0,1,.57,0,7,7,0,0,0,4.29-.1c.38-.18.59-.39.61-.64.26-2.85.46-5.73.59-8.57,0-.35,0-.73.09-1.13.15-1.8.34-4-.94-5.18h0c-1.29-1.14-5-1.5-6.38-1.54a5.83,5.83,0,0,0-5.44,3c-1.89,3.47-1.27,11.53-1.27,11.61Z" fill="#231f20"/><path d="M110,125.38l1-3.14,12.62,1.22.73,2.88A16.79,16.79,0,0,1,110,125.38Z" fill="#fff"/><path d="M118.27,128a18.1,18.1,0,0,1-8.54-2.18.5.5,0,0,1-.24-.59l1-3.14a.52.52,0,0,1,.53-.35L123.6,123a.53.53,0,0,1,.44.38l.72,2.88a.49.49,0,0,1-.27.57A15.45,15.45,0,0,1,118.27,128Zm-7.7-2.88a16.6,16.6,0,0,0,13.12.92l-.54-2.11-11.86-1.15Z" fill="#231f20"/><path d="M91.07,171a.5.5,0,0,1-.5-.5c0-9.65,5.09-28.5,5.52-29.79a.52.52,0,0,1,.64-.32A.5.5,0,0,1,97,141c-.42,1.27-5.48,19.93-5.47,29.47a.5.5,0,0,1-.5.5Z" fill="#231f20"/><path d="M118,118.7v.21A28.15,28.15,0,0,1,115.42,131a15.63,15.63,0,0,1-4.37,6,14.65,14.65,0,0,1-6.84,2.69,12.26,12.26,0,0,1-6.31-.45,10.16,10.16,0,0,1-6-8.21,16.25,16.25,0,0,1,2.45-10.15c1.91-3.24,4.78-5.69,6.72-8.87,2.1-3.44,3.33-7.48,5.68-10.75,3.75-5.2,11.6-7.06,17.45-4.15,1.28-1.25,3.71-.23,4.38,1.42a5.85,5.85,0,0,1-.32,4.6c-.11.18-1.9,2.09-1.81,1.49-.23,1.61-1.29,2.38-2.57,3.4a47.3,47.3,0,0,1-4.17,2.64C116.24,112.82,117.84,115.29,118,118.7Z" fill="#fff"/><path d="M101.67,140.32a10.79,10.79,0,0,1-4-.69A10.65,10.65,0,0,1,91.44,131,16.83,16.83,0,0,1,94,120.54a34.25,34.25,0,0,1,3.48-4.62,34.53,34.53,0,0,0,3.24-4.25,47,47,0,0,0,2.39-4.69,37.59,37.59,0,0,1,3.32-6.1c3.82-5.31,11.74-7.26,17.78-4.44a2.72,2.72,0,0,1,2.17-.4,3.93,3.93,0,0,1,2.75,2.23,6.31,6.31,0,0,1-.36,5A7.5,7.5,0,0,1,126.9,105a5.79,5.79,0,0,1-2.5,3.15l-.17.14a23.49,23.49,0,0,1-2.8,1.82c-.47.28-1,.56-1.41.85-2.39,1.52-2.16,3-1.82,5.29a21.07,21.07,0,0,1,.26,2.39v.15a28.8,28.8,0,0,1-2.58,12.34,16,16,0,0,1-4.52,6.14,15.13,15.13,0,0,1-7.07,2.8A17.61,17.61,0,0,1,101.67,140.32Zm16.5-44.17a13.58,13.58,0,0,0-11,5.32A35.7,35.7,0,0,0,104,107.4a44.09,44.09,0,0,1-2.45,4.79,34.4,34.4,0,0,1-3.32,4.37,33.23,33.23,0,0,0-3.39,4.49,15.87,15.87,0,0,0-2.38,9.84,9.58,9.58,0,0,0,5.64,7.8,11.61,11.61,0,0,0,6.06.43,14,14,0,0,0,6.6-2.6,15,15,0,0,0,4.23-5.77,27.6,27.6,0,0,0,2.49-11.83v-.2h0a19.7,19.7,0,0,0-.25-2.27c-.34-2.27-.66-4.41,2.27-6.28.47-.3,1-.59,1.44-.87a23,23,0,0,0,2.69-1.75l.17-.13c1.17-.93,2-1.6,2.22-2.94h0a.5.5,0,0,1,.56-.42h0a12.45,12.45,0,0,0,1.27-1.28,5.35,5.35,0,0,0,.28-4.14,2.91,2.91,0,0,0-2-1.62,1.71,1.71,0,0,0-1.54.37.5.5,0,0,1-.58.09A13.19,13.19,0,0,0,118.17,96.15Z" fill="#231f20"/><path d="M127,117.71a2.34,2.34,0,0,1-3.37-1.06" fill="#fff"/><path d="M125.6,118.56a2.82,2.82,0,0,1-.8-.12,2.77,2.77,0,0,1-1.65-1.58.5.5,0,0,1,.24-.67.5.5,0,0,1,.66.24,1.8,1.8,0,0,0,1,1,2.34,2.34,0,0,0,1.63-.21.51.51,0,0,1,.68.2.49.49,0,0,1-.19.67A3.49,3.49,0,0,1,125.6,118.56Z" fill="#231f20"/><path d="M121.35,111.91a3.92,3.92,0,0,0-.72-2,5.75,5.75,0,0,0-1-1.34,1.85,1.85,0,0,0-1.53-.53,1.72,1.72,0,0,0-1.16.84,3.34,3.34,0,0,0-.42,1.41,6.17,6.17,0,0,0,2.63,5.57l-.15-.18" fill="#fff"/><path d="M119.17,116.36a.54.54,0,0,1-.28-.08,6.7,6.7,0,0,1-2.85-6,3.82,3.82,0,0,1,.48-1.62,2.24,2.24,0,0,1,1.51-1.08,2.37,2.37,0,0,1,1.94.66,6.06,6.06,0,0,1,1.09,1.45,4.41,4.41,0,0,1,.79,2.27.52.52,0,0,1-.51.49.51.51,0,0,1-.49-.51,3.32,3.32,0,0,0-.66-1.74,5.25,5.25,0,0,0-.89-1.22,1.34,1.34,0,0,0-1.11-.41,1.23,1.23,0,0,0-.81.61,2.71,2.71,0,0,0-.35,1.2,5.7,5.7,0,0,0,2.07,4.85.51.51,0,0,1,.29.17l.16.18a.5.5,0,0,1,0,.65A.51.51,0,0,1,119.17,116.36Z" fill="#231f20"/><ellipse cx="126.17" cy="108.02" rx="0.4" ry="1.03" transform="translate(-1.68 2) rotate(-0.9)" fill="#231f20"/><path d="M133.59,164.4a.54.54,0,0,1-.25-.06c-10.83-6.19-14.74-25.55-14.9-26.38a.5.5,0,0,1,1-.19c0,.2,4,19.74,14.41,25.7a.49.49,0,0,1,.19.68A.5.5,0,0,1,133.59,164.4Z" fill="#231f20"/></g></svg>