<svg xmlns="http://www.w3.org/2000/svg" viewBox="0 0 400 300"><g id="_268_party_flatline" data-name="#268_party_flatline"><path d="M305.56,254.12l-6.12-59L332.08,176s0-31.59-19.76-37.65c-14.62-4.49-44.16-5.11-44.16-5.11-16.44-2.55-78.3,2.4-81.43,11.37-2.92,8.41,10.17,98.18,11.84,109.49Z" fill="#ff0440"/><path d="M205.79,251.46h0a.5.5,0,0,1-.47-.52c0-.66,2.7-65.86-3-78a.5.5,0,1,1,.91-.43c5.84,12.33,3.24,75.74,3.13,78.43A.51.51,0,0,1,205.79,251.46Z" fill="#231f20"/><path d="M168.29,75.17C161.93,69,142.86,59.27,136,70a3.81,3.81,0,0,1-1,1.21,4,4,0,0,1-2.47.26c-10.5-.72-18.08,15.72-20,23.92-2.34,10.08-4.63,19.22-10.18,28.1-3.33,5.34-8.28,10.07-10.6,16a45.93,45.93,0,0,0-3,18.13,40.65,40.65,0,0,0,3.21,15c4.41,9.83,13.89,16.8,24.19,20s21.38,2.92,32,1.32c10.1-1.52,20.25-4.35,28.53-10.33S191.15,168,191,157.8c-.13-10.05-5.81-18.82-9.18-28s-3.56-18.37-2.7-27.82C180.09,91.46,175.86,82.46,168.29,75.17Z" fill="#fff"/><path d="M133.88,195.54A60.2,60.2,0,0,1,116,193c-11.37-3.5-20.29-10.89-24.49-20.25a40.86,40.86,0,0,1-3.25-15.2,46.36,46.36,0,0,1,3.07-18.33c1.48-3.8,4-7.13,6.52-10.35,1.42-1.85,2.9-3.77,4.12-5.72,5.35-8.57,7.65-17.36,10.11-27.95,1.84-7.93,9.6-25,20.51-24.31l.34,0a2.94,2.94,0,0,0,1.81-.2,2.9,2.9,0,0,0,.69-.86l.13-.2a10.7,10.7,0,0,1,8.17-4.9c8.46-1,19.9,5.18,24.91,10h0c8.22,7.92,11.93,17.08,11,27.24-1,11.28-.19,19.79,2.68,27.6,1,2.63,2.15,5.28,3.29,7.85,2.86,6.41,5.82,13.05,5.92,20.29.12,9.59-5.44,19.62-14.52,26.18-7.26,5.24-16.39,8.55-28.75,10.41A96.66,96.66,0,0,1,133.88,195.54Zm-2-123.64c-10,0-17.09,16-18.83,23.57-2.48,10.68-4.81,19.54-10.24,28.25-1.24,2-2.73,3.93-4.17,5.8-2.43,3.16-4.95,6.44-6.38,10.11a45.24,45.24,0,0,0-3,17.92,39.91,39.91,0,0,0,3.17,14.83c4,9,12.94,16.34,23.88,19.71,8.94,2.76,19.35,3.19,31.82,1.31,12.19-1.84,21.18-5.09,28.31-10.24,8.82-6.37,14.22-16.09,14.1-25.36-.09-7-3-13.57-5.83-19.89-1.15-2.59-2.34-5.26-3.32-7.92-2.92-8-3.77-16.6-2.73-28,.89-9.84-2.7-18.74-10.7-26.44-4.87-4.69-15.95-10.68-24.1-9.73a9.75,9.75,0,0,0-7.45,4.44l-.12.2a3.65,3.65,0,0,1-1,1.15,3.7,3.7,0,0,1-2.45.37l-.33,0Z" fill="#231f20"/><path d="M165.3,138.55s46.58-21.24,86.36-22.38c15.41-.44,49.08,6.88,54.93,10.28l.79,12.3s-64.36-2-92,6.17c-17.82,5.23-36.3,27.84-36.3,27.84Z" fill="#fff"/><path d="M179.06,173.26H179a.47.47,0,0,1-.38-.3l-13.76-34.21a.5.5,0,0,1,.25-.64c.47-.22,47.13-21.3,86.55-22.43,15.28-.41,49.06,6.78,55.2,10.35a.48.48,0,0,1,.25.4l.79,12.3a.57.57,0,0,1-.14.38.43.43,0,0,1-.38.15c-.64,0-64.59-1.86-91.86,6.15-17.47,5.13-35.87,27.45-36.06,27.68A.49.49,0,0,1,179.06,173.26Zm-13.12-34.45,13.27,33c3.19-3.73,19.94-22.65,36-27.37,26.07-7.66,85.29-6.37,91.63-6.2l-.74-11.49c-6.51-3.47-39.8-10.51-54.44-10.08C214.48,117.73,170.76,136.67,165.94,138.81Z" fill="#231f20"/><path d="M112.45,209.22l11.15,44.9h80l-7.81-78.78S178.21,147.7,176,132.59l-72.91,18.8S117.73,182.46,112.45,209.22Z" fill="#ff0440"/><path d="M156.71,130.63l4.07,16.88s-.32,8.24-12.26,8.34S133,148.62,133,148.62l-6.48-31.76s15.29-13.79,8.3-31.29c0,0,10.39,12.54,26.59,6.22,0,0,4.28,16.11,5.11,25.17S156.71,130.63,156.71,130.63Z" fill="#fff"/><path d="M148.27,156.35c-11.91,0-15.58-7.2-15.73-7.51a.25.25,0,0,1,0-.12L126,117a.52.52,0,0,1,.16-.47c.15-.13,14.95-13.77,8.16-30.74a.5.5,0,0,1,.21-.61.49.49,0,0,1,.64.11c.11.12,10.37,12.19,26,6.07a.53.53,0,0,1,.41,0,.52.52,0,0,1,.26.32c0,.16,4.29,16.26,5.11,25.25.77,8.31-7.78,13-9.71,14l4,16.49a.61.61,0,0,1,0,.14c0,.08-.48,8.72-12.75,8.82Zm-14.81-7.9c.35.64,4.08,6.9,14.82,6.9h.24c10.86-.09,11.7-7,11.76-7.8l-4.06-16.81a.49.49,0,0,1,.29-.57c.1,0,10.28-4.58,9.5-13.17-.73-8-4.21-21.67-4.95-24.54a24.12,24.12,0,0,1-25.05-5c4.76,15.51-7.2,27.85-8.95,29.56Z" fill="#231f20"/><path d="M131.61,114.63c-1.83-3.45-7-5.37-10.6-3.84-4.71,2-3.28,7.49-.87,10.68a9.18,9.18,0,0,0,13,1.69" fill="#fff"/><path d="M127.44,125.6a10.16,10.16,0,0,1-1.23-.08,9.72,9.72,0,0,1-6.46-3.75c-1.46-1.92-2.9-5.15-2.15-7.94a5.24,5.24,0,0,1,3.21-3.5c3.82-1.61,9.29.37,11.24,4.07a.49.49,0,0,1-.2.67.5.5,0,0,1-.68-.2,8.46,8.46,0,0,0-10-3.62,4.2,4.2,0,0,0-2.63,2.84c-.62,2.28.55,5.2,2,7.08a8.68,8.68,0,0,0,12.26,1.59.5.5,0,0,1,.62.79A9.75,9.75,0,0,1,127.44,125.6Z" fill="#231f20"/><path d="M149.67,104.77s8.35,7,7.4,8.94-5.12,2-5.12,2" fill="#fff"/><path d="M152,116.25a.5.5,0,0,1,0-1c1.07,0,4-.41,4.69-1.76.46-.93-3.39-5.07-7.28-8.34a.5.5,0,0,1,.64-.77c2,1.71,8.58,7.45,7.53,9.56s-5.1,2.29-5.56,2.31Z" fill="#231f20"/><ellipse cx="156.99" cy="101.84" rx="1.42" ry="3.28" transform="translate(-11.47 20.36) rotate(-7.16)" fill="#231f20"/><ellipse cx="142.39" cy="103.68" rx="1.42" ry="3.28" transform="translate(-11.81 18.56) rotate(-7.16)" fill="#231f20"/><path d="M156.71,130.63s-6.13,2.74-15-.38c0,0,5.75,11.17,17.19,9.51Z" fill="#231f20"/><path d="M156.64,140.43c-10.12,0-15.31-9.85-15.36-10a.5.5,0,0,1,.61-.7c8.56,3,14.55.42,14.61.39a.5.5,0,0,1,.43,0,.48.48,0,0,1,.26.33l2.21,9.13a.5.5,0,0,1-.42.62A17.43,17.43,0,0,1,156.64,140.43Zm-13.79-9.29c1.77,2.68,7,9.12,15.44,8.2l-1.94-8A22.2,22.2,0,0,1,142.85,131.14Z" fill="#231f20"/><path d="M152.06,128.45a5.49,5.49,0,0,1-2.62-.77c-4.86-2.67-5.14-10.47-5.15-10.8a.49.49,0,0,1,.17-.39.52.52,0,0,1,.41-.12l12.36,2.1a.51.51,0,0,1,.42.53c-.36,4.61-1.75,7.88-3.82,9A3.64,3.64,0,0,1,152.06,128.45Zm-6.73-11c.17,1.84,1,7.35,4.6,9.34a3.48,3.48,0,0,0,3.43.31c1.67-.9,2.87-3.78,3.25-7.74Z" fill="#231f20"/><path d="M286.32,79.91a3,3,0,0,0-2.66.17c.13-3.22-2.57-6-5.61-7.08s-6.35-.89-9.57-.8-6.6,0-9.44-1.53c-4.51-2.46-6.76-8.18-11.57-10-3.84-1.45-8.42.23-11,3.41a15.4,15.4,0,0,0-2.89,11.63c.83,6.71,4.82,13.23,9.38,18.11a58.76,58.76,0,0,0,8,6.72l6,4.4c6.08,4.51,14.69,9,22.6,6.66,5.28-1.55,8.39-7,9.79-12a24,24,0,0,0,.92-8.51c-.24-2.67-.3-6.83-1.53-9.17A4.6,4.6,0,0,0,286.32,79.91Z" fill="#fff"/><path d="M275,112.74c-6.79,0-13.53-3.8-18.37-7.39l-6-4.4a58.49,58.49,0,0,1-8.09-6.78c-3.12-3.33-8.49-10.13-9.52-18.39a15.9,15.9,0,0,1,3-12c2.86-3.5,7.73-5,11.58-3.56,2.71,1,4.63,3.22,6.5,5.35a20.07,20.07,0,0,0,5.13,4.67c2.78,1.51,6.2,1.55,9.18,1.47l.76,0c3-.1,6.12-.19,9,.85s5.64,3.49,5.92,6.79a3.71,3.71,0,0,1,2.36.12,5.1,5.1,0,0,1,2.64,2.31c1.06,2,1.29,5.25,1.47,7.84,0,.54.08,1,.12,1.52a24.5,24.5,0,0,1-.94,8.69c-.86,3-3.57,10.37-10.13,12.29A16.61,16.61,0,0,1,275,112.74ZM244.53,60.66a10.16,10.16,0,0,0-7.69,3.75,14.9,14.9,0,0,0-2.79,11.25c.73,5.82,4.1,12.32,9.26,17.82a56.69,56.69,0,0,0,7.95,6.66l5.95,4.41c5.77,4.27,14.3,8.88,22.17,6.58,6.08-1.78,8.63-8.71,9.45-11.6a23.43,23.43,0,0,0,.9-8.34c0-.47-.08-1-.11-1.53-.18-2.5-.4-5.61-1.37-7.44a4,4,0,0,0-2.1-1.84h0a2.5,2.5,0,0,0-2.23.13.51.51,0,0,1-.52,0,.49.49,0,0,1-.24-.45c.13-3-2.56-5.62-5.27-6.59s-5.73-.88-8.64-.8l-.76,0c-3.12.08-6.69,0-9.69-1.59a20.79,20.79,0,0,1-5.4-4.89c-1.87-2.13-3.63-4.14-6.11-5.07A7.79,7.79,0,0,0,244.53,60.66Z" fill="#231f20"/><path d="M243.9,122.77l-2.34,18.41s1.78,9.77,13.2,8.9a22.79,22.79,0,0,0,16.9-9.87l4.91-31s-7.43-5.67-2.16-23a137.49,137.49,0,0,1-32.05-5.06s-5.24,22.76-5.3,31.48S243.9,122.77,243.9,122.77Z" fill="#fff"/><path d="M253.36,150.64a12,12,0,0,1-12.29-9.37.38.38,0,0,1,0-.15l2.28-18c-1.6-.51-6.85-2.78-6.79-10.48.06-8.68,5.1-30.66,5.31-31.59a.51.51,0,0,1,.24-.32.53.53,0,0,1,.39,0,138.39,138.39,0,0,0,31.92,5,.51.51,0,0,1,.39.21.53.53,0,0,1,.08.44c-2.67,8.75-2,14.39-.93,17.58a10.54,10.54,0,0,0,2.92,4.84.52.52,0,0,1,.19.48l-4.92,31a.45.45,0,0,1-.07.18,23.48,23.48,0,0,1-17.29,10.11C254.3,150.62,253.82,150.64,253.36,150.64Zm-11.29-9.47c.19.93,2.23,9.24,12.65,8.41A22.4,22.4,0,0,0,271.18,140L276,109.4c-1.27-1.15-6.8-7.26-2.3-22.69a140.38,140.38,0,0,1-31-4.91c-.78,3.44-5.12,23-5.17,30.86-.06,8.21,6.37,9.61,6.44,9.62a.49.49,0,0,1,.39.55Z" fill="#231f20"/><path d="M270.22,107.61a7.31,7.31,0,0,1,3.06-3.44,12.85,12.85,0,0,1,4.17-1.31,5.32,5.32,0,0,1,2.38,0,4.44,4.44,0,0,1,1.47.82,5.64,5.64,0,0,1,2.2,3.21,6.7,6.7,0,0,1-.37,3.16,13.68,13.68,0,0,1-1.39,3.21,8.82,8.82,0,0,1-12.26,2.66" fill="#fff"/><path d="M274.32,117.81a9.34,9.34,0,0,1-5.11-1.51.5.5,0,1,1,.54-.84A8.31,8.31,0,0,0,281.31,113a12.43,12.43,0,0,0,1.34-3.08A6.14,6.14,0,0,0,283,107a5.18,5.18,0,0,0-2-2.91,3.67,3.67,0,0,0-1.3-.74,4.91,4.91,0,0,0-2.15,0,12.59,12.59,0,0,0-4,1.25,6.8,6.8,0,0,0-2.85,3.21.5.5,0,0,1-.92-.4,7.78,7.78,0,0,1,3.27-3.67,13.18,13.18,0,0,1,4.33-1.37,5.75,5.75,0,0,1,2.61,0,4.91,4.91,0,0,1,1.64.91,6.08,6.08,0,0,1,2.38,3.51,7.1,7.1,0,0,1-.38,3.4,13.84,13.84,0,0,1-1.45,3.32,9.38,9.38,0,0,1-5.89,4.12A9.17,9.17,0,0,1,274.32,117.81Z" fill="#231f20"/><path d="M242.36,133.26a23.08,23.08,0,0,0,11.79-3.89c5.6-3.88,5.62-6.65,5.62-6.65s-8.5,3-15.47.39Z" fill="#231f20"/><path d="M242.36,133.76a.5.5,0,0,1-.49-.59L243.81,123a.53.53,0,0,1,.25-.34.51.51,0,0,1,.42,0c6.7,2.52,15-.36,15.12-.39a.51.51,0,0,1,.46.06.48.48,0,0,1,.2.41c0,.12-.09,3.08-5.83,7.06a23.28,23.28,0,0,1-12.07,4Zm2.32-10-1.71,9a23,23,0,0,0,10.9-3.78c3.57-2.48,4.78-4.47,5.19-5.5C256.76,124.14,250.37,125.66,244.68,123.77Z" fill="#231f20"/><path d="M254.29,96.5s-7.42,7.4-6.35,9.15,5.06,1.53,5.06,1.53" fill="#fff"/><path d="M252.49,107.69c-1.22,0-4-.18-5-1.78-1.18-1.94,4.62-8,6.43-9.77a.5.5,0,1,1,.71.71c-3.87,3.86-6.75,7.77-6.29,8.54.75,1.23,3.59,1.35,4.61,1.29a.49.49,0,0,1,.53.47.51.51,0,0,1-.47.53Z" fill="#231f20"/><path d="M201.9,181.15l6.2-32.42-21.37-4.1-6.21,32.43a10.87,10.87,0,0,0,7,12.28l-3.7,19.34-10.67,6.67,21.37,4.1-7.45-10.15L190.82,190A10.89,10.89,0,0,0,201.9,181.15Z" fill="#fff"/><path d="M194.56,220h-.09l-21.37-4.1a.49.49,0,0,1-.17-.91l10.48-6.56L187,189.66A11.3,11.3,0,0,1,180,177l6.21-32.43a.51.51,0,0,1,.21-.32.56.56,0,0,1,.38-.08l21.37,4.1a.5.5,0,0,1,.4.58l-6.21,32.43a11.31,11.31,0,0,1-11.15,9.22h0l-3.58,18.71,7.32,10a.5.5,0,0,1,0,.56A.52.52,0,0,1,194.56,220Zm-20-4.85,18.87,3.61-6.7-9.12a.52.52,0,0,1-.09-.38l3.71-19.34a.46.46,0,0,1,.51-.4,10.33,10.33,0,0,0,10.56-8.41h0l6.12-31.94-20.39-3.9L181,177.15a10.3,10.3,0,0,0,6.71,11.72.51.51,0,0,1,.33.57l-3.71,19.33a.45.45,0,0,1-.22.33Z" fill="#231f20"/><path d="M184.59,167.63l-1.78,9.26a8.66,8.66,0,1,0,17,3.26l1.52-7.93c.26-1.37,1.14-3.43,0-4.52-.64-.6-1.63-.56-2.3-1.18s-.63-1.38-1.37-1.73a1.84,1.84,0,0,0-1.73.25,17.44,17.44,0,0,0-1.38,1.2,8.78,8.78,0,0,1-5.64,1.58C188.53,167.82,184.64,167.41,184.59,167.63Z" fill="#d1d3d4"/><path d="M202.63,160.8c-.48-3.57-4.46.19-3,2.23a1.42,1.42,0,0,0,.79.6,1.41,1.41,0,0,0,1.11-.3A2.74,2.74,0,0,0,202.63,160.8Z" fill="#d1d3d4"/><path d="M234.72,177l-6.3-32.41-21.36,4.15,6.3,32.41a10.87,10.87,0,0,0,11.1,8.79l3.75,19.32-7.42,10.17,21.36-4.15-10.69-6.65-3.75-19.33A10.87,10.87,0,0,0,234.72,177Z" fill="#fff"/><path d="M220.79,220a.49.49,0,0,1-.42-.24.5.5,0,0,1,0-.56l7.3-10-3.63-18.7h0a11.29,11.29,0,0,1-11.14-9.19l-6.3-32.41a.51.51,0,0,1,.4-.59l21.36-4.15a.49.49,0,0,1,.37.08.52.52,0,0,1,.22.32l6.29,32.41a11.29,11.29,0,0,1-6.93,12.71l3.63,18.7,10.5,6.53a.5.5,0,0,1-.17.92L220.88,220Zm3.67-30.49a.49.49,0,0,1,.49.4l3.75,19.32a.45.45,0,0,1-.09.39l-6.67,9.14,18.86-3.66-9.6-6a.49.49,0,0,1-.23-.33l-3.75-19.32a.51.51,0,0,1,.32-.57,10.3,10.3,0,0,0,6.69-11.73h0L228,145.21l-20.38,4,6.2,31.91a10.43,10.43,0,0,0,10.59,8.39Z" fill="#231f20"/><path d="M230.66,167.61l-.06-.07c-.41-.39-2.41,0-3.07-.07a13.47,13.47,0,0,1-3.8-1,7.45,7.45,0,0,0-3.28-1c-1,.07-2,.65-3,.47a6.89,6.89,0,0,1-1.91-1,1.78,1.78,0,0,0-2,0,2.27,2.27,0,0,0-.45.75c-.6,1.39.09,2.91.36,4.33l.83,4.24,1.14,5.88a8.66,8.66,0,1,0,17-3.3c-.43-2.2-.86-4.41-1.28-6.61A9.52,9.52,0,0,0,230.66,167.61Z" fill="#d1d3d4"/><path d="M103.12,151.39s-11.4,5.25-14.41,17.6c-6,24.48-.53,90.46,3.76,95.92s9.2,2.38,24.59-3.12c16.65-6,71.46-41.67,71.46-41.67s10.74-7.22,11.13-10-1.17-3.12-1.17-3.12,5.07-4.29,2.73-6.64c0,0,2.34-4.49-.2-7.22-1.11-1.2,2.69-6.71-1-7a4,4,0,0,0-2.27.74c-3.18,1.81-9.92,2.28-11.44,3.11-.14-.76,1.22-5.4,0-5.71-4.47-1.12-13.25,19.95-13.25,19.95s-55.16,19-55.16,18.21S115,164,103.12,151.39Z" fill="#fff"/><path d="M97.93,268.27a6.91,6.91,0,0,1-5.85-3c-4.33-5.51-10-71.1-3.86-96.34,3-12.45,14.57-17.89,14.69-17.94a.49.49,0,0,1,.57.11c11.52,12.21,14.6,64.88,14.9,70.87,4.13-1,34.1-11.11,54.3-18.06.44-1,2.46-5.71,4.88-10.23,3.84-7.13,6.74-10.34,8.87-9.8,1.29.32.9,2.63.56,4.67,0,.25-.09.53-.13.77.77-.23,1.86-.43,3.14-.68,2.53-.48,5.67-1.08,7.5-2.12a4.55,4.55,0,0,1,2.56-.8,2.22,2.22,0,0,1,1.72.86c.72,1,.28,2.63-.1,4.06-.21.8-.54,2-.3,2.26,2.37,2.56.93,6.36.42,7.48a2.51,2.51,0,0,1,.53,1.69c-.08,1.92-2.06,4-3,4.95.53.45,1.1,1.39.83,3.27-.41,2.87-10.22,9.55-11.34,10.3-.55.36-55.06,35.82-71.57,41.72-2.32.83-4.41,1.61-6.29,2.31C105,266.79,101,268.27,97.93,268.27ZM103,152c-1.86,1-11.17,6.29-13.8,17.1-5.89,24.19-.5,90.19,3.67,95.49,3.42,4.36,7.31,2.9,17.73-1,1.88-.7,4-1.48,6.29-2.31,16.4-5.87,70.81-41.26,71.36-41.61,4.07-2.75,10.64-7.78,10.9-9.61.32-2.21-.76-2.56-.8-2.57a.51.51,0,0,1-.36-.38.51.51,0,0,1,.16-.48c.86-.73,3.11-3,3.18-4.69a1.55,1.55,0,0,0-.47-1.21.5.5,0,0,1-.09-.59s2.14-4.21-.12-6.65c-.62-.66-.3-1.84.06-3.2s.7-2.59.25-3.23a1.28,1.28,0,0,0-1-.44,3.77,3.77,0,0,0-2,.68c-2,1.13-5.2,1.74-7.8,2.24a18.74,18.74,0,0,0-3.64.88.5.5,0,0,1-.46,0,.48.48,0,0,1-.27-.36,6.35,6.35,0,0,1,.18-1.77c.15-.89.55-3.24.18-3.55-3-.72-9.33,11.67-12.66,19.66a.49.49,0,0,1-.3.28c-54.67,18.82-55.33,18.36-55.6,18.16a.52.52,0,0,1-.22-.42C117.4,221.91,114.63,165.1,103,152Z" fill="#231f20"/><path d="M100.86,228a.5.5,0,0,1-.48-.37.49.49,0,0,1,.34-.61c1.39-.39,16.88-5,17-5.07a.5.5,0,1,1,.28.95c-.64.2-15.65,4.69-17.05,5.08Z" fill="#231f20"/><path d="M332.08,176s-3.11,47.62-19.44,61.67c-11.29,9.72-19.79,2.08-31.29-3.57a139.79,139.79,0,0,1-22.27-13.84,73.91,73.91,0,0,0-8.5-5.72c-4.86-2.69-10.11-4.38-16.14-3.64-3.42.42-10.45,3.17-13-.39a2.6,2.6,0,0,1,.26-3.48,5.9,5.9,0,0,1-2.21-2.08,2,2,0,0,1,.61-2.7,3.51,3.51,0,0,1-1.33-4.63c-3-.82-2-3.94.34-4.66a115.81,115.81,0,0,1,17.83-3.93s15.72,3,22.83,6,34.53,12.2,34.53,12.2l5.85-34.48" fill="#fff"/><path d="M301.66,242.85c-5.08,0-9.93-2.63-15.21-5.49-1.71-.92-3.48-1.88-5.32-2.79a140.72,140.72,0,0,1-22.35-13.89,74.9,74.9,0,0,0-8.44-5.68c-5.57-3.08-10.6-4.22-15.84-3.58-.74.09-1.69.3-2.7.52-3.63.81-8.6,1.92-10.77-1.12a3.27,3.27,0,0,1-.11-3.69,5.36,5.36,0,0,1-1.87-1.94,2.72,2.72,0,0,1,.22-2.88,4.13,4.13,0,0,1-1.24-2,4.07,4.07,0,0,1,.05-2.42,2.48,2.48,0,0,1-1.69-2.26A3.48,3.48,0,0,1,219,192.5a115.52,115.52,0,0,1,17.92-3.94H237c.16,0,15.85,3.07,22.92,6,6.45,2.7,30,10.68,33.94,12l5.76-33.9a.5.5,0,1,1,1,.17l-5.86,34.48a.48.48,0,0,1-.23.34.52.52,0,0,1-.42.05c-.27-.09-27.53-9.27-34.57-12.22-6.71-2.8-21.41-5.7-22.64-5.94a114.66,114.66,0,0,0-17.67,3.9,2.49,2.49,0,0,0-1.87,2.19c0,.71.55,1.24,1.51,1.5a.5.5,0,0,1,.33.29.49.49,0,0,1,0,.44,3,3,0,0,0,1.14,4,.51.51,0,0,1,.26.44.48.48,0,0,1-.27.44,1.57,1.57,0,0,0-.39,2,5.62,5.62,0,0,0,2,1.9.49.49,0,0,1,0,.81,2.13,2.13,0,0,0-.15,2.79c1.78,2.5,6.19,1.51,9.74.73,1-.23,2-.45,2.79-.55,5.46-.67,10.69.51,16.44,3.71a74.29,74.29,0,0,1,8.56,5.75,139.88,139.88,0,0,0,22.19,13.79c1.86.92,3.64,1.88,5.36,2.81,9,4.9,16.17,8.77,25.39.83,16-13.76,19.23-60.84,19.26-61.32a.5.5,0,0,1,.54-.46.49.49,0,0,1,.46.53A209.16,209.16,0,0,1,329,201.69c-3.76,18.24-9.14,30.48-16,36.38C308.94,241.54,305.24,242.85,301.66,242.85Z" fill="#231f20"/><path d="M302.42,136.06l6.88,15.22a4.71,4.71,0,0,0,1.39,2,1.61,1.61,0,0,0,2.21-.23,2.31,2.31,0,0,0,0-1.89,32.76,32.76,0,0,0-1.9-4.68l6.51,8.19c1,1.23,1.86,2.86,3.61,3a1.22,1.22,0,0,0,.73-.12,1.35,1.35,0,0,0,.48-1.36,3.74,3.74,0,0,0-.59-1.61,4.66,4.66,0,0,0,1.69.89c.75.16,1.9-.18,1.61-1.13a9,9,0,0,0-1.51-2.64,3.6,3.6,0,0,0,1.64,1.33,1.17,1.17,0,0,0,1.28-1.55,3.92,3.92,0,0,0-.7-1.24c.39.4.88.84,1.43.72a1.14,1.14,0,0,0,.79-1.17,3.12,3.12,0,0,0-.53-1.42c-.85-1.48-4.27-6.61-5-7.79a39.51,39.51,0,0,0-4.9-6.33,40.63,40.63,0,0,0-10.92-7.82" fill="#fff"/><path d="M321.27,158.2h-.2c-1.68-.13-2.64-1.42-3.48-2.56l-.48-.63-4.2-5.28c.16.43.31.87.45,1.31a2.71,2.71,0,0,1,0,2.31,1.72,1.72,0,0,1-1.13.74,2.38,2.38,0,0,1-1.78-.37,5.12,5.12,0,0,1-1.56-2.23L302,136.26a.49.49,0,0,1,.24-.66.5.5,0,0,1,.66.25l6.88,15.22a4.3,4.3,0,0,0,1.23,1.82,1.4,1.4,0,0,0,1,.22.75.75,0,0,0,.49-.31,1.9,1.9,0,0,0-.07-1.47,31.78,31.78,0,0,0-1.87-4.61.49.49,0,0,1,.18-.64.5.5,0,0,1,.66.11l6.51,8.19c.17.21.34.43.5.66.79,1.06,1.53,2.06,2.75,2.16a.9.9,0,0,0,.45-.06c.22-.12.27-.52.23-.87a3.32,3.32,0,0,0-.5-1.4.5.5,0,0,1,.71-.68,4,4,0,0,0,1.49.81,1.16,1.16,0,0,0,1-.2s.1-.1,0-.3a8.19,8.19,0,0,0-1.43-2.48h0a.49.49,0,0,1,.1-.69.51.51,0,0,1,.7.1,3.11,3.11,0,0,0,1.34,1.14.51.51,0,0,0,.52-.14.85.85,0,0,0,.17-.79,3.21,3.21,0,0,0-.61-1.07.51.51,0,0,1,.08-.68.5.5,0,0,1,.68,0c.27.28.67.63,1,.58s.4-.4.4-.68a2.57,2.57,0,0,0-.46-1.18c-.58-1-2.35-3.71-3.65-5.69L322,140.87a39.14,39.14,0,0,0-4.84-6.26,39.79,39.79,0,0,0-10.78-7.72.49.49,0,1,1,.45-.88,40.75,40.75,0,0,1,11,7.91,39.47,39.47,0,0,1,5,6.41c.24.38.75,1.15,1.35,2.08,1.31,2,3.09,4.71,3.68,5.73a3.39,3.39,0,0,1,.59,1.66,1.62,1.62,0,0,1-1.18,1.67l-.32,0a1.84,1.84,0,0,1-.45,1.6,1.48,1.48,0,0,1-1.24.47c.09.21.17.42.24.64a1.23,1.23,0,0,1-.25,1.26,2.16,2.16,0,0,1-1.94.51,5.22,5.22,0,0,1-.56-.18,2.25,2.25,0,0,1,.06.36,1.77,1.77,0,0,1-.72,1.84A1.58,1.58,0,0,1,321.27,158.2Z" fill="#231f20"/><path d="M250.29,116.75a7.16,7.16,0,0,1-5.4-2c-3-3.11-2.25-8.59-2.22-8.82a.5.5,0,1,1,1,.14s-.72,5.23,2,8c1.35,1.39,3.37,2,6,1.65,8.21-.91,11.93-13,12-13.12a.5.5,0,0,1,1,.29c-.16.53-3.95,12.84-12.82,13.83A14.15,14.15,0,0,1,250.29,116.75Z" fill="#231f20"/><path d="M245.22,92.59s1.31-2.49,3.22-2.63,2.62,2.63,2.62,2.63" fill="#fff"/><path d="M245.22,93.09A.53.53,0,0,1,245,93a.49.49,0,0,1-.2-.67c.05-.11,1.47-2.74,3.62-2.9s3.11,2.87,3.15,3a.5.5,0,0,1-.36.61.5.5,0,0,1-.61-.35s-.65-2.34-2.1-2.27c-1.61.13-2.81,2.35-2.82,2.38A.51.51,0,0,1,245.22,93.09Z" fill="#231f20"/><path d="M256.84,95.23s1.32-2.49,3.22-2.63,2.63,2.63,2.63,2.63" fill="#fff"/><path d="M256.84,95.73a.46.46,0,0,1-.23-.06.5.5,0,0,1-.21-.67c.06-.12,1.47-2.74,3.63-2.9s3.11,2.87,3.14,3a.5.5,0,0,1-1,.26s-.62-2.38-2.11-2.27-2.8,2.35-2.81,2.37A.51.51,0,0,1,256.84,95.73Z" fill="#231f20"/><path d="M73.09,185.23a1.91,1.91,0,0,1-.54-.9,4.58,4.58,0,0,1-.15-.64c0-.05,0-.16,0-.18l0-.45a11.64,11.64,0,0,0-.3-2.95c-.6-1.82-2.71-4-4.71-2.58a1,1,0,1,0,1,1.79,1,1,0,0,1,.17-.1l0,0h.2l.13.05.18.11,0,0,0,0,.21.21a1.54,1.54,0,0,1,.17.19l.11.15a3.74,3.74,0,0,1,.28.52l.06.17c0,.1.06.19.09.29s0,.17,0,.19l0,.25c.14,1.85,0,3.92,1.43,5.31a1,1,0,0,0,1.47-1.47Z" fill="#d1d3d4"/><path d="M339.67,114.66a1,1,0,0,0-1.28-.73c-2.37.92-4.94,1.93-6.6,4a14.68,14.68,0,0,0-1.74,3.09c-.41.85-.88,1.75-1.69,2-1.26.42-.72,2.43.55,2,2.44-.8,2.85-3.34,4.07-5.25s3.81-3,6-3.83A1.06,1.06,0,0,0,339.67,114.66Z" fill="#d1d3d4"/><path d="M132.37,52.46a15.28,15.28,0,0,0-8-1.51,1.07,1.07,0,0,0-1,1,1,1,0,0,0,1,1,13.16,13.16,0,0,1,7,1.23,1.07,1.07,0,0,0,1.42-.38A1,1,0,0,0,132.37,52.46Z" fill="#d1d3d4"/><path d="M312.3,69.53c-2.27.6-3.17,2.94-3.31,5.08-.14,2.29,1,5-.32,7-.73,1.13,1.07,2.17,1.79,1,1.39-2.17.75-4.65.61-7-.09-1.42.13-3.68,1.78-4.12A1,1,0,0,0,312.3,69.53Z" fill="#d1d3d4"/><path d="M189.68,58.47a5.79,5.79,0,0,0-.91-1.48,2.14,2.14,0,0,1-.2-.32v0a1.06,1.06,0,0,0,.59-1.21,1.07,1.07,0,0,0-1.28-.73,1.76,1.76,0,0,0-1.34,1.45,2.64,2.64,0,0,0,.58,2.09c.38.5.77.88.48,1.53a4.58,4.58,0,0,1-1.24,1.46c-1,.93-2.15,2.07-2,3.59a2.49,2.49,0,0,0,2.81,2.39,1,1,0,0,0,.72-1.28,1.06,1.06,0,0,0-1.28-.73c.17,0,.08,0,.07,0a1,1,0,0,1-.19-.26.91.91,0,0,1,.07-.87c.5-.92,1.52-1.47,2.17-2.27A3.61,3.61,0,0,0,189.68,58.47Z" fill="#d1d3d4"/><path d="M84.53,74.39A15,15,0,0,1,83,71.82a4.11,4.11,0,0,1,1.22-4.45A1.07,1.07,0,0,0,84.57,66a1,1,0,0,0-1.42-.37,6.21,6.21,0,0,0-2.41,5.75,6.91,6.91,0,0,0,1.27,3c.5.74,1.34,1.66,1,2.61a1,1,0,0,0,.73,1.27A1.06,1.06,0,0,0,85,77.48,3.65,3.65,0,0,0,84.53,74.39Z" fill="#d1d3d4"/><path d="M83.33,107.12A7.88,7.88,0,0,1,82,107a3.9,3.9,0,0,1-.67-.18,1.61,1.61,0,0,1-.44-.22c-.06,0-.06,0,0,0a.52.52,0,0,1-.11-.1s-.23-.27-.15-.15a1.72,1.72,0,0,1-.22-.59,4.1,4.1,0,0,0-.6-1.59c-1.36-1.84-4-1.08-5.65-.19a1,1,0,0,0,1,1.79,5.57,5.57,0,0,1,1.1-.46,3.2,3.2,0,0,1,1.08-.19h.21l.2,0,.1,0,.11.06c.06.06.14.14.06,0a1.18,1.18,0,0,1,.13.18,4.59,4.59,0,0,1,.21.83c.54,2.3,2.83,2.82,4.89,2.89C84.67,109.25,84.66,107.17,83.33,107.12Z" fill="#d1d3d4"/><path d="M220,97.41l-5.7-1.26a5.92,5.92,0,0,0-7.84-3.26,1,1,0,0,0-.37,1.43,1.07,1.07,0,0,0,1.42.37,3.77,3.77,0,0,1,5,2.62,1.07,1.07,0,0,0,.73.73l6.26,1.38C220.75,99.7,221.31,97.7,220,97.41Z" fill="#d1d3d4"/><path d="M326.62,220.76l-1.52.33a7.7,7.7,0,0,0-8.39-3.68,1,1,0,0,0,.55,2,5.57,5.57,0,0,1,6.28,3.13,1.08,1.08,0,0,0,1.28.73l2.35-.52C328.48,222.47,327.92,220.47,326.62,220.76Z" fill="#d1d3d4"/><path d="M78.29,222.23a2.09,2.09,0,0,0-2.92,0,2.75,2.75,0,0,0-.83,2,11.39,11.39,0,0,1-3.78-.58,1,1,0,0,0-.56,2,13.45,13.45,0,0,0,5.42.59c.51-.05,1.1-.44,1-1a7.09,7.09,0,0,1,0-.92,1.21,1.21,0,0,1,0-.19.29.29,0,0,1,0-.09,1.66,1.66,0,0,1,.06-.21h0c0,.05,0,0,0,0l0,0h0l.07,0a1,1,0,0,0,1.45,0A1.06,1.06,0,0,0,78.29,222.23Z" fill="#d1d3d4"/><path d="M273.24,46c-1.07.65-2.33.2-3.4-.24a17.27,17.27,0,0,0-3.27-1.26c-2.05-.38-4.63,0-5.26,2.35a1,1,0,0,0,2,.55,1.37,1.37,0,0,1,1.31-.94,5.21,5.21,0,0,1,2.61.4c2.23.91,4.7,2.39,7.06.93C275.42,47.05,274.38,45.25,273.24,46Z" fill="#d1d3d4"/><path d="M216,57.45a.72.72,0,0,0-.21-.33L215.6,57a1.08,1.08,0,0,0-.53-.14l-.27,0a1,1,0,0,0-.46.27l-.59.58a.81.81,0,0,0-.21.34.68.68,0,0,0-.09.4.71.71,0,0,0,.09.4.72.72,0,0,0,.21.33l.21.17a1.1,1.1,0,0,0,.53.14l.28,0a1,1,0,0,0,.45-.27l.59-.58a.81.81,0,0,0,.21-.34.68.68,0,0,0,.09-.4A.71.71,0,0,0,216,57.45Z" fill="#d1d3d4"/><path d="M169.77,32.86a.72.72,0,0,0-.21-.33.83.83,0,0,0-.34-.22.87.87,0,0,0-.4-.09l-.27,0a1,1,0,0,0-.46.27l-.16.21a1,1,0,0,0-.15.52v.59a.9.9,0,0,0,.09.4.74.74,0,0,0,.22.33.67.67,0,0,0,.33.22.93.93,0,0,0,.4.09l.28,0a1,1,0,0,0,.46-.27l.16-.21a1,1,0,0,0,.14-.52v-.59A.71.71,0,0,0,169.77,32.86Z" fill="#d1d3d4"/><path d="M347.22,148.91a1,1,0,0,0-.27-.46l-.21-.16a1,1,0,0,0-.52-.14h-.59a.8.8,0,0,0-.4.08.83.83,0,0,0-.33.22.8.8,0,0,0-.22.33.93.93,0,0,0-.09.4l0,.28a1,1,0,0,0,.27.46l.21.16a1,1,0,0,0,.52.14h.59a.78.78,0,0,0,.4-.08.83.83,0,0,0,.33-.22.71.71,0,0,0,.22-.33,1,1,0,0,0,.09-.41Z" fill="#d1d3d4"/><path d="M198.68,106a1,1,0,0,0,0,2.08A1,1,0,0,0,198.68,106Z" fill="#d1d3d4"/><path d="M96.23,90.18a1,1,0,0,0,0,2.08A1,1,0,0,0,96.23,90.18Z" fill="#d1d3d4"/><path d="M66.73,128.88a.87.87,0,0,0-.55-.55.7.7,0,0,0-.4-.09,1,1,0,0,0-.73.3,1.1,1.1,0,0,0-.31.74v1.17a.9.9,0,0,0,.09.4.74.74,0,0,0,.22.34.72.72,0,0,0,.33.21.7.7,0,0,0,.4.09,1.07,1.07,0,0,0,.74-.3,1.14,1.14,0,0,0,.3-.74v-1.17A.7.7,0,0,0,66.73,128.88Z" fill="#d1d3d4"/></g></svg>