<svg xmlns="http://www.w3.org/2000/svg" viewBox="0 0 400 300"><g id="_79_presentation" data-name="#79_presentation"><path d="M338.53,233.58H61.47a.5.5,0,0,1,0-1H338.53a.5.5,0,0,1,0,1Z" fill="#d1d3d4"/><polygon points="229.34 173.85 191.9 250.15 197.25 250.15 236.95 173.85 229.34 173.85" fill="#fff"/><path d="M197.25,250.67H191.9a.52.52,0,0,1-.44-.25.55.55,0,0,1,0-.5l37.45-76.3a.53.53,0,0,1,.46-.28H237a.52.52,0,0,1,.44.24.52.52,0,0,1,0,.51l-39.69,76.3A.53.53,0,0,1,197.25,250.67Zm-4.52-1h4.2l39.17-75.26h-6.43Z" fill="#231f20"/><polygon points="274.21 173.85 311.66 250.15 306.31 250.15 266.61 173.85 274.21 173.85" fill="#fff"/><path d="M311.66,250.67h-5.35a.53.53,0,0,1-.46-.28l-39.7-76.3a.51.51,0,0,1,.46-.75h7.6a.5.5,0,0,1,.46.28l37.45,76.3a.52.52,0,0,1,0,.5A.53.53,0,0,1,311.66,250.67Zm-5-1h4.21l-36.94-75.26h-6.43Z" fill="#231f20"/><polygon points="253.23 237.48 250.32 237.48 249.38 173.85 254.17 173.85 253.23 237.48" fill="#fff"/><path d="M253.23,238h-2.91a.51.51,0,0,1-.51-.51l-.94-63.63a.51.51,0,0,1,.15-.37.49.49,0,0,1,.36-.15h4.79a.51.51,0,0,1,.52.52l-.94,63.63A.53.53,0,0,1,253.23,238Zm-2.4-1h1.89l.93-62.59h-3.74Z" fill="#231f20"/><rect x="175.07" y="40.2" width="153.42" height="130.26" fill="#fff"/><path d="M328.49,171H175.07a.51.51,0,0,1-.52-.51V40.2a.51.51,0,0,1,.52-.51H328.49a.51.51,0,0,1,.52.51V170.47A.51.51,0,0,1,328.49,171Zm-152.91-1H328V40.72H175.58Z" fill="#231f20"/><rect x="171.81" y="170.47" width="159.94" height="6.77" fill="#fff"/><path d="M331.75,177.75H171.81a.51.51,0,0,1-.52-.51v-6.77a.52.52,0,0,1,.52-.52H331.75a.51.51,0,0,1,.51.52v6.77A.51.51,0,0,1,331.75,177.75Zm-159.43-1H331.23V171H172.32Z" fill="#231f20"/><path d="M328.49,171H175.07a.52.52,0,1,1,0-1H328.49a.52.52,0,1,1,0,1Z" fill="#231f20"/><rect x="225.12" y="37.38" width="53.31" height="8.63" fill="#fff"/><path d="M278.43,46.54H225.12a.52.52,0,0,1-.51-.52V37.38a.51.51,0,0,1,.51-.51h53.31a.51.51,0,0,1,.52.51V46A.52.52,0,0,1,278.43,46.54Zm-52.79-1h52.28V37.9H225.64Z" fill="#231f20"/><rect x="197.3" y="127.77" width="18.58" height="26.5" fill="#fff"/><path d="M215.88,154.74H197.3a.47.47,0,0,1-.47-.46V127.77a.47.47,0,0,1,.47-.46h18.58a.47.47,0,0,1,.46.46v26.51A.47.47,0,0,1,215.88,154.74Zm-18.12-.92h17.66V128.24H197.76Z" fill="#d1d3d4"/><rect x="227.42" y="57.55" width="18.58" height="96.73" fill="#fff"/><path d="M246,154.74H227.42a.47.47,0,0,1-.46-.46V57.55a.47.47,0,0,1,.46-.46H246a.47.47,0,0,1,.46.46v96.73A.47.47,0,0,1,246,154.74Zm-18.13-.92h17.66V58H227.88Z" fill="#d1d3d4"/><rect x="257.55" y="80.61" width="18.58" height="73.67" fill="#fff"/><path d="M276.13,154.74H257.55a.47.47,0,0,1-.46-.46V80.61a.46.46,0,0,1,.46-.46h18.58a.45.45,0,0,1,.46.46v73.67A.46.46,0,0,1,276.13,154.74ZM258,153.82h17.66V81.07H258Z" fill="#d1d3d4"/><rect x="287.68" y="100.59" width="18.58" height="53.69" fill="#fff"/><path d="M306.26,154.74H287.68a.46.46,0,0,1-.46-.46V100.59a.45.45,0,0,1,.46-.46h18.58a.46.46,0,0,1,.46.46v53.69A.47.47,0,0,1,306.26,154.74Zm-18.12-.92H305.8V101.05H288.14Z" fill="#d1d3d4"/><path d="M314.28,154.74h-125a.47.47,0,0,1-.46-.46.46.46,0,0,1,.46-.46h125a.46.46,0,0,1,.47.46A.47.47,0,0,1,314.28,154.74Z" fill="#d1d3d4"/><path d="M129.35,236.55V252l7.38,2.11-.17-3.16,3.34,3.34s19.83,3.56,19.73.92-2.11-4.09-4.62-5.41c-2.68-1.41-9.75-5.4-9.75-5.4l-1.06-11.34" fill="#fff"/><path d="M156,256.71c-5.25,0-13.95-1.5-16.14-1.9a.5.5,0,0,1-.28-.14l-2.38-2.38.1,1.81a.5.5,0,0,1-.19.43.53.53,0,0,1-.47.1l-7.38-2.11a.53.53,0,0,1-.37-.5V236.55a.52.52,0,0,1,1,0v15.08l6.31,1.8L136,251a.52.52,0,0,1,.88-.39l3.23,3.23c8.69,1.55,18.34,2.48,19,1.4-.1-2.26-1.81-3.61-4.35-4.95s-9.69-5.37-9.76-5.41a.52.52,0,0,1-.26-.4l-1.06-11.34a.52.52,0,0,1,1-.1l1,11.07c1.25.71,7.13,4,9.5,5.27s4.78,2.9,4.89,5.84a1,1,0,0,1-.37.83C159.21,256.52,157.79,256.71,156,256.71Z" fill="#231f20"/><path d="M107.56,245l-.14,13,8.44,2.24.13-3.69,2.9,4.61s20.83,4.61,21.89,1.8-.79-6.94-5.94-9.45a102.68,102.68,0,0,0-10.28-4.21l-1.18-5.67" fill="#fff"/><path d="M137,264.36c-5.5,0-14.7-1.91-18.22-2.69a.58.58,0,0,1-.32-.23l-2-3.2-.07,2a.55.55,0,0,1-.21.39.5.5,0,0,1-.44.09l-8.44-2.24a.52.52,0,0,1-.38-.51l.13-13a.51.51,0,0,1,.52-.51h0a.51.51,0,0,1,.51.52l-.13,12.56,7.43,2,.11-3a.52.52,0,0,1,1-.26l2.79,4.43c12.48,2.75,20.65,3.23,21.07,2.08,1-2.54-.69-6.38-5.67-8.8a106.1,106.1,0,0,0-10.22-4.2.47.47,0,0,1-.34-.38l-1.19-5.67a.52.52,0,0,1,1-.21L125,248.9a108.47,108.47,0,0,1,10.06,4.15c5.54,2.7,7.31,7.12,6.19,10.09C140.93,264,139.28,264.36,137,264.36Z" fill="#231f20"/><polygon points="102.56 141.81 105.8 246.83 129.18 246.92 128.91 241.52 146.71 242.18 149.15 135.36 102.56 141.81" fill="#231f20"/><path d="M129.18,247.42h0l-23.37-.09a.51.51,0,0,1-.5-.49l-3.24-105a.52.52,0,0,1,.43-.51l46.59-6.45a.53.53,0,0,1,.4.13.49.49,0,0,1,.17.38l-2.44,106.82a.52.52,0,0,1-.16.35.44.44,0,0,1-.36.13L129.44,242l.23,4.86a.5.5,0,0,1-.13.37A.51.51,0,0,1,129.18,247.42Zm-22.9-1.09,22.37.09-.23-4.88a.47.47,0,0,1,.14-.37.46.46,0,0,1,.37-.15l17.29.64,2.42-105.73-45.57,6.31Z" fill="#231f20"/><path d="M119.92,76.9S101.18,81.09,98.2,88.79s5.15,49.62,5.15,49.62l45.21-4.55S149.8,90,146.78,81.27C140.87,75.37,132,74.81,119.92,76.9Z" fill="#ff0440"/><path d="M135.37,40.83a13.53,13.53,0,0,1,5.78,4.49,11.88,11.88,0,0,1,2.22,7c-.05,3.19-1.23,4.57-3.39,6.63-1.81,1.73-4.73,2.18-7.08,2.64-2.08.4-4.28,1.12-6.36,1.34s-4.58.58-6.51-.1c-2.42-.85-4.34-3.92-5.73-6-1.74-2.57-1.29-6.12-.13-8.89a5,5,0,0,1,1.58-2.22,2.3,2.3,0,0,1,2.6-.15c2.13-4.15,7.12-6.24,11.78-6A15.55,15.55,0,0,1,135.37,40.83Z" fill="#fff"/><path d="M122.81,63.79a8.89,8.89,0,0,1-3-.42c-2.4-.84-4.28-3.63-5.65-5.67l-.33-.5c-1.6-2.34-1.66-5.85-.18-9.37a5.43,5.43,0,0,1,1.76-2.45,2.92,2.92,0,0,1,2.68-.42c2.19-3.76,6.93-6.08,12-5.84a16.26,16.26,0,0,1,5.42,1.23h0a14,14,0,0,1,6,4.67,12.32,12.32,0,0,1,2.31,7.35c0,3.42-1.37,4.93-3.54,7-1.78,1.7-4.45,2.21-6.8,2.66l-.54.1c-.78.16-1.57.35-2.37.55a34,34,0,0,1-4,.81l-.47,0A31,31,0,0,1,122.81,63.79Zm-5.57-18a2.09,2.09,0,0,0-1.19.39,4.41,4.41,0,0,0-1.4,2c-1.35,3.21-1.32,6.35.08,8.4l.33.5c1.3,1.92,3.07,4.55,5.14,5.28,1.67.58,4,.33,5.8.12l.48-.05a32.42,32.42,0,0,0,3.9-.78c.82-.2,1.63-.4,2.42-.56l.54-.1c2.22-.43,4.72-.91,6.29-2.4,2.21-2.11,3.18-3.34,3.22-6.27a11.27,11.27,0,0,0-2.12-6.74,13,13,0,0,0-5.56-4.32h0a15.21,15.21,0,0,0-5.07-1.15c-4-.2-9.12,1.5-11.3,5.73a.5.5,0,0,1-.33.27.56.56,0,0,1-.42-.08A1.38,1.38,0,0,0,117.24,45.83Z" fill="#231f20"/><path d="M136.11,72.24l.85,9.23S133,86.12,127,84.81s-7-5.41-7-5.41l-.28-16.81s4.37-2.45,2.88-12c0,0,9.26,2.64,18.09,1.34,0,0,.35,10.85-.27,15.48S136.11,72.24,136.11,72.24Z" fill="#fff"/><path d="M129.19,85.56a10.8,10.8,0,0,1-2.27-.25c-6.24-1.37-7.3-5.61-7.35-5.79a.41.41,0,0,1,0-.11l-.28-16.82a.53.53,0,0,1,.27-.46s4-2.44,2.62-11.48a.51.51,0,0,1,.16-.47.55.55,0,0,1,.49-.11c.09,0,9.26,2.6,17.88,1.33a.56.56,0,0,1,.41.11.51.51,0,0,1,.18.38c0,.45.34,11-.28,15.57-.53,3.91-3.19,4.94-4.34,5.21l.81,8.75a.51.51,0,0,1-.12.38A11.44,11.44,0,0,1,129.19,85.56Zm-8.6-6.23c.13.46,1.25,3.81,6.55,5,5,1.11,8.55-2.24,9.29-3l-.83-9a.51.51,0,0,1,.12-.39.49.49,0,0,1,.36-.17h0c.13,0,3.35-.28,3.91-4.41.53-3.93.34-12.53.29-14.82a50.07,50.07,0,0,1-17-1.24c1,8-2,10.89-3,11.6Z" fill="#231f20"/><path d="M123.29,62.22a3.85,3.85,0,0,0-1.37-2,6.64,6.64,0,0,0-2.11-1,2.86,2.86,0,0,0-1.26-.2,2.32,2.32,0,0,0-.84.32,3,3,0,0,0-1.4,1.54,3.49,3.49,0,0,0,0,1.7,7,7,0,0,0,.5,1.81,4.72,4.72,0,0,0,6.3,2.33" fill="#fff"/><path d="M121.06,67.62a5.41,5.41,0,0,1-1.82-.32,5.29,5.29,0,0,1-2.95-2.76,7.8,7.8,0,0,1-.54-1.94,4,4,0,0,1,.07-1.94,3.45,3.45,0,0,1,1.63-1.82,2.92,2.92,0,0,1,1-.39,3.36,3.36,0,0,1,1.49.22,7.2,7.2,0,0,1,2.27,1.09,4.43,4.43,0,0,1,1.55,2.33.52.52,0,0,1-.37.63.51.51,0,0,1-.63-.37,3.43,3.43,0,0,0-1.18-1.78,6.49,6.49,0,0,0-2-.92,2.44,2.44,0,0,0-1-.18,2.07,2.07,0,0,0-.65.26A2.55,2.55,0,0,0,116.79,61a3.08,3.08,0,0,0,0,1.45,6.71,6.71,0,0,0,.46,1.68,4.19,4.19,0,0,0,5.61,2.07.53.53,0,0,1,.69.25.52.52,0,0,1-.25.69A5.2,5.2,0,0,1,121.06,67.62Z" fill="#231f20"/><path d="M136.32,76.83A7.72,7.72,0,0,1,130.18,75c-2.68-2.48-2.48-4-2.48-4s4.28,2.23,8.17,1.37Z" fill="#231f20"/><path d="M135.32,77.4a8,8,0,0,1-5.48-2.07c-2.79-2.57-2.66-4.2-2.64-4.38a.49.49,0,0,1,.27-.37.47.47,0,0,1,.46,0s4.18,2.14,7.83,1.32a.48.48,0,0,1,.4.09.5.5,0,0,1,.21.35l.45,4.44a.5.5,0,0,1-.41.54A6.41,6.41,0,0,1,135.32,77.4Zm-6.92-5.52a8.2,8.2,0,0,0,2.12,2.72,7.26,7.26,0,0,0,5.26,1.79L135.43,73A13.85,13.85,0,0,1,128.4,71.88Z" fill="#231f20"/><ellipse cx="128.57" cy="57.39" rx="0.77" ry="1.09" transform="translate(-6.6 17.97) rotate(-7.79)" fill="#231f20"/><ellipse cx="138.54" cy="57.61" rx="0.77" ry="1.09" transform="translate(-6.53 19.32) rotate(-7.79)" fill="#231f20"/><path d="M133.1,67a9.6,9.6,0,0,1-5.7-2.16.5.5,0,1,1,.59-.8c5.88,4.32,9.24.26,9.38.09a.5.5,0,0,1,.7-.08.5.5,0,0,1,.08.7A6.87,6.87,0,0,1,133.1,67Z" fill="#231f20"/><path d="M131.91,61.17h-6A1.83,1.83,0,0,1,124,59.35V56.46a1.83,1.83,0,0,1,1.83-1.82h6a1.83,1.83,0,0,1,1.82,1.82v2.89A1.83,1.83,0,0,1,131.91,61.17Zm-6-5.54a.83.83,0,0,0-.83.83v2.89a.83.83,0,0,0,.83.82h6a.83.83,0,0,0,.83-.82V56.46a.83.83,0,0,0-.83-.83Z" fill="#231f20"/><path d="M142.57,61.17h-6a1.82,1.82,0,0,1-1.82-1.82V56.46a1.82,1.82,0,0,1,1.82-1.82h6a1.82,1.82,0,0,1,1.82,1.82v2.89A1.82,1.82,0,0,1,142.57,61.17Zm-6-5.54a.83.83,0,0,0-.83.83v2.89a.83.83,0,0,0,.83.82h6a.83.83,0,0,0,.83-.82V56.46a.83.83,0,0,0-.83-.83Z" fill="#231f20"/><path d="M133.86,57.22s3.38,4.48,2.69,5.33-2.8.43-2.8.43" fill="#fff"/><path d="M134.85,63.59a5.72,5.72,0,0,1-1.2-.12.48.48,0,0,1-.39-.58.5.5,0,0,1,.58-.4c.59.12,1.94.21,2.32-.25.11-.43-1.14-2.66-2.7-4.72a.5.5,0,1,1,.8-.6c1.65,2.19,3.45,5,2.67,5.95A2.67,2.67,0,0,1,134.85,63.59Z" fill="#231f20"/><path d="M129.44,241.36a.51.51,0,0,1-.5-.5l-.09-80.75a.5.5,0,0,1,.5-.5h0a.5.5,0,0,1,.5.5l.09,80.75a.51.51,0,0,1-.5.5Z" fill="#fff"/><rect x="100.96" y="133.48" width="49.12" height="7.56" transform="translate(-4.17 3.94) rotate(-1.77)" fill="#fff"/><path d="M101.09,142.31a.54.54,0,0,1-.36-.14.52.52,0,0,1-.16-.36l-.23-7.55a.51.51,0,0,1,.5-.53l49.1-1.52a.6.6,0,0,1,.37.14.52.52,0,0,1,.16.36l.23,7.56a.51.51,0,0,1-.5.53l-49.1,1.51Zm.3-7.57.2,6.53,48.07-1.49-.2-6.52Z" fill="#231f20"/><rect x="123.74" y="133.38" width="11.45" height="7.56" transform="translate(-4.09 3.98) rotate(-1.73)" fill="#fff"/><path d="M123.86,141.62a.5.5,0,0,1-.35-.14.53.53,0,0,1-.17-.36l-.22-7.55a.51.51,0,0,1,.5-.53l11.44-.35a.52.52,0,0,1,.53.5l.23,7.56a.57.57,0,0,1-.14.37.62.62,0,0,1-.36.16l-11.44.34Zm.3-7.57.2,6.53,10.41-.32-.2-6.52Z" fill="#231f20"/><rect x="126.31" y="135.07" width="6.77" height="4.16" transform="translate(-4.09 3.99) rotate(-1.73)" fill="#231f20"/><path d="M117.83,90a6.83,6.83,0,0,1-2.73-.47,3.05,3.05,0,0,1-1.68-1.74c-1.67-4.44,2.2-9.19,2.36-9.39a.52.52,0,1,1,.8.66s-3.66,4.49-2.2,8.37a2,2,0,0,0,1.14,1.15c3.17,1.42,10.54-1.42,10.62-1.45a.52.52,0,0,1,.67.3.51.51,0,0,1-.3.66A28.8,28.8,0,0,1,117.83,90Z" fill="#231f20"/><path d="M138.72,90.61c-3.61,0-8.4-2.89-8.65-3a.51.51,0,0,1-.17-.71.51.51,0,0,1,.7-.17c2,1.21,7.67,4,10,2.41s.63-7.14-.19-9.16a.52.52,0,1,1,1-.39c.13.33,3.2,8.06-.18,10.4A4.23,4.23,0,0,1,138.72,90.61Z" fill="#231f20"/><path d="M130.72,130.88a.51.51,0,0,1-.51-.51c0-30.06-1.27-40.67-1.28-40.78a.51.51,0,0,1,1-.13c0,.11,1.29,10.77,1.29,40.91A.51.51,0,0,1,130.72,130.88Z" fill="#231f20"/><path d="M102.53,148.62c-.23,2-.94,3.54,1.21,4.4,2.79,1.11,5.74,1.92,8.58,2.88a2,2,0,0,1,.82.42.68.68,0,0,1,.15.84c-.2.3-.63.3-1,.27a34,34,0,0,1-6.48-1.3,17.74,17.74,0,0,1,4.73,1.76c.57.3,1.2.93.86,1.48-.23.38-.77.39-1.21.35a36.09,36.09,0,0,1-5.36-.88,8.63,8.63,0,0,1,5.11,2.53.63.63,0,0,1,.23.37c0,.39-.48.56-.88.56a11.33,11.33,0,0,1-4.55-1l3.59,1.81c.65.33,1.42.9,1.24,1.61a1.11,1.11,0,0,1-.93.73c-1.57.24-4-.65-5.58-1a13.52,13.52,0,0,1-4.41-2.2C95.31,160,88.47,153,86.36,149.51l4-8.27A68.37,68.37,0,0,0,102.53,148.62Z" fill="#fff"/><path d="M108.07,166.05a15.9,15.9,0,0,1-3.88-.75c-.44-.13-.86-.24-1.23-.33a13.76,13.76,0,0,1-4.58-2.28c-3.33-2.3-10.23-9.23-12.46-12.91a.48.48,0,0,1,0-.49l4-8.28a.55.55,0,0,1,.35-.28.56.56,0,0,1,.44.1,67.48,67.48,0,0,0,12.1,7.33.51.51,0,0,1,.29.52c0,.36-.09.7-.15,1-.25,1.61-.3,2.29,1,2.83,1.84.73,3.8,1.35,5.69,1.94,1,.31,1.92.61,2.87.93a2.42,2.42,0,0,1,1,.54,1.21,1.21,0,0,1,.21,1.5,1.5,1.5,0,0,1-1.46.49l-.86-.1a2,2,0,0,1,.59.89,1.12,1.12,0,0,1-.13.91,1.72,1.72,0,0,1-1.69.6l-.79-.08a9.47,9.47,0,0,1,1,.85,1.14,1.14,0,0,1,.37.67.9.9,0,0,1-.21.7,1.65,1.65,0,0,1-1.17.44l-.53,0c1.39.78,1.42,1.64,1.3,2.09a1.6,1.6,0,0,1-1.35,1.11A4.91,4.91,0,0,1,108.07,166.05ZM86.94,149.48c2.28,3.55,8.88,10.19,12,12.36A12.66,12.66,0,0,0,103.2,164c.38.09.81.21,1.26.34a11.67,11.67,0,0,0,4.12.68.63.63,0,0,0,.51-.35c.09-.34-.45-.75-1-1l-3.58-1.81a.51.51,0,0,1-.24-.68.53.53,0,0,1,.68-.25,11.19,11.19,0,0,0,4.34.92.67.67,0,0,0,.3,0h0a8,8,0,0,0-3.27-2c-.53-.1-1.06-.22-1.59-.35a.51.51,0,0,1-.39-.59.52.52,0,0,1,.57-.42,9.37,9.37,0,0,1,1.67.36,35,35,0,0,0,3.68.52c.56,0,.7-.06.73-.11a1.23,1.23,0,0,0-.67-.76,17.83,17.83,0,0,0-2.77-1.2c-.63-.16-1.25-.33-1.87-.52a.51.51,0,0,1-.35-.62.53.53,0,0,1,.61-.38c.64.14,1.27.32,1.9.52a32.83,32.83,0,0,0,4.52.77c.43.05.5,0,.5,0a.27.27,0,0,0-.08-.2,1.62,1.62,0,0,0-.62-.29c-.94-.32-1.9-.62-2.85-.92-1.91-.6-3.88-1.22-5.76-2-2.16-.87-1.92-2.44-1.67-3.95l.09-.62A70.41,70.41,0,0,1,90.52,142Z" fill="#231f20"/><path d="M100.91,85s-35.26,31.4-38.43,37.28,26.88,34.39,26.88,34.39l8.18-12.5L85,123.64,113.9,104Z" fill="#ff0440"/><path d="M116.94,110.47l-.12,0c-.6-.12-4.48-2.84-6.74-4.45a.51.51,0,0,1-.21-.42v-8.3a.51.51,0,0,1,.51-.52H122a.55.55,0,0,1,.38.16.52.52,0,0,1,.14.39l-.53,8.3a.49.49,0,0,1-.13.31C118.19,110.06,117.3,110.47,116.94,110.47Zm-.08-1Zm-6-4.13c2.56,1.82,5.36,3.73,6,4.08a34.38,34.38,0,0,0,4-4l.48-7.58H110.9Z" fill="#231f20"/><path d="M201.15,94.19a4.61,4.61,0,0,1,2-.61,4.81,4.81,0,0,1,1.57.38c2.45.91,4.86,1.92,7.23,3,.58.27,1.22.63,1.32,1.26s-.63,1.34-1.36,1.5-1.5,0-2.22.23c.79-.18,1.5.76,1.31,1.54a2,2,0,0,1-1.79,1.4,6,6,0,0,1-2.37-.35,1.32,1.32,0,0,1,1.09,1.84,2.15,2.15,0,0,1-2.13,1.12,6.36,6.36,0,0,1-2.4-.83c.93.51,2,1.32,1.78,2.36a1.79,1.79,0,0,1-1.94,1.15,8.61,8.61,0,0,1-2.32-.79c-5.2-2-14.1.89-14.21.64-.63-1.45-.5-4.57-.73-6.14A111.81,111.81,0,0,1,201.15,94.19Z" fill="#fff"/><path d="M203.43,108.71h-.21a6,6,0,0,1-1.9-.58l-.57-.24c-3.87-1.52-10-.15-12.63.44-1.42.32-1.67.38-1.87-.07a14.45,14.45,0,0,1-.61-4.3c0-.75-.07-1.46-.15-2a.53.53,0,0,1,.24-.52,97.14,97.14,0,0,1,12.78-6.65c.84-.37,1.63-.72,2.41-1.09h0a5.41,5.41,0,0,1,2.26-.65,5.06,5.06,0,0,1,1.74.41c2.45.91,4.89,1.93,7.27,3,.44.21,1.46.68,1.61,1.65a2,2,0,0,1-1.76,2.08,4.43,4.43,0,0,1-.72.09,1.86,1.86,0,0,1,.2,1.3,2.55,2.55,0,0,1-2.22,1.79,5.25,5.25,0,0,1-.79,0,1.94,1.94,0,0,1-.08,1.17,2.65,2.65,0,0,1-2.64,1.42l-.21,0a1.84,1.84,0,0,1,.12,1.15A2.22,2.22,0,0,1,203.43,108.71Zm-7.09-2.55a13.27,13.27,0,0,1,4.79.76l.61.25a4.8,4.8,0,0,0,1.56.5,1.26,1.26,0,0,0,1.39-.75c.16-.7-.74-1.36-1.52-1.79a.51.51,0,0,1,.48-.91,5.74,5.74,0,0,0,2.2.77,1.66,1.66,0,0,0,1.63-.8,1,1,0,0,0-.12-.85.92.92,0,0,0-.14-.15l-.5-.14a.52.52,0,0,1,.11-1,1.39,1.39,0,0,1,.82.2,4.4,4.4,0,0,0,1.52.15,1.56,1.56,0,0,0,1.35-1,.82.82,0,0,0-.24-.74.53.53,0,0,0-.46-.18.51.51,0,0,1-.24-1,5.66,5.66,0,0,1,1.28-.15,4.89,4.89,0,0,0,1-.09c.51-.11,1-.51,1-.91s-.58-.66-1-.87c-2.36-1.08-4.78-2.09-7.2-3a4.19,4.19,0,0,0-1.39-.34,3.75,3.75,0,0,0-1.81.56h0c-.79.37-1.59.72-2.44,1.09a97.68,97.68,0,0,0-12.37,6.42c.06.5.09,1.1.12,1.73a16.74,16.74,0,0,0,.41,3.59l.81-.18A40,40,0,0,1,196.34,106.16Z" fill="#231f20"/><polygon points="191.47 113.31 235.66 67.1 236.62 68.1 193.18 115.68 191.47 113.31" fill="#231f20"/><path d="M193.18,116.18h0a.52.52,0,0,1-.38-.21l-1.72-2.37a.49.49,0,0,1,.05-.63L235.3,66.76a.48.48,0,0,1,.36-.16h0a.52.52,0,0,1,.36.16l.95,1a.49.49,0,0,1,0,.68L193.55,116A.51.51,0,0,1,193.18,116.18Zm-1.07-2.82,1.12,1.53,42.7-46.78-.27-.29Z" fill="#231f20"/><path d="M203.56,96.22l-.3,1.29,3.39.95a4.3,4.3,0,0,1,1.93.9,1.49,1.49,0,0,1,.25,1.94c-.52.6-1.47.45-2.26.34a10.7,10.7,0,0,0-5,.45,19.34,19.34,0,0,0-2.39,1l-1.44.68" fill="#fff"/><path d="M197.69,104.32a.52.52,0,0,1-.22-1l1.43-.68a21.39,21.39,0,0,1,2.46-1.05,11.44,11.44,0,0,1,5.29-.48c.7.11,1.46.22,1.79-.16a1,1,0,0,0-.22-1.23,3.88,3.88,0,0,0-1.71-.77L203.12,98a.51.51,0,0,1-.36-.62l.29-1.29a.52.52,0,1,1,1,.23l-.19.82,2.92.81a4.77,4.77,0,0,1,2.15,1,2,2,0,0,1,.28,2.64c-.7.81-1.85.64-2.69.51a10.29,10.29,0,0,0-4.84.43,19.72,19.72,0,0,0-2.32,1l-1.45.7A.64.64,0,0,1,197.69,104.32Z" fill="#231f20"/><path d="M146.78,81.27s14.89,25.34,17,25.72S190,95.54,190,95.54l4.63,11.76s-23.73,25.12-32.17,21.17-18.57-20.92-18.57-20.92Z" fill="#ff0440"/><path d="M106.77,150a.5.5,0,0,1-.15-1,5.44,5.44,0,0,0,3.67-5.06.5.5,0,0,1,.5-.5h0a.49.49,0,0,1,.5.49,6.39,6.39,0,0,1-4.37,6A.4.4,0,0,1,106.77,150Z" fill="#fff"/><path d="M148.39,151h-.06a3.47,3.47,0,0,1-1.75-.93,14.85,14.85,0,0,1-2.71-2.72,5.26,5.26,0,0,1-1.07-3.86.5.5,0,0,1,1,.16,4.4,4.4,0,0,0,.9,3.13,13.78,13.78,0,0,0,2.54,2.52,2.58,2.58,0,0,0,1.23.72.49.49,0,0,1,.43.55A.5.5,0,0,1,148.39,151Z" fill="#fff"/><path d="M129.59,157.57a.59.59,0,0,1-.22,0,.51.51,0,0,1-.23-.67,24.55,24.55,0,0,0,2.41-13.17.51.51,0,0,1,.45-.55.49.49,0,0,1,.54.45,25.64,25.64,0,0,1-2.5,13.71A.49.49,0,0,1,129.59,157.57Z" fill="#fff"/><path d="M149,130.88a.52.52,0,0,1-.52-.5l-.61-34.15a.52.52,0,0,1,.51-.53.49.49,0,0,1,.52.51l.61,34.15a.51.51,0,0,1-.5.52Z" fill="#231f20"/><path d="M90.31,120.56a.52.52,0,0,1-.29-.94l13.67-9.3a.51.51,0,0,1,.71.14.52.52,0,0,1-.13.72L90.6,120.47A.52.52,0,0,1,90.31,120.56Z" fill="#231f20"/></g></svg>