<?xml version="1.0" encoding="utf-8"?>
<!-- Generator: Adobe Illustrator 25.0.0, SVG Export Plug-In . SVG Version: 6.00 Build 0)  -->
<svg version="1.1" id="Layer_1" xmlns="http://www.w3.org/2000/svg" xmlns:xlink="http://www.w3.org/1999/xlink" x="0px" y="0px"
	 viewBox="0 0 400 300" style="enable-background:new 0 0 400 300;" xml:space="preserve">
<style type="text/css">
	.st0{fill:#D1D3D4;}
	.st1{fill:#FFFFFF;}
	.st2{fill:#FF0440;}
	.st3{fill:#231F20;}
	.st4{fill:none;}
</style>
<path class="st0" d="M345.8,239H66.8c-0.3,0-0.5-0.2-0.5-0.5s0.2-0.5,0.5-0.5h279.1c0.3,0,0.5,0.2,0.5,0.5S346.1,239,345.8,239z"/>
<ellipse class="st1" cx="126" cy="91.8" rx="71.8" ry="54.9"/>
<path class="st0" d="M126,147.2c-39.9,0-72.3-24.9-72.3-55.4S86.1,36.4,126,36.4s72.3,24.9,72.3,55.4S165.8,147.2,126,147.2z
	 M126,37.4c-39.3,0-71.3,24.4-71.3,54.4s32,54.4,71.3,54.4s71.3-24.4,71.3-54.4S165.3,37.4,126,37.4z"/>
<path class="st1" d="M205.8,68.2c-0.3,0-0.7,0.1-1,0.1c-3.8,1-4.8,6.1-0.6,7.5c2.3,0.6,4.6-0.7,5.3-3c0-0.2,0.1-0.3,0.1-0.5
	c0.3-2-1.2-3.9-3.2-4.2C206.1,68.2,205.9,68.2,205.8,68.2z"/>
<path class="st0" d="M205.3,76.5c-0.4,0-0.9-0.1-1.3-0.2c-1.8-0.5-3.1-2.2-3.1-4.1c0.1-2.1,1.6-3.9,3.7-4.4c0.4-0.1,0.8-0.1,1.1-0.1
	l0,0c2.3,0,4.2,1.8,4.3,4.1c0,0.2,0,0.4,0,0.6c-0.2,1.4-0.9,2.6-2.1,3.3C207.1,76.2,206.2,76.5,205.3,76.5z M205.8,68.7
	c-0.3,0-0.6,0-0.9,0.1c-1.6,0.4-2.8,1.8-2.9,3.5c0,1.5,1,2.7,2.4,3.1c2,0.5,4.1-0.7,4.6-2.7c0-0.1,0.1-0.2,0.1-0.4
	c0.2-1.8-1-3.4-2.8-3.6C206.1,68.7,205.9,68.7,205.8,68.7L205.8,68.7z M205.8,68.2L205.8,68.2z"/>
<path class="st2" d="M293.1,170.6l20.7-5.2c-0.8-1.5-13.3-39.2-24.9-46.5c-9.9-8.2-29.8-9-52.2-9.9c-7.2-0.4-14.4,0.3-21.4,2.1
	c-26.2,7.2-44.7,44.5-44.7,44.5l25.8,5.1c0,0-4.1,38.4-7.7,85.3c0,0,41.2,9.3,105.5,5.7C294.3,251.5,292.5,177.2,293.1,170.6z"/>
<polygon class="st3" points="230.2,122 208.8,250.4 252.3,253.6 261.7,114.7 "/>
<path class="st3" d="M252.3,254.1L252.3,254.1l-43.4-3.1c-0.1,0-0.3-0.1-0.4-0.2c-0.1-0.1-0.1-0.3-0.1-0.4l21.4-128.4
	c0-0.2,0.2-0.4,0.4-0.4l31.5-7.4c0.2,0,0.3,0,0.4,0.1c0.1,0.1,0.2,0.3,0.2,0.4l-9.4,138.9c0,0.1-0.1,0.3-0.2,0.3
	C252.6,254,252.4,254.1,252.3,254.1z M209.4,250l42.4,3.1l9.3-137.7l-30.5,7.1L209.4,250z"/>
<path class="st1" d="M233.1,103.3l-4,16.8c0,0,3.4,11.3,14.8,10.4c6.8-0.6,13-4.2,16.9-9.8l4.9-30.9c0,0-7.4-5.7-2.2-22.9
	c-9.6,2.4-19.6,2.2-29.1-0.7c0,0-8.1,18.3-8.1,27S233.1,103.3,233.1,103.3z"/>
<path class="st3" d="M242.7,131c-10.6,0-14-10.7-14.1-10.8c0-0.1,0-0.2,0-0.3l3.9-16.3c-1.6-0.5-6.8-2.8-6.7-10.4
	c0.1-8.7,7.8-26.4,8.2-27.2c0.1-0.2,0.4-0.4,0.6-0.3c9.4,2.8,19.3,3,28.8,0.7c0.2,0,0.4,0,0.5,0.1c0.1,0.1,0.2,0.3,0.1,0.5
	c-2.6,8.7-2,14.3-0.9,17.5c0.5,1.9,1.5,3.5,3,4.8c0.1,0.1,0.2,0.3,0.2,0.5l-4.9,30.9c0,0.1,0,0.1-0.1,0.2c-4,5.8-10.3,9.5-17.3,10.1
	C243.5,131,243.1,131,242.7,131z M229.6,120c0.4,1.3,3.9,10.7,14.2,10c6.6-0.6,12.6-4.1,16.4-9.5l4.8-30.5
	c-1.3-1.1-6.7-7.2-2.4-22.4c-9.3,2.1-18.9,1.8-28.1-0.8c-1.2,2.7-7.9,18.6-7.9,26.4c-0.1,8.2,6.1,9.5,6.4,9.6c0.1,0,0.3,0.1,0.3,0.2
	c0.1,0.1,0.1,0.2,0.1,0.4L229.6,120z"/>
<path class="st1" d="M259.3,88.2c0.6-1.4,1.7-2.6,3-3.4c1.3-0.7,2.7-1.1,4.1-1.3c0.8-0.2,1.6-0.2,2.4,0c0.5,0.2,1,0.5,1.5,0.8
	c1.1,0.8,1.9,1.9,2.2,3.2c0.1,1.1,0,2.1-0.4,3.1c-0.3,1.1-0.8,2.2-1.4,3.2c-2.6,4.1-8,5.3-12.1,2.7c0,0-0.1,0-0.1-0.1"/>
<path class="st3" d="M263.4,98.3c-1.8,0-3.6-0.5-5.1-1.5c-0.2-0.2-0.3-0.5-0.1-0.7c0.1-0.2,0.4-0.3,0.7-0.2c0,0,0,0,0,0
	c3.8,2.5,9,1.4,11.5-2.4c0,0,0-0.1,0.1-0.1c0.6-1,1-2,1.3-3.1c0.3-0.9,0.5-1.9,0.4-2.9c-0.3-1.2-1-2.2-2-2.9
	c-0.4-0.3-0.8-0.6-1.3-0.7c-0.7-0.2-1.4-0.2-2.1,0c-1.4,0.2-2.7,0.6-4,1.2c-1.3,0.7-2.3,1.8-2.8,3.2c-0.1,0.3-0.4,0.4-0.7,0.3
	c-0.3-0.1-0.4-0.4-0.3-0.7c0.7-1.5,1.8-2.8,3.3-3.7c1.3-0.7,2.8-1.2,4.3-1.4c0.9-0.2,1.7-0.2,2.6,0c0.6,0.2,1.2,0.5,1.6,0.9
	c1.2,0.8,2,2.1,2.3,3.5c0.2,1.1,0,2.3-0.4,3.4c-0.3,1.2-0.8,2.3-1.4,3.3c-1.3,2.1-3.4,3.6-5.9,4.1C264.7,98.2,264,98.3,263.4,98.3z"
	/>
<path class="st3" d="M231.5,111.7c4,1.1,8.3,0.5,11.8-1.8c5.6-3.9,5.6-6.6,5.6-6.6s-8.5,3-15.4,0.4L231.5,111.7z"/>
<path class="st3" d="M235.5,112.7c-1.4,0-2.8-0.2-4.2-0.6c-0.2-0.1-0.4-0.3-0.3-0.6l2-8.1c0-0.1,0.1-0.3,0.3-0.3
	c0.1-0.1,0.3-0.1,0.4,0c6.7,2.5,15-0.4,15.1-0.4c0.2-0.1,0.3,0,0.5,0.1c0.1,0.1,0.2,0.2,0.2,0.4c0,0.1-0.1,3.1-5.8,7
	C241.2,111.9,238.4,112.7,235.5,112.7z M232.1,111.3c3.7,0.9,7.7,0.2,10.9-1.9c3.6-2.5,4.8-4.4,5.2-5.5c-2.3,0.7-8.7,2.2-14.4,0.3
	L232.1,111.3z"/>
<path class="st1" d="M245.1,79c0,0-7.4,7.4-6.3,9.1s5,1.5,5,1.5"/>
<path class="st3" d="M243.3,90.1c-1.2,0-4-0.2-5-1.8c-1.2-1.9,4.6-7.9,6.4-9.7c0.2-0.2,0.5-0.2,0.7,0c0.2,0.2,0.2,0.5,0,0.7
	c-3.9,3.8-6.7,7.7-6.3,8.5c0.7,1.2,3.6,1.3,4.6,1.3c0.3,0,0.5,0.2,0.5,0.5c0,0,0,0,0,0c0,0.3-0.2,0.5-0.4,0.5c0,0,0,0,0,0
	L243.3,90.1z"/>
<ellipse transform="matrix(0.1113 -0.9938 0.9938 0.1113 144.8242 321.3639)" class="st3" cx="252.1" cy="79.7" rx="2" ry="1.4"/>
<ellipse transform="matrix(0.3992 -0.9169 0.9169 0.3992 72.7211 265.2734)" class="st3" cx="238.8" cy="77.1" rx="2" ry="1.4"/>
<path class="st3" d="M250.7,98.7c-0.1,0-0.3-0.1-0.4-0.1c-4.4-4.3-16.4-6.9-16.6-6.9c-0.3-0.1-0.4-0.3-0.4-0.6c0,0,0,0,0,0
	c0.1-0.3,0.3-0.4,0.6-0.4c0,0,0,0,0,0c0.5,0.1,12.4,2.7,17,7.2c0.2,0.2,0.2,0.5,0,0.7C250.9,98.6,250.8,98.7,250.7,98.7L250.7,98.7z
	"/>
<line class="st4" x1="298" y1="194.4" x2="312.8" y2="205.7"/>
<path class="st3" d="M312.8,206.2c-0.1,0-0.2,0-0.3-0.1l-14.8-11.3c-0.2-0.2-0.3-0.5-0.1-0.7c0.2-0.2,0.5-0.3,0.7-0.1l14.8,11.3
	c0.2,0.2,0.2,0.5,0.1,0.7C313.1,206.1,313,206.2,312.8,206.2L312.8,206.2z"/>
<path class="st3" d="M272.2,81.9H272c-0.3-0.1-0.4-0.3-0.4-0.6c1.5-5.5,2.9-11.2,4.3-16.8l0.1-0.6c0.7-2.4,1.1-4.8,1.1-7.2
	c-0.1-1.8-0.9-2-3.4-2c-0.1,0-0.3,0-0.4-0.1c-0.1-0.1-0.1-0.2-0.1-0.3c0-2.5-1.2-4.8-3.2-6.3c-3.3-2.5-8.2-3-13.4-1.4l-0.3,0.1
	c-5.2,1.6-9.6,2.9-15.3,3.2c-1.1,0-2.2,0-3.3,0c-2.5-0.1-4.9,0.1-7.4,0.5c-1.5,0.4-3,0.8-4.4,1.4c-1.2,0.4-2.4,1-3.4,1.8
	c-1,1-1.8,2.2-2.4,3.6c-0.6,1.2-1,2.4-1.3,3.7c-0.6,4,2,7.5,3.6,9.3c1,1.1,2.5,2.3,4,1.9c0.3-0.1,0.6,0.1,0.6,0.4
	c0.1,0.3-0.1,0.6-0.4,0.6c-1.6,0.4-3.3-0.3-5-2.2s-4.5-5.7-3.9-10.1c0.3-1.4,0.7-2.7,1.3-4c0.6-1.5,1.5-2.8,2.6-3.9
	c1.1-0.9,2.4-1.5,3.8-1.9c1.5-0.6,3-1.1,4.6-1.5c2.5-0.5,5-0.6,7.6-0.5c1.1,0,2.2,0,3.3,0c5.5-0.2,9.9-1.5,15.1-3.1l0.3-0.1
	c5.5-1.7,10.7-1.1,14.3,1.5c2.1,1.6,3.4,4,3.6,6.6c1.8,0,3.8,0.2,3.9,3c-0.1,2.5-0.5,5.1-1.2,7.5l-0.1,0.6
	c-1.4,5.6-2.8,11.2-4.3,16.8C272.6,81.8,272.4,81.9,272.2,81.9z"/>
<path class="st1" d="M255.7,123.5c0,0-5.6-5.4-7.1-12.1s-0.9-8.1-1.9-8.3s-2.8,0.5-4.1,2.7s-0.9,10.2,1.2,13.4
	S255.7,123.5,255.7,123.5z"/>
<path class="st3" d="M255.7,124L255.7,124c-0.5-0.1-10.2-1.1-12.4-4.4s-2.6-11.5-1.2-13.9s3.3-3.2,4.6-3c0.9,0.2,1,1,1.3,2.7
	c0.2,1.2,0.4,3.1,1.1,6c1.4,6.4,7,11.8,7,11.8c0.1,0.2,0.2,0.4,0.1,0.6C256.1,123.9,255.9,124,255.7,124z M246.2,103.6
	c-0.8,0-2.2,0.6-3.2,2.5s-0.9,9.8,1.1,12.9c1.4,2.1,7,3.3,10.2,3.8c-1.7-1.9-5.2-6.2-6.3-11.3c-0.7-2.9-0.9-4.8-1.1-6.1
	c-0.2-1.4-0.3-1.8-0.5-1.8C246.4,103.6,246.3,103.6,246.2,103.6L246.2,103.6z"/>
<path class="st1" d="M172.2,156.2c0,0-25.1,61.8-15.7,80.6S258.6,264,258.6,264s11.8,5,15.4,5.8s17.5,1.6,17.5,1.6s-5.2,1-3.4,2.6
	s12,1.6,13.1-2.1s-1.8-18.3-5-20.7s-38.7-11-41.4-11.2s-61.2-20.6-61.2-20.6l7.6-57.4"/>
<path class="st3" d="M293.1,275.5c-2.3,0-4.5-0.4-5.3-1.1c-0.4-0.3-0.6-0.8-0.5-1.3c0.3-0.6,0.8-1.1,1.5-1.3
	c-4.2-0.3-12.2-0.8-14.9-1.4c-3.6-0.8-14.4-5.3-15.5-5.8c-4.8-0.4-93-8.7-102.4-27.5c-4-7.9-2.5-24,4.3-47.7
	c5-17.6,11.3-33.1,11.4-33.3c0.1-0.3,0.4-0.4,0.7-0.3s0.4,0.4,0.3,0.7c-0.2,0.6-24.9,61.8-15.7,80.2s100.7,26.9,101.7,26.9
	c0,0,0.1,0,0.1,0c0.1,0,11.8,5,15.4,5.7s17.3,1.5,17.5,1.6c0.2,0,0.5,0.2,0.5,0.5c0,0.2-0.2,0.5-0.4,0.5c-1.5,0.3-3.3,1-3.4,1.4
	c0,0.1,0.1,0.2,0.2,0.3c1,0.9,5.8,1.3,9.4,0.3c1.1-0.4,2.6-1,2.9-2.1c1.1-3.7-2-18-4.8-20.1s-37.9-10.8-41.1-11.1
	c-2.6-0.3-59-19.8-61.4-20.6c-0.2-0.1-0.4-0.3-0.3-0.5l7.6-57.4c0-0.3,0.3-0.5,0.6-0.4s0.5,0.3,0.4,0.6l-7.5,57
	c20.4,7.1,58.7,20.2,60.8,20.4s38.2,8.8,41.6,11.4s6.2,17.5,5.1,21.2c-0.4,1.2-1.6,2.2-3.6,2.8C296.5,275.2,294.8,275.5,293.1,275.5
	z"/>
<path class="st1" d="M278.5,174.2c0,0-16.9-43.2-21.6-50.3s-25.5-24.5-28.1-22.7s-1.8,3.7-0.8,5s7.1,5.5,7.1,5.5s-6.8-3.1-7,1
	s5,6.6,5,6.6s-5.7-4.2-5.9,0.3c-0.1,2.7,1.5,5.2,4,6.2c0,0-6.1-5.2-5.5,0.2c1,8.8,18.8,19.4,18.8,19.4l7.5,73.5
	c0,0,2.7,42.6,29.9,41.3c34.9-1.7,45-52,27.6-94.6"/>
<path class="st3" d="M280.6,260.7c-26.2,0-29.2-41.4-29.2-41.8l-7.5-73.2c-2.1-1.3-17.8-11.1-18.8-19.7c-0.2-1.5,0.1-2.4,0.9-2.8
	c0.5-0.2,1-0.3,1.5-0.1c-0.6-1.1-0.9-2.4-0.9-3.6c-0.1-1,0.4-1.9,1.2-2.4c0.4-0.2,0.9-0.3,1.4-0.2c-1.1-1.2-1.7-2.7-1.7-4.3
	c0-0.9,0.4-1.7,1.2-2.2c1.1-0.5,2.3-0.6,3.4-0.3c-1.6-1.1-3.1-2.4-4.6-3.7c-1.4-1.3-1.5-3.5-0.2-4.9c0.3-0.3,0.6-0.6,1-0.8
	c1.9-1.3,9.5,4.5,13.9,8.1c5.6,4.6,12.4,10.9,15,14.8c4.7,7.1,21,48.6,21.7,50.4c0.1,0.3,0,0.5-0.3,0.6c-0.2,0.1-0.5,0-0.6-0.3
	c0,0,0,0,0,0c-0.2-0.4-16.9-43.2-21.6-50.2c-2.2-3.3-8.1-9.1-14.8-14.6c-8.1-6.6-12-8.4-12.7-8c-0.8,0.4-1.3,1.1-1.5,1.9
	c0,0.8,0.3,1.7,0.9,2.3c0.9,1,5.4,4.2,7,5.4c0.2,0.2,0.3,0.4,0.1,0.7c-0.1,0.2-0.4,0.3-0.6,0.2c-1.1-0.5-4.2-1.6-5.6-0.8
	c-0.4,0.3-0.7,0.8-0.7,1.3c-0.1,2.3,1.7,4.1,3.1,5.1c0.6,0.3,1.1,0.6,1.6,1c0.2,0.2,0.3,0.5,0.1,0.7c-0.1,0.2-0.4,0.2-0.6,0.1
	c-0.6-0.3-1.2-0.6-1.7-1c-1-0.5-2.2-0.9-2.9-0.6c-0.4,0.2-0.6,0.7-0.7,1.5c-0.1,1.6,0.5,3.2,1.6,4.3c0.8,0.5,1.5,1,2.2,1.6
	c0.2,0.2,0.2,0.4,0.1,0.6c-0.1,0.2-0.4,0.3-0.6,0.2c-0.8-0.4-1.6-0.9-2.2-1.5c-0.9-0.5-1.8-0.8-2.2-0.6s-0.5,0.8-0.4,1.8
	c0.9,8.5,18.3,18.9,18.5,19c0.1,0.1,0.2,0.2,0.2,0.4l7.5,73.5c0,0.4,2.9,42.1,29.4,40.9c11-0.5,20-6,26.3-15.9
	c11.9-18.7,12.2-50.1,0.8-78c-0.1-0.3,0-0.5,0.3-0.6c0.3-0.1,0.5,0,0.7,0.3c11.6,28.2,11.2,59.9-0.9,78.9
	c-6.5,10.1-15.9,15.8-27.1,16.3L280.6,260.7z"/>
<path class="st1" d="M277.6,172.6c0,0,13.6,37,17.1,49.2"/>
<path class="st3" d="M294.7,222.3c-0.2,0-0.4-0.1-0.5-0.4c-3.5-12.1-17-48.8-17.1-49.2c-0.1-0.3,0-0.5,0.3-0.6
	c0.3-0.1,0.5,0,0.6,0.3c0,0,0,0,0,0c0.1,0.4,13.6,37.2,17.1,49.2c0.1,0.3-0.1,0.5-0.3,0.6L294.7,222.3z"/>
<path class="st3" d="M203.4,137c0,1.1-2.1,20.6-2.1,20.6"/>
<path class="st3" d="M201.3,158.1L201.3,158.1c-0.3,0-0.5-0.3-0.5-0.6c0.6-5.4,2.1-19.7,2.1-20.5c0-0.3,0.2-0.5,0.5-0.5
	s0.5,0.2,0.5,0.5c0,1.1-2,19.8-2.1,20.6C201.8,157.9,201.6,158.1,201.3,158.1z"/>
<path class="st1" d="M215.9,80.5c2.9,0.6,3.2-4.3,0.1-3.8c-1.1,0.1-1.8,1.1-1.6,2.2C214.5,79.7,215.1,80.3,215.9,80.5z"/>
<path class="st0" d="M216.3,81c-0.2,0-0.4,0-0.6-0.1l0,0c-1.1-0.2-2-1.2-1.9-2.3c0-1.2,0.9-2.3,2.1-2.4c0.9-0.2,1.8,0.1,2.3,0.9
	c0.6,0.9,0.5,2.1-0.1,3C217.7,80.7,217,81,216.3,81z M216,80c0.5,0.2,1.1-0.1,1.4-0.5c0.4-0.6,0.4-1.3,0.1-1.8
	c-0.3-0.4-0.8-0.6-1.3-0.4c-0.7,0.1-1.3,0.7-1.3,1.5C214.8,79.3,215.3,79.9,216,80z"/>
<path class="st0" d="M117.9,208c0.1-1.7-0.3-3.4-1.2-4.8c-0.9-1-1.7-2-2.4-3.1c-1-2-0.3-4.3-0.6-6.4c-0.2-1.9-1.1-3.6-2.6-4.8
	c-1.3-1.1-2.9-1.9-4.1-3.1c-2-1.9-2.6-4.7-3.7-7.1c-1.7-3.5-4.5-6.5-8-8.3c2.2,3.9-2.8,8.8-0.5,12.6c0.7,1.2,2.1,2.1,2.6,3.4
	c1.3,3.1-2.9,6.5-1.6,9.6c0.7,1.5,2.5,2.4,3.4,3.9c1.2,2,0.2,4.4,0.3,6.6c0.1,3.1,2.2,5.8,4.7,7.9c1.6,1.3,3.3,2.5,5,3.7
	c2,1.4,2.9,2.9,4.6,0.6C116.4,215.6,117.8,211.9,117.9,208z"/>
<path class="st0" d="M122.4,209.4c-0.7-2.4-1.1-4.9,0-7.2c1.2-2.5,4.3-4.3,4.7-7.1c0.2-1.8-0.8-3.6-0.4-5.4s2-3,3.4-4.3
	c3-2.9,4.9-6.8,5.2-11c2.1,2.1,3.7,4.6,5,7.3c1.2,2.7,0.9,5.8-0.7,8.2c-0.5,0.5-0.9,1.2-1.3,1.8c-0.6,1.8,1.1,3.4,2,5
	c1.1,1.9,0.8,4.3-0.6,5.9c-1.8,2-5.2,2.7-6,5.1c-0.2,0.9-0.3,1.8-0.3,2.7c-0.5,3.4-3.1,6.1-6.4,6.8c-2.1,0.4-2-0.3-2.4-1.9
	C123.9,213.6,123,211.5,122.4,209.4z"/>
<path class="st0" d="M115.8,192.4c-1.5-4.6-2.1-9.3-3.7-13.9c-1.3-3.6-3-7-4.9-10.3l6.4,2.4c2,0.8,4.3,1.7,5.2,3.4
	c1.7,3.1-1.3,7.1,0.4,10.1c0.8,1,1.6,1.9,2.5,2.8c1.9,2.3,1.6,5.6,0.6,8.3c-0.4,1.2-2.4,7.2-4.1,5.6c-0.7-0.7-0.8-3.2-1-4.1
	C116.8,195.2,116.2,193.8,115.8,192.4z"/>
<path class="st0" d="M114.8,234.6c-1.1-8.2-2.1-15.4-2.1-15.5l-1,0.1c0,0.1,1,7.2,2.1,15.4H114.8z"/>
<path class="st0" d="M123.5,234.6c1.4-10.7,2.8-18.6,3.6-19.4l-0.7-0.7c-1.1,1.2-2.6,10.5-3.8,20.1H123.5z"/>
<path class="st0" d="M122.2,234.6c-1.1-19.3-3-38.4-3-38.6l-1,0.1c0,0.2,2,19.3,3,38.5H122.2z"/>
<path class="st0" d="M104.9,223.1h28.3l-2,21.3c-0.3,3.7-4.5,6.5-9.4,6.5h-5.5c-5,0-9.1-2.9-9.4-6.5L104.9,223.1z"/>
<rect x="114.3" y="53.4" transform="matrix(0.9725 -0.233 0.233 0.9725 -10.089 29.0023)" class="st2" width="6.8" height="7.5"/>
<path class="st0" d="M125.5,57.9l11.6-2.8c0.3-0.1,0.6,0.1,0.7,0.4l0,0c0.1,0.3-0.1,0.6-0.4,0.7L125.8,59c-0.3,0.1-0.6-0.1-0.7-0.4
	l0,0C125,58.3,125.2,57.9,125.5,57.9z"/>
<path class="st0" d="M124.8,54.9l11.6-2.8c0.3-0.1,0.6,0.1,0.7,0.4l0,0c0.1,0.3-0.1,0.6-0.4,0.7L125.1,56c-0.3,0.1-0.6-0.1-0.7-0.4
	l0,0C124.3,55.3,124.5,55,124.8,54.9z"/>
<path class="st0" d="M124.1,51.9l11.6-2.8c0.3-0.1,0.6,0.1,0.7,0.4l0,0c0.1,0.3-0.1,0.6-0.4,0.7L124.3,53c-0.3,0.1-0.6-0.1-0.7-0.4
	l0,0C123.6,52.3,123.8,52,124.1,51.9z"/>
<path class="st3" d="M140.5,61.3l-25.2,6c-3.2,0.8-6.5-1.2-7.2-4.4l-1.5-6.5c-0.8-3.2,1.2-6.5,4.4-7.2l25.2-6
	c3.2-0.8,6.5,1.2,7.2,4.4l1.5,6.4C145.7,57.2,143.8,60.5,140.5,61.3C140.6,61.3,140.5,61.3,140.5,61.3z M111.2,50.1
	c-2.7,0.7-4.4,3.4-3.8,6.1l1.5,6.4c0.7,2.7,3.4,4.4,6.1,3.8l25.2-6c2.7-0.7,4.4-3.4,3.8-6.1l-1.5-6.4c-0.7-2.7-3.4-4.4-6.1-3.8
	L111.2,50.1z"/>
<rect x="101.5" y="77.4" transform="matrix(0.9725 -0.233 0.233 0.9725 -16.0179 26.6748)" class="st2" width="6.8" height="7.5"/>
<path class="st0" d="M112.7,81.8l11.6-2.8c0.3-0.1,0.6,0.1,0.7,0.4l0,0c0.1,0.3-0.1,0.6-0.4,0.7L113,82.9c-0.3,0.1-0.6-0.1-0.7-0.4
	l0,0C112.2,82.2,112.4,81.9,112.7,81.8z"/>
<path class="st0" d="M112,78.8l11.6-2.8c0.3-0.1,0.6,0.1,0.7,0.4l0,0c0.1,0.3-0.1,0.6-0.4,0.7l-11.6,2.8c-0.3,0.1-0.6-0.1-0.7-0.4
	l0,0C111.5,79.2,111.7,78.9,112,78.8z"/>
<path class="st0" d="M111.3,75.8l11.6-2.8c0.3-0.1,0.6,0.1,0.7,0.4l0,0c0.1,0.3-0.1,0.6-0.4,0.7L111.5,77c-0.3,0.1-0.6-0.1-0.7-0.4
	l0,0C110.8,76.2,111,75.9,111.3,75.8z"/>
<path class="st3" d="M127.7,85.3l-25.2,6c-3.2,0.8-6.5-1.2-7.2-4.4l-1.5-6.5c-0.8-3.2,1.2-6.5,4.4-7.2l25.2-6
	c3.2-0.8,6.5,1.2,7.2,4.4l1.5,6.4C132.9,81.2,131,84.4,127.7,85.3C127.7,85.2,127.7,85.3,127.7,85.3z M98.4,74.1
	c-2.7,0.7-4.4,3.4-3.8,6.1l1.5,6.4c0.7,2.7,3.4,4.4,6.1,3.8l25.2-6c2.7-0.7,4.4-3.4,3.8-6.1l-1.5-6.4c-0.7-2.7-3.4-4.4-6.1-3.8
	L98.4,74.1z"/>
<rect x="124.1" y="94.2" transform="matrix(0.9725 -0.233 0.233 0.9725 -19.3149 32.3991)" class="st2" width="6.8" height="7.5"/>
<path class="st0" d="M135.3,98.6l11.6-2.8c0.3-0.1,0.6,0.1,0.7,0.4l0,0c0.1,0.3-0.1,0.6-0.4,0.7l-11.6,2.8c-0.3,0.1-0.6-0.1-0.7-0.4
	l0,0C134.8,99,135,98.7,135.3,98.6z"/>
<path class="st0" d="M134.6,95.6l11.6-2.8c0.3-0.1,0.6,0.1,0.7,0.4l0,0c0.1,0.3-0.1,0.6-0.4,0.7l-11.6,2.8c-0.3,0.1-0.6-0.1-0.7-0.4
	l0,0C134.1,96,134.2,95.7,134.6,95.6z"/>
<path class="st0" d="M133.8,92.6l11.6-2.8c0.3-0.1,0.6,0.1,0.7,0.4l0,0c0.1,0.3-0.1,0.6-0.4,0.7l-11.6,2.8c-0.3,0.1-0.6-0.1-0.7-0.4
	l0,0C133.3,93,133.5,92.7,133.8,92.6z"/>
<path class="st3" d="M150.3,102.1l-25.2,6c-3.2,0.8-6.5-1.2-7.2-4.4l-1.5-6.5c-0.8-3.2,1.2-6.5,4.4-7.2l25.2-6
	c3.2-0.8,6.5,1.2,7.2,4.4l1.5,6.4C155.5,98,153.6,101.2,150.3,102.1C150.3,102.1,150.3,102.1,150.3,102.1z M121,90.9
	c-2.7,0.7-4.4,3.4-3.8,6.1l1.5,6.4c0.7,2.7,3.4,4.4,6.1,3.8l25.2-6c2.7-0.7,4.4-3.4,3.8-6.1l-1.5-6.4c-0.7-2.7-3.4-4.4-6.1-3.8
	L121,90.9z"/>
<rect x="111.3" y="118.1" transform="matrix(0.9725 -0.233 0.233 0.9725 -25.2438 30.0715)" class="st2" width="6.8" height="7.5"/>
<path class="st0" d="M122.5,122.5l11.6-2.8c0.3-0.1,0.6,0.1,0.7,0.4l0,0c0.1,0.3-0.1,0.6-0.4,0.7l-11.6,2.8
	c-0.3,0.1-0.6-0.1-0.7-0.4l0,0C122,122.9,122.1,122.6,122.5,122.5z"/>
<path class="st0" d="M121.7,119.6l11.6-2.8c0.3-0.1,0.6,0.1,0.7,0.4l0,0c0.1,0.3-0.1,0.6-0.4,0.7l-11.6,2.8
	c-0.3,0.1-0.6-0.1-0.7-0.4l0,0C121.2,119.9,121.4,119.6,121.7,119.6z"/>
<path class="st0" d="M121,116.6l11.6-2.8c0.3-0.1,0.6,0.1,0.7,0.4l0,0c0.1,0.3-0.1,0.6-0.4,0.7l-11.6,2.8c-0.3,0.1-0.6-0.1-0.7-0.4
	l0,0C120.5,117,120.7,116.6,121,116.6z"/>
<path class="st3" d="M137.5,126l-25.2,6c-3.2,0.8-6.5-1.2-7.2-4.4l-1.5-6.5c-0.8-3.2,1.2-6.5,4.4-7.2l25.2-6
	c3.2-0.8,6.5,1.2,7.2,4.4l1.5,6.4C142.7,121.9,140.7,125.2,137.5,126C137.5,126,137.5,126,137.5,126z M108.2,114.8
	c-2.7,0.7-4.4,3.4-3.8,6.1l1.5,6.4c0.7,2.7,3.4,4.4,6.1,3.8l25.2-6c2.7-0.7,4.4-3.4,3.8-6.1l-1.5-6.4c-0.7-2.7-3.4-4.4-6.1-3.8
	L108.2,114.8z"/>
</svg>
