<svg id="_310_slot_machine_flatline" data-name="#310_slot_machine_flatline" xmlns="http://www.w3.org/2000/svg" viewBox="0 0 400 300"><path d="M194.54,39.55h0a10.18,10.18,0,0,1,10.18,10.18v8.45a0,0,0,0,1,0,0H184.36a0,0,0,0,1,0,0V49.73A10.18,10.18,0,0,1,194.54,39.55Z" fill="#ff0440"/><path d="M204.72,58.64H184.36a.46.46,0,0,1-.45-.46V49.73a10.64,10.64,0,1,1,21.27,0v8.45A.47.47,0,0,1,204.72,58.64Zm-19.9-.92h19.44v-8a9.72,9.72,0,1,0-19.44,0Z" fill="#231f20"/><polygon points="266.79 161.06 270.36 161.06 283.71 99.67 287.98 100.99 271.88 176.04 266.79 176.04 266.79 161.06" fill="#d1d3d4"/><path d="M271.88,176.54h-5.09a.5.5,0,0,1-.5-.5v-15a.5.5,0,0,1,.5-.5H270l13.26-61a.48.48,0,0,1,.24-.33.5.5,0,0,1,.4,0l4.27,1.31a.51.51,0,0,1,.34.58l-16.1,75.06A.49.49,0,0,1,271.88,176.54Zm-4.59-1h4.19l15.91-74.21-3.31-1-13.23,60.85a.5.5,0,0,1-.49.4h-3.07Z" fill="#231f20"/><circle cx="287.98" cy="94.05" r="9.73" fill="#ff0440"/><path d="M288,104.24a10.19,10.19,0,1,1,10.19-10.19A10.2,10.2,0,0,1,288,104.24Zm0-19.46a9.27,9.27,0,1,0,9.27,9.27A9.28,9.28,0,0,0,288,84.78Z" fill="#231f20"/><path d="M265.06,180.51h-7.23V156.39h7.23a2.38,2.38,0,0,1,2.48,1.88c.32,2.48.32,17.87,0,20.35A2.38,2.38,0,0,1,265.06,180.51Z" fill="#231f20"/><path d="M265.06,181h-7.23a.5.5,0,0,1-.5-.5V156.39a.5.5,0,0,1,.5-.5h7.23a2.87,2.87,0,0,1,3,2.32c.31,2.49.31,18,0,20.48A2.88,2.88,0,0,1,265.06,181Zm-6.73-1h6.73a1.87,1.87,0,0,0,2-1.45c.32-2.46.32-17.77,0-20.22a1.87,1.87,0,0,0-2-1.45h-6.73Z" fill="#231f20"/><rect x="182.08" y="53.53" width="24.92" height="7.57" fill="#fff"/><path d="M207,61.6H182.08a.5.5,0,0,1-.5-.5V53.53a.5.5,0,0,1,.5-.5H207a.5.5,0,0,1,.5.5V61.1A.5.5,0,0,1,207,61.6Zm-24.42-1H206.5V54H182.58Z" fill="#231f20"/><rect x="131.43" y="88.02" width="126.21" height="105.92" fill="#fff"/><path d="M257.65,194.44H131.43a.51.51,0,0,1-.5-.5V88a.51.51,0,0,1,.5-.5H257.65a.51.51,0,0,1,.5.5V193.94A.51.51,0,0,1,257.65,194.44Zm-125.72-1H257.15V88.52H131.93Z" fill="#231f20"/><rect x="123.79" y="202.32" width="141.51" height="51.54" fill="#ff0440"/><path d="M265.29,254.31H123.79a.45.45,0,0,1-.46-.46V202.32a.46.46,0,0,1,.46-.46h141.5a.46.46,0,0,1,.46.46v51.53A.45.45,0,0,1,265.29,254.31Zm-141-.91h140.6V202.78H124.24Z" fill="#231f20"/><polygon points="123.79 202.32 265.3 202.32 257.65 193.94 131.44 193.94 123.79 202.32" fill="#d1d3d4"/><path d="M265.29,202.82H123.79a.51.51,0,0,1-.46-.3.49.49,0,0,1,.09-.54l7.65-8.38a.48.48,0,0,1,.36-.16H257.65a.52.52,0,0,1,.37.16l7.64,8.38a.49.49,0,0,1,.09.54A.51.51,0,0,1,265.29,202.82Zm-140.37-1H264.16l-6.73-7.38H131.66Z" fill="#231f20"/><path d="M257.65,88H131.43s13.79-29.29,63.11-29.29S257.65,88,257.65,88Z" fill="#fff"/><path d="M257.65,88.52H131.43a.5.5,0,0,1-.42-.23.51.51,0,0,1,0-.48c.14-.3,14.49-29.58,63.56-29.58,25.62,0,41.52,8,50.35,14.75,9.6,7.31,13.07,14.53,13.21,14.83a.51.51,0,0,1,0,.48A.5.5,0,0,1,257.65,88.52Zm-125.38-1H256.81c-2.54-4.46-18.18-28.29-62.27-28.29-25.3,0-41,7.89-49.69,14.51A47.22,47.22,0,0,0,132.27,87.52Z" fill="#231f20"/><path d="M244.43,82.82C239.29,76.4,224.93,63,194.54,63S149.79,76.4,144.65,82.82Z" fill="#ff0440"/><path d="M249.05,186.71H140a.5.5,0,0,1-.5-.5V124.5a.5.5,0,0,1,.5-.5h109a.5.5,0,0,1,.5.5v61.71A.5.5,0,0,1,249.05,186.71Zm-108.52-1h108V125h-108Z" fill="#d1d3d4"/><path d="M245.35,182.89H143.73a.5.5,0,0,1-.5-.5V128.32a.5.5,0,0,1,.5-.5H245.35a.5.5,0,0,1,.5.5v54.07A.5.5,0,0,1,245.35,182.89Zm-101.12-1H244.85V128.82H144.23Z" fill="#d1d3d4"/><path d="M257.65,117.39H131.44a.5.5,0,0,1-.5-.5.5.5,0,0,1,.5-.5H257.65a.5.5,0,0,1,.5.5A.51.51,0,0,1,257.65,117.39Z" fill="#231f20"/><path d="M244.74,230.86H144.34a.51.51,0,0,1-.46-.3c-1.17-2.62-4-4.58-7.46-5.26a.49.49,0,0,1-.41-.49v-11.3a.49.49,0,0,1,.41-.49c3.5-.68,6.29-2.64,7.46-5.26a.51.51,0,0,1,.46-.3h100.4a.51.51,0,0,1,.46.3c1.17,2.62,4,4.58,7.46,5.26a.49.49,0,0,1,.41.49v11.3a.49.49,0,0,1-.41.49c-3.5.68-6.29,2.64-7.46,5.26A.51.51,0,0,1,244.74,230.86Zm-100.09-1h99.78a10.92,10.92,0,0,1,7.64-5.45v-10.5a10.92,10.92,0,0,1-7.64-5.45H144.65a10.92,10.92,0,0,1-7.64,5.45v10.5A10.92,10.92,0,0,1,144.65,229.86Z" fill="#fff"/><rect x="138.5" y="95.71" width="112.07" height="15.74" rx="2.88" fill="#ff0440"/><rect x="150.77" y="135.9" width="29.18" height="38.9" fill="#ff0440"/><path d="M180,175.26H150.77a.45.45,0,0,1-.45-.45V135.9a.45.45,0,0,1,.45-.45H180a.46.46,0,0,1,.46.45v38.91A.46.46,0,0,1,180,175.26Zm-28.72-.91h28.26v-38H151.23Z" fill="#231f20"/><path d="M165.66,148.85s-5.67-4.36-10.14.65.07,13.57,1.49,15.2a8.21,8.21,0,0,0,4.35,2.88c1.74.38,3.27-1.25,3.49-1.25s.37,1.89,4.07,1.3,8.61-7,8.17-13.34-3.92-6.42-6.42-6.1Z" fill="#fff"/><path d="M167.6,168.25a3.16,3.16,0,0,1-2.88-1.24,4.49,4.49,0,0,1-3.47,1.06,8.74,8.74,0,0,1-4.62-3c-1.63-1.88-6.14-10.63-1.48-15.86,4.27-4.79,9.6-1.55,10.63-.84l4.82-.63a6,6,0,0,1,4.77,1c1.29,1.06,2,2.94,2.22,5.61.44,6.36-4.47,13.21-8.59,13.86A8.37,8.37,0,0,1,167.6,168.25Zm-2.75-2.42a.66.66,0,0,1,.57.42c.23.4.76,1.32,3.42.89,3.3-.53,8.18-6.6,7.75-12.81-.16-2.38-.79-4-1.86-4.91a5.1,5.1,0,0,0-4-.73l-5,.65a.5.5,0,0,1-.37-.1c-.22-.16-5.35-4-9.45.59s0,12.87,1.49,14.54a7.71,7.71,0,0,0,4.07,2.72,3.67,3.67,0,0,0,2.74-.94C164.49,165.94,164.64,165.83,164.85,165.83Z" fill="#231f20"/><path d="M166,151.17H166a.5.5,0,0,1-.44-.55,12,12,0,0,0-2.23-7.36.5.5,0,0,1,.83-.57,12.76,12.76,0,0,1,2.39,8A.5.5,0,0,1,166,151.17Z" fill="#231f20"/><path d="M166.13,151.45a4.27,4.27,0,0,1-1.77-.36,2.79,2.79,0,0,1-1.41-1.27.49.49,0,0,1,.32-.63.5.5,0,0,1,.61.27c.08.12,1.25,1.85,4.63.45a.5.5,0,0,1,.66.27.51.51,0,0,1-.27.65A7.18,7.18,0,0,1,166.13,151.45Z" fill="#231f20"/><rect x="179.95" y="135.9" width="29.18" height="38.9" fill="#ff0440"/><path d="M209.13,175.26H180a.46.46,0,0,1-.46-.45V135.9a.46.46,0,0,1,.46-.45h29.18a.46.46,0,0,1,.46.45v38.91A.46.46,0,0,1,209.13,175.26Zm-28.72-.91h28.26v-38H180.41Z" fill="#231f20"/><path d="M194.83,148.85s-5.66-4.36-10.13.65.07,13.57,1.49,15.2a8.23,8.23,0,0,0,4.34,2.88c1.75.38,3.28-1.25,3.5-1.25s.37,1.89,4.07,1.3,8.61-7,8.17-13.34-3.92-6.42-6.43-6.1Z" fill="#fff"/><path d="M196.77,168.25A3.14,3.14,0,0,1,193.9,167a4.5,4.5,0,0,1-3.47,1.06,8.74,8.74,0,0,1-4.62-3c-1.63-1.88-6.15-10.63-1.48-15.86,4.27-4.79,9.6-1.55,10.63-.84l4.82-.63a6,6,0,0,1,4.76,1c1.3,1.06,2.05,2.94,2.23,5.61.44,6.36-4.47,13.21-8.59,13.86A8.39,8.39,0,0,1,196.77,168.25ZM194,165.83a.66.66,0,0,1,.57.42c.23.4.76,1.32,3.42.89,3.3-.53,8.18-6.6,7.75-12.81-.16-2.38-.79-4-1.86-4.91a5.1,5.1,0,0,0-4-.73l-5,.65a.49.49,0,0,1-.37-.1c-.22-.16-5.36-4-9.45.59s0,12.87,1.48,14.54a7.77,7.77,0,0,0,4.08,2.72,3.63,3.63,0,0,0,2.73-.94C193.67,165.94,193.81,165.83,194,165.83Z" fill="#231f20"/><path d="M195.19,151.17h-.06a.5.5,0,0,1-.44-.55,12,12,0,0,0-2.23-7.36.5.5,0,1,1,.82-.57,12.73,12.73,0,0,1,2.4,8A.5.5,0,0,1,195.19,151.17Z" fill="#231f20"/><path d="M195.31,151.45a4.3,4.3,0,0,1-1.77-.36,2.75,2.75,0,0,1-1.41-1.27.5.5,0,0,1,.31-.63.51.51,0,0,1,.62.27c.07.12,1.25,1.85,4.63.45a.5.5,0,0,1,.66.27.51.51,0,0,1-.27.65A7.18,7.18,0,0,1,195.31,151.45Z" fill="#231f20"/><rect x="209.13" y="135.9" width="29.18" height="38.9" fill="#ff0440"/><path d="M238.31,175.26H209.13a.46.46,0,0,1-.46-.45V135.9a.46.46,0,0,1,.46-.45h29.18a.45.45,0,0,1,.45.45v38.91A.45.45,0,0,1,238.31,175.26Zm-28.72-.91h28.26v-38H209.59Z" fill="#231f20"/><path d="M224,148.85s-5.66-4.36-10.13.65.07,13.57,1.48,15.2a8.25,8.25,0,0,0,4.35,2.88c1.74.38,3.28-1.25,3.5-1.25s.37,1.89,4.07,1.3,8.61-7,8.17-13.34-3.92-6.42-6.43-6.1Z" fill="#fff"/><path d="M226,168.25a3.14,3.14,0,0,1-2.87-1.24,4.52,4.52,0,0,1-3.48,1.06,8.72,8.72,0,0,1-4.61-3c-1.63-1.88-6.15-10.63-1.48-15.86,4.26-4.79,9.6-1.55,10.63-.84l4.82-.63a6,6,0,0,1,4.76,1c1.3,1.06,2,2.94,2.23,5.61.44,6.36-4.47,13.21-8.59,13.86A8.48,8.48,0,0,1,226,168.25Zm-2.74-2.42a.66.66,0,0,1,.57.42c.23.4.76,1.32,3.42.89,3.3-.53,8.18-6.6,7.75-12.81-.16-2.38-.79-4-1.86-4.91a5.1,5.1,0,0,0-4-.73l-5,.65a.48.48,0,0,1-.37-.1c-.22-.16-5.36-4-9.46.59s0,12.87,1.49,14.54a7.77,7.77,0,0,0,4.08,2.72,3.64,3.64,0,0,0,2.73-.94C222.85,165.94,223,165.83,223.21,165.83Z" fill="#231f20"/><path d="M224.36,151.17h-.05a.5.5,0,0,1-.44-.55,12,12,0,0,0-2.23-7.36.5.5,0,1,1,.82-.57,12.73,12.73,0,0,1,2.4,8A.5.5,0,0,1,224.36,151.17Z" fill="#231f20"/><path d="M224.49,151.45a4.3,4.3,0,0,1-1.77-.36,2.74,2.74,0,0,1-1.42-1.27.5.5,0,0,1,.94-.36c.07.12,1.25,1.85,4.63.45a.5.5,0,0,1,.38.92A7.1,7.1,0,0,1,224.49,151.45Z" fill="#231f20"/><path d="M138.5,192.26v3.35c0,1.85,4.16,3.35,9.29,3.35s9.29-1.5,9.29-3.35v-3.35Z" fill="#231f20"/><path d="M147.79,199.46c-4.74,0-9.79-1.35-9.79-3.85v-3.35a.51.51,0,0,1,.5-.5h18.58a.51.51,0,0,1,.5.5v3.35C157.58,198.11,152.54,199.46,147.79,199.46Zm-8.79-6.7v2.85c0,1.35,3.61,2.85,8.79,2.85s8.79-1.5,8.79-2.85v-2.85Z" fill="#231f20"/><ellipse cx="147.79" cy="192.26" rx="9.29" ry="3.35" fill="#fff"/><path d="M147.79,196.11c-4.74,0-9.79-1.35-9.79-3.85s5.05-3.85,9.79-3.85,9.79,1.35,9.79,3.85S152.54,196.11,147.79,196.11Zm0-6.7c-5.18,0-8.79,1.5-8.79,2.85s3.61,2.85,8.79,2.85,8.79-1.5,8.79-2.85S153,189.41,147.79,189.41Z" fill="#231f20"/><path d="M161.38,192.26v3.35c0,1.85,4.15,3.35,9.28,3.35s9.29-1.5,9.29-3.35v-3.35Z" fill="#231f20"/><path d="M170.66,199.46c-4.74,0-9.78-1.35-9.78-3.85v-3.35a.5.5,0,0,1,.5-.5H180a.5.5,0,0,1,.5.5v3.35C180.45,198.11,175.41,199.46,170.66,199.46Zm-8.78-6.7v2.85c0,1.35,3.61,2.85,8.78,2.85s8.79-1.5,8.79-2.85v-2.85Z" fill="#231f20"/><ellipse cx="170.66" cy="192.26" rx="9.29" ry="3.35" fill="#fff"/><path d="M170.66,196.11c-4.74,0-9.78-1.35-9.78-3.85s5-3.85,9.78-3.85,9.79,1.35,9.79,3.85S175.41,196.11,170.66,196.11Zm0-6.7c-5.17,0-8.78,1.5-8.78,2.85s3.61,2.85,8.78,2.85,8.79-1.5,8.79-2.85S175.84,189.41,170.66,189.41Z" fill="#231f20"/><rect x="220.93" y="193.01" width="28.5" height="5.89" fill="#fff"/><path d="M249.43,199.4h-28.5a.5.5,0,0,1-.5-.5V193a.5.5,0,0,1,.5-.5h28.5a.5.5,0,0,1,.5.5v5.89A.5.5,0,0,1,249.43,199.4Zm-28-1h27.5v-4.89h-27.5Z" fill="#231f20"/><polygon points="247.55 189.64 222.81 189.64 220.93 193.01 249.43 193.01 247.55 189.64" fill="#fff"/><path d="M249.43,193.51h-28.5a.48.48,0,0,1-.43-.25.5.5,0,0,1,0-.49l1.88-3.38a.49.49,0,0,1,.44-.25h24.74a.49.49,0,0,1,.44.25l1.88,3.38a.5.5,0,0,1,0,.49A.48.48,0,0,1,249.43,193.51Zm-27.65-1h26.8l-1.32-2.37H223.1Z" fill="#231f20"/><path d="M246.38,196.45H223.81a.5.5,0,0,1-.5-.5.51.51,0,0,1,.5-.5h22.57a.51.51,0,0,1,.5.5A.5.5,0,0,1,246.38,196.45Z" fill="#231f20"/><path d="M179.71,234.08h29.66a5.19,5.19,0,0,1,5.19,5.19v14.58a0,0,0,0,1,0,0h-40a0,0,0,0,1,0,0V239.27A5.19,5.19,0,0,1,179.71,234.08Z" fill="#231f20"/><path d="M293.79,96.05h-.08a.51.51,0,0,1-.42-.57c1-6.47-5.16-8-5.43-8.09a.5.5,0,0,1,.23-1c.08,0,7.36,1.82,6.19,9.21A.5.5,0,0,1,293.79,96.05Z" fill="#fff"/><path d="M140,186.71a.5.5,0,0,1-.36-.84l3.7-3.83a.51.51,0,0,1,.71,0,.5.5,0,0,1,0,.71l-3.7,3.82A.51.51,0,0,1,140,186.71Z" fill="#d1d3d4"/><path d="M143.73,128.82a.51.51,0,0,1-.36-.15l-3.7-3.83a.49.49,0,0,1,0-.7.5.5,0,0,1,.71,0l3.7,3.82a.5.5,0,0,1,0,.71A.52.52,0,0,1,143.73,128.82Z" fill="#d1d3d4"/><path d="M245.35,128.82a.52.52,0,0,1-.35-.14.5.5,0,0,1,0-.71l3.7-3.82a.5.5,0,0,1,.71,0,.49.49,0,0,1,0,.7l-3.7,3.83A.51.51,0,0,1,245.35,128.82Z" fill="#d1d3d4"/><path d="M248.27,184.8a.43.43,0,0,1-.27-.08l-2.92-1.91a.5.5,0,1,1,.54-.84l2.92,1.91a.51.51,0,0,1,.15.7A.52.52,0,0,1,248.27,184.8Z" fill="#d1d3d4"/><circle cx="146.93" cy="212.47" r="1.1" fill="#fff"/><circle cx="242.15" cy="212.47" r="1.1" fill="#fff"/><circle cx="146.93" cy="225.85" r="1.1" fill="#fff"/><circle cx="242.15" cy="225.85" r="1.1" fill="#fff"/><path d="M216.42,50.59h0l-5.79-.15a.5.5,0,0,1-.49-.52.48.48,0,0,1,.51-.48l5.8.15a.51.51,0,0,1,.49.52A.5.5,0,0,1,216.42,50.59Z" fill="#d1d3d4"/><path d="M208.4,44.19a.49.49,0,0,1-.44-.26.5.5,0,0,1,.21-.68c1.11-.58,6.64-3.47,7.14-3.64a.5.5,0,0,1,.64.3.5.5,0,0,1-.3.64c-.36.13-4.5,2.27-7,3.59A.46.46,0,0,1,208.4,44.19Z" fill="#d1d3d4"/><path d="M204.68,39a.46.46,0,0,1-.29-.1.5.5,0,0,1-.11-.7l3.17-4.39a.5.5,0,1,1,.81.59l-3.17,4.39A.52.52,0,0,1,204.68,39Z" fill="#d1d3d4"/><path d="M173.59,50.59a.5.5,0,0,1-.5-.48.5.5,0,0,1,.49-.52l5.79-.15h0a.5.5,0,0,1,.5.48.52.52,0,0,1-.49.52l-5.8.15Z" fill="#d1d3d4"/><path d="M181.6,44.19a.5.5,0,0,1-.23,0c-2.52-1.32-6.65-3.46-7-3.59a.5.5,0,0,1-.3-.64.49.49,0,0,1,.63-.3c.5.17,6,3.06,7.15,3.64a.5.5,0,0,1-.24.94Z" fill="#d1d3d4"/><path d="M185.32,39a.52.52,0,0,1-.4-.21l-3.17-4.39a.49.49,0,0,1,.11-.7.51.51,0,0,1,.7.11l3.17,4.39a.51.51,0,0,1-.11.7A.47.47,0,0,1,185.32,39Z" fill="#d1d3d4"/><path d="M201.38,50.58a.5.5,0,0,1-.5-.47c-.15-2.73-.79-4.64-1.92-5.67a6.54,6.54,0,0,0-2-1.27.5.5,0,0,1,.38-.93,7.88,7.88,0,0,1,2.32,1.46c1.32,1.21,2.07,3.35,2.24,6.35a.51.51,0,0,1-.47.53Z" fill="#fff"/><path d="M195,42.62h-.07a9.25,9.25,0,0,0-2.13-.08.5.5,0,0,1-.55-.44.49.49,0,0,1,.43-.55,9.39,9.39,0,0,1,2.4.09.5.5,0,0,1,.42.57A.51.51,0,0,1,195,42.62Z" fill="#fff"/><path d="M265.29,245.77H123.79a.46.46,0,0,1,0-.92h141.5a.46.46,0,0,1,0,.92Z" fill="#231f20"/></svg>