<svg xmlns="http://www.w3.org/2000/svg" viewBox="0 0 400 300"><g id="_107_target" data-name="#107_target"><path d="M369.5,228.43H30.5a.5.5,0,0,1-.5-.5.51.51,0,0,1,.5-.5h339a.51.51,0,0,1,.5.5A.5.5,0,0,1,369.5,228.43Z" fill="#d1d3d4"/><path d="M112.78,131.4l1.59,106.13h-9.91L93.16,168.1S86.42,189,84.82,194.58c-4.65,16.34-19.43,42.95-19.43,42.95H55.27s15.2-70.41,16.83-84.72,9-30.43,9-30.43Z" fill="#231f20"/><path d="M114.37,238h-9.91a.51.51,0,0,1-.5-.42L93,170.23c-1.72,5.34-6.41,20-7.7,24.48C80.69,210.92,66,237.5,65.82,237.77a.49.49,0,0,1-.43.26H55.27a.51.51,0,0,1-.39-.19.53.53,0,0,1-.1-.42c.16-.7,15.21-70.55,16.82-84.67s8.94-30.42,9-30.58a.5.5,0,0,1,.59-.27l31.71,9a.49.49,0,0,1,.36.47l1.59,106.13a.54.54,0,0,1-.14.36A.55.55,0,0,1,114.37,238Zm-9.49-1h9l-1.57-105.25L81.35,123c-1.12,2.55-7.29,17-8.75,29.88C71.06,166.33,57.38,230.1,55.89,237h9.2c1.53-2.78,14.91-27.34,19.25-42.59,1.58-5.57,8.28-26.28,8.34-26.49a.51.51,0,0,1,.52-.34.48.48,0,0,1,.45.41Z" fill="#231f20"/><path d="M64.61,236.85a37.48,37.48,0,0,0,.34,5.51c.34,1.22,3.26,4.49,3.26,5.51s-11.43,1.49-12.31,0-.48-3.13,0-5.17a36.73,36.73,0,0,0,.68-5.51" fill="#231f20"/><path d="M61.42,249.32c-2.75,0-5.42-.3-6-1.2-1-1.64-.56-3.38-.09-5.41l0-.13a35.56,35.56,0,0,0,.67-5.39.5.5,0,0,1,.5-.5.5.5,0,0,1,.5.5,36,36,0,0,1-.7,5.62l0,.13c-.44,1.89-.79,3.38,0,4.67,0,0,.22.3,1.71.51,3.28.46,8.61.07,9.64-.41a15.12,15.12,0,0,0-1.57-2.49,12.29,12.29,0,0,1-1.65-2.73,37.07,37.07,0,0,1-.35-5.64.5.5,0,0,1,.5-.5.5.5,0,0,1,.5.5,34.16,34.16,0,0,0,.32,5.37,12.73,12.73,0,0,0,1.5,2.42c1.11,1.57,1.78,2.57,1.78,3.23s-.77.82-1.1.91A29.89,29.89,0,0,1,61.42,249.32Z" fill="#231f20"/><path d="M104.57,237s.45,5.27.54,7.44-.18,2.54.46,3.45,18.32,1.36,18.59.54-9.79-5.26-10.52-6.89-.09-6.89-.09-6.89" fill="#231f20"/><path d="M118.62,249.32c-1.7,0-3.54,0-5.16-.1-7.75-.3-8.14-.85-8.3-1.08a3.12,3.12,0,0,1-.53-2.23c0-.38,0-.86,0-1.49-.08-2.14-.53-7.36-.54-7.41a.5.5,0,0,1,1-.09c0,.05.45,5.3.54,7.46,0,.65,0,1.15,0,1.54,0,.86,0,1.12.31,1.59,1.31.65,14.31,1.09,17.36.65-.76-.54-2.41-1.45-3.8-2.21-3.54-1.95-5.89-3.3-6.32-4.25-.76-1.71-.19-6.6-.13-7.15a.5.5,0,1,1,1,.12c-.18,1.42-.5,5.39,0,6.63.31.71,3.67,2.55,5.89,3.77,4.1,2.26,4.89,2.76,4.65,3.48-.13.39-.6.49-1.1.57A43.08,43.08,0,0,1,118.62,249.32Zm-12.71-1.83Z" fill="#231f20"/><path d="M64.2,239.06H57a.52.52,0,1,1,0-1H64.2a.52.52,0,0,1,0,1Z" fill="#fff"/><path d="M104.72,239.27a.52.52,0,0,1-.52-.49.52.52,0,0,1,.5-.54l8-.34a.5.5,0,0,1,.53.49.51.51,0,0,1-.49.54l-8,.34Z" fill="#fff"/><path d="M101.83,76.48s-38-1.37-40.8,0c-6.85,3.25-8.92,13.17-.28,17S82.5,95,82.5,95l-5.38,33.11s27.84,12,37.25,5.75l8-30.82s14.83,3.5,21.66,3.72,21.1-1.24,21-1.81,1.82-8.14,1.82-8.14S111.1,78.81,101.83,76.48Z" fill="#ff0440"/><polygon points="106.48 85.03 103.5 87.83 105.05 89.29 97.86 116.82 103.94 124.17 108.23 118.16 106.64 89.36 108.46 88.17 106.48 85.03" fill="#fff"/><path d="M102.67,74.67c-7.18-.14-7.14-12.56-6.35-17.75a9.16,9.16,0,0,1,1-3.28,7.77,7.77,0,0,1,5.48-3.32,47.05,47.05,0,0,1,6.61-.31,29.37,29.37,0,0,0,14.06-4.26c1.43-.88,3.09-1.92,4.67-1.34a3.64,3.64,0,0,1,2,2.37,7.49,7.49,0,0,1-1.7,7.1c-1.76,2-4.1,2.79-6.5,3.67.72,1.87,1.17,2.41.35,4.24A15.79,15.79,0,0,1,119,66.27a38.9,38.9,0,0,1-4.69,3.6c-3.43,2.46-6.8,4.71-11.27,4.8Z" fill="#fff"/><path d="M102.83,75.17h-.17a5.66,5.66,0,0,1-4.36-2.1C95,69.13,95.23,60.74,95.83,56.85a9.31,9.31,0,0,1,1.08-3.46c1.45-2.46,4.27-3.29,5.83-3.56a26.62,26.62,0,0,1,4.62-.29c.68,0,1.37,0,2,0a28.74,28.74,0,0,0,13.82-4.19c1.53-.93,3.33-2,5.1-1.38a4.12,4.12,0,0,1,2.33,2.68,8,8,0,0,1-1.8,7.59c-1.73,2-4,2.83-6.23,3.63,0,.07.05.13.08.19a4.09,4.09,0,0,1,.08,4,16.81,16.81,0,0,1-3.46,4.64,28.65,28.65,0,0,1-3.69,2.9c-.36.25-.71.49-1.06.75-3.66,2.62-7,4.8-11.55,4.89Zm-.15-1H103c4.21-.09,7.47-2.18,11-4.71l1.08-.75a27.21,27.21,0,0,0,3.56-2.79,16,16,0,0,0,3.25-4.33c.62-1.4.44-1.85-.1-3.19l-.27-.67a.49.49,0,0,1,.3-.65l.38-.14c2.23-.81,4.33-1.58,5.92-3.39a7,7,0,0,0,1.6-6.61A3.16,3.16,0,0,0,128,44.88c-1.31-.49-2.82.43-4.15,1.24a29.75,29.75,0,0,1-14.38,4.39c-.7,0-1.39,0-2.09,0a26.47,26.47,0,0,0-4.45.27,7.29,7.29,0,0,0-5.14,3.09,8.55,8.55,0,0,0-1,3.1c-.67,4.34-.61,12,2.25,15.43a4.61,4.61,0,0,0,3.61,1.74Z" fill="#231f20"/><path d="M120.33,67.41s1.68,5.6.75,6.37-2.86-.5-2.86-.5" fill="#fff"/><path d="M120.3,74.53a5,5,0,0,1-2.36-.83.5.5,0,1,1,.56-.84c.52.35,1.78.94,2.26.54.32-.39-.1-3.13-.91-5.84a.49.49,0,0,1,.33-.62.5.5,0,0,1,.63.33c.66,2.21,1.62,6,.59,6.9A1.69,1.69,0,0,1,120.3,74.53Z" fill="#231f20"/><path d="M122.46,56.86c1.48,2.19-1,9.6-1.72,11.8q-1.44,4.64-3.09,9.2c-.69,1.94-5.79.45-6.51-.41l-1.55,8s-2.64-.07-6.17-3.2-3.28-4.12-3.28-4.12l3-8.86s3.35,1,6.55-2.36,5-9.59,5-9.59S121,54.71,122.46,56.86Z" fill="#fff"/><path d="M109.59,86h0c-.11,0-2.87-.11-6.49-3.33-3.4-3-3.53-4.23-3.43-4.62l3-8.89a.49.49,0,0,1,.62-.32c.12,0,3.11.89,6-2.23,3.07-3.27,4.83-9.31,4.85-9.37a.5.5,0,0,1,.29-.33c.69-.28,6.75-2.69,8.38-.28h0c1.32,2,0,7-1.48,11.63l-.19.6c-.95,3.08-2,6.19-3.09,9.22a1.94,1.94,0,0,1-1.66,1.21,9.21,9.21,0,0,1-5-.95l-1.4,7.25A.49.49,0,0,1,109.59,86Zm-9-7.74c0,.19.37,1.23,3.11,3.66a11.88,11.88,0,0,0,5.44,3l1.45-7.54A.51.51,0,0,1,111,77a.5.5,0,0,1,.51.17,7.82,7.82,0,0,0,4.76,1.13q.75-.14.9-.57c1.09-3,2.13-6.11,3.08-9.18l.19-.6c.7-2.21,2.83-8.95,1.6-10.78h0c-.86-1.27-4.62-.35-7,.57-.36,1.19-2.09,6.43-5,9.55a7.36,7.36,0,0,1-6.58,2.6Z" fill="#231f20"/><path d="M118.27,75.53s-1-.41-3.44-3.56" fill="#fff"/><path d="M118.27,76a.57.57,0,0,1-.18,0c-.12,0-1.22-.56-3.66-3.73a.51.51,0,0,1,.1-.7.5.5,0,0,1,.7.09c2.24,2.92,3.23,3.41,3.24,3.41a.52.52,0,0,1,.26.66A.51.51,0,0,1,118.27,76Z" fill="#231f20"/><path d="M113.79,67.61a4.47,4.47,0,0,0-.23-2.39,6,6,0,0,0-.7-1.74,2.1,2.1,0,0,0-1.52-1,2,2,0,0,0-1.5.59,3.74,3.74,0,0,0-.85,1.42,6.93,6.93,0,0,0,1.29,6.82l-.12-.23" fill="#fff"/><path d="M110.28,71.8a.48.48,0,0,1-.38-.17,7.48,7.48,0,0,1-1.38-7.32,4.27,4.27,0,0,1,1-1.61,2.46,2.46,0,0,1,1.9-.73,2.6,2.6,0,0,1,1.89,1.23,6.75,6.75,0,0,1,.76,1.88,4.84,4.84,0,0,1,.23,2.67.51.51,0,0,1-.62.34.49.49,0,0,1-.34-.62,4,4,0,0,0-.23-2.11,5.83,5.83,0,0,0-.64-1.61A1.64,1.64,0,0,0,111.3,63a1.47,1.47,0,0,0-1.11.46,3.13,3.13,0,0,0-.73,1.23,6.48,6.48,0,0,0,.9,6,.45.45,0,0,1,.25.24l.12.23a.5.5,0,0,1-.17.64A.48.48,0,0,1,110.28,71.8Z" fill="#231f20"/><path d="M111.14,77.45a8.59,8.59,0,0,1-3.08-3.79s-1.24,4.77,2.39,7.35Z" fill="#231f20"/><path d="M110.45,81.51a.48.48,0,0,1-.29-.09c-3.87-2.75-2.64-7.68-2.58-7.89a.49.49,0,0,1,.47-.37.48.48,0,0,1,.49.35A8,8,0,0,0,111.42,77a.54.54,0,0,1,.21.51l-.69,3.57a.52.52,0,0,1-.31.37A.57.57,0,0,1,110.45,81.51Zm-2.1-6.16a6.15,6.15,0,0,0,1.76,4.74l.47-2.42A10.84,10.84,0,0,1,108.35,75.35Z" fill="#231f20"/><ellipse cx="119.21" cy="64.74" rx="1.16" ry="0.45" transform="translate(8.26 142.79) rotate(-63.63)" fill="#231f20"/><line x1="120.41" y1="64.14" x2="118.54" y2="62.5" fill="#fff"/><path d="M120.41,64.64a.54.54,0,0,1-.34-.12l-1.86-1.65a.5.5,0,0,1,0-.71.5.5,0,0,1,.7,0l1.87,1.65a.5.5,0,0,1,0,.7A.48.48,0,0,1,120.41,64.64Z" fill="#231f20"/><path d="M166.9,96.82a24.33,24.33,0,0,1,4.28-1.18c.68.08,5,.84,5.36,1.89s-2.36,9-2.36,9l-9.1-1.59Z" fill="#fff"/><path d="M174.18,107.05h-.09l-9.1-1.59a.52.52,0,0,1-.33-.21.48.48,0,0,1-.07-.39l1.82-8.14a.49.49,0,0,1,.32-.36c.87-.31,3.77-1.31,4.51-1.21,0,0,5.3.7,5.78,2.24.34,1.12-1.73,7.42-2.37,9.33A.49.49,0,0,1,174.18,107.05Zm-8.5-2.49,8.16,1.43c1.22-3.68,2.36-7.7,2.22-8.32s-3.43-1.36-4.94-1.54a24,24,0,0,0-3.8,1.07Z" fill="#231f20"/><path d="M82.5,95.51a.5.5,0,0,1-.06-1,32.79,32.79,0,0,0,7.32-1.35.5.5,0,0,1,.37.93,33,33,0,0,1-7.58,1.42Z" fill="#231f20"/><path d="M92.28,85.87a.41.41,0,0,1-.19,0c-.19-.08-19.8-7.82-27.86-7.45a.51.51,0,0,1-.52-.48.5.5,0,0,1,.48-.52c8.28-.35,27.46,7.2,28.27,7.52a.5.5,0,0,1-.18,1Z" fill="#231f20"/><path d="M141,153.82a1,1,0,0,1-.39-1.92c6.53-2.74,12.66-7.7,18.22-14.74,10.51-13.33,16.84-31.11,17.84-50,.55-10.51-.28-30.07-12-43a1,1,0,0,1,1.49-1.34c12.2,13.49,13.07,33.66,12.5,44.48-1,19.35-7.5,37.52-18.26,51.18-5.77,7.31-12.17,12.48-19,15.34A1,1,0,0,1,141,153.82Z" fill="#231f20"/><path d="M177.26,97.6a3,3,0,0,0-1.22.28,1.23,1.23,0,0,0-.69,1,.77.77,0,0,0,.79.78c-.6.06-1.33.35-1.36,1s.68,1,1.26,1.14a3.31,3.31,0,0,0-1.18.24,1.09,1.09,0,0,0-.66,1c0,.57.6.94,1.11,1.2a3,3,0,0,0-1.53.52,1.4,1.4,0,0,0-.54,1.44c.24.81,1.24,1,2.08,1.12a3,3,0,0,0,2.49-.56,2.25,2.25,0,0,0,.63-1c0-.08.16-1,.05-1a1.81,1.81,0,0,0,1.32-.91,1.08,1.08,0,0,0-.48-1.42,1.32,1.32,0,0,0,.62-2.38c.91-.48,1.31-1.94.16-2.31A7.59,7.59,0,0,0,177.26,97.6Z" fill="#fff"/><path d="M176.05,107.77a7,7,0,0,1-.79,0c-.52-.06-2.13-.23-2.5-1.47a1.87,1.87,0,0,1,.72-2,2.27,2.27,0,0,1,.64-.36,1.47,1.47,0,0,1-.42-1,1.56,1.56,0,0,1,.94-1.4h0a1.29,1.29,0,0,1-.38-1,1.34,1.34,0,0,1,.73-1.11,1.22,1.22,0,0,1-.16-.62,1.69,1.69,0,0,1,1-1.42,3.39,3.39,0,0,1,1.41-.34,5.51,5.51,0,0,0,.57-.06,6.08,6.08,0,0,1,2.47.09,1.42,1.42,0,0,1,1.05,1.27,2.09,2.09,0,0,1-.62,1.59,1.81,1.81,0,0,1-.48,2.48s0,.11.08.16a1.72,1.72,0,0,1,0,1.3A2.15,2.15,0,0,1,179,105a4.58,4.58,0,0,1-.11.81,2.82,2.82,0,0,1-.77,1.22A3,3,0,0,1,176.05,107.77Zm.1-7.61c-.43,0-.86.23-.87.47s.33.46.91.65a.48.48,0,0,1,.34.53.5.5,0,0,1-.46.44,3.06,3.06,0,0,0-1,.19.61.61,0,0,0-.38.48c0,.24.28.49.84.77a.5.5,0,0,1,.26.53.48.48,0,0,1-.43.41,2.5,2.5,0,0,0-1.28.43.93.93,0,0,0-.38.9c.13.41.67.66,1.66.77a2.52,2.52,0,0,0,2.1-.44,1.81,1.81,0,0,0,.5-.78c0-.07.06-.48.06-.67a.56.56,0,0,1,0-.12.5.5,0,0,1,.4-.58h0a1.28,1.28,0,0,0,.95-.63.69.69,0,0,0,0-.51.45.45,0,0,0-.21-.23.5.5,0,0,1-.31-.53.5.5,0,0,1,.43-.43.85.85,0,0,0,.69-.62.86.86,0,0,0-.31-.87.53.53,0,0,1-.2-.44.54.54,0,0,1,.27-.41,1.12,1.12,0,0,0,.6-1c0-.13-.06-.31-.37-.41a5,5,0,0,0-2,0l-.6.06h0a2.57,2.57,0,0,0-1,.22.74.74,0,0,0-.42.56.33.33,0,0,0,.12.23.16.16,0,0,0,.09,0h.08a.51.51,0,0,1,.5.45.5.5,0,0,1-.43.55Zm1.11-2.56h0Z" fill="#231f20"/><path d="M171.18,95.64c1.37-.06,2.75-.23,4.12-.2a1,1,0,0,1,.71.27,1.19,1.19,0,0,1,.24.55c.41,1.71.78,3.64.07,5.32a1.5,1.5,0,0,1-.41.6.84.84,0,0,1-1-.05,2.3,2.3,0,0,1-.55-.72,9.56,9.56,0,0,1-1-2.37,7,7,0,0,1-1.14,1.45,2.43,2.43,0,0,1-1.67.69" fill="#fff"/><path d="M175.46,102.84a1.5,1.5,0,0,1-.88-.31,2.71,2.71,0,0,1-.69-.87,10.51,10.51,0,0,1-.68-1.49,6,6,0,0,1-.64.7,2.86,2.86,0,0,1-2,.8.49.49,0,0,1-.47-.52.48.48,0,0,1,.52-.47,2,2,0,0,0,1.32-.56A6.68,6.68,0,0,0,173,98.77a.5.5,0,0,1,.91.15,9.68,9.68,0,0,0,.89,2.25,1.75,1.75,0,0,0,.43.56c.12.09.3.15.41.06a1,1,0,0,0,.25-.4c.66-1.56.3-3.41-.08-5a.91.91,0,0,0-.13-.33.56.56,0,0,0-.36-.11c-.85,0-1.74,0-2.6.1-.49,0-1,.08-1.48.1a.52.52,0,0,1-.52-.48.5.5,0,0,1,.48-.52l1.45-.09a26.72,26.72,0,0,1,2.7-.11,1.43,1.43,0,0,1,1.08.44,1.81,1.81,0,0,1,.35.76,9.07,9.07,0,0,1,0,5.64,2.09,2.09,0,0,1-.56.8A1.25,1.25,0,0,1,175.46,102.84Z" fill="#231f20"/><path d="M142.88,152.44a.5.5,0,0,1-.43-.24L103.74,88.35a.51.51,0,0,1,.15-.67L166.46,44.6a.5.5,0,1,1,.57.83L104.84,88.24l38.47,63.44a.5.5,0,0,1-.17.69A.48.48,0,0,1,142.88,152.44Z" fill="#231f20"/><path d="M201,97.24h0l-97.85-9.92a.5.5,0,1,1,.1-1l97.85,9.92a.5.5,0,0,1,.45.55A.51.51,0,0,1,201,97.24Z" fill="#231f20"/><path d="M92.69,85.57s13.15-1.13,13.35-.12.47,1.88-.13,2.12a17.58,17.58,0,0,1-1.74.52s1.18.27.9,1.31-2.43,1.45-2.43,1.45,1.56,0,1.16,1.34-2.17.91-2.17.91,1.34.66.84,1.31-4.88.52-6.79.44-4.84-2.07-4.84-2.07S90.29,87.43,92.69,85.57Z" fill="#fff"/><path d="M98.54,95.42c-.79,0-1.75,0-2.88-.07-2-.09-5-2.08-5.1-2.16a.53.53,0,0,1-.22-.36c0-.23-.55-5.65,2-7.66a.52.52,0,0,1,.27-.1c13.6-1.16,13.79-.19,13.89.28l.06.32c.2.93.42,2-.5,2.36a7.2,7.2,0,0,1-.75.26l.07.09a1.46,1.46,0,0,1,.14,1.15,2.45,2.45,0,0,1-1.5,1.4l.06.08a1.45,1.45,0,0,1,.16,1.32,1.77,1.77,0,0,1-1.34,1.26,1.15,1.15,0,0,1,.11.29,1,1,0,0,1-.19.84C102.67,95,102.31,95.42,98.54,95.42Zm-7.22-2.93c.67.43,2.9,1.8,4.38,1.86,5.58.24,6.33-.22,6.39-.27a2,2,0,0,0-.68-.53.5.5,0,0,1-.25-.62.49.49,0,0,1,.59-.31c.06,0,1.3.31,1.57-.58a.5.5,0,0,0,0-.44,1,1,0,0,0-.67-.25.5.5,0,0,1-.49-.46.49.49,0,0,1,.4-.53c.75-.15,1.91-.59,2-1.09a.42.42,0,0,0,0-.36.87.87,0,0,0-.5-.33.49.49,0,0,1-.39-.48.5.5,0,0,1,.38-.49s1.11-.28,1.67-.5c.15-.06,0-.82-.1-1.23l0-.17c-1-.37-7.14-.13-12.7.34C91.12,87.58,91.25,91.5,91.32,92.49Zm14.23-6.94h0Z" fill="#231f20"/><polygon points="199.83 100.85 200.78 92.31 207.61 97.39 199.83 100.85" fill="#ff0440"/><rect x="197.09" y="94.79" width="3.22" height="3.22" transform="translate(11.83 -21.31) rotate(6.33)" fill="#ff0440"/><path d="M121.39,107.35a.4.4,0,0,1-.15,0,.49.49,0,0,1-.32-.62c0-.08,2.49-8,3.21-11a.51.51,0,0,1,.6-.37.49.49,0,0,1,.37.6c-.73,3-3.2,11-3.23,11A.5.5,0,0,1,121.39,107.35Z" fill="#231f20"/><path d="M77,142a.52.52,0,0,1-.51-.45.52.52,0,0,1,.44-.58,9.36,9.36,0,0,0,7.58-6.64.52.52,0,1,1,1,.27A10.45,10.45,0,0,1,77,142Z" fill="#fff"/><path d="M270.5,158.94,250.79,238a3.21,3.21,0,0,0,2,3.79h0a3.21,3.21,0,0,0,4.22-2.24l21.24-85.72Z" fill="#231f20"/><path d="M253.9,242.48a3.72,3.72,0,0,1-3.59-4.61L270,158.82a.48.48,0,0,1,.21-.29l7.77-5.12a.48.48,0,0,1,.56,0,.49.49,0,0,1,.2.52L257.5,239.66a3.73,3.73,0,0,1-3.6,2.82Zm17-83.23-19.66,78.87a2.7,2.7,0,0,0,5.25,1.3L277.47,155Z" fill="#231f20"/><path d="M299.66,161.62l.41,91.79a3.21,3.21,0,0,0,3,3.18h0a3.2,3.2,0,0,0,3.37-3.21l-.38-99.56Z" fill="#231f20"/><path d="M303.27,257.09h-.21a3.69,3.69,0,0,1-3.49-3.67l-.41-91.78a.52.52,0,0,1,.11-.32l6.42-7.8a.48.48,0,0,1,.55-.16.52.52,0,0,1,.34.47l.38,99.56a3.68,3.68,0,0,1-3.69,3.71Zm-3.11-95.29.41,91.61a2.7,2.7,0,0,0,2.54,2.68,2.7,2.7,0,0,0,2.85-2.71l-.38-98.17Z" fill="#231f20"/><path d="M314.06,154.51c.14,1.15,25.2,71,29.08,86.22a3.15,3.15,0,0,0,4.05,2.2h0a3.14,3.14,0,0,0,2-3.76l-30.88-93.06Z" fill="#231f20"/><path d="M346.19,243.59a3.69,3.69,0,0,1-1.75-.44,3.66,3.66,0,0,1-1.78-2.3c-2.72-10.65-15.74-47.86-23.53-70.1-4.17-11.93-5.52-15.82-5.57-16.18a.58.58,0,0,1,.05-.29l4.3-8.39a.49.49,0,0,1,.48-.27.51.51,0,0,1,.44.34L349.71,239a3.66,3.66,0,0,1-2.36,4.38A3.57,3.57,0,0,1,346.19,243.59Zm-31.6-89c.33,1.12,2.63,7.67,5.49,15.85,7.79,22.25,20.82,59.49,23.55,70.19a2.63,2.63,0,0,0,3.4,1.84,2.65,2.65,0,0,0,1.72-3.15l-30.5-91.89Zm-.53-.06h0Z" fill="#231f20"/><polygon points="268.02 192.16 301 203.38 301.56 193.5 269.39 184.73 268.02 192.16" fill="#231f20"/><path d="M301,203.88a.45.45,0,0,1-.16,0l-33-11.22a.5.5,0,0,1-.33-.56l1.37-7.43a.48.48,0,0,1,.22-.33.48.48,0,0,1,.4-.06L301.69,193a.5.5,0,0,1,.37.51l-.56,9.88a.5.5,0,0,1-.22.38A.47.47,0,0,1,301,203.88Zm-32.41-12,32,10.86.5-8.82-31.26-8.51Z" fill="#231f20"/><rect x="231.55" y="107.49" width="124.86" height="6.9" transform="translate(144.58 387.37) rotate(-82.29)" fill="#231f20"/><path d="M289,173.77H289l-6.84-.92a.53.53,0,0,1-.33-.19.5.5,0,0,1-.1-.37L298.44,48.55a.5.5,0,0,1,.56-.43l6.84.93a.53.53,0,0,1,.33.19.5.5,0,0,1,.1.37L289.51,173.34A.5.5,0,0,1,289,173.77Zm-6.28-1.85,5.85.79L305.21,50l-5.85-.79Z" fill="#231f20"/><path d="M305.77,49.54C287,47,267.88,72.67,263.26,106.78s6.93,63.94,25.75,66.49,37.9-23.13,42.52-57.24S324.6,52.09,305.77,49.54Z" fill="#231f20"/><path d="M291.63,174a18.48,18.48,0,0,1-2.68-.19c-19.1-2.58-30.85-32.66-26.19-67s24-60.27,43.08-57.67S336.69,81.71,332,116.1c-2.25,16.58-7.94,31.71-16,42.6C308.63,168.62,300.07,174,291.63,174ZM303.17,49.87c-17.7,0-35.05,24.68-39.42,57-4.58,33.84,6.78,63.41,25.33,65.92,8.92,1.21,18.19-4,26.12-14.67S328.81,132.38,331,116c4.58-33.83-6.78-63.41-25.33-65.92A18.16,18.16,0,0,0,303.17,49.87Z" fill="#231f20"/><path d="M298.94,48.62c-18.83-2.55-37.9,23.13-42.52,57.24s6.93,63.93,25.76,66.48,37.89-23.12,42.51-57.24S317.76,51.17,298.94,48.62Z" fill="#fff"/><path d="M284.79,173a20,20,0,0,1-2.68-.18c-19.1-2.59-30.85-32.67-26.19-67,2.25-16.58,7.94-31.71,16-42.6S289.71,46.86,299,48.12c19.1,2.59,30.85,32.67,26.19,67.05-2.25,16.58-7.94,31.71-16,42.6C301.79,167.69,293.23,173,284.79,173ZM296.33,48.94c-8.12,0-16.4,5.19-23.58,14.85-8,10.75-13.61,25.72-15.84,42.13-4.58,33.84,6.78,63.41,25.33,65.93,8.92,1.21,18.19-4,26.12-14.68S322,131.45,324.2,115c4.58-33.84-6.78-63.41-25.33-65.93A19.7,19.7,0,0,0,296.33,48.94Z" fill="#231f20"/><path d="M283.57,162.05c-15.69-2.13-25.32-27-21.47-55.42s19.75-49.84,35.44-47.71,25.32,27,21.47,55.41S299.26,164.17,283.57,162.05Zm12.59-92.92c-12.59-1.71-25.34,15.46-28.43,38.26s4.64,42.74,17.22,44.45,25.34-15.46,28.43-38.27S308.74,70.83,296.16,69.13Z" fill="#d1d3d4"/><path d="M286.19,142.75c-9.82-1.33-15.85-16.89-13.44-34.68s12.36-31.19,22.18-29.86,15.84,16.89,13.43,34.68S296,144.08,286.19,142.75Zm7.35-54.33c-6.71-.91-13.51,8.25-15.16,20.41s2.48,22.8,9.19,23.71,13.51-8.25,15.16-20.41S300.26,89.33,293.54,88.42Z" fill="#d1d3d4"/><ellipse cx="290.56" cy="110.48" rx="12.5" ry="6.9" transform="matrix(0.13, -0.99, 0.99, 0.13, 142.08, 383.58)" fill="#d1d3d4"/></g></svg>