<svg xmlns="http://www.w3.org/2000/svg" viewBox="0 0 400 300"><g id="_142_user_status_flatline" data-name="#142_user_status_flatline"><path d="M126.54,163c-9.6-10.28-26.05-11.2-35.89-11.2s-26.29.92-35.89,11.2-9.15,25.38-9.15,25.38,22.86,5.71,45,5.71,45-5.71,45-5.71S136.14,173.27,126.54,163Z" fill="#ff0440"/><path d="M99.9,156.8l-6.56,22.65-2.69,9.34-2.71-9.35L81.39,156.8C85.83,155.48,95.46,155.48,99.9,156.8Z" fill="#231f20"/><path d="M101.52,131.11c.82-5.14,9.35-6.41,8.93-.35a8.93,8.93,0,0,1-2.27,5.69,5.3,5.3,0,0,1-5.73,1.34" fill="#fff"/><path d="M104.23,138.67a4.83,4.83,0,0,1-2-.41.51.51,0,0,1,.42-.94,4.81,4.81,0,0,0,5.15-1.23,8.49,8.49,0,0,0,2.13-5.36c.14-2-.8-3.27-2.56-3.47a5,5,0,0,0-5.36,3.93.51.51,0,1,1-1-.16,6,6,0,0,1,6.49-4.8c1.81.21,3.68,1.52,3.46,4.57a9.47,9.47,0,0,1-2.42,6A6.11,6.11,0,0,1,104.23,138.67Z" fill="#231f20"/><path d="M80.25,131.11c-.82-5.14-9.35-6.41-8.93-.35a8.93,8.93,0,0,0,2.27,5.69,5.3,5.3,0,0,0,5.73,1.34" fill="#fff"/><path d="M77.54,138.67a6.11,6.11,0,0,1-4.31-1.86,9.49,9.49,0,0,1-2.43-6c-.21-3.05,1.66-4.36,3.47-4.57a6,6,0,0,1,6.49,4.8.51.51,0,0,1-.42.59.52.52,0,0,1-.6-.43,5,5,0,0,0-5.35-3.93c-1.76.2-2.7,1.46-2.56,3.47A8.49,8.49,0,0,0,74,136.09a4.81,4.81,0,0,0,5.15,1.23.51.51,0,0,1,.68.26.52.52,0,0,1-.26.68A4.83,4.83,0,0,1,77.54,138.67Z" fill="#231f20"/><path d="M81.39,156.8s2.31,5,9,5a10.86,10.86,0,0,0,9.46-5L99,137H82.29Z" fill="#fff"/><path d="M90.44,162.34c-7,0-9.42-5.11-9.52-5.33a.6.6,0,0,1,0-.24l.9-19.75a.52.52,0,0,1,.52-.49H99a.52.52,0,0,1,.52.49l.9,19.75a.6.6,0,0,1-.06.27A11.29,11.29,0,0,1,90.44,162.34Zm-8.53-5.65a9.29,9.29,0,0,0,8.53,4.62,10.33,10.33,0,0,0,8.94-4.64l-.87-19.11H82.78Z" fill="#231f20"/><path d="M82.29,145.5a13.7,13.7,0,0,0,5,4.42c3.31,1.84,8.26,3.9,12.28,3.28L99,144.85a38,38,0,0,1-8.87.06,25.51,25.51,0,0,1-7.64-1.48C82,143.25,81.78,144.69,82.29,145.5Z" fill="#231f20"/><path d="M98.09,153.81c-4.09,0-8.53-2.09-11-3.45a13.94,13.94,0,0,1-5.23-4.6,2.54,2.54,0,0,1,0-2.59.67.67,0,0,1,.8-.2,25,25,0,0,0,7.49,1.44,37.09,37.09,0,0,0,8.75,0,.51.51,0,0,1,.38.1.48.48,0,0,1,.18.35l.66,8.35a.49.49,0,0,1-.42.53A10.57,10.57,0,0,1,98.09,153.81ZM82.54,144a1.88,1.88,0,0,0,.17,1.23h0a13,13,0,0,0,4.87,4.25c2.58,1.42,7.41,3.69,11.5,3.28l-.58-7.36a39,39,0,0,1-8.45,0A26.71,26.71,0,0,1,82.54,144Zm-.29-.11h0Z" fill="#231f20"/><path d="M90.2,146.82h1.37A11.78,11.78,0,0,0,103.35,135V116.38s-4.09-5-12.47-5-12.46,5-12.46,5V135A11.78,11.78,0,0,0,90.2,146.82Z" fill="#fff"/><path d="M90.88,111.34c8.38,0,12.47,5,12.47,5V135a11.78,11.78,0,0,1-11.78,11.78H90.2A11.78,11.78,0,0,1,78.42,135V116.38s4.09-5,12.46-5m0-1c-8.76,0-13.08,5.2-13.26,5.42a1,1,0,0,0-.24.65V135A12.83,12.83,0,0,0,90.2,147.85h1.37A12.83,12.83,0,0,0,104.39,135V116.38a1,1,0,0,0-.24-.65c-.18-.22-4.5-5.42-13.27-5.42Z" fill="#231f20"/><polygon points="90.65 167.04 87.47 164.59 90.65 162.14 93.82 164.59 90.65 167.04" fill="#fff"/><polygon points="93.34 179.45 90.65 188.79 87.94 179.44 89.58 165.71 89.61 165.42 91.68 165.42 91.71 165.72 93.34 179.45" fill="#fff"/><path d="M65,191.19a.51.51,0,0,1-.51-.46l-2.57-25a.52.52,0,0,1,1-.1l2.56,25a.51.51,0,0,1-.46.57Z" fill="#231f20"/><path d="M116.26,191.19h-.05a.52.52,0,0,1-.46-.57l2.56-25a.52.52,0,0,1,1,.1l-2.56,25A.52.52,0,0,1,116.26,191.19Z" fill="#231f20"/><path d="M78.12,132.44c.3-5.72-.09-13,1.24-14s1.88.7,3.28-.54.76-1.67.76-1.67,4.75-1.52,6.84-1.14,6.81,1.78,9.53-.06c0,0,3.49,4.33,3.62,6.8s-.51,9.21,0,9.11,3.36-5.37,4.12-8a11.14,11.14,0,0,0-5.31-12.55s.34-2.94-6.66-4.74-14.42.62-16.66,2.82c-2.51,2.47-4.89,8.38-5,11.7s1,3.7,1,3.7Z" fill="#fff"/><path d="M78.12,133a.51.51,0,0,1-.48-.33l-3.12-8.36c-.44-.31-1.21-1.26-1.13-4.06.09-3.63,2.63-9.6,5.13-12.06s10.2-4.74,17.14-3c6,1.54,6.92,4,7,4.94a11.59,11.59,0,0,1,5.31,13c-.57,1.93-3.5,8.13-4.52,8.32a.66.66,0,0,1-.49-.13c-.36-.32-.4-1-.22-5.11.08-1.66.15-3.37.1-4.35-.09-1.72-2.16-4.75-3.24-6.15-2.52,1.36-6.23.58-8.49.09l-1-.2c-1.44-.26-4.52.51-6.09,1A2.51,2.51,0,0,1,83,118.28a2,2,0,0,1-2.21.43.94.94,0,0,0-1.09.12c-.76.6-.84,5-.9,8.62,0,1.68-.06,3.4-.15,5a.51.51,0,0,1-.43.49Zm12.24-27.39c-5.16,0-9.61,1.84-11.11,3.32-2.51,2.47-4.75,8.3-4.83,11.34-.07,2.76.71,3.21.72,3.22a.41.41,0,0,1,.28.29l2.28,6.1c0-.8,0-1.6,0-2.39.09-5.28.2-8.56,1.29-9.42a1.93,1.93,0,0,1,2-.29,1,1,0,0,0,1.22-.22c.62-.56.72-.85.73-.93a.54.54,0,0,1-.14-.43.52.52,0,0,1,.36-.42c.19-.06,4.89-1.55,7.08-1.15.3,0,.64.12,1,.21,2.23.47,6,1.26,8.12-.2a.53.53,0,0,1,.69.11c.15.18,3.6,4.49,3.74,7.09,0,1,0,2.77-.1,4.45,0,1.15-.11,2.58-.1,3.51a36.61,36.61,0,0,0,3.31-6.92,10.55,10.55,0,0,0-5.08-12,.51.51,0,0,1-.25-.51s.09-2.54-6.28-4.18A20.3,20.3,0,0,0,90.36,105.56Zm-7.25,11.09Z" fill="#231f20"/><circle cx="123.24" cy="179.32" r="15.63" fill="#fff"/><path d="M123.24,163.69a15.63,15.63,0,1,1-15.62,15.63,15.63,15.63,0,0,1,15.62-15.63m0-1a16.66,16.66,0,1,0,16.66,16.66,16.67,16.67,0,0,0-16.66-16.66Z" fill="#231f20"/><path d="M112.1,180.32c.15-.17.29-.36.45-.51.56-.52,1.13-1,1.7-1.53a.71.71,0,0,1,1.15,0l4.33,4.41a.73.73,0,0,0,1.22,0l10.15-10.1a.73.73,0,0,1,1.22,0l1.78,1.8a.71.71,0,0,1,0,1.13l-13.22,13.19a.7.7,0,0,1-1.1,0l-7.43-7.68a3.77,3.77,0,0,1-.26-.39Z" fill="#d1d3d4"/><path d="M234.3,163c-9.6-10.28-26.05-11.2-35.89-11.2s-26.29.92-35.89,11.2-9.15,25.38-9.15,25.38,22.86,5.71,45,5.71,45-5.71,45-5.71S243.9,173.27,234.3,163Z" fill="#ff0440"/><path d="M207.66,156.8l-6.55,22.65-2.7,9.34-2.71-9.35-6.55-22.64C193.59,155.48,203.22,155.48,207.66,156.8Z" fill="#231f20"/><path d="M209.28,131.11c.82-5.14,9.35-6.41,8.93-.35a8.93,8.93,0,0,1-2.27,5.69,5.29,5.29,0,0,1-5.73,1.34" fill="#fff"/><path d="M212,138.67a4.83,4.83,0,0,1-2-.41.51.51,0,1,1,.42-.94,4.81,4.81,0,0,0,5.15-1.23,8.49,8.49,0,0,0,2.13-5.36c.14-2-.79-3.27-2.56-3.47a5,5,0,0,0-5.35,3.93.52.52,0,0,1-.59.43.51.51,0,0,1-.43-.59,6,6,0,0,1,6.49-4.8c1.82.21,3.68,1.52,3.47,4.57a9.53,9.53,0,0,1-2.42,6A6.15,6.15,0,0,1,212,138.67Z" fill="#231f20"/><path d="M188,131.11c-.82-5.14-9.35-6.41-8.93-.35a9,9,0,0,0,2.27,5.69,5.3,5.3,0,0,0,5.73,1.34" fill="#fff"/><path d="M185.3,138.67a6.11,6.11,0,0,1-4.31-1.86,9.47,9.47,0,0,1-2.42-6c-.22-3.05,1.65-4.36,3.46-4.57a6,6,0,0,1,6.49,4.8.51.51,0,1,1-1,.16,5,5,0,0,0-5.36-3.93c-1.76.2-2.69,1.46-2.56,3.47a8.49,8.49,0,0,0,2.13,5.36,4.81,4.81,0,0,0,5.15,1.23.51.51,0,1,1,.42.94A4.83,4.83,0,0,1,185.3,138.67Z" fill="#231f20"/><path d="M189.15,156.8s2.31,5,9,5a10.86,10.86,0,0,0,9.46-5l-.9-19.76H190.05Z" fill="#fff"/><path d="M198.2,162.34c-7,0-9.42-5.11-9.52-5.33a.47.47,0,0,1,0-.24l.9-19.75a.52.52,0,0,1,.51-.49h16.71a.52.52,0,0,1,.52.49l.9,19.75a.6.6,0,0,1-.06.27A11.29,11.29,0,0,1,198.2,162.34Zm-8.53-5.65a9.29,9.29,0,0,0,8.53,4.62,10.33,10.33,0,0,0,8.94-4.64l-.87-19.11H190.54Z" fill="#231f20"/><path d="M190.05,145.5a13.7,13.7,0,0,0,5,4.42c3.31,1.84,8.26,3.9,12.28,3.28l-.66-8.35a38,38,0,0,1-8.86.06,25.52,25.52,0,0,1-7.65-1.48C189.8,143.25,189.54,144.69,190.05,145.5Z" fill="#231f20"/><path d="M205.85,153.81c-4.09,0-8.53-2.09-11-3.45a13.94,13.94,0,0,1-5.23-4.6,2.54,2.54,0,0,1,0-2.59.67.67,0,0,1,.8-.2,25,25,0,0,0,7.49,1.44,37.09,37.09,0,0,0,8.75,0,.51.51,0,0,1,.38.1.49.49,0,0,1,.19.35l.66,8.35a.5.5,0,0,1-.42.53A10.81,10.81,0,0,1,205.85,153.81ZM190.3,144a1.88,1.88,0,0,0,.17,1.23h0a13,13,0,0,0,4.87,4.25c2.58,1.42,7.41,3.68,11.51,3.28l-.59-7.36a39,39,0,0,1-8.45,0A26.78,26.78,0,0,1,190.3,144Zm-.28-.11h0Z" fill="#231f20"/><path d="M198,146.82h1.37A11.78,11.78,0,0,0,211.11,135V116.38s-4.09-5-12.46-5-12.47,5-12.47,5V135A11.78,11.78,0,0,0,198,146.82Z" fill="#fff"/><path d="M198.65,111.34c8.37,0,12.46,5,12.46,5V135a11.78,11.78,0,0,1-11.78,11.78H198A11.78,11.78,0,0,1,186.18,135V116.38s4.09-5,12.47-5m0-1c-8.77,0-13.09,5.2-13.27,5.42a1,1,0,0,0-.23.65V135A12.82,12.82,0,0,0,198,147.85h1.37A12.83,12.83,0,0,0,212.15,135V116.38a1.07,1.07,0,0,0-.23-.65c-.18-.22-4.51-5.42-13.27-5.42Z" fill="#231f20"/><polygon points="198.41 167.04 195.23 164.59 198.41 162.14 201.58 164.59 198.41 167.04" fill="#fff"/><polygon points="201.11 179.45 198.41 188.79 195.71 179.44 197.34 165.71 197.37 165.42 199.44 165.42 199.47 165.72 201.11 179.45" fill="#fff"/><path d="M172.79,191.19a.51.51,0,0,1-.51-.46l-2.57-25a.52.52,0,0,1,.46-.56.51.51,0,0,1,.57.46l2.56,25a.51.51,0,0,1-.46.57Z" fill="#231f20"/><path d="M224,191.19H224a.52.52,0,0,1-.46-.57l2.56-25a.52.52,0,0,1,1,.1l-2.56,25A.52.52,0,0,1,224,191.19Z" fill="#231f20"/><path d="M185.88,132.44c.3-5.72-.09-13,1.24-14s1.88.7,3.28-.54.76-1.67.76-1.67,4.75-1.52,6.84-1.14,6.81,1.78,9.53-.06c0,0,3.49,4.33,3.62,6.8s-.51,9.21,0,9.11,3.36-5.37,4.12-8A11.14,11.14,0,0,0,210,110.43s.34-2.94-6.66-4.74-14.42.62-16.66,2.82c-2.5,2.47-4.89,8.38-5,11.7s1,3.7,1,3.7Z" fill="#fff"/><path d="M185.88,133a.51.51,0,0,1-.48-.33l-3.12-8.36c-.44-.31-1.2-1.26-1.13-4.06.09-3.63,2.63-9.6,5.13-12.06s10.2-4.74,17.14-3c6,1.54,6.92,4,7,4.94a11.57,11.57,0,0,1,5.31,13c-.57,1.93-3.49,8.13-4.52,8.32a.63.63,0,0,1-.48-.13c-.37-.32-.4-1-.23-5.11.08-1.66.15-3.37.1-4.35-.09-1.72-2.16-4.75-3.24-6.15-2.52,1.36-6.23.58-8.49.09l-1-.2c-1.44-.26-4.52.51-6.09,1a2.51,2.51,0,0,1-1.08,1.72,2,2,0,0,1-2.21.43.94.94,0,0,0-1.09.12c-.76.6-.84,5-.9,8.63,0,1.67-.06,3.39-.14,5a.53.53,0,0,1-.44.49Zm25-2.47Zm-12.8-24.92c-5.16,0-9.61,1.84-11.11,3.32-2.51,2.47-4.75,8.3-4.83,11.34-.07,2.76.72,3.21.72,3.22a.41.41,0,0,1,.28.29l2.28,6.1c0-.8,0-1.6,0-2.39.09-5.28.2-8.56,1.29-9.42a1.93,1.93,0,0,1,2-.29,1,1,0,0,0,1.22-.22c.63-.56.72-.85.73-.93a.54.54,0,0,1-.14-.43.52.52,0,0,1,.36-.42c.2-.06,4.89-1.55,7.08-1.15.3,0,.65.12,1,.21,2.23.47,6,1.26,8.12-.2a.53.53,0,0,1,.69.11c.15.18,3.6,4.49,3.74,7.09.06,1,0,2.77-.09,4.45-.05,1.15-.12,2.58-.11,3.51a36.9,36.9,0,0,0,3.31-6.92,10.55,10.55,0,0,0-5.08-12,.51.51,0,0,1-.25-.51s.09-2.54-6.28-4.18A20.3,20.3,0,0,0,198.12,105.56Zm-7.25,11.09Z" fill="#231f20"/><circle cx="231" cy="179.32" r="15.63" fill="#fff"/><path d="M231,163.69a15.63,15.63,0,1,1-15.62,15.63A15.63,15.63,0,0,1,231,163.69m0-1a16.66,16.66,0,1,0,16.66,16.66A16.67,16.67,0,0,0,231,162.66Z" fill="#231f20"/><path d="M231,182.75l-5.28,5.3-3.46-3.47,5.22-5.21-5.25-5.24,3.53-3.53,5.21,5.22,5.22-5.24,3.45,3.46-5.18,5.19,5.28,5.29L236.27,188Z" fill="#d1d3d4"/><path d="M342.06,163c-9.6-10.28-26.05-11.2-35.89-11.2s-26.29.92-35.89,11.2-9.15,25.38-9.15,25.38,22.86,5.71,45,5.71,45-5.71,45-5.71S351.66,173.27,342.06,163Z" fill="#ff0440"/><path d="M315.42,156.8l-6.55,22.65-2.7,9.34-2.7-9.35-6.56-22.64C301.35,155.48,311,155.48,315.42,156.8Z" fill="#231f20"/><path d="M317,131.11c.82-5.14,9.36-6.41,8.93-.35a8.93,8.93,0,0,1-2.27,5.69,5.29,5.29,0,0,1-5.73,1.34" fill="#fff"/><path d="M319.75,138.67a4.83,4.83,0,0,1-2-.41.52.52,0,0,1-.26-.68.52.52,0,0,1,.69-.26,4.79,4.79,0,0,0,5.14-1.23,8.49,8.49,0,0,0,2.13-5.36c.14-2-.79-3.27-2.56-3.47a5,5,0,0,0-5.35,3.93.52.52,0,0,1-.59.43.51.51,0,0,1-.43-.59,6,6,0,0,1,6.49-4.8c1.82.21,3.68,1.52,3.47,4.57a9.47,9.47,0,0,1-2.42,6A6.13,6.13,0,0,1,319.75,138.67Z" fill="#231f20"/><path d="M295.78,131.11c-.83-5.14-9.36-6.41-8.94-.35a8.94,8.94,0,0,0,2.28,5.69,5.28,5.28,0,0,0,5.72,1.34" fill="#fff"/><path d="M293.06,138.67a6.11,6.11,0,0,1-4.31-1.86,9.47,9.47,0,0,1-2.42-6c-.22-3.05,1.65-4.36,3.46-4.57a6,6,0,0,1,6.5,4.8.52.52,0,0,1-.43.59.51.51,0,0,1-.59-.43,5,5,0,0,0-5.36-3.93c-1.76.2-2.69,1.46-2.55,3.47a8.47,8.47,0,0,0,2.12,5.36,4.81,4.81,0,0,0,5.15,1.23.51.51,0,1,1,.42.94A4.83,4.83,0,0,1,293.06,138.67Z" fill="#231f20"/><path d="M296.91,156.8s2.31,5,9,5a10.88,10.88,0,0,0,9.47-5L314.52,137H297.81Z" fill="#fff"/><path d="M306,162.34c-7,0-9.42-5.11-9.52-5.33a.47.47,0,0,1,0-.24l.9-19.75a.52.52,0,0,1,.51-.49h16.71a.52.52,0,0,1,.52.49l.9,19.75a.6.6,0,0,1-.06.27A11.29,11.29,0,0,1,306,162.34Zm-8.53-5.65a9.29,9.29,0,0,0,8.53,4.62,10.33,10.33,0,0,0,8.94-4.64L314,137.56H298.31Z" fill="#231f20"/><path d="M297.81,145.5a13.7,13.7,0,0,0,5.05,4.42c3.31,1.84,8.26,3.9,12.28,3.28l-.66-8.35a38,38,0,0,1-8.86.06,25.52,25.52,0,0,1-7.65-1.48C297.56,143.25,297.3,144.69,297.81,145.5Z" fill="#231f20"/><path d="M313.61,153.81c-4.09,0-8.53-2.09-11-3.45a13.94,13.94,0,0,1-5.23-4.6,2.57,2.57,0,0,1,0-2.59.67.67,0,0,1,.8-.2,25.09,25.09,0,0,0,7.49,1.44,37.09,37.09,0,0,0,8.75,0,.5.5,0,0,1,.38.1.49.49,0,0,1,.19.35l.66,8.35a.5.5,0,0,1-.42.53A10.71,10.71,0,0,1,313.61,153.81ZM298.06,144a1.88,1.88,0,0,0,.17,1.23h0a13,13,0,0,0,4.87,4.25c2.58,1.42,7.41,3.69,11.51,3.28l-.58-7.36a39,39,0,0,1-8.46,0A26.78,26.78,0,0,1,298.06,144Zm-.28-.11h0Z" fill="#231f20"/><path d="M305.72,146.82h1.37A11.79,11.79,0,0,0,318.88,135V116.38s-4.1-5-12.47-5-12.47,5-12.47,5V135A11.78,11.78,0,0,0,305.72,146.82Z" fill="#fff"/><path d="M306.41,111.34c8.37,0,12.47,5,12.47,5V135a11.79,11.79,0,0,1-11.79,11.78h-1.37A11.78,11.78,0,0,1,293.94,135V116.38s4.1-5,12.47-5m0-1c-8.77,0-13.09,5.2-13.27,5.42a1,1,0,0,0-.23.65V135a12.82,12.82,0,0,0,12.81,12.81h1.37A12.83,12.83,0,0,0,319.91,135V116.38a1,1,0,0,0-.23-.65c-.18-.22-4.51-5.42-13.27-5.42Z" fill="#231f20"/><polygon points="306.17 167.04 302.99 164.59 306.17 162.14 309.35 164.59 306.17 167.04" fill="#fff"/><polygon points="308.87 179.45 306.17 188.79 303.47 179.44 305.1 165.71 305.13 165.42 307.2 165.42 307.24 165.72 308.87 179.45" fill="#fff"/><path d="M280.55,191.19a.52.52,0,0,1-.51-.46l-2.56-25a.51.51,0,1,1,1-.1l2.56,25a.51.51,0,0,1-.46.57Z" fill="#231f20"/><path d="M331.79,191.19h-.06a.52.52,0,0,1-.46-.57l2.57-25a.5.5,0,0,1,.56-.46.51.51,0,0,1,.46.56l-2.56,25A.52.52,0,0,1,331.79,191.19Z" fill="#231f20"/><path d="M293.64,132.44c.3-5.72-.08-13,1.24-14s1.88.7,3.28-.54.77-1.67.77-1.67,4.74-1.52,6.83-1.14,6.82,1.78,9.53-.06c0,0,3.49,4.33,3.63,6.8s-.52,9.21,0,9.11,3.36-5.37,4.12-8a11.16,11.16,0,0,0-5.32-12.55s.34-2.94-6.66-4.74-14.42.62-16.65,2.82c-2.51,2.47-4.9,8.38-5,11.7s1,3.7,1,3.7Z" fill="#fff"/><path d="M293.64,133a.51.51,0,0,1-.48-.33L290,124.26c-.44-.31-1.2-1.26-1.13-4.06.09-3.63,2.63-9.6,5.13-12.06s10.2-4.74,17.15-3c6,1.54,6.91,4,7,4.94a11.57,11.57,0,0,1,5.31,13c-.57,1.93-3.49,8.13-4.52,8.32a.64.64,0,0,1-.48-.13c-.37-.32-.4-1-.22-5.11.07-1.66.14-3.37.09-4.35-.09-1.72-2.16-4.75-3.23-6.15-2.53,1.36-6.24.58-8.5.09l-1-.2c-1.44-.26-4.52.51-6.09,1a2.51,2.51,0,0,1-1.08,1.72,2,2,0,0,1-2.21.43.94.94,0,0,0-1.09.12c-.76.6-.84,5-.9,8.63,0,1.67-.06,3.39-.14,5a.53.53,0,0,1-.44.49Zm25.05-2.47Zm-12.81-24.92c-5.16,0-9.61,1.84-11.11,3.32-2.51,2.47-4.75,8.3-4.83,11.34-.07,2.76.72,3.21.72,3.22a.44.44,0,0,1,.29.29l2.27,6.1c0-.8,0-1.6,0-2.39.09-5.28.2-8.56,1.3-9.42a1.92,1.92,0,0,1,2-.29,1,1,0,0,0,1.22-.22c.63-.56.72-.85.73-.93a.53.53,0,0,1,.22-.85c.2-.06,4.89-1.55,7.08-1.15.3,0,.65.12,1,.21,2.23.47,6,1.26,8.11-.2a.53.53,0,0,1,.69.11c.15.18,3.6,4.49,3.74,7.09.06,1,0,2.77-.09,4.45,0,1.15-.12,2.58-.11,3.51a36.9,36.9,0,0,0,3.31-6.92,10.55,10.55,0,0,0-5.08-12,.51.51,0,0,1-.25-.51s.1-2.54-6.28-4.18A20.25,20.25,0,0,0,305.88,105.56Zm-7.25,11.09Z" fill="#231f20"/><circle cx="338.77" cy="179.32" r="15.63" fill="#fff"/><path d="M338.77,163.69a15.63,15.63,0,1,1-15.63,15.63,15.62,15.62,0,0,1,15.63-15.63m0-1a16.66,16.66,0,1,0,16.65,16.66,16.67,16.67,0,0,0-16.65-16.66Z" fill="#231f20"/><path d="M336.42,181.67c0-1.83.81-3,2.93-4.25,1.91-1.14,2.48-1.77,2.48-2.78,0-1.23-1.05-2-2.69-2-2,0-3.29,1.32-3.44,3.65l-4.43-.33c.15-4.45,3.29-7.35,7.9-7.35,4.1,0,7.09,2.48,7.09,5.86,0,2.06-1,3.53-3.41,5-2,1.23-2.39,1.74-2.39,2.78v1.05h-4Zm-.3,3.7h4.78V190h-4.78Z" fill="#d1d3d4"/></g></svg>